<?xml version="1.0" encoding="utf-8"?>
<!-- Generator: Adobe Illustrator 22.0.1, SVG Export Plug-In . SVG Version: 6.00 Build 0)  -->
<svg version="1.1" id="Layer_1" xmlns="http://www.w3.org/2000/svg" xmlns:xlink="http://www.w3.org/1999/xlink" x="0px" y="0px"
	 viewBox="0 0 213.4 80.5" style="enable-background:new 0 0 213.4 80.5;" xml:space="preserve">
<style type="text/css">
	.st0{fill:#D4D2CD;}
	.st1{fill:#83CEC1;}
</style>
<g>
	<path class="st0" d="M8.6,53.4c-0.7,0-1.3,0-2,0c-0.7,0-1.2,0-1.8,0.1c-0.5,0-1,0.1-1.3,0.1c-0.4,0-0.7,0.1-0.9,0.1
		c-0.2,0-0.4,0-0.4,0c-0.8,0-1.2-0.4-1.2-1.3c0-0.2,0-0.4,0-0.5c0-0.1,0.1-0.3,0.1-0.4s0.1-0.2,0.1-0.3c0-0.1,0.1-0.2,0.3-0.2
		c0.1-0.1,0.2-0.1,0.3-0.1c0,0,0.2-0.1,0.4-0.1c0.2,0,0.4-0.1,0.4-0.1s0.2-0.1,0.5-0.1c0.3,0,0.5-0.1,0.6-0.1
		c0.9-0.1,1.6-0.4,2.1-0.7c0.5-0.4,0.9-1.1,1.3-2.1c2.8-6.2,5.9-12.6,9.1-19.1c5.8-10.9,8.8-16.5,9-16.8c0.1-0.1,0.2-0.2,0.4-0.3
		C26,11.2,26.5,11,27,11c1.1,0,1.9,0.8,2.5,2.3l8.6,20c4.4,10.4,6.6,15.7,6.7,15.8c0.4,0.6,1,1,1.7,1.2c0.7,0.2,1.3,0.3,1.9,0.4
		c0.5,0.1,0.8,0.3,0.9,0.7c0.1,0.3,0.1,0.6,0.1,0.9c0,0.9-0.4,1.4-1.2,1.4l-1-0.1c-0.7,0-1.6-0.1-2.7-0.1s-2.2-0.1-3.3-0.1
		c-1.3,0-2.5,0-3.5,0.1s-1.9,0.1-2.5,0.2c-0.6,0.1-1,0.1-1.1,0.1c-0.8,0-1.2-0.4-1.2-1.1c0-0.2,0-0.4,0-0.6c0-0.2,0.1-0.3,0.1-0.5
		c0.1-0.1,0.1-0.3,0.1-0.3c0-0.1,0.1-0.2,0.3-0.2c0.2-0.1,0.3-0.1,0.4-0.2c0.1,0,0.2-0.1,0.5-0.1c0.2,0,0.4-0.1,0.6-0.1
		c0.1,0,0.4-0.1,0.7-0.1s0.6-0.1,0.9-0.1c0.8-0.2,1.2-0.5,1.2-1.2c0-0.6-0.5-2.3-1.4-5.3c-1-3-2-5.6-3.1-8.1
		c-0.2-0.4-0.5-0.6-1.1-0.6H18.1c-0.6,0-1.1,0.2-1.3,0.7c-1.4,2.5-2.6,5.1-3.7,7.8c-1.1,2.7-1.6,4.4-1.6,5c0,0.7,0.2,1.1,0.7,1.4
		c0.4,0.2,1.2,0.4,2.4,0.5c0.4,0,0.6,0,0.8,0.1c0.9,0.1,1.3,0.6,1.3,1.6c0,0.9-0.4,1.4-1.3,1.4c-0.1,0-0.5,0-1-0.1
		c-0.6-0.1-1.3-0.1-2.3-0.2S9.8,53.4,8.6,53.4z M30.9,32.4c0.4,0,0.5-0.2,0.5-0.5c0-0.3-0.8-2.3-2.3-5.9c-1.5-3.6-2.5-5.8-3-6.5
		c-0.2-0.3-0.4-0.4-0.6-0.4c-0.4,0-0.7,0.4-1.1,1.1c-4.1,7.7-6.2,11.7-6.2,11.9c0,0.2,0.1,0.3,0.4,0.3L30.9,32.4L30.9,32.4z"/>
	<path class="st0" d="M51.4,32.9c0-1.2,0.9-2.4,2.8-3.6s4-1.8,6.3-1.8c0.7,0,1.5,0.1,2.3,0.2c0.8,0.2,1.7,0.4,2.6,0.8
		c1,0.4,1.8,1.1,2.5,2c0.7,1,1.1,2.1,1.2,3.5c0.1,0.9,0.1,1.7,0.1,2.2v11.6c0,0.7,0.1,1.2,0.4,1.7c0.3,0.4,0.5,0.7,0.8,0.8
		c0.3,0.1,0.5,0.1,0.8,0.1c0.5,0,1-0.2,1.3-0.5c0.3-0.3,0.6-0.6,0.7-0.9c0.2-0.3,0.4-0.5,0.6-0.5c0.4,0,0.5,0.3,0.5,0.8
		c0,0.9-0.4,2-1.3,3.1c-0.9,1.1-2,1.7-3.3,1.7c-0.5,0-1-0.1-1.4-0.2c-0.5-0.2-0.8-0.4-1.1-0.6c-0.3-0.3-0.6-0.5-0.8-0.8
		c-0.2-0.2-0.4-0.5-0.6-0.7l-0.2-0.2c0,0-0.1,0-0.1,0s0,0-0.1,0c-0.1,0-0.1,0-0.2,0.1c0,0.1-0.2,0.2-0.4,0.5c-0.2,0.2-0.6,0.5-1,0.8
		c-1.8,1.1-3.6,1.7-5.6,1.7c-2,0-3.6-0.6-4.9-1.9c-1.2-1.3-1.9-2.9-1.9-4.7v-0.1c0-2.3,0.8-4,2.5-5.3c0.6-0.5,1.3-0.9,2.3-1.3
		c0.9-0.4,1.9-0.7,2.8-0.8c0.9-0.2,1.8-0.4,2.6-0.5c0.8-0.1,1.5-0.2,2-0.3l0.8-0.1c0.3-0.1,0.5-0.3,0.5-0.8v-2.1
		c0-2-0.5-3.6-1.4-4.7c-1-1-2.2-1.6-3.5-1.6c-2,0-3.6,1.3-4.9,3.9c-0.4,0.5-0.8,0.7-1.4,0.7c-0.7,0-1.2-0.2-1.8-0.6
		C51.7,34,51.4,33.5,51.4,32.9z M59.8,51.2c0.9,0,1.8-0.2,2.6-0.6c0.8-0.4,1.4-0.7,1.7-1c0.3-0.3,0.6-0.6,0.8-0.8
		c0.2-0.3,0.4-0.8,0.4-1.3v-1.4v-2.4c0-0.7,0-1.2-0.1-1.4c-0.1-0.2-0.2-0.3-0.5-0.3c-1,0-2.2,0.2-3.7,0.5c-1.5,0.3-2.6,0.9-3.5,1.7
		c-0.9,0.8-1.4,1.8-1.4,3.2c0,1.5,0.4,2.6,1.2,3.3C57.8,50.9,58.6,51.2,59.8,51.2z"/>
	<path class="st0" d="M80.6,12.5c1.2,0,3-0.1,5.2-0.4c2.3-0.3,4-0.4,5.2-0.4c4.3,0,7.6,0.8,9.9,2.4c2.5,1.8,3.7,4.1,3.7,7
		c0,1.8-0.5,3.6-1.6,5.3s-2.4,3-4.1,4.1l-0.2,0.2c0,0,0.1,0.1,0.2,0.2c2.3,0.4,4.3,1.6,5.9,3.5c1.6,1.9,2.4,4.2,2.4,6.7
		c0,2.7-0.8,5-2.3,7c-1.5,2-3.3,3.5-5.3,4.4c-2,0.9-4.4,1.4-7.2,1.4c-0.9,0-2.3-0.1-4.1-0.2c-1.8-0.1-3.2-0.2-4.1-0.2
		c-0.7,0-1.7,0-3.2,0.1c-1.5,0-2.7,0.1-3.6,0.1h-0.1c-0.2,0-0.4,0-0.6-0.1c-0.1,0-0.3-0.2-0.4-0.4c-0.1-0.2-0.2-0.5-0.2-0.9
		c0-0.4,0.1-0.7,0.4-0.8c0.3-0.1,1-0.3,2.1-0.7c0.3,0,0.6-0.1,0.8-0.1c0.3,0,0.5-0.1,0.6-0.1s0.3-0.2,0.4-0.4
		c0.1-0.2,0.2-0.4,0.2-0.7V16.7c0-0.7-0.2-1.2-0.6-1.4c-0.4-0.2-1.1-0.4-2.1-0.4c-0.1,0-0.2,0-0.3,0c-0.7,0-1-0.5-1-1.4
		c0-0.6,0.4-1,1.1-1c0,0,0.2,0,0.4,0c0.2,0,0.6,0,1,0C79.6,12.5,80.1,12.5,80.6,12.5z M99.3,22.4c0-0.8-0.1-1.7-0.4-2.5
		c-0.3-0.9-0.7-1.7-1.3-2.6s-1.5-1.6-2.8-2.1s-2.7-0.8-4.3-0.8c-2.2,0-3.6,0.2-4.2,0.7c-0.2,0.2-0.3,0.4-0.3,0.8v0.1v13
		c0,0.5,0.2,0.8,0.6,0.8h2.7h0.8c4.2,0,7-1.3,8.3-3.9C99,24.7,99.3,23.5,99.3,22.4z M90.6,50.8c3.2,0,5.8-0.8,8.1-2.5
		c2.2-1.7,3.3-4,3.3-7c0-2-0.6-3.8-1.7-5.5s-2.9-2.8-5.3-3.3c-1.3-0.3-3-0.4-5-0.4h-3c-0.6,0-0.9,0.3-0.9,0.9v15.3
		c0,0.4,0,0.8,0.1,1s0.2,0.5,0.5,0.7c0.3,0.3,0.7,0.4,1.2,0.5C88.9,50.7,89.9,50.8,90.6,50.8z"/>
	<path class="st0" d="M117.3,29.8c0,0.2,0.1,0.4,0.3,0.4c0.1,0,0.4-0.2,1.1-0.6c0.7-0.4,1.6-0.8,2.9-1.2s2.7-0.6,4.1-0.6
		c3.5,0,6.3,1.2,8.4,3.7c2.1,2.4,3.2,5.7,3.2,9.6c0,1.5-0.2,3-0.5,4.4s-1.2,2.9-2.4,4.5c-1.3,1.6-2.9,2.7-5,3.5
		c-2.1,0.8-4.3,1.2-6.6,1.2c-1.1,0-2.2-0.2-3.4-0.6c-1.2-0.4-2-0.6-2.5-0.6c-0.7,0-1.3,0.2-1.9,0.6c-0.5,0.4-0.9,0.6-1.1,0.6
		c-0.6,0-0.9-0.6-0.9-1.7c0-2.3,0-8.2,0.1-17.6c0.1-9.4,0.1-15.2,0.1-17.6c0-0.5-0.3-1-0.8-1.4c-0.3-0.2-0.6-0.3-0.8-0.5
		c-0.3-0.2-0.5-0.3-0.7-0.4c-0.2-0.1-0.4-0.2-0.6-0.3s-0.3-0.2-0.4-0.3s-0.2-0.2-0.3-0.2c-0.1-0.1-0.2-0.1-0.3-0.2
		c-0.1,0-0.1-0.1-0.1-0.1c0-0.1-0.1-0.1-0.1-0.2c0-0.1,0-0.1,0-0.1c0-0.3,0.3-0.6,0.8-0.8c4.4-1.8,6.7-2.6,6.9-2.6
		c0.5,0.1,0.8,0.5,0.8,1.2c0,1.3,0,4.5-0.1,9.6S117.3,29.3,117.3,29.8z M133.7,42c0-3.3-1-5.9-3-8c-2-2.1-4.4-3.1-7.1-3.1
		c-1.4,0-2.9,0.3-4.3,1c-1.5,0.7-2.2,1.3-2.2,1.9v15.4c0,0,0,0.1,0,0.2c0,0.1,0,0.2,0,0.2c0,0.7,0.3,1.2,0.9,1.5
		c1.9,0.7,3.7,1.1,5.5,1.1c3.1,0,5.5-0.9,7.4-2.9C132.7,47.4,133.7,45,133.7,42z"/>
	<path class="st0" d="M144.8,32.2c0,5.5,1.6,10.2,4.9,14c3.3,3.8,7.3,5.7,12,5.7c3.5,0,6.7-1.1,9.7-3.2s4.9-5,6-8.6
		c0.2-0.6,0.5-0.8,0.9-0.8c0.7,0,1,0.2,1,0.7c-0.9,6.2-1.4,9.5-1.5,9.8c-0.2,0.7-0.6,1-1.3,1h-0.1h-1.6c-0.5,0-0.8,0-1,0.1
		c-0.2,0.1-0.5,0.3-0.9,0.5c-0.4,0.3-0.7,0.5-0.9,0.6c-3.5,2-7.2,2.9-11.2,2.9c-2.8,0-5.5-0.5-8.1-1.6c-2.7-1.1-5-2.6-7-4.6
		c-2-2-3.6-4.3-4.8-7c-1.1-2.7-1.7-5.5-1.7-8.3c0-3,0.6-5.8,1.8-8.6c1.2-2.8,2.8-5.1,4.9-7.1c4.3-4.2,9.4-6.2,15.3-6.2h0.1
		c2.1,0,4.1,0.3,5.9,0.8s3.2,1.1,4.2,1.7c1,0.6,1.5,0.9,1.6,0.9c0.3,0,0.6-0.4,0.8-1.1c0.2-0.7,0.5-1.1,0.9-1.3c0.1,0,0.2,0,0.4,0
		s0.3,0,0.3,0c0.4,0,0.7,0.2,0.8,0.7l0.4,3.1c0.3,2.1,0.5,4.2,0.8,6.3c0.3,2.1,0.4,3.3,0.4,3.4c0,0.7-0.4,1-1.2,1
		c-0.7,0-1.2-0.1-1.3-0.4c-0.1-0.3-0.3-1.1-0.4-2.4c-0.2-1.5-0.7-2.8-1.6-3.9c-1.4-1.7-3.1-3.1-5.2-4.2s-4.5-1.7-7-1.7
		c-4.3,0-8.1,1.6-11.3,4.9C146.4,22.6,144.8,26.9,144.8,32.2z"/>
	<path class="st0" d="M192.5,54.5c-3.4,0-6.2-1.2-8.4-3.6c-2.2-2.4-3.3-5.5-3.3-9.3c0-4.1,1.2-7.4,3.6-10c2.4-2.6,5.5-3.8,9.4-3.8
		c2.1,0,3.9,0.4,5.4,1.3c1.5,0.9,2.2,1.9,2.2,3.1c0,0.7-0.2,1.2-0.7,1.6s-1,0.6-1.7,0.6c-0.9,0-2-0.6-3.4-1.8
		c-1.4-1.2-2.7-1.8-3.9-1.8c-1.8,0-3.4,0.9-4.8,2.8c-1.4,1.9-2.1,4.1-2.1,6.6c0,2.9,0.9,5.4,2.7,7.5c1.8,2.1,4.1,3.2,6.8,3.2
		c1.1,0,2-0.2,2.9-0.5c0.9-0.3,1.5-0.7,2-1.2c0.4-0.4,0.9-0.8,1.3-1.2c0.4-0.3,0.8-0.5,1.1-0.5c0.3,0,0.5,0.1,0.7,0.3
		c0.2,0.2,0.3,0.4,0.3,0.7c0,0.3-0.1,0.6-0.4,0.9c-1.1,1.4-2.4,2.7-4.2,3.6C196.6,54,194.7,54.5,192.5,54.5z"/>
</g>
<g>
	<path class="st1" d="M8,79.7h-1l-0.2-1c-0.4,0.5-0.8,0.8-1.2,0.9c-0.4,0.2-0.9,0.3-1.4,0.3c-0.6,0-1.2-0.1-1.7-0.4
		c-0.5-0.2-0.9-0.6-1.3-1s-0.6-0.9-0.8-1.4S0.2,76,0.2,75.4c0-0.6,0.1-1.2,0.3-1.7s0.5-1,0.8-1.4c0.4-0.4,0.8-0.7,1.3-1
		C3,71,3.6,70.9,4.3,70.9c0.5,0,0.9,0.1,1.3,0.2c0.4,0.1,0.8,0.3,1.1,0.6s0.6,0.6,0.8,0.9c0.2,0.4,0.4,0.8,0.4,1.3H6.5
		c0-0.3-0.1-0.5-0.3-0.7s-0.3-0.4-0.5-0.5S5.3,72.3,5,72.3c-0.2-0.1-0.5-0.1-0.8-0.1c-0.5,0-0.9,0.1-1.2,0.3
		c-0.3,0.2-0.6,0.4-0.8,0.7c-0.2,0.3-0.4,0.7-0.5,1.1c-0.1,0.4-0.1,0.8-0.1,1.2s0,0.8,0.1,1.2s0.3,0.7,0.5,1.1
		c0.2,0.3,0.5,0.6,0.8,0.7s0.7,0.3,1.2,0.3c0.4,0,0.7,0,1-0.1c0.3-0.1,0.5-0.3,0.7-0.5s0.4-0.5,0.5-0.8s0.2-0.6,0.2-1H4.4v-1.1H8
		V79.7z"/>
	<path class="st1" d="M15.7,70.9c0.6,0,1.2,0.1,1.7,0.4s0.9,0.6,1.3,1s0.6,0.9,0.8,1.4s0.3,1.1,0.3,1.7c0,0.6-0.1,1.2-0.3,1.7
		s-0.5,1-0.8,1.4s-0.8,0.7-1.3,1c-0.5,0.2-1.1,0.4-1.7,0.4c-0.6,0-1.2-0.1-1.7-0.4c-0.5-0.2-0.9-0.6-1.3-1s-0.6-0.9-0.8-1.4
		s-0.3-1.1-0.3-1.7c0-0.6,0.1-1.2,0.3-1.7s0.5-1,0.8-1.4c0.4-0.4,0.8-0.7,1.3-1S15.1,70.9,15.7,70.9z M15.7,72.1
		c-0.5,0-0.8,0.1-1.2,0.3c-0.3,0.2-0.6,0.4-0.8,0.7c-0.2,0.3-0.4,0.7-0.5,1.1c-0.1,0.4-0.2,0.8-0.2,1.2s0,0.8,0.2,1.2
		s0.3,0.7,0.5,1.1c0.2,0.3,0.5,0.6,0.8,0.7s0.7,0.3,1.2,0.3s0.8-0.1,1.2-0.3c0.3-0.2,0.6-0.4,0.8-0.7c0.2-0.3,0.4-0.7,0.5-1.1
		c0.1-0.4,0.2-0.8,0.2-1.2s0-0.8-0.2-1.2c-0.1-0.4-0.3-0.7-0.5-1.1c-0.2-0.3-0.5-0.6-0.8-0.7C16.6,72.2,16.2,72.1,15.7,72.1z"/>
	<path class="st1" d="M23.5,71.1H25v5c0,0.3,0,0.6,0,0.9s0.1,0.6,0.2,0.8c0.1,0.2,0.3,0.4,0.6,0.6c0.3,0.2,0.6,0.2,1.1,0.2
		s0.9-0.1,1.1-0.2c0.3-0.2,0.5-0.3,0.6-0.6c0.1-0.2,0.2-0.5,0.2-0.8s0-0.6,0-0.9v-5h1.5v5.5c0,0.6-0.1,1-0.3,1.4
		c-0.2,0.4-0.4,0.8-0.7,1c-0.3,0.3-0.7,0.5-1.1,0.6s-0.9,0.2-1.4,0.2s-1-0.1-1.4-0.2s-0.8-0.3-1.1-0.6c-0.3-0.3-0.5-0.6-0.7-1
		c-0.2-0.4-0.3-0.9-0.3-1.4V71.1z"/>
	<path class="st1" d="M34.6,71.1h3.6c0.7,0,1.2,0.1,1.7,0.3c0.5,0.2,0.9,0.5,1.2,0.9c0.3,0.4,0.5,0.8,0.7,1.4
		c0.1,0.5,0.2,1.1,0.2,1.7c0,0.6-0.1,1.1-0.2,1.7c-0.1,0.5-0.4,1-0.7,1.4c-0.3,0.4-0.7,0.7-1.2,0.9s-1,0.3-1.7,0.3h-3.6
		C34.6,79.7,34.6,71.1,34.6,71.1z M36.1,78.5h1.5c0.6,0,1.1-0.1,1.4-0.2c0.4-0.2,0.7-0.4,0.9-0.6c0.2-0.3,0.4-0.6,0.4-1
		s0.1-0.8,0.1-1.2c0-0.4,0-0.8-0.1-1.2s-0.2-0.7-0.4-1c-0.2-0.3-0.5-0.5-0.9-0.6c-0.4-0.2-0.8-0.2-1.4-0.2h-1.5V78.5z"/>
	<path class="st1" d="M47.9,76.3l-3.2-5.2h1.7l2.3,3.8l2.2-3.8h1.7l-3.2,5.2v3.4h-1.5C47.9,79.7,47.9,76.3,47.9,76.3z"/>
	<path class="st1" d="M61.6,71.1h4.2c0.8,0,1.4,0.2,1.8,0.5c0.5,0.4,0.7,0.9,0.7,1.6c0,0.4-0.1,0.8-0.3,1.1s-0.5,0.5-0.9,0.7v0
		c0.5,0.1,0.9,0.4,1.2,0.8c0.3,0.4,0.4,0.9,0.4,1.5c0,0.3-0.1,0.6-0.2,0.9c-0.1,0.3-0.3,0.5-0.6,0.8c-0.3,0.2-0.6,0.4-1,0.5
		s-0.9,0.2-1.4,0.2h-3.9C61.6,79.7,61.6,71.1,61.6,71.1z M63.1,74.7h2.4c0.4,0,0.7-0.1,0.9-0.3s0.4-0.5,0.4-0.9
		c0-0.4-0.1-0.7-0.3-0.9c-0.2-0.2-0.5-0.3-0.9-0.3h-2.4C63.1,72.3,63.1,74.7,63.1,74.7z M63.1,78.5h2.7c0.5,0,0.8-0.1,1.1-0.4
		c0.3-0.2,0.4-0.6,0.4-1c0-0.4-0.1-0.8-0.4-1c-0.3-0.2-0.6-0.3-1.1-0.3h-2.7V78.5z"/>
	<path class="st1" d="M76.1,70.9c0.6,0,1.2,0.1,1.7,0.4s0.9,0.6,1.3,1s0.6,0.9,0.8,1.4s0.3,1.1,0.3,1.7c0,0.6-0.1,1.2-0.3,1.7
		s-0.5,1-0.8,1.4s-0.8,0.7-1.3,1c-0.5,0.2-1.1,0.4-1.7,0.4c-0.6,0-1.2-0.1-1.7-0.4c-0.5-0.2-0.9-0.6-1.3-1s-0.6-0.9-0.8-1.4
		S72,76,72,75.4c0-0.6,0.1-1.2,0.3-1.7s0.5-1,0.8-1.4c0.4-0.4,0.8-0.7,1.3-1S75.5,70.9,76.1,70.9z M76.1,72.1
		c-0.5,0-0.8,0.1-1.2,0.3c-0.3,0.2-0.6,0.4-0.8,0.7c-0.2,0.3-0.4,0.7-0.5,1.1c-0.1,0.4-0.2,0.8-0.2,1.2s0.1,0.8,0.2,1.2
		s0.3,0.7,0.5,1.1c0.2,0.3,0.5,0.6,0.8,0.7s0.7,0.3,1.2,0.3s0.8-0.1,1.2-0.3c0.3-0.2,0.6-0.4,0.8-0.7c0.2-0.3,0.4-0.7,0.5-1.1
		s0.2-0.8,0.2-1.2s-0.1-0.8-0.2-1.2s-0.3-0.7-0.5-1.1c-0.2-0.3-0.5-0.6-0.8-0.7C76.9,72.2,76.5,72.1,76.1,72.1z"/>
	<path class="st1" d="M87.6,70.9c0.6,0,1.2,0.1,1.7,0.4s0.9,0.6,1.3,1s0.6,0.9,0.8,1.4s0.3,1.1,0.3,1.7c0,0.6-0.1,1.2-0.3,1.7
		s-0.5,1-0.8,1.4s-0.8,0.7-1.3,1c-0.5,0.2-1.1,0.4-1.7,0.4c-0.6,0-1.2-0.1-1.7-0.4c-0.5-0.2-0.9-0.6-1.3-1s-0.6-0.9-0.8-1.4
		s-0.3-1.1-0.3-1.7c0-0.6,0.1-1.2,0.3-1.7s0.5-1,0.8-1.4c0.4-0.4,0.8-0.7,1.3-1S87,70.9,87.6,70.9z M87.6,72.1
		c-0.5,0-0.8,0.1-1.2,0.3c-0.3,0.2-0.6,0.4-0.8,0.7c-0.2,0.3-0.4,0.7-0.5,1.1C85.1,74.6,85,75,85,75.4s0.1,0.8,0.2,1.2
		s0.3,0.7,0.5,1.1c0.2,0.3,0.5,0.6,0.8,0.7s0.7,0.3,1.2,0.3s0.8-0.1,1.2-0.3c0.3-0.2,0.6-0.4,0.8-0.7c0.2-0.3,0.4-0.7,0.5-1.1
		s0.2-0.8,0.2-1.2s-0.1-0.8-0.2-1.2s-0.3-0.7-0.5-1.1c-0.2-0.3-0.5-0.6-0.8-0.7C88.5,72.2,88.1,72.1,87.6,72.1z"/>
	<path class="st1" d="M95.5,71.1H97V75l3.8-3.9h1.8l-3.4,3.4l3.7,5.1H101l-2.8-4.1L97,76.8v2.9h-1.5L95.5,71.1L95.5,71.1z"/>
	<path class="st1" d="M106.1,71.1h1.5v7.3h4.4v1.3h-5.9V71.1z"/>
	<path class="st1" d="M115.4,71.1h6.2v1.3h-4.7v2.2h4.3v1.2h-4.3v2.5h4.8v1.3h-6.3V71.1z"/>
	<path class="st1" d="M124.5,71.1h6.9v1.3h-2.7v7.3h-1.5v-7.3h-2.7L124.5,71.1L124.5,71.1z"/>
	<path class="st1" d="M134,71.1h6.9v1.3h-2.7v7.3h-1.5v-7.3H134L134,71.1L134,71.1z"/>
	<path class="st1" d="M144.4,71.1h6.2v1.3h-4.7v2.2h4.3v1.2h-4.3v2.5h4.8v1.3h-6.3V71.1z"/>
	<path class="st1" d="M154.3,71.1h4.1c0.9,0,1.7,0.2,2.1,0.6s0.7,1,0.7,1.7c0,0.4-0.1,0.7-0.2,1c-0.1,0.3-0.3,0.5-0.4,0.6
		c-0.2,0.2-0.3,0.3-0.5,0.4c-0.2,0.1-0.3,0.1-0.3,0.1v0c0.1,0,0.3,0.1,0.4,0.1c0.1,0.1,0.3,0.2,0.4,0.3c0.1,0.1,0.2,0.3,0.3,0.5
		c0.1,0.2,0.1,0.5,0.1,0.8c0,0.5,0,1,0.1,1.4s0.2,0.7,0.4,0.9H160c-0.1-0.2-0.2-0.4-0.2-0.6s0-0.4,0-0.6c0-0.4,0-0.7-0.1-1
		c0-0.3-0.1-0.5-0.3-0.7c-0.1-0.2-0.3-0.3-0.5-0.4c-0.2-0.1-0.5-0.1-0.8-0.1h-2.2v3.5h-1.5L154.3,71.1L154.3,71.1z M155.8,75h2.5
		c0.5,0,0.8-0.1,1.1-0.3c0.2-0.2,0.4-0.6,0.4-1c0-0.3,0-0.5-0.1-0.7s-0.2-0.3-0.3-0.4c-0.1-0.1-0.3-0.2-0.5-0.2c-0.2,0-0.4,0-0.6,0
		h-2.4L155.8,75L155.8,75z"/>
	<path class="st1" d="M170.6,72.7c0.3,0,0.6,0,0.8-0.1s0.5-0.1,0.7-0.2c0.2-0.1,0.4-0.3,0.6-0.4c0.2-0.2,0.3-0.4,0.3-0.6h1.1v8.4
		h-1.5v-5.9h-2.1V72.7z"/>
	<path class="st1" d="M181,77.6c0,0.3,0.2,0.6,0.4,0.8s0.5,0.3,0.9,0.3c0.4,0,0.7-0.1,0.9-0.3c0.2-0.2,0.4-0.4,0.5-0.7
		s0.2-0.6,0.2-0.9s0.1-0.6,0.1-0.9l0,0c-0.2,0.3-0.4,0.6-0.8,0.8c-0.3,0.2-0.7,0.3-1.1,0.3c-0.4,0-0.8-0.1-1.1-0.2
		c-0.3-0.1-0.6-0.3-0.8-0.6c-0.2-0.2-0.4-0.5-0.5-0.9c-0.1-0.3-0.2-0.7-0.2-1.2c0-0.4,0.1-0.8,0.2-1.1s0.3-0.7,0.6-0.9
		s0.6-0.5,0.9-0.6c0.4-0.1,0.8-0.2,1.2-0.2c0.6,0,1.1,0.1,1.5,0.3c0.4,0.2,0.7,0.5,0.9,0.9c0.2,0.4,0.4,0.9,0.5,1.4s0.1,1.1,0.1,1.7
		c0,0.5-0.1,1-0.2,1.5c-0.1,0.5-0.3,1-0.5,1.4c-0.2,0.4-0.6,0.8-1,1c-0.4,0.3-0.9,0.4-1.5,0.4c-0.3,0-0.7-0.1-0.9-0.2
		c-0.3-0.1-0.6-0.3-0.8-0.5c-0.2-0.2-0.4-0.4-0.6-0.7c-0.1-0.3-0.2-0.6-0.2-0.9L181,77.6L181,77.6z M182.3,72.3
		c-0.2,0-0.5,0-0.6,0.1c-0.2,0.1-0.3,0.2-0.5,0.4s-0.2,0.3-0.3,0.6c-0.1,0.2-0.1,0.4-0.1,0.6c0,0.2,0,0.5,0.1,0.7
		c0.1,0.2,0.1,0.4,0.3,0.6c0.1,0.2,0.3,0.3,0.5,0.4c0.2,0.1,0.4,0.1,0.6,0.1c0.3,0,0.5,0,0.7-0.1c0.2-0.1,0.4-0.2,0.5-0.4
		c0.1-0.2,0.2-0.4,0.3-0.6s0.1-0.4,0.1-0.7c0-0.2,0-0.4-0.1-0.6s-0.2-0.4-0.3-0.5c-0.1-0.2-0.3-0.3-0.5-0.4
		C182.8,72.3,182.5,72.3,182.3,72.3z"/>
	<path class="st1" d="M188.7,72.7c0.3,0,0.6,0,0.8-0.1s0.5-0.1,0.7-0.2c0.2-0.1,0.4-0.3,0.6-0.4c0.2-0.2,0.3-0.4,0.3-0.6h1.1v8.4
		h-1.5v-5.9h-2.1V72.7z"/>
	<path class="st1" d="M197.8,72.7c0.3,0,0.6,0,0.8-0.1s0.5-0.1,0.7-0.2c0.2-0.1,0.4-0.3,0.6-0.4c0.2-0.2,0.3-0.4,0.3-0.6h1.1v8.4
		h-1.5v-5.9h-2.1V72.7z"/>
</g>
</svg>
