<?xml version="1.0" encoding="utf-8"?>
<!-- Generator: Adobe Illustrator 22.0.1, SVG Export Plug-In . SVG Version: 6.00 Build 0)  -->
<svg version="1.1" id="Layer_1" xmlns="http://www.w3.org/2000/svg" xmlns:xlink="http://www.w3.org/1999/xlink" x="0px" y="0px"
	 viewBox="0 0 213.4 80.5" style="enable-background:new 0 0 213.4 80.5;" xml:space="preserve">
<style type="text/css">
	.st0{fill:#D4D2CD;}
	.st1{fill:#83CEC1;}
</style>
<g>
	<path class="st0" d="M23.2,53.6l4.6-21.8c-1.5-0.7-2.9-1.2-4.2-1.5s-2.5-0.5-3.9-0.6c-1.1,2.4-2.2,5-3.1,7.5
		c-0.9,2.6-1.8,5.1-2.5,7.5c-0.7,2.4-1.2,4.7-1.6,6.8s-0.6,4-0.6,5.5c0,1,0.1,1.7,0.2,2.2c0.2,0.5,0.4,0.9,0.6,1.2
		c-0.8,0-1.7,0-2.6-0.1c-0.9-0.1-1.8-0.3-2.6-0.7c-0.8-0.4-1.5-1-2-1.9c-0.5-0.9-0.8-2.1-0.8-3.6c0-1.3,0.2-2.9,0.6-4.8
		c0.4-1.9,1-3.9,1.8-6S8.9,39,10,36.6s2.3-4.6,3.6-6.9c-1.9,0.1-3.4,0.4-4.6,0.9s-2,1.2-2.4,2.2c0.2,0,0.3,0.2,0.5,0.6
		c0.2,0.4,0.3,0.8,0.3,1.3c0,0.7-0.3,1.3-1,1.7C5.7,36.8,4.9,37,4,37c-0.5,0-1-0.1-1.5-0.2s-0.8-0.4-1.2-0.6s-0.6-0.6-0.8-1.1
		s-0.3-1-0.3-1.5c0-1,0.3-2,0.9-2.9s1.5-1.7,2.6-2.3s2.4-1.2,3.9-1.6s3.1-0.6,4.9-0.6c0.8,0,1.9,0.1,3.1,0.2
		c1.5-2.4,3.1-4.7,4.8-6.8s3.4-4,5.2-5.6s3.6-2.9,5.4-3.8s3.6-1.4,5.4-1.4c0.7,0,1.5,0.1,2.4,0.2c0.9,0.1,1.7,0.3,2.4,0.7l-9.4,44.2
		L23.2,53.6L23.2,53.6z M31.8,12.9c-0.9,0.5-1.8,1.2-2.7,2.1c-0.9,0.9-1.8,2-2.8,3.2s-1.8,2.6-2.7,4.1s-1.8,3.1-2.6,4.8
		c1.2,0.2,2.4,0.5,3.7,0.9s2.5,0.7,3.6,1.2L31.8,12.9z"/>
	<path class="st0" d="M64.3,44c-0.1,0.3-0.2,0.7-0.2,1S64,45.6,64,46c0,0.8,0.2,1.4,0.6,1.7c0.4,0.3,1,0.5,1.9,0.5
		c0.3,0,0.5,0,0.7-0.1s0.4-0.1,0.6-0.2c-0.4,1-0.8,1.9-1.2,2.7s-0.8,1.4-1.2,1.9s-1,0.9-1.5,1.1c-0.6,0.2-1.3,0.4-2,0.4
		c-1.7,0-3-0.5-4-1.4s-1.6-2.3-1.9-4.1c-0.4,0.7-1,1.4-1.6,2c-0.6,0.7-1.3,1.3-2,1.8s-1.5,1-2.4,1.3S48.1,54,47,54c-1,0-2-0.2-3-0.5
		s-1.8-0.9-2.5-1.6s-1.3-1.8-1.8-3S39,46.1,39,44.3c0-1.4,0.1-2.8,0.4-4.4s0.7-3.1,1.3-4.7s1.3-3.1,2.1-4.5s1.8-2.7,3-3.8
		s2.4-2,3.9-2.6s3-1,4.8-1c1.7,0,2.9,0.3,3.7,0.9c0.8,0.6,1.2,1.3,1.2,2.2v0.4l0.6-3.2h8.6L64.3,44z M58.8,29.3c0-0.2,0-0.4-0.1-0.7
		s-0.2-0.5-0.4-0.8c-0.2-0.2-0.4-0.4-0.7-0.6s-0.7-0.2-1.2-0.2c-0.8,0-1.6,0.3-2.4,0.8c-0.8,0.5-1.4,1.3-2.1,2.2s-1.2,1.9-1.7,3.1
		s-0.9,2.3-1.2,3.6c-0.3,1.2-0.6,2.4-0.8,3.6s-0.3,2.2-0.3,3.2c0,1.2,0.1,2,0.3,2.7c0.2,0.6,0.5,1.1,0.8,1.4c0.3,0.3,0.6,0.5,1,0.5
		s0.7,0.1,0.9,0.1c0.4,0,0.9-0.1,1.4-0.3s1-0.6,1.4-1c0.5-0.4,0.9-1,1.3-1.7s0.7-1.4,0.9-2.3L58.8,29.3z"/>
	<path class="st0" d="M73.8,53.6L82,15.5l8.9-1.2L88,27.6h0.4c1.2,0,2.3-0.3,3.4-0.9s2-1.3,2.7-2.3s1.4-2,1.9-3.1
		c0.5-1.2,0.7-2.3,0.7-3.4c0-0.8-0.1-1.6-0.4-2.4s-0.8-1.5-1.4-2.1s-1.4-1.1-2.4-1.4c-1-0.4-2.2-0.5-3.6-0.5c-1.2,0-2.4,0.1-3.6,0.4
		s-2.4,0.7-3.5,1.2C81,13.5,80,14.2,79,15s-1.8,1.7-2.5,2.8c-0.7,1.1-1.3,2.3-1.7,3.7c-0.4,1.4-0.6,2.9-0.6,4.5c0,0.8,0,1.4,0.1,1.9
		s0.2,0.9,0.3,1.1c0.1,0.3,0.2,0.5,0.3,0.7s0.1,0.3,0.1,0.4c-2,0-3.6-0.4-4.7-1.2c-1.1-0.8-1.7-2.2-1.7-4.3c0-1.4,0.3-2.7,0.8-4.1
		s1.3-2.6,2.3-3.8c1-1.2,2.2-2.3,3.5-3.3c1.4-1,2.8-1.8,4.5-2.6s3.3-1.3,5.1-1.7c1.8-0.4,3.7-0.6,5.6-0.6c2.2,0,4.1,0.3,5.7,0.8
		s2.9,1.2,4,2.1c1,0.9,1.8,1.9,2.3,3s0.8,2.3,0.8,3.6c0,0.9-0.1,1.8-0.4,2.7s-0.6,1.8-1.1,2.6c-0.5,0.8-1.1,1.6-1.9,2.3
		c-0.8,0.7-1.6,1.4-2.6,1.9c1.3,0.2,2.4,0.7,3.3,1.3s1.6,1.4,2.2,2.2s1,1.8,1.2,2.9s0.4,2.1,0.4,3.3c0,1-0.1,2.1-0.3,3.3
		c-0.2,1.2-0.5,2.5-0.9,3.8c-0.4,1.3-0.9,2.5-1.6,3.8c-0.7,1.2-1.5,2.3-2.5,3.3s-2.1,1.7-3.4,2.3c-1.3,0.6-2.8,0.9-4.5,0.9
		c-0.6,0-1.3-0.1-2-0.2s-1.3-0.3-1.9-0.7c-0.6-0.3-1.1-0.8-1.4-1.4s-0.6-1.3-0.6-2.2c0-0.5,0.1-1,0.2-1.6s0.3-1.2,0.6-1.9
		c0.8,0.8,1.5,1.4,2.1,1.7s1.3,0.5,2,0.5c1.1,0,2-0.3,2.8-1c0.8-0.7,1.4-1.6,1.8-2.6s0.8-2.2,1-3.5s0.3-2.5,0.3-3.6
		c0-1-0.1-2-0.3-2.9c-0.2-0.9-0.5-1.7-0.9-2.4s-1-1.2-1.7-1.7s-1.6-0.6-2.7-0.6c-0.3,0-0.6,0-1.1,0s-1,0.1-1.6,0.2l-4.9,23
		L73.8,53.6L73.8,53.6z"/>
	<path class="st0" d="M112.7,12.8l8.9-1.2l-2.9,13.5c0.6-0.4,1.1-0.7,1.6-0.9s0.9-0.4,1.3-0.5s0.7-0.2,1.1-0.2s0.6,0,0.9,0
		c1.1,0,2,0.2,2.9,0.5s1.6,0.9,2.2,1.7s1.1,1.9,1.4,3.2s0.5,2.9,0.5,4.8c0,1.2-0.1,2.5-0.3,3.9s-0.6,2.9-1.1,4.4s-1.2,3-2,4.4
		c-0.8,1.4-1.9,2.7-3.1,3.8s-2.6,2-4.3,2.7s-3.5,1-5.7,1c-2.8,0-4.9-0.7-6.3-2s-2.1-3.2-2.1-5.7c0-0.6,0-1.1,0.1-1.7
		c0.1-0.6,0.2-1.1,0.3-1.7L112.7,12.8z M114.6,44c-0.1,0.5-0.2,1-0.2,1.4c0,1.9,1.1,2.8,3.2,2.8c0.6,0,1.3-0.2,1.9-0.7
		s1.2-1,1.7-1.8s1-1.6,1.4-2.6s0.8-2,1.1-3.1s0.5-2.2,0.7-3.3s0.2-2.2,0.2-3.3c0-0.7-0.1-1.4-0.2-2.1s-0.3-1.3-0.6-1.9s-0.6-1-1-1.3
		s-0.9-0.5-1.4-0.5c-0.2,0-0.5,0-0.8,0s-0.7,0.1-1,0.2s-0.7,0.2-1,0.3s-0.5,0.3-0.7,0.5L114.6,44z"/>
	<path class="st0" d="M164.3,43.4c-0.8,2-1.9,3.7-3.3,5.1s-2.8,2.6-4.4,3.5s-3.2,1.5-4.9,1.9s-3.2,0.6-4.6,0.6
		c-2.2,0-4.2-0.3-5.8-0.8s-3-1.4-4.1-2.5s-1.9-2.7-2.4-4.6s-0.8-4.2-0.8-6.9c0-1.4,0.1-2.9,0.2-4.5s0.4-3.3,0.8-5s0.8-3.4,1.4-5.2
		s1.3-3.4,2.1-5s1.8-3.1,2.8-4.5s2.3-2.6,3.6-3.7s2.8-1.9,4.5-2.4s3.4-0.9,5.4-0.9c1.4,0,2.7,0.2,3.9,0.5s2.3,0.8,3.2,1.4
		s1.6,1.5,2.1,2.5s0.8,2.2,0.8,3.7c0,0.8-0.1,1.5-0.2,2.2s-0.4,1.3-0.7,1.8s-0.8,0.9-1.3,1.2s-1.2,0.4-1.9,0.4c-0.5,0-1-0.1-1.6-0.3
		s-1.2-0.6-1.8-1.3c0.4-0.2,0.7-0.5,1-0.8s0.6-0.8,0.9-1.3s0.5-1,0.6-1.6s0.2-1.2,0.2-1.8c0-0.5-0.1-0.9-0.2-1.4s-0.3-0.8-0.6-1.2
		s-0.7-0.6-1.1-0.8s-1-0.3-1.7-0.3c-1.1,0-2.2,0.4-3.2,1.2s-2,1.9-3,3.3s-1.8,3-2.5,4.9s-1.4,3.8-2,5.9s-1,4.2-1.3,6.4
		s-0.5,4.3-0.5,6.3c0,1.4,0.1,2.7,0.3,3.8s0.6,2.1,1.1,2.9c0.5,0.8,1.3,1.5,2.2,1.9s2.1,0.7,3.6,0.7c2.4,0,4.6-0.5,6.6-1.6
		s3.7-2.5,5.1-4.4L164.3,43.4z"/>
	<path class="st0" d="M181.2,45.1c-0.3,1.7-0.8,3.2-1.5,4.3s-1.5,2-2.4,2.7s-1.9,1.2-3.1,1.4S172,54,170.8,54
		c-1.4,0-2.7-0.2-3.8-0.5s-2.1-0.9-2.9-1.7s-1.4-1.7-1.9-2.9s-0.7-2.7-0.7-4.4c0-1.2,0.1-2.5,0.4-4s0.6-3.1,1.1-4.6s1.2-3.1,2-4.7
		s1.8-2.9,3-4.1s2.6-2.2,4.2-2.9s3.4-1.1,5.4-1.1c1.3,0,2.4,0.2,3.3,0.5s1.5,0.7,2.1,1.3s0.9,1.1,1.1,1.8s0.3,1.3,0.3,2.1
		c0,0.8-0.1,1.4-0.3,2s-0.4,1-0.7,1.3s-0.6,0.6-1,0.8s-0.8,0.2-1.2,0.2c-0.7,0-1.4-0.2-2.1-0.7c0.2-0.6,0.4-1.2,0.5-1.8
		s0.2-1.2,0.2-1.7c0-0.7-0.1-1.3-0.4-1.8s-0.7-0.7-1.2-0.7c-0.6,0-1.3,0.3-1.9,0.9s-1.2,1.3-1.8,2.3s-1.1,2-1.6,3.2
		s-0.9,2.5-1.3,3.7s-0.6,2.5-0.9,3.8s-0.3,2.3-0.3,3.3c0,0.9,0.1,1.7,0.3,2.4c0.2,0.6,0.4,1.2,0.7,1.5s0.7,0.7,1.1,0.8
		s0.9,0.2,1.4,0.2c0.6,0,1.2-0.1,1.8-0.3s1.3-0.5,1.9-0.8s1.3-0.7,1.8-1.1S180.8,45.5,181.2,45.1z"/>
</g>
<g>
	<path class="st1" d="M0.6,71.5h1.5v7.3h4.4v1.3H0.6C0.6,80.1,0.6,71.5,0.6,71.5z"/>
	<path class="st1" d="M13.6,71.3c0.6,0,1.2,0.1,1.7,0.4s0.9,0.6,1.3,1c0.4,0.4,0.6,0.9,0.8,1.4s0.3,1.1,0.3,1.7
		c0,0.6-0.1,1.2-0.3,1.7s-0.5,1-0.8,1.4c-0.4,0.4-0.8,0.7-1.3,1c-0.5,0.2-1.1,0.4-1.7,0.4c-0.6,0-1.2-0.1-1.7-0.4
		c-0.5-0.2-0.9-0.6-1.3-1s-0.6-0.9-0.8-1.4c-0.2-0.5-0.3-1.1-0.3-1.7c0-0.6,0.1-1.2,0.3-1.7c0.2-0.5,0.5-1,0.8-1.4
		c0.4-0.4,0.8-0.7,1.3-1S12.9,71.3,13.6,71.3z M13.6,72.5c-0.5,0-0.8,0.1-1.2,0.3c-0.3,0.2-0.6,0.4-0.8,0.7
		c-0.2,0.3-0.4,0.7-0.5,1.1C11,75,11,75.4,11,75.8s0,0.8,0.2,1.2c0.1,0.4,0.3,0.7,0.5,1.1c0.2,0.3,0.5,0.6,0.8,0.7s0.7,0.3,1.2,0.3
		c0.5,0,0.9-0.1,1.2-0.3c0.3-0.2,0.6-0.4,0.8-0.7c0.2-0.3,0.4-0.7,0.5-1.1c0.1-0.4,0.1-0.8,0.1-1.2s0-0.8-0.1-1.2
		c-0.1-0.4-0.3-0.7-0.5-1.1c-0.2-0.3-0.5-0.6-0.8-0.7C14.4,72.6,14,72.5,13.6,72.5z"/>
	<path class="st1" d="M21.4,71.5h4.2c0.8,0,1.4,0.2,1.8,0.5c0.5,0.4,0.7,0.9,0.7,1.6c0,0.4-0.1,0.8-0.3,1.1s-0.5,0.5-0.9,0.7v0
		c0.5,0.1,0.9,0.4,1.2,0.8c0.3,0.4,0.4,0.9,0.4,1.5c0,0.3-0.1,0.6-0.2,0.9s-0.3,0.5-0.6,0.8c-0.3,0.2-0.6,0.4-1,0.5
		c-0.4,0.1-0.9,0.2-1.4,0.2h-3.9V71.5z M22.9,75.1h2.4c0.4,0,0.7-0.1,0.9-0.3c0.2-0.2,0.4-0.5,0.4-0.9c0-0.4-0.1-0.7-0.3-0.9
		c-0.2-0.2-0.5-0.3-0.9-0.3h-2.4L22.9,75.1L22.9,75.1z M22.9,78.8h2.7c0.5,0,0.8-0.1,1.1-0.4c0.3-0.2,0.4-0.6,0.4-1
		c0-0.4-0.1-0.8-0.4-1c-0.3-0.2-0.6-0.3-1.1-0.3h-2.7V78.8z"/>
	<path class="st1" d="M33.3,77.2c0,0.3,0.1,0.6,0.2,0.8c0.1,0.2,0.3,0.4,0.5,0.6c0.2,0.1,0.4,0.3,0.7,0.3c0.3,0.1,0.5,0.1,0.8,0.1
		c0.3,0,0.6,0,0.8-0.1c0.2-0.1,0.4-0.2,0.6-0.3c0.1-0.1,0.2-0.3,0.3-0.4s0.1-0.3,0.1-0.5c0-0.3-0.1-0.6-0.2-0.7
		c-0.1-0.2-0.3-0.3-0.5-0.3c-0.3-0.1-0.7-0.2-1.1-0.3c-0.4-0.1-0.9-0.2-1.5-0.4c-0.4-0.1-0.7-0.2-0.9-0.4s-0.4-0.3-0.6-0.5
		c-0.1-0.2-0.2-0.4-0.3-0.6c-0.1-0.2-0.1-0.4-0.1-0.7c0-0.4,0.1-0.8,0.3-1.1c0.2-0.3,0.4-0.6,0.7-0.8c0.3-0.2,0.6-0.4,1-0.5
		c0.4-0.1,0.8-0.1,1.1-0.1c0.4,0,0.9,0.1,1.3,0.2c0.4,0.1,0.7,0.3,1,0.5c0.3,0.2,0.5,0.5,0.7,0.9s0.3,0.7,0.3,1.2H37
		c0-0.6-0.2-0.9-0.6-1.2c-0.3-0.2-0.8-0.3-1.3-0.3c-0.2,0-0.4,0-0.5,0.1s-0.4,0.1-0.5,0.2c-0.2,0.1-0.3,0.2-0.4,0.3
		c-0.1,0.1-0.2,0.3-0.2,0.5c0,0.3,0.1,0.5,0.3,0.7s0.4,0.3,0.7,0.4c0,0,0.2,0,0.4,0.1c0.2,0.1,0.5,0.1,0.7,0.2
		c0.3,0.1,0.5,0.1,0.8,0.2c0.3,0.1,0.4,0.1,0.6,0.1c0.3,0.1,0.5,0.2,0.7,0.4c0.2,0.2,0.4,0.3,0.5,0.5c0.1,0.2,0.2,0.4,0.3,0.6
		c0.1,0.2,0.1,0.4,0.1,0.7c0,0.5-0.1,0.9-0.3,1.2s-0.5,0.6-0.8,0.8S37,80,36.6,80.1c-0.4,0.1-0.8,0.1-1.2,0.1
		c-0.5,0-0.9-0.1-1.4-0.2c-0.4-0.1-0.8-0.3-1.1-0.6c-0.3-0.2-0.6-0.6-0.8-1c-0.2-0.4-0.3-0.8-0.3-1.4L33.3,77.2L33.3,77.2z"/>
	<path class="st1" d="M41.6,71.5h6.9v1.3h-2.7v7.3h-1.5v-7.3h-2.7V71.5z"/>
	<path class="st1" d="M52,71.5h6.2v1.3h-4.7V75h4.3v1.2h-4.3v2.5h4.8v1.3H52V71.5z"/>
	<path class="st1" d="M61.9,71.5H66c0.9,0,1.7,0.2,2.1,0.6c0.5,0.4,0.7,1,0.7,1.7c0,0.4-0.1,0.7-0.2,1c-0.1,0.3-0.3,0.5-0.4,0.6
		s-0.3,0.3-0.5,0.4s-0.3,0.1-0.3,0.1v0c0.1,0,0.3,0.1,0.4,0.1c0.1,0.1,0.3,0.2,0.4,0.3c0.1,0.1,0.2,0.3,0.3,0.5
		c0.1,0.2,0.1,0.5,0.1,0.8c0,0.5,0,1,0.1,1.4s0.2,0.7,0.4,0.9h-1.6c-0.1-0.2-0.2-0.4-0.2-0.6c0-0.2,0-0.4,0-0.6c0-0.4,0-0.7-0.1-1
		c0-0.3-0.1-0.5-0.3-0.7c-0.1-0.2-0.3-0.3-0.5-0.4c-0.2-0.1-0.5-0.1-0.8-0.1h-2.2v3.5h-1.5V71.5z M63.4,75.4h2.5
		c0.5,0,0.8-0.1,1.1-0.3c0.2-0.2,0.4-0.6,0.4-1c0-0.3,0-0.5-0.1-0.7S67,73,66.9,73c-0.1-0.1-0.3-0.2-0.5-0.2s-0.4,0-0.6,0h-2.4V75.4
		z"/>
</g>
</svg>
