<?xml version="1.0" encoding="utf-8"?>
<!-- Generator: Adobe Illustrator 22.0.1, SVG Export Plug-In . SVG Version: 6.00 Build 0)  -->
<svg version="1.1" id="Layer_1" xmlns="http://www.w3.org/2000/svg" xmlns:xlink="http://www.w3.org/1999/xlink" x="0px" y="0px"
	 viewBox="0 0 213.4 80.5" style="enable-background:new 0 0 213.4 80.5;" xml:space="preserve">
<style type="text/css">
	.st0{fill:#D4D2CD;}
	.st1{fill:#83CEC1;}
</style>
<g>
	<path class="st0" d="M6.2,19.1h23c1.6,0,3,0.6,4.1,1.7c1.1,1.1,1.7,2.5,1.7,4.1v28.8h-3.9V41H4.3v12.6H0.5V24.8
		c0-1.6,0.6-3,1.7-4.1C3.3,19.6,4.6,19.1,6.2,19.1z M4.3,37.1h26.8V24.8c0-0.5-0.2-1-0.6-1.3c-0.4-0.4-0.8-0.6-1.3-0.6h-23
		c-0.5,0-1,0.2-1.3,0.6c-0.4,0.4-0.6,0.8-0.6,1.3C4.3,24.8,4.3,37.1,4.3,37.1z"/>
	<path class="st0" d="M62.8,25.8c1.6,0,3,0.6,4.2,1.7c1.1,1.1,1.7,2.5,1.7,4.1v22H46.1c-1.6,0-3-0.6-4.1-1.7
		c-1.1-1.1-1.7-2.5-1.7-4.1V37.7h24.4v-6.1c0-0.5-0.2-1-0.6-1.3c-0.4-0.4-0.8-0.6-1.3-0.6H40.3v-3.9L62.8,25.8L62.8,25.8z
		 M64.6,49.7v-8H44.2v6.1c0,0.5,0.2,1,0.6,1.3c0.4,0.4,0.8,0.6,1.3,0.6H64.6z"/>
	<path class="st0" d="M106.3,34.7l0.2,0.8c1.3,1.2,1.9,2.6,1.9,4.3v8.1c0,1.6-0.6,3-1.7,4.1s-2.5,1.7-4.1,1.7H73.9V19.1h27.3
		c1.6,0,3,0.6,4.1,1.7c1.1,1.1,1.7,2.5,1.7,4.1v7.3C107,33,106.8,33.9,106.3,34.7z M101.2,23H79.7c-0.5,0-1,0.2-1.3,0.6
		c-0.4,0.4-0.6,0.8-0.6,1.3v7.3c0,0.5,0.2,1,0.6,1.3c0.4,0.4,0.8,0.6,1.3,0.6h21.6c0.5,0,0.9-0.2,1.3-0.6c0.4-0.4,0.5-0.8,0.5-1.3
		v-7.3c0-0.5-0.2-1-0.5-1.3C102.2,23.1,101.7,23,101.2,23z M104.6,47.9v-8.1c0-0.5-0.2-1-0.6-1.3c-0.4-0.4-0.8-0.6-1.3-0.6h-23
		c-0.5,0-1,0.2-1.3,0.6c-0.4,0.4-0.6,0.8-0.6,1.3v8.1c0,0.5,0.2,1,0.6,1.3c0.4,0.4,0.8,0.6,1.3,0.6h23c0.5,0,1-0.2,1.3-0.6
		C104.4,48.8,104.6,48.4,104.6,47.9z"/>
	<path class="st0" d="M136.2,25.8c1.6,0,3,0.6,4.1,1.7c1.1,1.1,1.7,2.5,1.7,4.1v16.2c0,1.6-0.6,3-1.7,4.1c-1.1,1.1-2.5,1.7-4.1,1.7
		h-22.6v-37h3.9v9.1L136.2,25.8L136.2,25.8z M138,47.8V31.6c0-0.5-0.2-1-0.6-1.3c-0.4-0.4-0.8-0.6-1.3-0.6h-16.7
		c-0.5,0-1,0.2-1.3,0.6s-0.6,0.8-0.6,1.3v16.2c0,0.5,0.2,1,0.6,1.3c0.4,0.4,0.8,0.6,1.3,0.6h16.7c0.5,0,1-0.2,1.3-0.6
		C137.8,48.8,138,48.3,138,47.8z"/>
	<path class="st0" d="M180.2,23h-28.7c-0.5,0-1,0.2-1.3,0.6c-0.4,0.4-0.6,0.8-0.6,1.3v23c0,0.5,0.2,1,0.6,1.3
		c0.4,0.4,0.8,0.6,1.3,0.6h28.7v3.9h-28.7c-1.6,0-3-0.6-4.1-1.7c-1.1-1.1-1.7-2.5-1.7-4.1v-23c0-1.6,0.6-3,1.7-4.1
		c1.1-1.1,2.5-1.7,4.1-1.7h28.7V23z"/>
	<path class="st0" d="M190.7,49.7h22.6v3.9h-22.6c-1.6,0-3-0.6-4.1-1.7c-1.1-1.1-1.7-2.5-1.7-4.1V31.6c0-1.6,0.6-3,1.7-4.1
		c1.1-1.1,2.5-1.7,4.1-1.7h22.5v3.9h-22.5c-0.5,0-1,0.2-1.3,0.6s-0.6,0.8-0.6,1.3v16.2c0,0.5,0.2,1,0.6,1.3
		C189.8,49.5,190.2,49.7,190.7,49.7z"/>
</g>
<g>
	<path class="st1" d="M4.6,70.9c0.6,0,1.2,0.1,1.7,0.4c0.5,0.2,0.9,0.6,1.3,1c0.4,0.4,0.6,0.9,0.8,1.4c0.2,0.5,0.3,1.1,0.3,1.7
		c0,0.6-0.1,1.2-0.3,1.7c-0.2,0.5-0.5,1-0.8,1.4c-0.4,0.4-0.8,0.7-1.3,1c-0.5,0.2-1.1,0.4-1.7,0.4s-1.2-0.1-1.7-0.4
		c-0.5-0.2-0.9-0.6-1.3-1c-0.4-0.4-0.6-0.9-0.8-1.4c-0.2-0.5-0.3-1.1-0.3-1.7c0-0.6,0.1-1.2,0.3-1.7c0.2-0.5,0.5-1,0.8-1.4
		c0.4-0.4,0.8-0.7,1.3-1S3.9,70.9,4.6,70.9z M4.6,72.1c-0.5,0-0.9,0.1-1.2,0.3c-0.3,0.2-0.6,0.4-0.8,0.7c-0.2,0.3-0.4,0.7-0.5,1.1
		C2,74.6,2,75,2,75.4s0,0.8,0.1,1.2c0.1,0.4,0.3,0.7,0.5,1.1C2.8,78,3,78.2,3.4,78.4s0.7,0.3,1.2,0.3s0.9-0.1,1.2-0.3
		c0.3-0.2,0.6-0.4,0.8-0.7C6.8,77.3,6.9,77,7,76.6s0.2-0.8,0.2-1.2S7.1,74.6,7,74.2c-0.1-0.4-0.3-0.7-0.5-1.1
		c-0.2-0.3-0.5-0.6-0.8-0.7C5.4,72.2,5,72.1,4.6,72.1z"/>
	<path class="st1" d="M12.4,71.1h4.1c0.9,0,1.7,0.2,2.1,0.6c0.5,0.4,0.7,1,0.7,1.7c0,0.4-0.1,0.7-0.2,1c-0.1,0.3-0.3,0.5-0.4,0.6
		s-0.3,0.3-0.5,0.4c-0.2,0.1-0.3,0.1-0.3,0.1v0c0.1,0,0.3,0.1,0.4,0.1c0.1,0.1,0.3,0.2,0.4,0.3c0.1,0.1,0.2,0.3,0.3,0.5
		c0.1,0.2,0.1,0.5,0.1,0.8c0,0.5,0,1,0.1,1.4s0.2,0.7,0.4,0.9h-1.6c-0.1-0.2-0.2-0.4-0.2-0.6s0-0.4,0-0.6c0-0.4,0-0.7-0.1-1
		c0-0.3-0.1-0.5-0.3-0.7c-0.1-0.2-0.3-0.3-0.5-0.4c-0.2-0.1-0.5-0.1-0.8-0.1h-2.2v3.5h-1.5L12.4,71.1L12.4,71.1z M13.9,75h2.5
		c0.5,0,0.8-0.1,1.1-0.3c0.2-0.2,0.4-0.6,0.4-1c0-0.3,0-0.5-0.1-0.7s-0.2-0.3-0.3-0.4c-0.1-0.1-0.3-0.2-0.5-0.2s-0.4,0-0.6,0h-2.4
		V75z"/>
	<path class="st1" d="M23.3,71.1h4.2c0.8,0,1.4,0.2,1.8,0.5c0.5,0.4,0.7,0.9,0.7,1.6c0,0.4-0.1,0.8-0.3,1.1s-0.5,0.5-0.9,0.7v0
		c0.5,0.1,0.9,0.4,1.2,0.8c0.3,0.4,0.4,0.9,0.4,1.5c0,0.3-0.1,0.6-0.2,0.9c-0.1,0.3-0.3,0.5-0.6,0.8c-0.3,0.2-0.6,0.4-1,0.5
		c-0.4,0.1-0.9,0.2-1.4,0.2h-3.9V71.1z M24.8,74.7h2.4c0.4,0,0.7-0.1,0.9-0.3s0.4-0.5,0.4-0.9c0-0.4-0.1-0.7-0.3-0.9
		s-0.5-0.3-0.9-0.3h-2.4L24.8,74.7L24.8,74.7z M24.8,78.5h2.7c0.5,0,0.8-0.1,1.1-0.4c0.3-0.2,0.4-0.6,0.4-1c0-0.4-0.1-0.8-0.4-1
		c-0.3-0.2-0.6-0.3-1.1-0.3h-2.7V78.5z"/>
	<path class="st1" d="M34.1,71.1h1.5v8.6h-1.5V71.1z"/>
	<path class="st1" d="M39,71.1H46v1.3h-2.7v7.3h-1.5v-7.3H39V71.1z"/>
	<path class="st1" d="M49.3,71.1h4.1c0.9,0,1.7,0.2,2.1,0.6c0.5,0.4,0.7,1,0.7,1.7c0,0.4-0.1,0.7-0.2,1c-0.1,0.3-0.3,0.5-0.4,0.6
		s-0.3,0.3-0.5,0.4c-0.2,0.1-0.3,0.1-0.3,0.1v0c0.1,0,0.3,0.1,0.4,0.1c0.1,0.1,0.3,0.2,0.4,0.3c0.1,0.1,0.2,0.3,0.3,0.5
		c0.1,0.2,0.1,0.5,0.1,0.8c0,0.5,0,1,0.1,1.4s0.2,0.7,0.4,0.9H55c-0.1-0.2-0.2-0.4-0.2-0.6s0-0.4,0-0.6c0-0.4,0-0.7-0.1-1
		c0-0.3-0.1-0.5-0.3-0.7c-0.1-0.2-0.3-0.3-0.5-0.4c-0.2-0.1-0.5-0.1-0.8-0.1h-2.2v3.5h-1.5L49.3,71.1L49.3,71.1z M50.8,75h2.5
		c0.5,0,0.8-0.1,1.1-0.3c0.2-0.2,0.4-0.6,0.4-1c0-0.3,0-0.5-0.1-0.7s-0.2-0.3-0.3-0.4c-0.1-0.1-0.3-0.2-0.5-0.2s-0.4,0-0.6,0h-2.4
		V75z"/>
	<path class="st1" d="M63.8,70.9c0.6,0,1.2,0.1,1.7,0.4c0.5,0.2,0.9,0.6,1.3,1c0.4,0.4,0.6,0.9,0.8,1.4c0.2,0.5,0.3,1.1,0.3,1.7
		c0,0.6-0.1,1.2-0.3,1.7c-0.2,0.5-0.5,1-0.8,1.4c-0.4,0.4-0.8,0.7-1.3,1c-0.5,0.2-1.1,0.4-1.7,0.4s-1.2-0.1-1.7-0.4
		c-0.5-0.2-0.9-0.6-1.3-1c-0.4-0.4-0.6-0.9-0.8-1.4c-0.2-0.5-0.3-1.1-0.3-1.7c0-0.6,0.1-1.2,0.3-1.7c0.2-0.5,0.5-1,0.8-1.4
		c0.4-0.4,0.8-0.7,1.3-1S63.2,70.9,63.8,70.9z M63.8,72.1c-0.5,0-0.8,0.1-1.2,0.3c-0.3,0.2-0.6,0.4-0.8,0.7
		c-0.2,0.3-0.4,0.7-0.5,1.1c-0.1,0.4-0.1,0.8-0.1,1.2s0.1,0.8,0.1,1.2c0.1,0.4,0.3,0.7,0.5,1.1c0.2,0.3,0.5,0.6,0.8,0.7
		s0.7,0.3,1.2,0.3s0.9-0.1,1.2-0.3c0.3-0.2,0.6-0.4,0.8-0.7c0.2-0.3,0.4-0.7,0.5-1.1s0.2-0.8,0.2-1.2s-0.1-0.8-0.2-1.2
		c-0.1-0.4-0.3-0.7-0.5-1.1c-0.2-0.3-0.5-0.6-0.8-0.7C64.7,72.2,64.3,72.1,63.8,72.1z"/>
	<path class="st1" d="M71.6,71.1h1.6l3.9,6.3h0v-6.3h1.4v8.6H77l-3.9-6.3h0v6.3h-1.4V71.1z"/>
</g>
</svg>
