<?xml version="1.0" encoding="utf-8"?>
<!-- Generator: Adobe Illustrator 22.0.1, SVG Export Plug-In . SVG Version: 6.00 Build 0)  -->
<svg version="1.1" id="Layer_1" xmlns="http://www.w3.org/2000/svg" xmlns:xlink="http://www.w3.org/1999/xlink" x="0px" y="0px"
	 viewBox="0 0 213.4 80.5" style="enable-background:new 0 0 213.4 80.5;" xml:space="preserve">
<style type="text/css">
	.st0{fill:#D4D2CD;}
	.st1{fill:#83CEC1;}
</style>
<g>
	<path class="st0" d="M1,53.3L12.3,0.8h7.5L31,53.3h-7.5l-2.8-13.1h-9.4L8.5,53.3H1z M12.3,34.5h7.5L16,12L12.3,34.5z"/>
	<path class="st0" d="M41.4,53.8c-2.1,0-3.9-0.9-5.3-2.7s-2.2-3.8-2.2-6.1c0-1.8,0.3-3.5,0.9-5s1.3-2.7,1.9-3.6
		c0.7-0.9,1.8-1.8,3.4-2.8s2.8-1.6,3.6-1.9s2.2-0.9,4.3-1.7c0.4-0.1,0.6-0.2,0.8-0.3V27c0-1.9-0.3-3.4-0.8-4.4s-1.5-1.6-3-1.6
		c-1.3,0-2.2,0.4-2.8,1.3s-0.9,2.1-1,3.7c0,0.2,0,0.5,0,1h-7.5c0-3.6,1-6.5,3-8.6s4.7-3.2,8.2-3.2c3.5,0,6.2,1.1,8.2,3.2s3,5,3,8.5
		v16.9c0,3.9,0.3,7,1,9.4h-7.5l-1-5.6c-0.4,0.8-0.7,1.4-1,1.8s-0.6,1-1.1,1.6s-0.9,1.1-1.4,1.5s-1.1,0.6-1.8,0.9
		S42.3,53.8,41.4,53.8z M45.2,47.6c0.5,0,1-0.2,1.5-0.5s0.9-0.6,1.1-0.9s0.6-0.7,0.9-1.2c0.1-0.1,0.1-0.2,0.1-0.2V34.5
		c-0.3,0.2-0.8,0.5-1.6,1s-1.3,0.8-1.7,1.1s-0.9,0.7-1.6,1.2s-1.1,1-1.4,1.4s-0.6,1-0.9,1.7s-0.4,1.4-0.4,2.1
		C41.4,46.1,42.7,47.6,45.2,47.6z"/>
	<path class="st0" d="M63.2,53.3V0.8h11.2c2.4,0,4.6,0.3,6.5,0.8s3.6,1.3,5,2.3s2.5,2.4,3.3,4.1s1.2,3.7,1.2,5.9
		c0,3.3-0.7,5.8-2.1,7.5s-3.5,3-6.4,3.8c3.1,1,5.5,2.6,7,4.6s2.3,4.9,2.3,8.6c0,4.6-1.3,8.3-4,11s-6.3,4-11,4H63.2z M70.7,23.3h3.8
		c6.2,0,9.4-3.1,9.4-9.4c0-1-0.1-1.9-0.4-2.7s-0.6-1.4-0.9-2s-0.9-1-1.6-1.3S79.6,7.2,79,7s-1.4-0.3-2.5-0.4s-2-0.1-2.7-0.2
		s-1.7,0-3.1,0L70.7,23.3L70.7,23.3z M70.7,47.6h3.8c3.2,0,5.6-0.7,7.1-2.2c1.5-1.5,2.3-3.9,2.3-7.1s-0.8-5.6-2.3-7.1
		s-3.9-2.2-7.1-2.2h-3.8V47.6z"/>
	<path class="st0" d="M111.5,53.8c-1.5,0-2.9-0.4-4-1.1s-2.3-1.7-3.5-2.8v3.4h-7.5V0.8h7.5v18.7c0.7-0.7,1.2-1.3,1.6-1.6
		s0.9-0.8,1.5-1.3s1.4-0.9,2.1-1.1s1.5-0.3,2.4-0.3c1.3,0,2.4,0.2,3.4,0.7s1.8,1,2.5,1.7s1.2,1.6,1.6,2.8s0.8,2.3,1,3.3
		s0.4,2.3,0.5,4s0.2,3,0.2,4s0,2.4,0,4.2v0.5c0,1.6-0.1,3.2-0.2,4.7s-0.5,3.1-0.9,4.7c-0.4,1.6-1,2.9-1.7,4.1s-1.6,2.1-2.7,2.8
		S112.9,53.8,111.5,53.8z M109.6,47.6c0.8,0,1.5-0.3,2-0.9s0.9-1.4,1.2-2.5s0.4-2.2,0.5-3.2s0.1-2.3,0.1-3.8c0-1.1,0-2.5,0-4.2
		s0-3,0-3.9s0-1.6-0.1-2.3s-0.1-1.3-0.3-2.1s-0.4-1.3-0.6-1.8s-0.6-0.9-1.1-1.2s-1-0.5-1.7-0.5c-2.1,0-3.9,0.5-5.6,1.5v23.6
		C105.9,47.3,107.8,47.6,109.6,47.6z"/>
	<path class="st0" d="M140.8,53.8c-2.2,0-4.1-0.3-5.8-0.9s-3.1-1.5-4.1-2.6s-1.9-2.5-2.6-4.1c-0.7-1.7-1.1-3.4-1.4-5.3
		s-0.4-4-0.4-6.4v-15c0-2.4,0.1-4.5,0.4-6.4s0.7-3.6,1.4-5.3c0.7-1.7,1.5-3,2.6-4.1s2.5-2,4.1-2.6s3.6-0.9,5.8-0.9
		c2.4,0,4.6,0.4,6.3,1.1s3.2,1.8,4.3,3.2s1.9,3,2.4,4.9s0.9,4,1,6.5c0,0.4,0,0.9,0,1.7h-7.5V16c0-1-0.1-1.9-0.1-2.7
		s-0.2-1.5-0.3-2.3s-0.4-1.4-0.7-1.9s-0.7-1-1.1-1.4s-1-0.8-1.7-1s-1.5-0.3-2.5-0.3c-1.2,0-2.3,0.2-3.1,0.6s-1.5,0.9-2,1.5
		s-0.9,1.4-1.1,2.5s-0.4,2-0.5,3s-0.1,2.2-0.1,3.6v18.8c0,1.2,0.1,2.4,0.2,3.4s0.3,2,0.6,3s0.7,1.9,1.2,2.5s1.2,1.2,2,1.7
		s1.8,0.6,2.9,0.6s2.1-0.2,2.9-0.6s1.4-1,1.9-1.6s0.8-1.5,1.1-2.5s0.4-2,0.5-3s0.1-2.1,0.1-3.4v-1.9h7.5v1.9c0,2.7-0.2,5.1-0.7,7.1
		c-0.5,2.1-1.2,3.9-2.3,5.4s-2.5,2.8-4.3,3.6S143.4,53.8,140.8,53.8z"/>
	<path class="st0" d="M168.8,53.8c-1.8,0-3.4-0.3-4.7-0.9s-2.4-1.4-3.2-2.4s-1.4-2.2-1.9-3.7s-0.8-3-1-4.5s-0.3-3.3-0.3-5.3
		c-0.1-1.6-0.1-3.3,0-4.9c0-2,0.2-3.8,0.3-5.3s0.5-3,1-4.6s1.1-2.8,1.9-3.7s1.9-1.8,3.2-2.4s2.9-0.9,4.7-0.9c3.9,0,6.8,1.1,8.5,3.2
		s2.6,5.3,2.8,9.5v1h-7.5v-1.1c0-0.9-0.1-1.8-0.2-2.5s-0.3-1.4-0.5-2.1s-0.6-1.2-1.1-1.6s-1.1-0.6-1.9-0.6s-1.4,0.2-1.9,0.7
		s-0.9,1.1-1.2,1.9s-0.5,1.7-0.6,2.5s-0.2,1.9-0.2,3c-0.1,2.4-0.1,6.1,0,11c0,1.1,0.1,2,0.2,2.8s0.3,1.6,0.6,2.3s0.6,1.3,1.2,1.7
		s1.1,0.6,1.8,0.6c0.7,0,1.2-0.1,1.7-0.4s0.8-0.6,1.1-0.9s0.5-0.9,0.6-1.5s0.2-1.2,0.3-1.7s0.1-1.2,0.1-2v-0.9h7.5v1
		c-0.1,2-0.3,3.7-0.7,5.2c-0.4,1.5-1.1,2.8-1.9,4s-2,2-3.5,2.6S170.8,53.8,168.8,53.8z"/>
</g>
<g>
	<path class="st1" d="M5.1,70.9c0.6,0,1.2,0.1,1.7,0.4s0.9,0.6,1.3,1c0.4,0.4,0.6,0.9,0.8,1.4s0.3,1.1,0.3,1.7
		c0,0.6-0.1,1.2-0.3,1.7s-0.5,1-0.8,1.4c-0.4,0.4-0.8,0.7-1.3,1c-0.5,0.2-1.1,0.4-1.7,0.4c-0.6,0-1.2-0.1-1.7-0.4
		c-0.5-0.2-0.9-0.6-1.3-1c-0.4-0.4-0.6-0.9-0.8-1.4C1.1,76.6,1,76,1,75.4c0-0.6,0.1-1.2,0.3-1.7c0.2-0.5,0.5-1,0.8-1.4
		c0.4-0.4,0.8-0.7,1.3-1S4.5,70.9,5.1,70.9z M5.1,72.1c-0.5,0-0.9,0.1-1.2,0.3c-0.3,0.2-0.6,0.4-0.8,0.7c-0.2,0.3-0.4,0.7-0.5,1.1
		c-0.1,0.4-0.1,0.8-0.1,1.2s0,0.8,0.1,1.2c0.1,0.4,0.3,0.7,0.5,1.1c0.2,0.3,0.5,0.6,0.8,0.7s0.7,0.3,1.2,0.3s0.8-0.1,1.2-0.3
		s0.6-0.4,0.8-0.7c0.2-0.3,0.4-0.7,0.5-1.1c0.1-0.4,0.1-0.8,0.1-1.2s0-0.8-0.1-1.2c-0.1-0.4-0.3-0.7-0.5-1.1
		c-0.2-0.3-0.5-0.6-0.8-0.7C6,72.2,5.6,72.1,5.1,72.1z"/>
	<path class="st1" d="M14,76.8c0,0.3,0.1,0.6,0.2,0.8c0.1,0.2,0.3,0.4,0.5,0.6c0.2,0.1,0.4,0.3,0.7,0.3c0.3,0.1,0.5,0.1,0.8,0.1
		c0.3,0,0.6,0,0.8-0.1s0.4-0.2,0.6-0.3c0.1-0.1,0.2-0.3,0.3-0.4s0.1-0.3,0.1-0.5c0-0.3-0.1-0.6-0.2-0.7s-0.3-0.3-0.5-0.3
		c-0.3-0.1-0.7-0.2-1.1-0.3c-0.4-0.1-0.9-0.2-1.5-0.4c-0.4-0.1-0.7-0.2-0.9-0.4s-0.4-0.3-0.6-0.5c-0.1-0.2-0.2-0.4-0.3-0.6
		c-0.1-0.2-0.1-0.4-0.1-0.7c0-0.4,0.1-0.8,0.3-1.1c0.2-0.3,0.4-0.6,0.7-0.8s0.6-0.4,1-0.5c0.4-0.1,0.8-0.1,1.1-0.1
		c0.4,0,0.9,0.1,1.3,0.2c0.4,0.1,0.7,0.3,1,0.5c0.3,0.2,0.5,0.5,0.7,0.9s0.3,0.7,0.3,1.2h-1.5c0-0.6-0.2-0.9-0.6-1.2
		c-0.3-0.2-0.8-0.3-1.3-0.3c-0.2,0-0.4,0-0.5,0.1c-0.2,0-0.4,0.1-0.5,0.2s-0.3,0.2-0.4,0.3c-0.1,0.1-0.1,0.3-0.1,0.5
		c0,0.3,0.1,0.5,0.3,0.7c0.2,0.2,0.4,0.3,0.7,0.4c0,0,0.2,0,0.4,0.1c0.2,0.1,0.5,0.1,0.7,0.2c0.3,0.1,0.5,0.1,0.8,0.2
		c0.3,0.1,0.4,0.1,0.6,0.1c0.3,0.1,0.5,0.2,0.7,0.4c0.2,0.2,0.4,0.3,0.5,0.5c0.1,0.2,0.2,0.4,0.3,0.6c0.1,0.2,0.1,0.4,0.1,0.7
		c0,0.5-0.1,0.9-0.3,1.2s-0.5,0.6-0.8,0.8c-0.3,0.2-0.7,0.4-1.1,0.5c-0.4,0.1-0.8,0.1-1.2,0.1c-0.5,0-0.9-0.1-1.4-0.2
		c-0.4-0.1-0.8-0.3-1.1-0.6c-0.3-0.2-0.6-0.6-0.8-1c-0.2-0.4-0.3-0.8-0.3-1.4L14,76.8L14,76.8z"/>
	<path class="st1" d="M22.3,71.1h1.5l1.5,6.6h0l1.7-6.6h1.5l1.7,6.6h0l1.6-6.6h1.5l-2.4,8.6h-1.5l-1.7-6.6h0l-1.8,6.6h-1.5
		L22.3,71.1z"/>
	<path class="st1" d="M38.9,71.1h1.6l3.3,8.6h-1.6l-0.8-2.3h-3.4l-0.8,2.3h-1.5L38.9,71.1z M38.3,76.3h2.6l-1.3-3.7h0L38.3,76.3z"/>
	<path class="st1" d="M47,71.1h1.5v7.3h4.4v1.3H47V71.1z"/>
	<path class="st1" d="M56.3,71.1h3.6c0.7,0,1.2,0.1,1.7,0.3c0.5,0.2,0.9,0.5,1.2,0.9c0.3,0.4,0.5,0.8,0.7,1.4
		c0.1,0.5,0.2,1.1,0.2,1.7c0,0.6-0.1,1.1-0.2,1.7c-0.1,0.5-0.4,1-0.7,1.4s-0.7,0.7-1.2,0.9s-1,0.3-1.7,0.3h-3.6V71.1z M57.8,78.5
		h1.5c0.6,0,1.1-0.1,1.4-0.2c0.4-0.2,0.7-0.4,0.9-0.6c0.2-0.3,0.4-0.6,0.4-1s0.1-0.8,0.1-1.2c0-0.4,0-0.8-0.1-1.2s-0.2-0.7-0.4-1
		c-0.2-0.3-0.5-0.5-0.9-0.6c-0.4-0.2-0.8-0.2-1.4-0.2h-1.5V78.5z"/>
</g>
</svg>
