<svg xmlns="http://www.w3.org/2000/svg" viewBox="0 0 321.97 105.21"><defs><style>.cls-1{fill:#eee;}.cls-2,.cls-3{fill:#ed5642;}.cls-3{font-size:31.66px;font-family:Verdana;}</style></defs><g id="Buttons"><rect class="cls-1" x="2" y="2" width="317.97" height="101.22" rx="18.45"/><path class="cls-2" d="M301.52,105.21H20.45A20.47,20.47,0,0,1,0,84.77V20.45A20.47,20.47,0,0,1,20.45,0H301.52A20.47,20.47,0,0,1,322,20.45V84.77A20.47,20.47,0,0,1,301.52,105.21ZM20.45,4A16.47,16.47,0,0,0,4,20.45V84.77a16.46,16.46,0,0,0,16.45,16.44H301.52A16.46,16.46,0,0,0,318,84.77V20.45A16.47,16.47,0,0,0,301.52,4Z"/><text class="cls-3" transform="translate(103.35 61.78)">Scatter Plot</text><polygon class="cls-2" points="77.86 74.82 28.86 74.82 28.86 28.82 32.86 28.82 32.86 70.82 77.86 70.82 77.86 74.82"/><circle class="cls-2" cx="41.86" cy="47.82" r="3"/><circle class="cls-2" cx="63.86" cy="53.82" r="3"/><circle class="cls-2" cx="69.86" cy="41.82" r="3"/><circle class="cls-2" cx="51.86" cy="55.82" r="3"/><circle class="cls-2" cx="42.86" cy="61.82" r="3"/></g></svg>