<svg xmlns="http://www.w3.org/2000/svg" viewBox="0 0 321.97 105.22"><defs><style>.cls-1{fill:#eee;}.cls-2,.cls-3{fill:#43016b;}.cls-3{font-size:31.66px;font-family:Verdana;}</style></defs><g id="Buttons"><rect class="cls-1" x="2" y="2" width="317.97" height="101.22" rx="18.45"/><path class="cls-2" d="M301.52,105.22H20.45A20.47,20.47,0,0,1,0,84.77V20.45A20.47,20.47,0,0,1,20.45,0H301.52A20.47,20.47,0,0,1,322,20.45V84.77A20.47,20.47,0,0,1,301.52,105.22ZM20.45,4A16.47,16.47,0,0,0,4,20.45V84.77a16.47,16.47,0,0,0,16.45,16.45H301.52A16.47,16.47,0,0,0,318,84.77V20.45A16.47,16.47,0,0,0,301.52,4Z"/><text class="cls-3" transform="translate(113.63 60.15)">Pie Chart</text><path class="cls-2" d="M57.86,50.43h19.9a22,22,0,0,0-19.9-19.9Z"/><path class="cls-2" d="M53.86,54.43V30.53a22,22,0,1,0,23.9,23.9Z"/></g></svg>