<svg xmlns="http://www.w3.org/2000/svg" viewBox="0 0 321.97 105.22"><defs><style>.cls-1{fill:#eee;}.cls-2,.cls-3{fill:#6473f7;}.cls-3{font-size:31.66px;font-family:Verdana;}</style></defs><g id="Buttons"><rect class="cls-1" x="2" y="2" width="317.97" height="101.22" rx="18.45"/><path class="cls-2" d="M301.52,105.22H20.45A20.47,20.47,0,0,1,0,84.77V20.45A20.47,20.47,0,0,1,20.45,0H301.52A20.47,20.47,0,0,1,322,20.45V84.77A20.47,20.47,0,0,1,301.52,105.22ZM20.45,4A16.47,16.47,0,0,0,4,20.45V84.77a16.47,16.47,0,0,0,16.45,16.45H301.52A16.47,16.47,0,0,0,318,84.77V20.45A16.47,16.47,0,0,0,301.52,4Z"/><text class="cls-3" transform="translate(119.63 63.7)">Bar Chart</text><polygon class="cls-2" points="77.86 77.22 28.86 77.22 28.86 31.22 32.86 31.22 32.86 73.22 77.86 73.22 77.86 77.22"/><rect class="cls-2" x="37.86" y="58.22" width="9" height="11"/><rect class="cls-2" x="52.05" y="49.22" width="9" height="19.76"/><rect class="cls-2" x="64.86" y="36.22" width="9" height="33"/></g></svg>