<svg xmlns="http://www.w3.org/2000/svg" viewBox="0 0 321.97 105.22"><defs><style>.cls-1{fill:#eee;}.cls-2{fill:#373d3f;}.cls-3{font-size:31.66px;font-family:Verdana;}</style></defs><g id="Buttons"><rect class="cls-1" x="1.92" y="2.23" width="317.97" height="101.22" rx="18.45"/><path class="cls-2" d="M301.44,105.44H20.37A20.47,20.47,0,0,1-.08,85V20.67A20.47,20.47,0,0,1,20.37.23H301.44a20.47,20.47,0,0,1,20.45,20.44V85A20.47,20.47,0,0,1,301.44,105.44ZM20.37,4.23A16.46,16.46,0,0,0,3.92,20.67V85a16.47,16.47,0,0,0,16.45,16.45H301.44A16.47,16.47,0,0,0,317.89,85V20.67A16.46,16.46,0,0,0,301.44,4.23Z"/><text class="cls-3" transform="translate(78.53 60.47)">Age Count</text></g></svg>