<svg xmlns="http://www.w3.org/2000/svg" viewBox="0 0 944 333"><defs><style>.cls-1{fill:#cea7ea;}.cls-2{fill:#eee;}.cls-3{font-size:63.27px;font-family:Roboto-Bold, Roboto;font-weight:700;}.cls-3,.cls-4{fill:#43016b;}</style></defs><g id="More_Info_Dialogue" data-name="More Info Dialogue"><rect class="cls-1" width="944" height="333"/><rect class="cls-2" x="350" y="116.18" width="100.76" height="100.96" rx="6.38"/><text class="cls-3" transform="translate(385.21 189.16)">?</text><rect class="cls-2" x="492.93" y="116.02" width="100.91" height="100.96" rx="6.38" transform="translate(0.6 -1.95) rotate(0.21)"/><path class="cls-4" d="M545.28,143.17a23.37,23.37,0,0,0-20.44,16.92l-.26.89-4.4-.06a25.86,25.86,0,0,0-4.36.07c0,.07,2.69,4.44,5.93,9.72,4.45,7.24,5.93,9.57,6,9.47s12.41-18.82,12.41-18.91-1.82-.08-4-.08-4.07-.06-4.1-.11a4.5,4.5,0,0,1,.37-1.07,16.18,16.18,0,0,1,12.06-9.61,19.51,19.51,0,0,1,5.45,0,16.29,16.29,0,0,1,12.24,10.07,16.09,16.09,0,0,1-23,19.77c-.68-.4-1-.5-1.05-.4s-3.71,5.58-3.71,5.69,2.4,1.58,4.06,2.24a23.17,23.17,0,0,0,31.27-16.41,19.72,19.72,0,0,0,.49-5.66,19,19,0,0,0-.88-6,23.24,23.24,0,0,0-24.1-16.55Z"/></g></svg>