<svg xmlns="http://www.w3.org/2000/svg" viewBox="0 0 944 333"><defs><style>.cls-1{fill:#eee;}.cls-2{font-size:14.27px;}.cls-10,.cls-2,.cls-5,.cls-9{font-family:Verdana;}.cls-10,.cls-14,.cls-3{fill:#fff;}.cls-11,.cls-4{fill:#43016b;}.cls-5{font-size:9.92px;}.cls-6{letter-spacing:-0.02em;}.cls-7{fill:#6473f7;}.cls-8{fill:#ed5642;}.cls-10,.cls-9{font-size:7px;}.cls-11{font-size:20px;font-family:Verdana-Bold, Verdana;font-weight:700;}.cls-12{fill:#ecdef9;}.cls-13{fill:#cea7ea;}.cls-14{stroke:#000;stroke-miterlimit:10;}.cls-15{fill:#bbb;}</style></defs><g id="More_Info_Dialogue" data-name="More Info Dialogue"><rect class="cls-1" width="944" height="333"/><text class="cls-2" transform="translate(534.89 61.62)">Gender Pie Chart</text><rect class="cls-3" x="515.29" y="33.22" width="380.43" height="242.5" rx="12.91"/><path class="cls-4" d="M882.81,277.72H528.19a14.92,14.92,0,0,1-14.9-14.91V46.13a14.92,14.92,0,0,1,14.9-14.91H882.81a14.92,14.92,0,0,1,14.9,14.91V262.81A14.92,14.92,0,0,1,882.81,277.72ZM528.19,35.22a10.91,10.91,0,0,0-10.9,10.91V262.81a10.91,10.91,0,0,0,10.9,10.91H882.81a10.91,10.91,0,0,0,10.9-10.91V46.13a10.91,10.91,0,0,0-10.9-10.91Z"/><text class="cls-2" transform="translate(535.2 61.94)">Gender Pie Chart</text><text class="cls-5" transform="translate(828.81 107.56)"><tspan class="cls-6">F</tspan><tspan x="5.46" y="0">emale</tspan></text><text class="cls-5" transform="translate(828.84 87.63) rotate(-0.7)">Male</text><rect class="cls-7" x="811.79" y="78.72" width="12" height="12"/><rect class="cls-8" x="811.79" y="97.72" width="12" height="12"/><path class="cls-8" d="M694.15,178l-7.84,89.6A89.94,89.94,0,0,1,694.15,88Z"/><path class="cls-7" d="M694.15,178V88a89.95,89.95,0,0,1,0,179.89,73.33,73.33,0,0,1-7.84-.35Z"/><text class="cls-9" transform="translate(626.05 168.5)">48.4%</text><text class="cls-10" transform="translate(709.2 168.66)">51.6%</text><text class="cls-2" transform="translate(67.89 61.62)">Gender Pie Chart</text><rect class="cls-3" x="48.29" y="33.22" width="380.43" height="242.5" rx="12.91"/><path class="cls-4" d="M415.81,277.72H61.19a14.92,14.92,0,0,1-14.9-14.91V46.13a14.92,14.92,0,0,1,14.9-14.91H415.81a14.92,14.92,0,0,1,14.9,14.91V262.81A14.92,14.92,0,0,1,415.81,277.72ZM61.19,35.22a10.91,10.91,0,0,0-10.9,10.91V262.81a10.91,10.91,0,0,0,10.9,10.91H415.81a10.91,10.91,0,0,0,10.9-10.91V46.13a10.91,10.91,0,0,0-10.9-10.91Z"/><text class="cls-2" transform="translate(68.2 61.94)">Gender Pie Chart</text><text class="cls-11" transform="translate(127.65 156.94)">50% of users chose <tspan x="-24.95" y="24">the same answer as you.</tspan></text><text class="cls-10" transform="translate(242.2 168.66)">51.6%</text><rect class="cls-12" x="515.94" y="277.78" width="380" height="24"/><rect class="cls-13" x="515.94" y="277.78" width="190" height="24"/><rect class="cls-12" x="48.94" y="277.78" width="380" height="24"/><rect class="cls-13" x="48.94" y="277.78" width="190" height="24"/><circle class="cls-13" cx="332.93" cy="209.76" r="10"/><path class="cls-13" d="M332.93,227.26a17.5,17.5,0,1,1,17.5-17.5A17.52,17.52,0,0,1,332.93,227.26Zm0-32a14.5,14.5,0,1,0,14.5,14.5A14.51,14.51,0,0,0,332.93,195.26Z"/><path d="M352.57,251.22c0,.28,0,.56,0,.84,0,1.87-.05,3.74-.07,5.61,0,.05,0,.09,0,.18H330.25v-6.64h-2.18v-4.43h2.2v4.39h2.23v4.43h17.75v-4.37h2.32Z"/><path d="M325.84,231.2h2.21V211.32l2.18-.12h0c0,.15,0,.3,0,.44q0,11.79,0,23.59v.41h-2.21v-2.16h-2.21v-2.28Z"/><path d="M323.6,235.66v2.21h2.22v4.42H328v4.45h-2.21v-4.4h-2.26v-4.42h-2.13c0-.73,0-1.4,0-2.07,0-.07.17-.18.26-.19Z"/><path d="M325.85,231.19H321.4v4.45h-2.22V229h6.66v2.16Z"/><path d="M330.23,211.2c0-.52,0-1,.06-1.55,0-.19,0-.38,0-.59h4.38v2.13l-.14,0h-4.08a1.6,1.6,0,0,1-.23,0Z"/><path d="M336.93,220.13h4.43v2.2H337v8.85h-2.2V211.3h2.18Z"/><path d="M352.58,251.23c0-.48-.07-.95-.07-1.42,0-1.65,0-3.29,0-4.93,0-.1,0-.2,0-.34h2.19v-.46q0-7.38,0-14.75c0-.14,0-.27,0-.41h0c.43,0,.85,0,1.28.06h.89v15.56c-.42,0-.83,0-1.23,0-1,0-1,0-1,1,0,1.74,0,3.49,0,5.23v.43h-2.15Z"/><path d="M354.77,228.92c-.25,0-.49.06-.73.06H352.5v-1.52c0-.13,0-.27,0-.41a.23.23,0,0,0-.26-.27h-2v6.63h-2.18c0-.1,0-.19,0-.27q0-4.18,0-8.37a2.3,2.3,0,0,1,0-.26h0l2.71,0h1.69c0,.6,0,1.16,0,1.72s0,.51.49.52h1.78v2.13Z"/><path d="M348.1,224.52l-1.46,0h-3.05v6.64h-2.18v-8.8h6.68v2.13Z"/><path class="cls-14" d="M321.4,231.19h4.44v2.27h2.21v2.16h2.21l0-24.43h4.45l.07,20H337v-8.85l4.46.06v8.8h2.18s0-6.67,0-6.64,4.51,0,4.51,0v8.9h2.18v-6.63h2.23V229l2.26-.06,0,15.61h-2.19l0,6.69h-2.33v4.37H332.5v-4.43h-2.23v-4.39l-2.25,0v-4.45h-2.2v-4.42H323.6v-2.21l-2.2,0Z"/><path d="M826.57,251.22c0,.28,0,.56,0,.84,0,1.87,0,3.74-.07,5.61,0,.05,0,.09,0,.18H804.25v-6.64h-2.18v-4.43h2.2v4.39h2.23v4.43h17.75v-4.37h2.32Z"/><path d="M799.84,231.2h2.21V211.32l2.18-.12h0c0,.15,0,.3,0,.44q0,11.79,0,23.59v.41h-2.21v-2.16h-2.21v-2.28Z"/><path d="M797.6,235.66v2.21h2.22v4.42H802v4.45h-2.21v-4.4h-2.26v-4.42h-2.13c0-.73,0-1.4,0-2.07,0-.07.17-.18.26-.19Z"/><path d="M799.85,231.19H795.4v4.45h-2.22V229h6.66v2.16Z"/><path d="M804.23,211.2c0-.52,0-1,.06-1.55,0-.19,0-.38,0-.59h4.38v2.13l-.14,0h-4.08a1.6,1.6,0,0,1-.23,0Z"/><path d="M810.93,220.13h4.43v2.2H811v8.85h-2.2V211.3h2.18Z"/><path d="M826.58,251.23c0-.48-.07-.95-.07-1.42,0-1.65,0-3.29,0-4.93,0-.1,0-.2,0-.34h2.19v-.46q0-7.38,0-14.75c0-.14,0-.27,0-.41h0c.43,0,.85,0,1.28.06h.89v15.56c-.42,0-.83,0-1.23,0-1,0-1,0-1,1,0,1.74,0,3.49,0,5.23v.43h-2.15Z"/><path d="M828.77,228.92c-.25,0-.49.06-.73.06H826.5v-1.52c0-.13,0-.27,0-.41a.23.23,0,0,0-.26-.27h-2v6.63h-2.18c0-.1,0-.19,0-.27q0-4.18,0-8.37a2.3,2.3,0,0,1,0-.26h0l2.71,0h1.69c0,.6,0,1.16,0,1.72s0,.51.49.52h1.78v2.13Z"/><path d="M822.1,224.52l-1.46,0h-3v6.64h-2.18v-8.8h6.68v2.13Z"/><path class="cls-14" d="M795.4,231.19h4.44v2.27h2.21v2.16h2.21l0-24.43h4.45l.07,20H811v-8.85l4.46.06v8.8h2.18s0-6.67,0-6.64,4.51,0,4.51,0v8.9h2.18v-6.63h2.23V229l2.26-.06,0,15.61h-2.19l0,6.69h-2.33v4.37H806.5v-4.43h-2.23v-4.39l-2.25,0v-4.45h-2.2v-4.42H797.6v-2.21l-2.2,0Z"/><rect class="cls-15" x="467.5" width="9" height="333"/></g></svg>