<svg xmlns="http://www.w3.org/2000/svg" viewBox="0 0 944 333"><defs><style>.cls-1{fill:#cea7ea;}.cls-2{fill:#eee;}.cls-3{fill:#43016b;}</style></defs><g id="More_Info_Dialogue" data-name="More Info Dialogue"><rect class="cls-1" width="944" height="333"/><rect class="cls-2" x="351.59" y="116.84" width="99.44" height="99.64" rx="6.38"/><rect class="cls-2" x="492.66" y="116.68" width="99.59" height="99.64" rx="6.38" transform="translate(0.6 -1.95) rotate(0.21)"/><path class="cls-3" d="M567.51,141.42a35.51,35.51,0,1,0,9.23,34h-9.23a26.62,26.62,0,1,1-25.08-35.5,26.23,26.23,0,0,1,18.73,7.9l-14.29,14.29h31.07V131Z"/><path class="cls-3" d="M397.28,190.86h8.07V182.8h-8.07Zm4-64.54a40.34,40.34,0,1,0,40.34,40.34A40.35,40.35,0,0,0,401.31,126.32Zm0,72.61a32.27,32.27,0,1,1,32.28-32.27A32.32,32.32,0,0,1,401.31,198.93Zm0-56.47a16.13,16.13,0,0,0-16.13,16.13h8.07a8.07,8.07,0,1,1,16.13,0c0,8.07-12.1,7.06-12.1,20.17h8.07c0-9.07,12.1-10.08,12.1-20.17A16.13,16.13,0,0,0,401.31,142.46Z"/></g></svg>