<svg id="Graphs" xmlns="http://www.w3.org/2000/svg" viewBox="0 0 384.43 246.5"><defs><style>.cls-1{font-size:14.27px;}.cls-1,.cls-4,.cls-8,.cls-9{font-family:Verdana;}.cls-2{fill:#6473f7;}.cls-3{fill:#ed5642;}.cls-4{font-size:9.92px;}.cls-5{letter-spacing:-0.02em;}.cls-6,.cls-9{fill:#fff;}.cls-7{fill:#43016b;}.cls-8,.cls-9{font-size:7px;}</style></defs><text class="cls-1" transform="translate(21.61 30.4)">Gender Pie Chart</text><rect class="cls-2" x="297.91" y="21.16" width="11.72" height="11.72"/><rect class="cls-3" x="291.91" y="41.89" width="11.72" height="11.72"/><text class="cls-4" transform="translate(314.79 51.18)"><tspan class="cls-5">F</tspan><tspan x="5.46" y="0">emale</tspan></text><text class="cls-4" transform="translate(320.81 30.89)">Male</text><rect class="cls-6" x="2" y="2" width="380.43" height="242.5" rx="12.91"/><path class="cls-7" d="M369.52,246.5H14.91A14.93,14.93,0,0,1,0,231.59V14.91A14.93,14.93,0,0,1,14.91,0H369.52a14.93,14.93,0,0,1,14.91,14.91V231.59A14.93,14.93,0,0,1,369.52,246.5ZM14.91,4A10.92,10.92,0,0,0,4,14.91V231.59A10.92,10.92,0,0,0,14.91,242.5H369.52a10.92,10.92,0,0,0,10.91-10.91V14.91A10.92,10.92,0,0,0,369.52,4Z"/><text class="cls-1" transform="translate(21.91 30.72)">Gender Pie Chart</text><text class="cls-4" transform="translate(315.53 76.34)"><tspan class="cls-5">F</tspan><tspan x="5.46" y="0">emale</tspan></text><text class="cls-4" transform="translate(315.55 56.41) rotate(-0.7)">Male</text><rect class="cls-2" x="298.5" y="47.5" width="12" height="12"/><rect class="cls-3" x="298.5" y="66.5" width="12" height="12"/><path class="cls-3" d="M164.8,137.52,157,227.12A89.95,89.95,0,0,1,164.8,47.57Z"/><path class="cls-2" d="M164.8,137.52v-90a89.95,89.95,0,0,1,0,179.89,76,76,0,0,1-7.84-.34Z"/><text class="cls-8" transform="translate(112.76 137.28)">48.4%</text><text class="cls-9" transform="translate(195.92 137.44)">51.6%</text></svg>