<svg id="Graphs" xmlns="http://www.w3.org/2000/svg" viewBox="0 0 384.43 246.5"><defs><style>.cls-1{fill:#fff;}.cls-2{fill:#ed5642;}.cls-3{font-size:14.27px;}.cls-3,.cls-4,.cls-7{font-family:Verdana;}.cls-4{font-size:7.66px;}.cls-5{fill:#e5ecf6;}.cls-6{fill:#6473f7;}.cls-7{font-size:9.92px;}.cls-8{letter-spacing:-0.01em;}</style></defs><rect class="cls-1" x="2" y="2" width="380.43" height="242.5" rx="12.91"/><path class="cls-2" d="M369.52,246.5H14.91A14.93,14.93,0,0,1,0,231.59V14.91A14.93,14.93,0,0,1,14.91,0H369.52a14.93,14.93,0,0,1,14.91,14.91V231.59A14.93,14.93,0,0,1,369.52,246.5ZM14.91,4A10.92,10.92,0,0,0,4,14.91V231.59A10.92,10.92,0,0,0,14.91,242.5H369.52a10.92,10.92,0,0,0,10.91-10.91V14.91A10.92,10.92,0,0,0,369.52,4Z"/><text class="cls-3" transform="translate(21.83 30.62)">Age Scatter Plot</text><text class="cls-4" transform="translate(69.75 216.75)">0</text><text class="cls-4" transform="translate(129 216.75)">5</text><text class="cls-4" transform="translate(185.81 216.75)">10</text><text class="cls-4" transform="translate(245.06 216.75)">15</text><text class="cls-4" transform="translate(304.3 216.75)">20</text><text class="cls-4" transform="translate(63.79 199.11)">1</text><text class="cls-4" transform="translate(63.79 178.92)">2</text><text class="cls-4" transform="translate(63.79 158.73)">3</text><text class="cls-4" transform="translate(63.79 138.55)">4</text><text class="cls-4" transform="translate(63.79 118.36)">5</text><text class="cls-4" transform="translate(63.79 98.17)">6</text><text class="cls-4" transform="translate(63.79 77.98)">7</text><text class="cls-4" transform="translate(63.79 57.79)">8</text><rect class="cls-5" x="191.18" y="76.12" width="58.25" height="19.19"/><rect class="cls-5" x="191.18" y="48.87" width="58.25" height="6.06"/><rect class="cls-5" x="131.93" y="48.87" width="58.25" height="6.06"/><rect class="cls-5" x="191.18" y="55.93" width="58.25" height="19.19"/><rect class="cls-5" x="72.3" y="55.93" width="58.63" height="19.19"/><rect class="cls-5" x="72.3" y="96.31" width="58.63" height="19.19"/><rect class="cls-5" x="72.3" y="76.12" width="58.63" height="19.19"/><rect class="cls-5" x="191.18" y="96.31" width="58.25" height="19.19"/><rect class="cls-5" x="131.93" y="55.93" width="58.25" height="19.19"/><rect class="cls-5" x="191.18" y="177.06" width="58.25" height="19.19"/><rect class="cls-5" x="131.93" y="76.12" width="58.25" height="19.19"/><rect class="cls-5" x="131.93" y="96.31" width="58.25" height="19.19"/><rect class="cls-5" x="72.3" y="116.49" width="58.63" height="19.19"/><rect class="cls-5" x="191.18" y="156.87" width="58.25" height="19.19"/><rect class="cls-5" x="131.93" y="136.68" width="58.25" height="19.19"/><rect class="cls-5" x="191.18" y="136.68" width="58.25" height="19.19"/><rect class="cls-5" x="191.18" y="116.49" width="58.25" height="19.19"/><rect class="cls-5" x="131.93" y="156.87" width="58.25" height="19.19"/><rect class="cls-5" x="131.93" y="116.49" width="58.25" height="19.19"/><rect class="cls-5" x="250.43" y="96.31" width="58.25" height="19.19"/><rect class="cls-5" x="250.43" y="136.68" width="58.25" height="19.19"/><rect class="cls-5" x="250.43" y="76.12" width="58.25" height="19.19"/><rect class="cls-5" x="250.43" y="116.49" width="58.25" height="19.19"/><rect class="cls-5" x="250.43" y="55.93" width="58.25" height="19.19"/><rect class="cls-5" x="72.3" y="197.25" width="58.63" height="7.13"/><polygon class="cls-5" points="309.68 48.87 309.68 54.93 331.72 54.93 331.72 55.93 309.68 55.93 309.68 75.12 331.72 75.12 331.72 76.12 309.68 76.12 309.68 95.31 331.72 95.31 331.72 96.31 309.68 96.31 309.68 115.49 331.72 115.49 331.72 116.49 309.68 116.49 309.68 135.68 331.72 135.68 331.72 136.68 309.68 136.68 309.68 155.87 331.72 155.87 331.72 156.87 309.68 156.87 309.68 176.06 331.72 176.06 331.72 177.06 309.68 177.06 309.68 196.25 331.72 196.25 331.72 197.25 309.68 197.25 309.68 204.37 331.78 204.37 331.78 48.87 309.68 48.87"/><rect class="cls-5" x="72.3" y="136.68" width="58.63" height="19.19"/><rect class="cls-5" x="72.3" y="48.87" width="58.63" height="6.06"/><rect class="cls-5" x="250.43" y="48.87" width="58.25" height="6.06"/><rect class="cls-5" x="250.43" y="156.87" width="58.25" height="19.19"/><rect class="cls-5" x="72.3" y="177.06" width="58.63" height="19.19"/><rect class="cls-5" x="131.93" y="177.06" width="58.25" height="19.19"/><rect class="cls-5" x="72.3" y="156.87" width="58.63" height="19.19"/><rect class="cls-5" x="131.93" y="197.25" width="58.25" height="7.13"/><rect class="cls-5" x="250.43" y="177.06" width="58.25" height="19.19"/><rect class="cls-5" x="191.18" y="197.25" width="58.25" height="7.13"/><rect class="cls-5" x="250.43" y="197.25" width="58.25" height="7.13"/><circle class="cls-6" cx="84.03" cy="115.99" r="4.01"/><circle class="cls-6" cx="95.88" cy="115.99" r="4.01"/><circle class="cls-6" cx="107.73" cy="55.43" r="4.01"/><circle class="cls-6" cx="119.58" cy="196.75" r="4.01"/><circle class="cls-6" cx="131.43" cy="156.37" r="4.01"/><circle class="cls-6" cx="143.28" cy="196.75" r="4.01"/><circle class="cls-6" cx="155.13" cy="176.56" r="4.01"/><circle class="cls-6" cx="166.98" cy="156.37" r="4.01"/><circle class="cls-6" cx="190.68" cy="196.75" r="4.01"/><circle class="cls-6" cx="202.53" cy="196.75" r="4.01"/><circle class="cls-6" cx="261.78" cy="196.75" r="4.01"/><text class="cls-7" transform="translate(171.82 232.21)">Age (<tspan class="cls-8" x="26.85" y="0">y</tspan><tspan x="32.63" y="0">ears)</tspan></text><text class="cls-7" transform="translate(46.78 138.81) rotate(-90)">Count</text></svg>