<svg id="Graphs" xmlns="http://www.w3.org/2000/svg" viewBox="0 0 384.43 246.5"><defs><style>.cls-1{font-size:14.27px;}.cls-1,.cls-18,.cls-19,.cls-4{font-family:Verdana;}.cls-2{fill:#6473f7;}.cls-3{fill:#ed5642;}.cls-4{font-size:9.92px;}.cls-5{letter-spacing:-0.02em;}.cls-19,.cls-6{fill:#fff;}.cls-7{fill:#43016b;}.cls-8{fill:#20cb97;}.cls-9{fill:#aa69f7;}.cls-10{fill:#fd6893;}.cls-11{fill:#6573f7;}.cls-12{fill:#c7cbfb;}.cls-13{fill:#fdca5d;}.cls-14{fill:#fe9afd;}.cls-15{fill:#b7e785;}.cls-16{fill:#2ed3f1;}.cls-17{fill:#fda161;}.cls-18,.cls-19{font-size:7px;}</style></defs><text class="cls-1" transform="translate(21.61 30.4)">Gender Pie Chart</text><rect class="cls-2" x="291.91" y="21.16" width="11.72" height="11.72"/><rect class="cls-3" x="291.91" y="19.89" width="11.72" height="11.72"/><text class="cls-4" transform="translate(314.79 29.18)"><tspan class="cls-5">F</tspan><tspan x="5.46" y="0">emale</tspan></text><text class="cls-4" transform="translate(314.81 30.89)">Male</text><rect class="cls-6" x="2" y="2" width="380.43" height="242.5" rx="12.91"/><path class="cls-7" d="M369.52,246.5H14.91A14.93,14.93,0,0,1,0,231.59V14.91A14.93,14.93,0,0,1,14.91,0H369.52a14.93,14.93,0,0,1,14.91,14.91V231.59A14.93,14.93,0,0,1,369.52,246.5ZM14.91,4A10.92,10.92,0,0,0,4,14.91V231.59A10.92,10.92,0,0,0,14.91,242.5H369.52a10.92,10.92,0,0,0,10.91-10.91V14.91A10.92,10.92,0,0,0,369.52,4Z"/><text class="cls-1" transform="translate(22.38 30.72)">Age Pie Chart</text><text class="cls-4" transform="translate(315.53 54.34)">2</text><text class="cls-4" transform="translate(315.55 34.41) rotate(-0.7)">1</text><rect class="cls-3" x="298.5" y="25.5" width="12" height="12"/><rect class="cls-8" x="298.5" y="44.5" width="12" height="12"/><rect class="cls-9" x="298.4" y="101.22" width="12" height="12"/><rect class="cls-10" x="298.4" y="82.22" width="12" height="12"/><rect class="cls-11" x="298.4" y="63.22" width="12" height="12"/><text class="cls-4" transform="translate(315.78 92.57)">4</text><text class="cls-4" transform="translate(315.81 72.64) rotate(-0.7)">3</text><text class="cls-4" transform="translate(316.31 110.5)">5</text><path class="cls-12" d="M164.46,137.2,145.91,49.93a87.61,87.61,0,0,1,18.55-2Z"/><path class="cls-13" d="M164.46,137.2,128.17,55.7a87.79,87.79,0,0,1,17.74-5.77Z"/><path class="cls-14" d="M164.46,137.2,113.29,64.12a79.66,79.66,0,0,1,14.88-8.42Z"/><path class="cls-15" d="M164.46,137.2,99.21,76.36a87.78,87.78,0,0,1,14.08-12.24Z"/><path class="cls-10" d="M164.46,137.2,88,91.25A87,87,0,0,1,99.21,76.36Z"/><path class="cls-16" d="M164.46,137.2,76.11,124.79A84.19,84.19,0,0,1,88,91.25Z"/><path class="cls-17" d="M164.46,137.2,85,177.71a85.84,85.84,0,0,1-8.86-52.92Z"/><path class="cls-9" d="M164.46,137.2l-43.25,78C104.53,206,93.62,194.7,85,177.71Z"/><path class="cls-8" d="M164.46,137.2l44.61,77.27a88.08,88.08,0,0,1-87.86.77Z"/><path class="cls-3" d="M164.46,137.2l89.17,3.12c-1.11,31.76-17,58.26-44.56,74.15Z"/><path class="cls-11" d="M164.46,137.2V48a89.22,89.22,0,0,1,89.22,89.22c0,1.58,0,1.54-.05,3.12Z"/><text class="cls-18" transform="translate(202.63 166.27)">16.1%</text><text class="cls-19" transform="translate(190.79 105.44)">25.8%</text><text class="cls-18" transform="translate(154.36 194.52)">16.1%</text><text class="cls-18" transform="translate(105.6 184.52)">9.68%</text><text class="cls-18" transform="translate(87.6 149.52)">9.68%</text><text class="cls-18" transform="translate(89.6 117.52)">6.45%</text><text class="cls-18" transform="matrix(0.83, 0.56, -0.56, 0.83, 97.03, 89.69)">3.23%</text><text class="cls-18" transform="matrix(0.06, 1, -1, 0.06, 154.01, 57.19)">3.23%</text><text class="cls-18" transform="translate(137.46 61.11) rotate(73.07)">3.23%</text><text class="cls-18" transform="translate(122.32 67.55) rotate(60.43)">3.23%</text><text class="cls-18" transform="matrix(0.64, 0.77, -0.77, 0.64, 109.72, 77.05)">3.23%</text><text class="cls-4" transform="translate(315.6 148.66)">7</text><text class="cls-4" transform="translate(315.63 128.74) rotate(-0.7)">6</text><rect class="cls-15" x="298.57" y="119.82" width="12" height="12"/><rect class="cls-16" x="298.57" y="138.82" width="12" height="12"/><rect class="cls-13" x="298.47" y="195.54" width="12" height="12"/><rect class="cls-10" x="298.47" y="176.54" width="12" height="12"/><rect class="cls-17" x="298.47" y="157.54" width="12" height="12"/><text class="cls-4" transform="translate(315.85 186.89)">10</text><text class="cls-4" transform="translate(315.88 166.96) rotate(-0.7)">8</text><text class="cls-4" transform="translate(316.38 204.82)">11</text><rect class="cls-12" x="298.59" y="214.72" width="12" height="12"/><text class="cls-4" transform="translate(316.5 223.99)">16</text></svg>