<svg xmlns="http://www.w3.org/2000/svg" viewBox="0 0 417.26 123.69"><defs><style>.cls-1{fill:#969595;}.cls-2{fill:#747bb7;}.cls-3,.cls-9{fill:#fff;}.cls-4{fill:none;}.cls-5{fill:#5f68af;}.cls-6{fill:#f16722;}.cls-7{fill:#f06923;}.cls-11,.cls-8{fill:#f05a2d;}.cls-8{opacity:0.5;}.cls-8,.cls-9{isolation:isolate;}.cls-9{opacity:0.15;}.cls-10{fill:#f37d37;}.cls-12{fill:#777ebc;}.cls-13{fill:#6f4a9d;}.cls-14{fill:#c7a8cf;}</style></defs><g id="More_Info_Dialogue" data-name="More Info Dialogue"><path class="cls-1" d="M182.25,47.21h-8.53V35.59c0-1.65-.25-2.7-.74-3.15a4.83,4.83,0,0,0-3.09-.68h-6.8c-1.65,0-2.7.23-3.15.68s-.68,1.5-.68,3.15V90.36a4.85,4.85,0,0,0,.68,3.09c.45.49,1.5.74,3.15.74h6.8c1.56,0,2.59-.25,3.09-.74s.74-1.52.74-3.09V78.74h8.53v13q0,9.77-9.77,9.77h-12q-9.77,0-9.77-9.77V34.23q0-9.76,9.77-9.77h12q9.77,0,9.77,9.77v13Z"/><path class="cls-1" d="M215.11,40.48h8.53v60.88h-8.53V97.28q-1.35,4.08-6.8,4.08h-4.94q-9.78,0-9.77-9.76V51.17q0-9.77,9.77-9.77h4.94q5.44,0,6.8,4.08ZM206,94.07h4.95a4.36,4.36,0,0,0,3.21-1,4.82,4.82,0,0,0,1-3.46V53.15a4.86,4.86,0,0,0-1-3.47,4.45,4.45,0,0,0-3.21-1H206c-1.65,0-2.7.24-3.15.74s-.68,1.53-.68,3.09V90.24c0,1.65.22,2.7.68,3.15S204.32,94.07,206,94.07Z"/><path class="cls-1" d="M243.64,101.36h-8.52V18.65h8.52Z"/><path class="cls-1" d="M263.63,101.36H255.1V18.65h8.53Z"/><path class="cls-1" d="M336.72,90.36V79c0-1.56-.24-2.6-.74-3.09s-1.52-.74-3.09-.74h-6.05q-9.78,0-9.77-9.77V51.18q0-9.76,9.77-9.77h8.4q9.76,0,9.77,9.77v6.06H336.6V52.41c0-1.65-.22-2.7-.68-3.15s-1.5-.68-3.15-.68h-3.46c-1.65,0-2.7.23-3.15.68s-.68,1.5-.68,3.15V64.16a4.82,4.82,0,0,0,.68,3.08q.68.75,3.15.75h6.06q9.76,0,9.77,9.76V91.6q0,9.77-9.77,9.77h-8.28q-9.78,0-9.77-9.77v-6h8.4v4.82c0,1.57.23,2.59.69,3.08s1.5.75,3.15.75h3.33q2.36,0,3.09-.75C336.48,93,336.72,91.93,336.72,90.36Z"/><path class="cls-1" d="M376.06,48.69h-8.54V89.62c0,1.57.25,2.59.75,3.08s1.52.74,3.09.74h4.7v7.92h-7.3q-9.76,0-9.77-9.77V48.69h-5.44V41.4H359V31.63h8.53V41.4h8.53v7.29Z"/><path class="cls-1" d="M394.89,41.4h12.6q9.78,0,9.77,9.77V91.6q0,9.77-9.77,9.76h-12.6q-9.78,0-9.77-9.76V51.17Q385.12,41.4,394.89,41.4Zm14,48.84V52.53c0-1.57-.24-2.6-.74-3.09s-1.53-.74-3.09-.74h-7.67c-1.56,0-2.59.24-3.09.74s-.74,1.53-.74,3.09V90.24c0,1.65.25,2.7.74,3.15a4.89,4.89,0,0,0,3.09.68H405a4.87,4.87,0,0,0,3.09-.68C408.61,92.94,408.85,91.89,408.85,90.24Z"/><path class="cls-1" d="M285.32,118.72h-6.67v-7.3h4.08q5.31,0,6.18-3.83l1.48-6.31h-3a3.08,3.08,0,0,1-3-2.5l-11-57.46h8.53l9.19,52.37a.45.45,0,0,0,.88,0l8.6-52.37h8.53l-12,67.63Q295.21,118.71,285.32,118.72Z"/><path class="cls-2" d="M48.37,28.46c.09-1.23.23-2.46.4-3.69C48.6,26,48.46,27.23,48.37,28.46Z"/><path class="cls-2" d="M52.34,27.31a11,11,0,0,0,2.58-.63h0A11,11,0,0,1,52.34,27.31Z"/><path class="cls-2" d="M95.27,75.27c0-.11.09-.22.13-.33C95.36,75.05,95.32,75.16,95.27,75.27Z"/><path class="cls-2" d="M91,83.06c.25-.34.5-.67.73-1C91.47,82.39,91.22,82.72,91,83.06Z"/><path class="cls-2" d="M92.57,80.67c.11-.17.22-.34.32-.51C92.79,80.33,92.67,80.5,92.57,80.67Z"/><path class="cls-2" d="M88.94,85.63c.5-.57,1-1.15,1.45-1.75C89.92,84.48,89.44,85.06,88.94,85.63Z"/><path class="cls-2" d="M55.24,26.68h0c1,0,2.07-.47,3.1-.47h0C57.31,26.21,56.27,26.68,55.24,26.68Z"/><path class="cls-2" d="M48.37,28.73c1.06-.43,2.14-.67,3.22-1.13h0C50.51,28.06,49.43,28.3,48.37,28.73Z"/><path class="cls-2" d="M58.65,26c1.06-.09,2.12-.15,3.17-.15-1,0-2.11.06-3.17.15Z"/><path class="cls-2" d="M97.56,57.15h0c0,.24.08.49.11.73h0C97.64,57.64,97.6,57.39,97.56,57.15Z"/><path class="cls-2" d="M97.86,60.65h0c0,.32,0,.63,0,.94h0C97.87,61.28,97.87,61,97.86,60.65Z"/><path class="cls-3" d="M92.89,80.16c.37-.63.73-1.28,1.06-1.94C93.62,78.88,93.26,79.53,92.89,80.16Z"/><path class="cls-3" d="M97.87,61.59q0,.94,0,1.89l-.06,1.16c0,.63-.12,1.25-.21,1.87s-.19,1.28-.3,1.92c-.09.46-.17.92-.28,1.37s-.25,1-.39,1.55c-.09.32-.18.63-.28,1-.27.89-.58,1.77-.91,2.64A36.09,36.09,0,0,0,97.87,61.59Z"/><path class="cls-3" d="M90.39,83.88c.2-.27.39-.55.58-.82C90.78,83.33,90.59,83.61,90.39,83.88Z"/><path class="cls-3" d="M94.13,77.86c.42-.85.8-1.71,1.15-2.59C94.93,76.15,94.55,77,94.13,77.86Z"/><path class="cls-3" d="M91.7,82.05c.31-.45.59-.92.87-1.38C92.29,81.13,92,81.59,91.7,82.05Z"/><path class="cls-3" d="M94,78.22l.18-.36Z"/><path class="cls-3" d="M58.65,26l-.31,0Z"/><path class="cls-3" d="M55.24,26.45l-.32.06Z"/><path class="cls-3" d="M51.78,27.28c.19-.06.38-.08.56-.14l-.75.19Z"/><path class="cls-3" d="M97,54.07c.06.28.11.56.17.83.15.75.27,1.5.37,2.25a35.78,35.78,0,0,0-1.3-5.95C96.56,52.15,96.8,53.11,97,54.07Z"/><path class="cls-3" d="M97.86,60.65c0-.92-.09-1.85-.19-2.77C97.77,58.8,97.83,59.73,97.86,60.65Z"/><path class="cls-3" d="M97.68,45.61A39.47,39.47,0,0,0,61.81,22.52a38.82,38.82,0,0,0-13.06,2.25h0a13.35,13.35,0,0,0-.39,3.82c1.06-.43,2.15-.53,3.23-1h0a3.15,3.15,0,0,0,.75-.25,10.71,10.71,0,0,0,2.58-.68h.32c1,0,2.07-.46,3.1-.46h0c.1,0,.13-.24.13-.25h0c.93-.1,2.21-.15,3.26-.15A36.11,36.11,0,0,1,94.62,47c.17.36.34.73.49,1.1L77.65,56a1.65,1.65,0,0,0,.69,3.16A1.7,1.7,0,0,0,79,59L96.15,51.2c.62,2,.72,4,1.19,5.95h0v.73h0c0,.92.43,2.11.46,3h0c0,.46,0,.46,0,.92h0A35.32,35.32,0,0,1,95.4,75.07c0,.11-.1.16-.15.27-.35.87-1.15,1.68-1.15,2.52h0c-.47.12,0,.18,0,.18H94s0,.09,0,.09c-.33.66-.7,1.35-1.07,2l-.33.54c-.28.46-.57.94-.87,1.38s-.49.68-.73,1-.38.56-.59.82c-.47.6-.95,1.19-1.45,1.76,1.21.32,2.42.59,3.64.83A39.35,39.35,0,0,0,97.68,45.61Z"/><path class="cls-4" d="M96.32,72.3a36.9,36.9,0,0,1-2.19,5.56A36.9,36.9,0,0,0,96.32,72.3Z"/><path class="cls-4" d="M88.94,85.63a36,36,0,0,0,5-7.41A35.76,35.76,0,0,1,88.94,85.63Z"/><path class="cls-5" d="M92.58,86.47A39.39,39.39,0,0,1,33.1,88.81,39.67,39.67,0,0,1,26,78.17,39.37,39.37,0,0,1,45.56,26.05c1.06-.48,2.13-.9,3.22-1.28A54.84,54.84,0,0,1,56.33,3.66,58.49,58.49,0,1,0,115,86.3,55.1,55.1,0,0,1,92.58,86.47Z"/><path class="cls-3" d="M26.52,44.52a39.4,39.4,0,0,0,35.35,56.75,39.42,39.42,0,0,0,30.71-14.8c-1.23-.24-2.44-.51-3.64-.84A36,36,0,0,1,61.87,98,36.26,36.26,0,0,1,35.52,86.55l-.25-.29L50,79.59a1.66,1.66,0,0,0,.82-2.2,1.64,1.64,0,0,0-2.19-.82L33.09,83.62A36.22,36.22,0,0,1,29,76.8a35.84,35.84,0,0,1-3-10.74,1,1,0,0,0,.17,0L56.35,52.33a1.65,1.65,0,0,0,.82-2.19A1.64,1.64,0,0,0,55,49.32L25.8,62.57A36.05,36.05,0,0,1,46.93,29.06c.47-.21,1-.41,1.43-.6.09-1.24.24-2.47.41-3.69-1.09.38-2.16.8-3.22,1.28A39.43,39.43,0,0,0,26.52,44.52Z"/><path class="cls-6" d="M48.37,28.46c-.49.2-1,.39-1.44.61A36,36,0,0,0,25.8,62.58L51.37,51A54.87,54.87,0,0,1,48.37,28.46Z"/><path class="cls-6" d="M71.66,84.77a6.66,6.66,0,0,1-5-11.11,54.85,54.85,0,0,1-14.11-19.6L26.2,66l-.17,0a35.9,35.9,0,0,0,3,10.75,36.87,36.87,0,0,0,4.08,6.82l15.51-7a1.65,1.65,0,0,1,1.37,3l-14.7,6.68c.09.09.16.19.25.28a36,36,0,0,0,53.42-.91A55.12,55.12,0,0,1,77.55,81.2,6.66,6.66,0,0,1,71.66,84.77Z"/><path class="cls-7" d="M71.66,84.77a6.65,6.65,0,0,0,5.89-3.58,54.89,54.89,0,0,1-10.87-7.53,6.66,6.66,0,0,0,5,11.11Z"/><path class="cls-8" d="M71.66,84.77a6.65,6.65,0,0,0,5.89-3.58,54.89,54.89,0,0,1-10.87-7.53,6.66,6.66,0,0,0,5,11.11Z"/><path class="cls-9" d="M57.17,50.14A1.65,1.65,0,0,0,55,49.32L51.37,51c.37,1,.75,2.07,1.19,3.1l3.78-1.72A1.66,1.66,0,0,0,57.17,50.14Z"/><path class="cls-10" d="M96.27,51.2,79,59a1.63,1.63,0,0,1-.68.14A1.65,1.65,0,0,1,77.66,56l17.47-7.94c-.15-.36-.3-.73-.46-1.09a36,36,0,0,0-46.3-18.52,54.87,54.87,0,0,0,3,22.5L55,49.32a1.66,1.66,0,0,1,1.37,3l-3.79,1.72A55.21,55.21,0,0,0,58.9,65.15a54.57,54.57,0,0,0,7.78,8.51,6.67,6.67,0,0,1,11.67,4.43,6.56,6.56,0,0,1-.8,3.11,55.12,55.12,0,0,0,11.39,4.44A36.06,36.06,0,0,0,96.27,51.2Z"/><path class="cls-11" d="M78.35,78.08a6.67,6.67,0,0,0-11.67-4.42,54.32,54.32,0,0,0,10.87,7.53A6.53,6.53,0,0,0,78.35,78.08Z"/><path class="cls-12" d="M95.69,18.6a14.92,14.92,0,0,1,.55-4A58.24,58.24,0,0,0,61.8,3.41c-1.85,0-3.67.08-5.47.25a54.78,54.78,0,0,0-7.55,21.11,38.83,38.83,0,0,1,13-2.25,39.37,39.37,0,0,1,30.76,64c-1.23-.24,11.24,2.68,22.36-.17a58.46,58.46,0,0,0-1.89-52.57,15.79,15.79,0,0,1-2.08.15A15.3,15.3,0,0,1,95.69,18.6Z"/><path class="cls-3" d="M129,23.16a19.07,19.07,0,0,0,.58-4.56A18.61,18.61,0,0,0,111,0h-.19A18.63,18.63,0,0,0,94.71,9.63,61.36,61.36,0,0,0,61.8.1C59.91.1,58,.19,56,.37A61.79,61.79,0,1,0,118,87.67a61.65,61.65,0,0,0-.13-51.8A18.56,18.56,0,0,0,129,23.16ZM120.28,61.9A58.48,58.48,0,1,1,56.33,3.66c1.8-.16,3.62-.25,5.47-.25a58.23,58.23,0,0,1,31.57,9.26,18.53,18.53,0,0,0,21.27,24.14A58.37,58.37,0,0,1,120.28,61.9Z"/><path class="cls-13" d="M109.41,3.41h0Z"/><path class="cls-13" d="M109.71,19a13.55,13.55,0,0,1-.31-15.63A15.27,15.27,0,0,0,111,33.88a15.91,15.91,0,0,0,2.08-.15,15.24,15.24,0,0,0,12.27-10A13.54,13.54,0,0,1,109.71,19Z"/><path class="cls-13" d="M125.32,23.7h.05c.15-.44.29-.89.41-1.34C125.66,22.81,125.48,23.25,125.32,23.7Z"/><path class="cls-14" d="M111,3.31c-.53,0-1,0-1.57.1a13.54,13.54,0,0,0,16,20.28,12.21,12.21,0,0,0,.41-1.34A15.24,15.24,0,0,0,111,3.31Z"/></g></svg>