<svg id="Graphs" xmlns="http://www.w3.org/2000/svg" viewBox="0 0 384.43 246.5"><defs><style>.cls-1{font-size:14.27px;}.cls-1,.cls-11,.cls-12,.cls-4{font-family:Verdana;}.cls-2{fill:#6473f7;}.cls-3{fill:#ed5642;}.cls-4{font-size:9.92px;}.cls-5{letter-spacing:-0.02em;}.cls-12,.cls-6{fill:#fff;}.cls-7{fill:#43016b;}.cls-8{fill:#fda161;}.cls-9{fill:#aa69f7;}.cls-10{fill:#20cb97;}.cls-11,.cls-12{font-size:7px;}.cls-13{letter-spacing:-0.02em;}.cls-14{letter-spacing:-0.12em;}.cls-15{letter-spacing:-0.02em;}.cls-16{letter-spacing:0em;}</style></defs><text class="cls-1" transform="translate(21.61 30.4)">Gender Pie Chart</text><rect class="cls-2" x="297.91" y="21.16" width="11.72" height="11.72"/><rect class="cls-3" x="291.91" y="41.89" width="11.72" height="11.72"/><text class="cls-4" transform="translate(314.79 51.18)"><tspan class="cls-5">F</tspan><tspan x="5.46" y="0">emale</tspan></text><text class="cls-4" transform="translate(320.81 30.89)">Male</text><rect class="cls-6" x="2" y="2" width="380.43" height="242.5" rx="12.91"/><path class="cls-7" d="M369.52,246.5H14.91A14.93,14.93,0,0,1,0,231.59V14.91A14.93,14.93,0,0,1,14.91,0H369.52a14.93,14.93,0,0,1,14.91,14.91V231.59A14.93,14.93,0,0,1,369.52,246.5ZM14.91,4A10.92,10.92,0,0,0,4,14.91V231.59A10.92,10.92,0,0,0,14.91,242.5H369.52a10.92,10.92,0,0,0,10.91-10.91V14.91A10.92,10.92,0,0,0,369.52,4Z"/><text class="cls-4" transform="translate(315.53 76.34)">Cat</text><text class="cls-4" transform="translate(315.55 56.41) rotate(-0.7)">Dog</text><rect class="cls-2" x="298.5" y="47.5" width="12" height="12"/><rect class="cls-3" x="298.5" y="66.5" width="12" height="12"/><path class="cls-8" d="M164.8,137.52l-18.7-88a88.38,88.38,0,0,1,18.7-2Z"/><path class="cls-9" d="M164.8,137.52,113.21,63.84a84.85,84.85,0,0,1,32.89-14.3Z"/><path class="cls-10" d="M164.8,137.52,87.71,91.19a88.6,88.6,0,0,1,25.5-27.35Z"/><path class="cls-3" d="M164.8,137.52,174.2,227a89.93,89.93,0,0,1-98.85-80C73.18,126.22,77,109,87.71,91.19Z"/><path class="cls-2" d="M164.8,137.52v-90A89.94,89.94,0,0,1,174.2,227Z"/><text class="cls-11" transform="translate(109.76 164.28)">35.5%</text><text class="cls-12" transform="translate(195.92 137.44)">48.4%</text><text class="cls-11" transform="translate(99.75 91.75)">6.45%</text><text class="cls-11" transform="translate(121.98 69.84)">6.45%</text><text class="cls-11" transform="translate(159.34 75.31) rotate(-90)">3.23%</text><rect class="cls-8" x="298.4" y="123.22" width="12" height="12"/><rect class="cls-9" x="298.4" y="104.22" width="12" height="12"/><rect class="cls-10" x="298.4" y="85.22" width="12" height="12"/><text class="cls-4" transform="translate(315.78 114.57)"><tspan class="cls-13">R</tspan><tspan x="6.7" y="0">abbit</tspan></text><text class="cls-4" transform="translate(315.81 94.64) rotate(-0.7)">Lizard</text><text class="cls-4" transform="translate(316.31 132.5)"><tspan class="cls-14">T</tspan><tspan x="4.95" y="0">a</tspan><tspan class="cls-15" x="10.9" y="0">r</tspan><tspan class="cls-16" x="14.96" y="0">antula</tspan></text><text class="cls-1" transform="translate(21.87 29.38)">Pie Chart: Species</text></svg>