<svg id="Graphs" xmlns="http://www.w3.org/2000/svg" viewBox="0 0 384.43 246.5"><defs><style>.cls-1{fill:#fff;}.cls-2{fill:#ed5642;}.cls-3{font-size:14.27px;}.cls-3,.cls-5,.cls-7{font-family:Verdana;}.cls-4,.cls-8{fill:none;stroke-miterlimit:10;}.cls-4{stroke:#e5ecf6;}.cls-5{font-size:7.66px;}.cls-6{letter-spacing:-0.02em;}.cls-7{font-size:9.92px;}.cls-8{stroke:#fff;}.cls-9{fill:#e5ecf6;}.cls-10{fill:#6473f7;}</style></defs><rect class="cls-1" x="2" y="2" width="380.43" height="242.5" rx="12.91"/><path class="cls-2" d="M369.52,246.5H14.91A14.93,14.93,0,0,1,0,231.59V14.91A14.93,14.93,0,0,1,14.91,0H369.52a14.93,14.93,0,0,1,14.91,14.91V231.59A14.93,14.93,0,0,1,369.52,246.5ZM14.91,4A10.92,10.92,0,0,0,4,14.91V231.59A10.92,10.92,0,0,0,14.91,242.5H369.52a10.92,10.92,0,0,0,10.91-10.91V14.91A10.92,10.92,0,0,0,369.52,4Z"/><text class="cls-3" transform="translate(21.52 30.4)">Scatter Plot: Gender</text><line class="cls-4" x1="72.43" y1="203.95" x2="331.82" y2="203.95"/><text class="cls-5" transform="translate(126.71 215.03)"><tspan class="cls-6">F</tspan><tspan x="4.22" y="0">emale</tspan></text><text class="cls-5" transform="translate(249.45 215.08)">Male</text><text class="cls-7" transform="translate(182.92 232.21)">Gender</text><text class="cls-7" transform="translate(46.78 138.81) rotate(-90)">Count</text><text class="cls-5" transform="translate(55.97 169.41)">15</text><text class="cls-5" transform="translate(55.97 91.78)">16</text><line class="cls-8" x1="70.73" y1="204.84" x2="331.73" y2="204.84"/><line class="cls-8" x1="70.73" y1="48.58" x2="331.73" y2="48.58"/><rect class="cls-9" x="143.3" y="165.53" width="116.73" height="38.63"/><rect class="cls-9" x="143.3" y="87.9" width="116.73" height="37.82"/><rect class="cls-9" x="143.3" y="126.71" width="116.73" height="37.82"/><rect class="cls-9" x="72.35" y="126.71" width="69.96" height="37.82"/><polygon class="cls-9" points="72.35 48.65 72.35 86.9 142.31 86.9 142.31 48.88 143.31 48.88 143.31 86.9 260.04 86.9 260.04 48.88 261.04 48.88 261.04 86.9 331.73 86.9 331.73 87.9 261.04 87.9 261.04 125.71 331.73 125.71 331.73 126.71 261.04 126.71 261.04 164.53 331.73 164.53 331.73 165.53 261.04 165.53 261.04 204.15 331.82 204.15 331.82 48.65 72.35 48.65"/><rect class="cls-9" x="72.35" y="87.9" width="69.96" height="37.82"/><rect class="cls-9" x="72.35" y="165.53" width="69.96" height="38.63"/><circle class="cls-10" cx="260.43" cy="86.99" r="4.01"/><circle class="cls-10" cx="142.83" cy="164.99" r="4.01"/></svg>