<svg id="Graphs" xmlns="http://www.w3.org/2000/svg" viewBox="0 0 384.43 246.5"><defs><style>.cls-1{fill:#fff;}.cls-2{fill:#6473f7;}.cls-3{font-size:14.27px;}.cls-10,.cls-11,.cls-3,.cls-4,.cls-7{font-family:Verdana;}.cls-10,.cls-4,.cls-7{font-size:7.66px;}.cls-5{fill:none;stroke:#e5ecf6;stroke-miterlimit:10;}.cls-6{fill:#e5ecf6;}.cls-7{letter-spacing:-0.12em;}.cls-8{letter-spacing:0em;}.cls-9{letter-spacing:-0.02em;}.cls-10{letter-spacing:-0.02em;}.cls-11{font-size:9.92px;}</style></defs><rect class="cls-1" x="2" y="2" width="380.43" height="242.5" rx="12.91"/><path class="cls-2" d="M369.52,246.5H14.91A14.93,14.93,0,0,1,0,231.59V14.91A14.93,14.93,0,0,1,14.91,0H369.52a14.93,14.93,0,0,1,14.91,14.91V231.59A14.93,14.93,0,0,1,369.52,246.5ZM14.91,4A10.92,10.92,0,0,0,4,14.91V231.59A10.92,10.92,0,0,0,14.91,242.5H369.52a10.92,10.92,0,0,0,10.91-10.91V14.91A10.92,10.92,0,0,0,369.52,4Z"/><text class="cls-3" transform="translate(22.52 30.4)">Bar Chart: Species</text><text class="cls-4" transform="translate(61.59 205.71)">0</text><text class="cls-4" transform="translate(61.59 177.78)">3</text><text class="cls-4" transform="translate(61.59 149.85)">6</text><text class="cls-4" transform="translate(61.59 121.92)">9</text><text class="cls-4" transform="translate(59.15 93.99)">12</text><text class="cls-4" transform="translate(59.15 66.07)">15</text><line class="cls-5" x1="72.43" y1="203.95" x2="331.82" y2="203.95"/><path class="cls-6" d="M72.35,48.65v155.5H331.82V48.65ZM331.82,176.52H72.43v-1H331.82Zm0-27.93H72.43v-1H331.82Zm0-27.92H72.43v-1H331.82Zm0-27.93H72.43v-1H331.82Zm0-27.93H72.43v-1H331.82Z"/><text class="cls-4" transform="translate(85.98 215.03)">Cat</text><text class="cls-7" transform="translate(293.82 215.08)">T<tspan class="cls-8" x="3.82" y="0">a</tspan><tspan class="cls-9" x="8.43" y="0">r</tspan><tspan class="cls-8" x="11.56" y="0">antula</tspan></text><text class="cls-10" transform="translate(244.5 215.08)">R<tspan class="cls-8" x="5.18" y="0">abbit</tspan></text><text class="cls-4" transform="translate(190 215.08)">Lizard</text><text class="cls-4" transform="translate(139.64 215.08)">Dog</text><text class="cls-11" transform="translate(182.11 232.21)">Species</text><text class="cls-11" transform="translate(46.78 138.81) rotate(-90)">Count</text><rect class="cls-2" x="293.23" y="194.61" width="37.38" height="9.31"/><rect class="cls-2" x="237.69" y="185.3" width="37.38" height="18.62"/><rect class="cls-2" x="183.16" y="185.3" width="37.38" height="18.62"/><rect class="cls-2" x="128.62" y="64.27" width="37.38" height="139.64"/><rect class="cls-2" x="73.09" y="101.51" width="37.38" height="102.41"/></svg>