<svg xmlns="http://www.w3.org/2000/svg" viewBox="0 0 944 333"><defs><style>.cls-1{fill:#eee;}.cls-2{fill:#6473f7;}.cls-3{font-size:17.34px;}.cls-3,.cls-5{fill:#fff;}.cls-3,.cls-9{font-family:Verdana;}.cls-4{letter-spacing:-0.1em;}.cls-6{fill:#ed5642;}.cls-7{fill:#43016b;}.cls-8{fill:#373d3f;}.cls-9{font-size:17.31px;}.cls-10,.cls-11,.cls-12{fill:none;stroke-miterlimit:10;stroke-width:2px;}.cls-10{stroke:#6473f7;}.cls-11{stroke:#43016b;}.cls-12{stroke:#ed5642;}</style></defs><g id="More_Info_Dialogue" data-name="More Info Dialogue"><rect class="cls-1" x="-9" y="-7" width="962" height="347"/><rect class="cls-2" x="557.77" y="138.78" width="174.14" height="55.43" rx="7.75"/><path class="cls-2" d="M721.8,195.31H567.87a11.21,11.21,0,0,1-11.2-11.2V148.89a11.21,11.21,0,0,1,11.2-11.2H721.8a11.21,11.21,0,0,1,11.2,11.2v35.22A11.21,11.21,0,0,1,721.8,195.31ZM567.87,139.88a9,9,0,0,0-9,9v35.22a9,9,0,0,0,9,9H721.8a9,9,0,0,0,9-9V148.89a9,9,0,0,0-9-9Z"/><text class="cls-3" transform="translate(616.84 172.58)">Chart <tspan class="cls-4" x="53.82" y="0">T</tspan><tspan x="62.81" y="0">ype</tspan></text><polygon class="cls-5" points="599.31 179.98 572.48 179.98 572.48 154.78 574.67 154.78 574.67 177.79 599.31 177.79 599.31 179.98"/><rect class="cls-5" x="577.4" y="169.57" width="4.93" height="6.02"/><rect class="cls-5" x="584.63" y="164.64" width="4.93" height="10.82"/><rect class="cls-5" x="592.19" y="157.52" width="4.93" height="18.07"/><rect class="cls-6" x="557.77" y="253.94" width="174.14" height="55.43" rx="8.25"/><path class="cls-6" d="M721.8,310.47H567.87a11.21,11.21,0,0,1-11.2-11.2V264a11.21,11.21,0,0,1,11.2-11.2H721.8A11.21,11.21,0,0,1,733,264v35.23A11.21,11.21,0,0,1,721.8,310.47ZM567.87,255a9,9,0,0,0-9,9v35.23a9,9,0,0,0,9,9H721.8a9,9,0,0,0,9-9V264a9,9,0,0,0-9-9Z"/><text class="cls-3" transform="translate(616.84 286.68)">Chart <tspan class="cls-4" x="53.82" y="0">T</tspan><tspan x="62.81" y="0">ype</tspan></text><polygon class="cls-5" points="599.31 293.82 572.48 293.82 572.48 268.63 574.67 268.63 574.67 291.63 599.31 291.63 599.31 293.82"/><circle class="cls-5" cx="579.6" cy="279.03" r="1.64"/><circle class="cls-5" cx="591.64" cy="282.32" r="1.64"/><circle class="cls-5" cx="594.93" cy="275.75" r="1.64"/><circle class="cls-5" cx="585.07" cy="283.42" r="1.64"/><circle class="cls-5" cx="580.14" cy="286.7" r="1.64"/><rect class="cls-7" x="557.77" y="23.63" width="174.14" height="55.43" rx="8.72"/><path class="cls-7" d="M721.8,80.16H567.87A11.21,11.21,0,0,1,556.67,69V33.73a11.21,11.21,0,0,1,11.2-11.2H721.8A11.21,11.21,0,0,1,733,33.73V69A11.21,11.21,0,0,1,721.8,80.16ZM567.87,24.73a9,9,0,0,0-9,9V69a9,9,0,0,0,9,9H721.8a9,9,0,0,0,9-9V33.73a9,9,0,0,0-9-9Z"/><text class="cls-3" transform="translate(611.48 55.47)">Chart <tspan class="cls-4" x="53.82" y="0">T</tspan><tspan x="62.81" y="0">ype</tspan></text><path class="cls-5" d="M588.36,50.15h10.9a12,12,0,0,0-10.9-10.9Z"/><path class="cls-5" d="M586.17,52.34V39.25a12,12,0,1,0,13.09,13.09Z"/><rect class="cls-1" x="212.09" y="138.82" width="173.89" height="55.35" rx="8.65"/><path class="cls-8" d="M375.9,195.27H222.18A11.2,11.2,0,0,1,211,184.09V148.91a11.2,11.2,0,0,1,11.18-11.18H375.9a11.2,11.2,0,0,1,11.18,11.18v35.18A11.2,11.2,0,0,1,375.9,195.27ZM222.18,139.92a9,9,0,0,0-9,9v35.18a9,9,0,0,0,9,9H375.9a9,9,0,0,0,9-9V148.91a9,9,0,0,0-9-9Z"/><text class="cls-9" transform="translate(261.16 170.68)">Data Set</text><line class="cls-10" x1="416.71" y1="165.87" x2="524.13" y2="167.1"/><polygon class="cls-2" points="520.1 170.45 523.54 167.1 520.18 163.67 523.06 163.7 526.41 167.13 522.98 170.48 520.1 170.45"/><line class="cls-11" x1="416.71" y1="123.45" x2="512.28" y2="74.41"/><polygon class="cls-7" points="510.29 79.24 511.76 74.68 507.19 73.21 509.75 71.89 514.32 73.36 512.85 77.93 510.29 79.24"/><line class="cls-12" x1="416.71" y1="209.55" x2="512.28" y2="258.59"/><polygon class="cls-6" points="507.19 259.79 511.76 258.32 510.29 253.76 512.85 255.07 514.32 259.64 509.75 261.11 507.19 259.79"/></g></svg>