<svg id="Graphs" xmlns="http://www.w3.org/2000/svg" viewBox="0 0 384.43 246.5"><defs><style>.cls-1{fill:#fff;}.cls-2{fill:#6473f7;}.cls-3{font-size:14.27px;}.cls-3,.cls-4,.cls-5{font-family:Verdana;}.cls-4{font-size:7.66px;}.cls-5{font-size:9.92px;}.cls-6{letter-spacing:-0.01em;}.cls-7{fill:none;stroke:#fff;stroke-miterlimit:10;}.cls-8{fill:#e5ecf6;}</style></defs><rect class="cls-1" x="2" y="2" width="380.43" height="242.5" rx="12.91"/><path class="cls-2" d="M369.52,246.5H14.91A14.93,14.93,0,0,1,0,231.59V14.91A14.93,14.93,0,0,1,14.91,0H369.52a14.93,14.93,0,0,1,14.91,14.91V231.59A14.93,14.93,0,0,1,369.52,246.5ZM14.91,4A10.92,10.92,0,0,0,4,14.91V231.59A10.92,10.92,0,0,0,14.91,242.5H369.52a10.92,10.92,0,0,0,10.91-10.91V14.91A10.92,10.92,0,0,0,369.52,4Z"/><text class="cls-3" transform="translate(22.52 30.4)">Bar Chart: Age</text><text class="cls-4" transform="translate(98.03 215.03)">2</text><text class="cls-5" transform="translate(171.82 232.21)">Age (<tspan class="cls-6" x="26.85" y="0">y</tspan><tspan x="32.63" y="0">ears)</tspan></text><text class="cls-5" transform="translate(46.78 138.81) rotate(-90)">Count</text><line class="cls-7" x1="70.73" y1="204.84" x2="331.73" y2="204.84"/><line class="cls-7" x1="70.73" y1="48.58" x2="331.73" y2="48.58"/><text class="cls-4" transform="translate(194.38 215.2)">8</text><text class="cls-4" transform="translate(162.38 215.2)">6</text><text class="cls-4" transform="translate(130.38 215.2)">4</text><text class="cls-4" transform="translate(223.12 215.52)">10</text><text class="cls-4" transform="translate(255.35 215.58)">12</text><text class="cls-4" transform="translate(319.71 215.76)">16</text><text class="cls-4" transform="translate(287.71 215.76)">14</text><text class="cls-4" transform="translate(62.87 208.66)">0</text><text class="cls-4" transform="translate(62.87 190.42)">1</text><text class="cls-4" transform="translate(62.87 172.18)">2</text><text class="cls-4" transform="translate(62.87 153.94)">3</text><text class="cls-4" transform="translate(62.87 135.7)">4</text><text class="cls-4" transform="translate(62.87 117.46)">5</text><text class="cls-4" transform="translate(62.87 99.22)">6</text><text class="cls-4" transform="translate(62.87 80.98)">7</text><text class="cls-4" transform="translate(62.87 62.74)">8</text><polygon class="cls-8" points="72.37 186.35 72.37 185.35 331.82 185.35 331.82 168.11 72.37 168.11 72.37 167.11 331.82 167.11 331.82 149.87 72.37 149.87 72.37 148.87 331.82 148.87 331.82 131.63 72.37 131.63 72.37 130.63 331.82 130.63 331.82 113.39 72.37 113.39 72.37 112.39 331.82 112.39 331.82 95.15 72.37 95.15 72.37 94.15 331.82 94.15 331.82 76.91 72.37 76.91 72.37 75.91 331.82 75.91 331.82 58.67 72.37 58.67 72.37 57.67 331.82 57.67 331.82 48.65 72.35 48.65 72.35 204.15 331.82 204.15 331.82 186.35 72.37 186.35"/><rect class="cls-2" x="236.99" y="185.85" width="14.37" height="18.24"/><rect class="cls-2" x="221.02" y="185.85" width="14.37" height="18.24"/><rect class="cls-2" x="317.05" y="185.85" width="14.37" height="18.24"/><rect class="cls-2" x="189.08" y="149.37" width="14.37" height="54.72"/><rect class="cls-2" x="173.12" y="167.61" width="14.37" height="36.48"/><rect class="cls-2" x="157.15" y="185.85" width="14.37" height="18.24"/><rect class="cls-2" x="141.18" y="149.37" width="14.37" height="54.72"/><rect class="cls-2" x="125.21" y="185.85" width="14.37" height="18.24"/><rect class="cls-2" x="109.25" y="58.17" width="14.37" height="145.92"/><rect class="cls-2" x="93.28" y="112.89" width="14.37" height="91.2"/><rect class="cls-2" x="77.31" y="112.89" width="14.37" height="91.2"/></svg>