<svg id="Graphs" xmlns="http://www.w3.org/2000/svg" viewBox="0 0 384.43 246.5"><defs><style>.cls-1{fill:#fff;}.cls-2{fill:#ed5642;}.cls-3{font-size:14.27px;}.cls-10,.cls-3,.cls-4,.cls-6,.cls-9{font-family:Verdana;}.cls-4,.cls-6,.cls-9{font-size:7.66px;}.cls-5{fill:none;stroke:#e5ecf6;stroke-miterlimit:10;}.cls-6{letter-spacing:-0.12em;}.cls-7{letter-spacing:0em;}.cls-8{letter-spacing:-0.02em;}.cls-9{letter-spacing:-0.02em;}.cls-10{font-size:9.92px;}.cls-11{fill:#e5ecf6;}.cls-12{fill:#6473f7;}</style></defs><rect class="cls-1" x="2" y="2" width="380.43" height="242.5" rx="12.91"/><path class="cls-2" d="M369.52,246.5H14.91A14.93,14.93,0,0,1,0,231.59V14.91A14.93,14.93,0,0,1,14.91,0H369.52a14.93,14.93,0,0,1,14.91,14.91V231.59A14.93,14.93,0,0,1,369.52,246.5ZM14.91,4A10.92,10.92,0,0,0,4,14.91V231.59A10.92,10.92,0,0,0,14.91,242.5H369.52a10.92,10.92,0,0,0,10.91-10.91V14.91A10.92,10.92,0,0,0,369.52,4Z"/><text class="cls-3" transform="translate(22.52 30.4)">Scatter Plot: Species</text><text class="cls-4" transform="translate(61.59 205.71)">0</text><text class="cls-4" transform="translate(61.59 177.78)">3</text><text class="cls-4" transform="translate(61.59 149.85)">6</text><text class="cls-4" transform="translate(61.59 121.92)">9</text><text class="cls-4" transform="translate(59.15 93.99)">12</text><text class="cls-4" transform="translate(59.15 66.07)">15</text><line class="cls-5" x1="72.43" y1="203.95" x2="331.82" y2="203.95"/><text class="cls-4" transform="translate(85.98 215.03)">Cat</text><text class="cls-6" transform="translate(293.82 215.08)">T<tspan class="cls-7" x="3.82" y="0">a</tspan><tspan class="cls-8" x="8.43" y="0">r</tspan><tspan class="cls-7" x="11.56" y="0">antula</tspan></text><text class="cls-9" transform="translate(244.5 215.08)">R<tspan class="cls-7" x="5.18" y="0">abbit</tspan></text><text class="cls-4" transform="translate(190 215.08)">Lizard</text><text class="cls-4" transform="translate(139.64 215.08)">Dog</text><text class="cls-10" transform="translate(182.11 232.21)">Species</text><text class="cls-10" transform="translate(46.78 138.81) rotate(-90)">Count</text><rect class="cls-11" x="257.29" y="92.74" width="53.92" height="26.93"/><rect class="cls-11" x="257.29" y="120.67" width="53.92" height="26.93"/><rect class="cls-11" x="202.37" y="120.67" width="53.92" height="26.93"/><rect class="cls-11" x="202.37" y="48.65" width="53.92" height="15.16"/><rect class="cls-11" x="257.29" y="48.65" width="53.92" height="15.16"/><rect class="cls-11" x="147.45" y="120.67" width="53.92" height="26.93"/><rect class="cls-11" x="202.37" y="92.74" width="53.92" height="26.93"/><rect class="cls-11" x="147.45" y="48.65" width="53.92" height="15.16"/><rect class="cls-11" x="312.21" y="48.65" width="19.61" height="15.16"/><rect class="cls-11" x="202.37" y="64.81" width="53.92" height="26.93"/><rect class="cls-11" x="147.45" y="64.81" width="53.92" height="26.93"/><rect class="cls-11" x="147.45" y="92.74" width="53.92" height="26.93"/><rect class="cls-11" x="257.29" y="64.81" width="53.92" height="26.93"/><rect class="cls-11" x="92.52" y="48.65" width="53.92" height="15.16"/><rect class="cls-11" x="257.29" y="148.59" width="53.92" height="26.93"/><rect class="cls-11" x="312.21" y="148.59" width="19.61" height="26.93"/><rect class="cls-11" x="312.21" y="92.74" width="19.61" height="26.93"/><polygon class="cls-11" points="312.21 176.52 312.21 204.04 311.21 204.04 311.21 176.52 257.29 176.52 257.29 204.04 256.29 204.04 256.29 176.52 202.37 176.52 202.37 204.04 201.37 204.04 201.37 176.52 147.45 176.52 147.45 204.04 146.45 204.04 146.45 176.52 92.53 176.52 92.53 204.04 91.53 204.04 91.53 176.52 72.43 176.52 72.43 175.52 91.53 175.52 91.53 148.59 72.43 148.59 72.43 147.59 91.53 147.59 91.53 120.67 72.43 120.67 72.43 119.67 91.53 119.67 91.53 92.74 72.43 92.74 72.43 91.74 91.53 91.74 91.53 64.81 72.43 64.81 72.43 63.81 91.53 63.81 91.53 48.65 72.35 48.65 72.35 204.15 331.82 204.15 331.82 176.52 312.21 176.52"/><rect class="cls-11" x="312.21" y="64.81" width="19.61" height="26.93"/><rect class="cls-11" x="312.21" y="120.67" width="19.61" height="26.93"/><rect class="cls-11" x="92.52" y="92.74" width="53.92" height="26.93"/><rect class="cls-11" x="92.52" y="64.81" width="53.92" height="26.93"/><rect class="cls-11" x="92.52" y="120.67" width="53.92" height="26.93"/><rect class="cls-11" x="202.37" y="148.59" width="53.92" height="26.93"/><rect class="cls-11" x="92.52" y="148.59" width="53.92" height="26.93"/><rect class="cls-11" x="147.45" y="148.59" width="53.92" height="26.93"/><circle class="cls-12" cx="92.36" cy="101.97" r="4.01"/><circle class="cls-12" cx="202.21" cy="184.97" r="4.01"/><circle class="cls-12" cx="147.06" cy="64.41" r="4.01"/><circle class="cls-12" cx="256.91" cy="185.72" r="4.01"/><circle class="cls-12" cx="311.76" cy="194.35" r="4.01"/></svg>