<svg xmlns="http://www.w3.org/2000/svg" viewBox="0 0 944 333"><defs><style>.cls-1{fill:#eee;}.cls-2{fill:#43016b;}.cls-3,.cls-8{font-size:31.66px;font-family:Verdana;}.cls-10,.cls-3,.cls-6{fill:#fff;}.cls-4{letter-spacing:-0.1em;}.cls-5{letter-spacing:0em;}.cls-7{fill:#373d3f;}.cls-9{fill:#cea7ea;}.cls-10{stroke:#000;stroke-miterlimit:10;}</style></defs><g id="More_Info_Dialogue" data-name="More Info Dialogue"><rect class="cls-1" width="944" height="333"/><rect class="cls-2" x="114.04" y="115.89" width="317.97" height="101.22" rx="18.45"/><path class="cls-2" d="M413.57,219.11H132.49A20.47,20.47,0,0,1,112,198.66V134.34a20.47,20.47,0,0,1,20.45-20.45H413.57A20.47,20.47,0,0,1,434,134.34v64.32A20.47,20.47,0,0,1,413.57,219.11ZM132.49,117.89A16.47,16.47,0,0,0,116,134.34v64.32a16.47,16.47,0,0,0,16.45,16.45H413.57A16.47,16.47,0,0,0,430,198.66V134.34a16.47,16.47,0,0,0-16.44-16.45Z"/><text class="cls-3" transform="translate(212.13 174.04)">Chart <tspan class="cls-4" x="98.27" y="0">T</tspan><tspan class="cls-5" x="114.68" y="0">ype</tspan></text><path class="cls-6" d="M169.9,164.32h19.91a22,22,0,0,0-19.91-19.9Z"/><path class="cls-6" d="M165.9,168.32v-23.9a22,22,0,1,0,23.91,23.9Z"/><rect class="cls-1" x="511.99" y="115.89" width="317.97" height="101.22" rx="18.45"/><path class="cls-7" d="M811.51,219.11H530.43A20.47,20.47,0,0,1,510,198.66V134.34a20.47,20.47,0,0,1,20.44-20.45H811.51A20.47,20.47,0,0,1,832,134.34v64.32A20.47,20.47,0,0,1,811.51,219.11ZM530.43,117.89A16.47,16.47,0,0,0,514,134.34v64.32a16.47,16.47,0,0,0,16.44,16.45H811.51A16.47,16.47,0,0,0,828,198.66V134.34a16.47,16.47,0,0,0-16.45-16.45Z"/><text class="cls-8" transform="translate(601.71 174.14)">Data Set</text><circle class="cls-9" cx="659" cy="197" r="10"/><path class="cls-9" d="M659,214.5A17.5,17.5,0,1,1,676.5,197,17.52,17.52,0,0,1,659,214.5Zm0-32A14.5,14.5,0,1,0,673.5,197,14.51,14.51,0,0,0,659,182.5Z"/><path d="M678.64,238.46c0,.28,0,.56,0,.85,0,1.87,0,3.74-.07,5.61,0,0,0,.08,0,.18H656.32v-6.65h-2.18V234h2.2v4.39h2.23v4.43h17.75v-4.37h2.32Z"/><path d="M651.91,218.45h2.21V198.56l2.19-.11h0c0,.14,0,.29,0,.44q0,11.79,0,23.58v.41h-2.21v-2.16h-2.21v-2.27Z"/><path d="M649.67,222.9v2.21h2.22v4.42h2.2V234h-2.21v-4.4h-2.26v-4.41h-2.13c0-.73,0-1.41,0-2.08,0-.07.17-.18.26-.18C648.38,222.89,649,222.9,649.67,222.9Z"/><path d="M651.92,218.44h-4.45v4.44h-2.22v-6.6h6.66v2.17Z"/><path d="M656.31,198.45c0-.52,0-1,.05-1.56,0-.19,0-.38,0-.59h4.38v2.13a.49.49,0,0,1-.14,0h-4.08a1.81,1.81,0,0,1-.23,0Z"/><path d="M663,207.38h4.43v2.19H663v8.86h-2.2V198.54H663Z"/><path d="M678.65,238.47c0-.47-.07-.95-.07-1.42,0-1.64,0-3.29,0-4.93,0-.1,0-.2,0-.33h2.19v-.47q0-7.37,0-14.75c0-.13,0-.27,0-.4h0l1.28.06H683v15.55c-.42,0-.83,0-1.23,0-1,0-1,0-1,1,0,1.75,0,3.49,0,5.24v.43h-2.15Z"/><path d="M680.84,216.17l-.73.06c-.49,0-1,0-1.54,0v-1.51c0-.14,0-.28,0-.41a.23.23,0,0,0-.26-.27h-2v6.62h-2.18c0-.09,0-.18,0-.27,0-2.79,0-5.57,0-8.36a2.48,2.48,0,0,1,0-.27h0l2.71,0h1.69c0,.59,0,1.15,0,1.72s0,.5.49.51h1.78v2.13Z"/><path d="M674.17,211.76c-.49,0-1,0-1.46,0h-3.05v6.64h-2.17v-8.8h6.67v2.14Z"/><path class="cls-10" d="M647.47,218.44h4.44v2.26h2.21v2.16h2.21l0-24.42,4.44,0,.07,20H663v-8.86l4.47.06v8.8h2.17s0-6.67,0-6.64,4.51,0,4.51,0v8.9h2.18V214h2.23v2.2l2.26,0,0,15.61h-2.19l0,6.68h-2.33v4.37H658.57v-4.43h-2.23V234l-2.25,0v-4.45h-2.2v-4.42h-2.22V222.9l-2.2,0Z"/></g></svg>