<svg xmlns="http://www.w3.org/2000/svg" viewBox="0 0 944 333"><defs><style>.cls-1,.cls-9{fill:#fff;}.cls-10,.cls-2{font-size:14.27px;}.cls-12,.cls-2,.cls-5,.cls-8,.cls-9{font-family:Verdana;}.cls-3{fill:#6473f7;}.cls-4{fill:#ed5642;}.cls-5{font-size:9.92px;}.cls-6{letter-spacing:-0.02em;}.cls-7{fill:#43016b;}.cls-8,.cls-9{font-size:7px;}.cls-10{font-family:Verdana-Bold, Verdana;font-weight:700;}.cls-11{fill:#eee;}.cls-12{font-size:15.63px;}</style></defs><g id="More_Info_Dialogue" data-name="More Info Dialogue"><rect class="cls-1" x="85" y="23" width="801" height="290"/><text class="cls-2" transform="translate(133.28 69.76)">Gender Pie Chart</text><rect class="cls-3" x="409.58" y="60.51" width="11.72" height="11.72"/><rect class="cls-4" x="403.58" y="81.25" width="11.72" height="11.72"/><text class="cls-5" transform="translate(426.46 90.53)"><tspan class="cls-6">F</tspan><tspan x="5.46" y="0">emale</tspan></text><text class="cls-5" transform="translate(432.48 70.25)">Male</text><rect class="cls-1" x="113.67" y="41.35" width="380.43" height="242.5" rx="12.91"/><path class="cls-7" d="M481.19,285.85H126.58A14.92,14.92,0,0,1,111.67,271V54.26a14.93,14.93,0,0,1,14.91-14.91H481.19A14.93,14.93,0,0,1,496.1,54.26V271A14.92,14.92,0,0,1,481.19,285.85ZM126.58,43.35a10.92,10.92,0,0,0-10.91,10.91V271a10.91,10.91,0,0,0,10.91,10.9H481.19A10.92,10.92,0,0,0,492.1,271V54.26a10.93,10.93,0,0,0-10.91-10.91Z"/><text class="cls-2" transform="translate(131.57 70.07)">Pie Chart: [Data Set]</text><text class="cls-5" transform="translate(427.2 115.7)">y</text><text class="cls-5" transform="translate(427.22 95.77) rotate(-0.7)">x</text><rect class="cls-3" x="410.17" y="86.85" width="12" height="12"/><rect class="cls-4" x="410.17" y="105.85" width="12" height="12"/><path class="cls-4" d="M276.47,176.87l-7.84,89.6a89.94,89.94,0,0,1,7.84-179.54Z"/><path class="cls-3" d="M276.47,176.87V86.93a89.94,89.94,0,0,1,0,179.88,73.32,73.32,0,0,1-7.84-.34Z"/><text class="cls-8" transform="translate(224.43 176.63)">48.4%</text><text class="cls-9" transform="translate(307.59 176.8)">51.6%</text><text class="cls-10" transform="translate(535.87 72.07)">Pie Chart: [Data Set]</text><rect class="cls-11" x="535.87" y="95" width="318" height="5"/><rect class="cls-11" x="536" y="109" width="318" height="5"/><rect class="cls-11" x="536" y="123" width="318" height="5"/><rect class="cls-11" x="536" y="137" width="318" height="5"/><rect class="cls-11" x="536" y="151" width="318" height="5"/><rect class="cls-11" x="536" y="165" width="318" height="5"/><rect class="cls-11" x="536" y="179" width="176" height="5"/><rect class="cls-11" x="619.52" y="236.34" width="127.79" height="30.66" rx="13.03"/><text class="cls-12" transform="translate(662.34 257.51) rotate(0.09)">Close</text></g></svg>