<svg xmlns="http://www.w3.org/2000/svg" viewBox="0 0 321.97 105.22"><defs><style>.cls-1{fill:#eee;}.cls-2{fill:#373d3f;}.cls-3{font-size:31.66px;font-family:Verdana;}</style></defs><g id="Buttons"><rect class="cls-1" x="1.92" y="2.44" width="317.97" height="101.22" rx="18.45"/><path class="cls-2" d="M301.44,105.66H20.37A20.47,20.47,0,0,1-.08,85.21V20.89A20.47,20.47,0,0,1,20.37.44H301.44a20.47,20.47,0,0,1,20.45,20.45V85.21A20.47,20.47,0,0,1,301.44,105.66ZM20.37,4.44A16.47,16.47,0,0,0,3.92,20.89V85.21a16.47,16.47,0,0,0,16.45,16.45H301.44a16.47,16.47,0,0,0,16.45-16.45V20.89A16.47,16.47,0,0,0,301.44,4.44Z"/><text class="cls-3" transform="translate(103.37 60.69)">Gender</text></g></svg>