<?xml version="1.0" encoding="utf-8"?>
<!-- Generator: Adobe Illustrator 22.0.1, SVG Export Plug-In . SVG Version: 6.00 Build 0)  -->
<svg version="1.1" id="Layer_1" xmlns="http://www.w3.org/2000/svg" xmlns:xlink="http://www.w3.org/1999/xlink" x="0px" y="0px"
	 viewBox="0 0 226.2 89.3" style="enable-background:new 0 0 226.2 89.3;" xml:space="preserve">
<style type="text/css">
	.st0{enable-background:new    ;}
	.st1{fill:#D4D2CD;}
	.st2{fill:#83CEC1;}
</style>
<g class="st0">
	<path class="st1" d="M61.7,55.5V29.3h3.8v11.2h6.6V29.3h3.8v26.2h-3.8V43.3h-6.6v12.2C65.5,55.5,61.7,55.5,61.7,55.5z"/>
	<path class="st1" d="M88.9,54c-0.9,1.2-2.3,1.8-4.3,1.8s-3.5-0.6-4.3-1.8S79,51.1,79,48.9v-5.6c0-2.2,0.4-3.9,1.3-5.1
		s2.3-1.8,4.3-1.8s3.5,0.6,4.3,1.8s1.3,2.9,1.3,5.1v5.6C90.2,51.2,89.8,52.8,88.9,54z M83.9,52.6c0.2,0.1,0.4,0.1,0.7,0.1
		s0.5,0,0.7-0.1s0.4-0.2,0.5-0.3s0.2-0.3,0.3-0.5c0.1-0.2,0.2-0.4,0.2-0.6s0.1-0.4,0.1-0.7s0-0.6,0-0.7c0-0.2,0-0.5,0-0.8v-5.6
		c0-0.4,0-0.6,0-0.8s0-0.4,0-0.7s-0.1-0.6-0.1-0.7s-0.1-0.4-0.2-0.6s-0.2-0.4-0.3-0.5c-0.1-0.1-0.3-0.2-0.5-0.3s-0.4-0.1-0.7-0.1
		s-0.5,0-0.7,0.1s-0.4,0.2-0.5,0.3c-0.1,0.1-0.2,0.3-0.3,0.5c-0.1,0.2-0.2,0.4-0.2,0.6s-0.1,0.4-0.1,0.7s0,0.6,0,0.7s0,0.5,0,0.8V49
		c0,0.4,0,0.6,0,0.8c0,0.2,0,0.4,0,0.7s0.1,0.6,0.1,0.7s0.1,0.4,0.2,0.6s0.2,0.4,0.3,0.5S83.7,52.5,83.9,52.6z"/>
	<path class="st1" d="M98.5,55.8c-1.5,0-2.5-0.4-3.2-1.1s-1-1.9-1-3.4V39.6h-1.9v-2.8h1.9v-6.6h3.8v6.6h2.8v2.8h-2.8v10.9
		c0,0.8,0.1,1.3,0.3,1.7s0.6,0.5,1.2,0.5c0.3,0,0.7,0,1.3-0.1v3C99.9,55.7,99.1,55.8,98.5,55.8z"/>
	<path class="st1" d="M109.8,55.5V29.3h5.8c2.7,0,4.7,0.6,5.8,1.7c1.1,1.1,1.7,3.1,1.7,5.8v10.3c0,2.9-0.6,5-1.7,6.4
		c-1.1,1.4-3.1,2.1-5.8,2.1L109.8,55.5L109.8,55.5z M113.5,52.7h2.1c0.6,0,1.1-0.1,1.6-0.2s0.8-0.3,1.1-0.6s0.5-0.6,0.6-0.8
		s0.3-0.7,0.3-1.3s0.1-1,0.1-1.4s0-0.9,0-1.7c0-0.3,0-0.4,0-0.6v-8.4c0-0.5,0-0.9,0-1.1s0-0.6,0-1s-0.1-0.7-0.1-0.9
		s-0.1-0.5-0.2-0.8c-0.1-0.3-0.2-0.5-0.3-0.7s-0.3-0.3-0.5-0.5s-0.4-0.3-0.7-0.4c-0.2-0.1-0.5-0.2-0.9-0.2c-0.3-0.1-0.7-0.1-1.1-0.1
		h-2L113.5,52.7L113.5,52.7z"/>
	<path class="st1" d="M135.8,54c-0.9,1.2-2.3,1.8-4.3,1.8s-3.5-0.6-4.3-1.8c-0.8-1.2-1.3-2.9-1.3-5.1v-5.6c0-2.2,0.4-3.9,1.3-5.1
		c0.9-1.2,2.3-1.8,4.3-1.8s3.5,0.6,4.3,1.8s1.3,2.9,1.3,5.1v5.6C137.1,51.2,136.7,52.8,135.8,54z M130.8,52.6
		c0.2,0.1,0.4,0.1,0.7,0.1s0.5,0,0.7-0.1s0.4-0.2,0.5-0.3s0.2-0.3,0.3-0.5s0.2-0.4,0.2-0.6s0.1-0.4,0.1-0.7s0-0.6,0-0.7
		c0-0.2,0-0.5,0-0.8v-5.6c0-0.4,0-0.6,0-0.8s0-0.4,0-0.7s-0.1-0.6-0.1-0.7s-0.1-0.4-0.2-0.6c-0.1-0.2-0.2-0.4-0.3-0.5
		s-0.3-0.2-0.5-0.3s-0.4-0.1-0.7-0.1s-0.5,0-0.7,0.1s-0.4,0.2-0.5,0.3c-0.1,0.1-0.2,0.3-0.3,0.5s-0.2,0.4-0.2,0.6s-0.1,0.4-0.1,0.7
		s0,0.6,0,0.7s0,0.5,0,0.8V49c0,0.4,0,0.6,0,0.8c0,0.2,0,0.4,0,0.7s0.1,0.6,0.1,0.7s0.1,0.4,0.2,0.6c0.1,0.2,0.2,0.4,0.3,0.5
		S130.6,52.5,130.8,52.6z"/>
	<path class="st1" d="M146.1,61.1c-0.5,0-0.8,0-1.1,0s-0.7,0-1.2,0s-0.9-0.1-1.3-0.1c-0.3-0.1-0.7-0.1-1.2-0.2
		c-0.4-0.1-0.8-0.2-1.1-0.3s-0.6-0.3-0.8-0.5s-0.5-0.4-0.6-0.7c-0.1-0.3-0.2-0.6-0.2-0.9c0-1,0.3-1.8,0.8-2.5s1.2-1.2,2-1.7
		c-0.5-0.1-0.9-0.3-1.3-0.6c-0.4-0.3-0.6-0.6-0.6-1c0-0.2,0-0.3,0.1-0.5s0.1-0.4,0.1-0.5s0.1-0.3,0.2-0.5s0.2-0.3,0.3-0.5
		c0.1-0.1,0.2-0.3,0.3-0.5s0.2-0.3,0.3-0.4s0.2-0.2,0.3-0.4c0.2-0.2,0.2-0.3,0.3-0.3c-1.2-1.5-1.9-3.4-1.9-5.6
		c0-1.3,0.2-2.5,0.6-3.5s1-1.8,1.9-2.4s1.9-0.9,3.1-0.9c0.7,0,1.3,0.1,1.8,0.3s0.9,0.4,1.3,0.7s0.6,0.7,1,1.2
		c0.7-1.4,1.8-2.1,3.2-2.2h0.1h0.1h0.1v3.1c0,0-0.1,0-0.2,0c-0.4,0-0.7,0-1,0s-0.5,0.1-0.7,0.1c-0.3,0.1-0.5,0.2-0.6,0.3
		c0.2,0.4,0.3,0.9,0.5,1.5c0.1,0.6,0.2,1.2,0.2,1.8c0,1.3-0.2,2.5-0.6,3.5s-1,1.8-1.9,2.4s-1.9,0.9-3.1,0.9l-1.9-0.2
		c0,0-0.1,0.1-0.1,0.3s-0.1,0.2-0.2,0.3s-0.1,0.2-0.1,0.3c0,0.1-0.1,0.2-0.1,0.3c0,0.3,0.1,0.5,0.4,0.6s0.6,0.3,1,0.4
		s0.8,0.1,1.2,0.2s0.8,0.1,1.3,0.1s0.8,0.1,1,0.1c0.6,0.1,1.1,0.2,1.5,0.3c0.4,0.1,0.9,0.3,1.3,0.4s0.8,0.4,1.1,0.7s0.5,0.6,0.7,1.1
		s0.3,0.9,0.3,1.5c0,0.7-0.1,1.3-0.4,1.8s-0.6,1-1,1.3s-0.9,0.6-1.5,0.9s-1.2,0.4-1.8,0.5S146.8,61.1,146.1,61.1z M146.1,58.4
		c0.3,0,0.5,0,0.7,0s0.5,0,0.7-0.1s0.5-0.1,0.7-0.1s0.4-0.1,0.6-0.2s0.3-0.2,0.4-0.4c0.1-0.2,0.1-0.3,0.1-0.5c0-1-1-1.7-3-1.9
		l-3.1-0.4c-0.4,0.3-0.7,0.7-1,1.2s-0.4,1.1-0.4,1.6c0,0.2,0.1,0.3,0.2,0.4c0.1,0.1,0.3,0.2,0.5,0.3s0.4,0.1,0.6,0.1
		s0.5,0.1,0.8,0.1s0.6,0,0.8,0s0.5,0,0.8,0S146,58.4,146.1,58.4z M145.2,47.3c1.6,0,2.3-1.3,2.3-4c0-0.5,0-1-0.1-1.5
		s-0.2-0.9-0.4-1.3s-0.4-0.8-0.7-1s-0.7-0.4-1.2-0.4s-0.8,0.1-1.2,0.4c-0.3,0.2-0.6,0.6-0.7,1c-0.2,0.4-0.3,0.9-0.3,1.3
		c-0.1,0.5-0.1,0.9-0.1,1.5C142.8,46,143.6,47.3,145.2,47.3z"/>
	<path class="st1" d="M158.7,55.8c-1.5,0-2.8-0.5-3.7-1.4s-1.6-2.1-1.9-3.6l2.8-0.9c0.7,1.9,1.6,2.8,2.8,2.8c0.6,0,1.1-0.2,1.4-0.5
		s0.5-0.8,0.5-1.4c0-0.9-0.3-1.6-0.9-2.2l-3.8-2.8c-0.4-0.3-0.8-0.5-1.1-0.8c-0.3-0.2-0.6-0.6-0.9-0.9s-0.5-0.8-0.7-1.2
		S153,42,153,41.4c0-1.6,0.5-2.8,1.5-3.7s2.4-1.3,4.1-1.3c0.8,0,1.5,0.1,2.2,0.4s1.2,0.6,1.6,1.1s0.8,1,1.1,1.6s0.5,1.2,0.7,1.9
		l-2.8,0.9c-0.1-0.4-0.3-0.7-0.4-1s-0.3-0.6-0.5-0.9s-0.5-0.6-0.8-0.7c-0.3-0.2-0.7-0.3-1-0.3c-0.6,0-1.1,0.2-1.4,0.5
		c-0.3,0.3-0.5,0.8-0.5,1.4s0.3,1.1,0.9,1.6l3.8,2.8c0.4,0.3,0.8,0.7,1.1,1s0.6,0.7,0.9,1.1s0.5,0.9,0.6,1.4s0.2,1,0.2,1.6
		c0,1.6-0.5,2.8-1.5,3.7S160.4,55.8,158.7,55.8z"/>
</g>
<g>
	<polygon class="st2" points="226.1,67.8 186.2,67.8 186.2,66.8 225.1,66.8 225.1,23 186.9,23 186.9,22 226.1,22 	"/>
	<polygon class="st2" points="34.7,67.8 0.1,67.8 0.1,22 34.2,22 34.2,23 1.1,23 1.1,66.8 34.7,66.8 	"/>
	<path class="st2" d="M110.6,89.1c-49.1,0-89.1-19.9-89.1-44.5c0-24.5,40-44.5,89.1-44.5c31.9,0,60.6,8.2,76.8,21.8
		c8,6.8,12.3,14.6,12.3,22.6C199.7,69.2,159.7,89.1,110.6,89.1z M110.6,1.3c-48.5,0-87.9,19.4-87.9,43.3S62.1,88,110.6,88
		s87.9-19.4,87.9-43.3c0-7.7-4.1-15.2-11.9-21.8C170.9,9.6,141.7,1.3,110.6,1.3z"/>
	<path class="st2" d="M110.1,81.2c-43.8,0-79.5-16.3-79.5-36.3S66.3,8.6,110.1,8.6c43.8,0,79.5,16.3,79.5,36.3
		S153.9,81.2,110.1,81.2z M110.1,9.6c-43.3,0-78.5,15.8-78.5,35.3c0,19.5,35.2,35.3,78.5,35.3s78.5-15.8,78.5-35.3
		C188.6,25.5,153.4,9.6,110.1,9.6z"/>
</g>
</svg>
