<?xml version="1.0" encoding="utf-8"?>
<!-- Generator: Adobe Illustrator 22.0.1, SVG Export Plug-In . SVG Version: 6.00 Build 0)  -->
<svg version="1.1" id="Layer_1" xmlns="http://www.w3.org/2000/svg" xmlns:xlink="http://www.w3.org/1999/xlink" x="0px" y="0px"
	 viewBox="0 0 226.2 89.3" style="enable-background:new 0 0 226.2 89.3;" xml:space="preserve">
<style type="text/css">
	.st0{enable-background:new    ;}
	.st1{fill:#D4D2CD;}
	.st2{fill:#83CEC1;}
</style>
<g class="st0">
	<path class="st1" d="M71.5,53.5l2.4-11.3h-4.4l-2.4,11.3h-4.3l4.4-20.4c-1.3,0.6-2.4,1.4-3.1,2.5S63,38.1,63,39.7
		c0,0.4,0,0.7,0.1,0.9c0,0.2,0.1,0.4,0.1,0.6s0.1,0.3,0.1,0.3s0.1,0.1,0.1,0.2c-0.5,0-1-0.1-1.4-0.2s-0.7-0.3-1-0.5
		s-0.5-0.5-0.6-0.9s-0.2-0.8-0.2-1.4c0-0.7,0.1-1.3,0.4-2s0.7-1.3,1.2-1.8s1.1-1.1,1.8-1.6s1.4-0.9,2.2-1.3c0.8-0.4,1.6-0.6,2.4-0.8
		s1.7-0.3,2.5-0.3c0.2,0,0.4,0,0.6,0s0.4,0,0.6,0L70,39.8h4.4l1.9-8.9h4.3l-4.8,22.4h-4.3V53.5z"/>
	<path class="st1" d="M96.6,42.1c-0.6,0.6-1.3,1.1-2.3,1.6s-1.9,0.7-3,0.9c-0.1,1.4-0.4,2.6-0.8,3.8s-0.9,2.1-1.6,2.8
		s-1.4,1.4-2.2,1.8s-1.7,0.6-2.6,0.6c-0.7,0-1.3-0.1-1.9-0.3c-0.6-0.2-1.1-0.4-1.5-0.8s-0.8-0.9-1-1.5s-0.4-1.3-0.4-2.2
		c0-0.6,0.1-1.3,0.2-2s0.3-1.5,0.6-2.3s0.6-1.6,1-2.3s0.9-1.4,1.6-2s1.3-1.1,2.1-1.4c0.8-0.4,1.7-0.5,2.7-0.5c2.6,0,3.9,1.6,3.9,4.8
		l0,0h0.1c0,0,0.1,0,0.2,0c0.4,0,0.7-0.1,1.1-0.2c0.4-0.1,0.8-0.2,1.2-0.4s0.8-0.4,1.2-0.6s0.7-0.4,1.1-0.7L96.6,42.1z M88.8,44.7
		c-0.3-0.1-0.5-0.2-0.6-0.5S88,43.7,88,43.4c0-0.4,0.1-0.8,0.3-1c0.2-0.3,0.4-0.5,0.7-0.6c0-0.3-0.1-0.6-0.1-0.8
		c0-0.2-0.1-0.4-0.2-0.5s-0.2-0.2-0.3-0.3s-0.3-0.1-0.5-0.1c-0.4,0-0.7,0.1-1,0.4s-0.6,0.6-0.9,1.1s-0.6,1-0.8,1.6
		c-0.2,0.6-0.5,1.2-0.6,1.8s-0.3,1.2-0.4,1.9s-0.1,1.2-0.1,1.7s0,0.9,0.1,1.2s0.1,0.6,0.3,0.7c0.1,0.2,0.3,0.3,0.5,0.4
		s0.4,0.1,0.7,0.1c0.4,0,0.7-0.2,1.1-0.5s0.7-0.8,1-1.3s0.6-1.2,0.8-2S88.7,45.6,88.8,44.7z"/>
	<path class="st1" d="M94.8,39.7h-1l0.2-1.2h1l0.9-4.1l4.4-0.6c0,0.2-0.1,0.4-0.1,0.6s-0.1,0.5-0.1,0.7c-0.1,0.4-0.2,0.9-0.3,1.5
		s-0.3,1.2-0.4,1.9h1.8l-0.2,1.2h-1.8l-1.9,9c0,0.2-0.1,0.4-0.1,0.6s0,0.3,0,0.5c0,0.3,0.1,0.6,0.2,0.8s0.4,0.3,0.8,0.3
		c0.1,0,0.2,0,0.4,0c0.1,0,0.3,0,0.4-0.1c-0.2,0.6-0.5,1.2-0.7,1.5c-0.3,0.4-0.5,0.7-0.8,0.9s-0.5,0.3-0.8,0.4s-0.5,0.1-0.8,0.1
		c-0.5,0-1-0.1-1.4-0.3c-0.4-0.2-0.7-0.4-0.9-0.7s-0.4-0.7-0.5-1.1s-0.2-0.9-0.2-1.3c0-0.5,0.1-1,0.2-1.6L94.8,39.7z"/>
	<path class="st1" d="M110.5,53.5l4.1-19.1l4.4-0.6l-3.6,16.8c0.5,0.4,1.1,0.6,1.7,0.6s1.2-0.2,1.7-0.6s1-0.9,1.4-1.5
		s0.8-1.4,1.1-2.2s0.6-1.8,0.8-2.8s0.4-2,0.5-3s0.2-2.1,0.2-3.1s-0.1-1.9-0.3-2.6s-0.5-1.3-0.9-1.8c-0.4-0.5-0.8-0.8-1.4-1
		c-0.5-0.2-1.1-0.3-1.8-0.3c-1.1,0-2.1,0.2-3.1,0.5s-1.8,0.8-2.5,1.4c-0.7,0.6-1.3,1.4-1.7,2.3s-0.6,1.9-0.6,3.1
		c0,0.4,0,0.7,0.1,0.9c0,0.2,0.1,0.4,0.1,0.6s0.1,0.3,0.1,0.3s0.1,0.1,0.1,0.2c-1,0-1.8-0.2-2.4-0.6s-0.8-1.1-0.8-2.2
		c0-0.7,0.1-1.4,0.4-2c0.3-0.7,0.6-1.3,1.1-1.9s1.1-1.1,1.8-1.6s1.4-0.9,2.3-1.3c0.8-0.4,1.7-0.6,2.7-0.8s1.9-0.3,2.9-0.3
		s1.8,0.1,2.6,0.3s1.5,0.5,2.1,0.9c0.6,0.4,1.1,0.8,1.5,1.4c0.4,0.5,0.8,1.1,1,1.8c0.3,0.6,0.5,1.3,0.6,2.1c0.1,0.7,0.2,1.5,0.2,2.2
		c0,1.1-0.1,2.3-0.3,3.4s-0.5,2.3-0.9,3.3s-0.8,2-1.3,3s-1.1,1.7-1.7,2.4s-1.3,1.2-2,1.6s-1.4,0.6-2.2,0.6c-0.6,0-1.2-0.1-1.8-0.4
		s-1.2-0.7-1.9-1.2l-0.2,1.2L110.5,53.5L110.5,53.5z"/>
	<path class="st1" d="M144.4,42.1c-0.6,0.6-1.3,1.1-2.3,1.6s-1.9,0.7-3,0.9c-0.1,1.4-0.4,2.6-0.8,3.8s-0.9,2.1-1.6,2.8
		s-1.4,1.4-2.2,1.8s-1.7,0.6-2.6,0.6c-0.7,0-1.3-0.1-1.9-0.3c-0.6-0.2-1.1-0.4-1.5-0.8s-0.8-0.9-1-1.5s-0.4-1.3-0.4-2.2
		c0-0.6,0.1-1.3,0.2-2c0.1-0.7,0.3-1.5,0.6-2.3c0.3-0.8,0.6-1.6,1-2.3s0.9-1.4,1.6-2s1.3-1.1,2.1-1.4c0.8-0.4,1.7-0.5,2.7-0.5
		c2.6,0,3.9,1.6,3.9,4.8l0,0h0.1c0,0,0.1,0,0.2,0c0.4,0,0.7-0.1,1.1-0.2c0.4-0.1,0.8-0.2,1.2-0.4s0.8-0.4,1.2-0.6s0.7-0.4,1.1-0.7
		L144.4,42.1z M136.6,44.7c-0.3-0.1-0.5-0.2-0.6-0.5s-0.2-0.5-0.2-0.8c0-0.4,0.1-0.8,0.3-1c0.2-0.3,0.4-0.5,0.7-0.6
		c0-0.3-0.1-0.6-0.1-0.8c0-0.2-0.1-0.4-0.2-0.5s-0.2-0.2-0.3-0.3s-0.4-0.1-0.6-0.1c-0.4,0-0.7,0.1-1,0.4s-0.6,0.6-0.9,1.1
		s-0.6,1-0.8,1.6s-0.5,1.2-0.6,1.8s-0.3,1.2-0.4,1.9s-0.1,1.2-0.1,1.7s0,0.9,0.1,1.2s0.1,0.6,0.3,0.7c0.1,0.2,0.3,0.3,0.5,0.4
		s0.4,0.1,0.7,0.1c0.4,0,0.7-0.2,1.1-0.5s0.7-0.8,1-1.3s0.6-1.2,0.8-2S136.5,45.6,136.6,44.7z"/>
	<path class="st1" d="M151.4,55.9c-0.2,1.1-0.5,1.9-0.9,2.6s-0.9,1.2-1.4,1.6s-1,0.6-1.6,0.7s-1.1,0.2-1.6,0.2s-0.9-0.1-1.3-0.2
		s-0.8-0.3-1.1-0.5s-0.5-0.5-0.7-0.9s-0.3-0.8-0.3-1.3c0-0.6,0.1-1.2,0.4-1.7s0.7-0.9,1.1-1.3c0.5-0.4,1-0.7,1.6-0.9
		s1.2-0.5,1.7-0.6l0.4-1.6c-0.4,0.5-1,0.9-1.5,1.2s-1.3,0.5-2.1,0.5c-0.5,0-1-0.1-1.5-0.2s-0.9-0.4-1.3-0.8s-0.7-0.9-0.9-1.5
		s-0.3-1.4-0.3-2.3c0-0.7,0.1-1.4,0.2-2.2s0.3-1.6,0.6-2.3s0.6-1.5,1.1-2.2c0.4-0.7,0.9-1.4,1.5-1.9c0.6-0.6,1.2-1,1.9-1.3
		s1.5-0.5,2.4-0.5c0.8,0,1.5,0.1,1.9,0.4s0.6,0.7,0.6,1.1v0.1l0.3-1.6h4.3l-3,13.9c0.5-0.2,0.9-0.3,1.2-0.6c0.4-0.2,0.7-0.5,1-0.8
		s0.6-0.7,0.8-1.2s0.5-1,0.7-1.7h1.3c-0.3,1-0.7,1.8-1.1,2.5s-0.9,1.2-1.3,1.6c-0.5,0.4-1,0.7-1.5,1s-1,0.4-1.5,0.5L151.4,55.9z
		 M147.3,55.1c-0.4,0.1-0.8,0.3-1.1,0.5s-0.7,0.4-0.9,0.6s-0.5,0.4-0.6,0.7c-0.2,0.2-0.2,0.5-0.2,0.8c0,0.1,0,0.2,0.1,0.3
		s0.1,0.2,0.2,0.3s0.2,0.2,0.3,0.2s0.3,0.1,0.5,0.1c0.3,0,0.6-0.2,1-0.7s0.6-1.1,0.8-2L147.3,55.1z M150.2,41.3c0-0.1,0-0.2-0.1-0.3
		s-0.1-0.2-0.2-0.4s-0.2-0.2-0.4-0.3c-0.2-0.1-0.4-0.1-0.6-0.1c-0.4,0-0.8,0.1-1.2,0.4s-0.7,0.6-1,1.1s-0.6,1-0.8,1.5
		s-0.5,1.2-0.6,1.8s-0.3,1.2-0.4,1.8c-0.1,0.6-0.1,1.1-0.1,1.6c0,0.6,0.1,1,0.2,1.3s0.2,0.5,0.4,0.7s0.3,0.2,0.5,0.3s0.3,0,0.5,0
		s0.4-0.1,0.7-0.2c0.2-0.1,0.5-0.3,0.7-0.4s0.4-0.4,0.6-0.7s0.3-0.6,0.4-1L150.2,41.3z"/>
	<path class="st1" d="M164.7,37.6c0.1,1.3,0.1,2.4,0.2,3.4c0.1,1,0.1,1.8,0.2,2.5s0.1,1.3,0.1,1.8s0.1,0.9,0.1,1.3s0.1,0.7,0.1,1
		s0,0.6,0,1c0,0.7-0.1,1.2-0.3,1.8c-0.2,0.5-0.4,1-0.7,1.3s-0.7,0.7-1.1,1c-0.4,0.3-0.8,0.5-1.3,0.7s-0.9,0.3-1.4,0.4
		s-0.9,0.1-1.3,0.1c-0.8,0-1.4-0.1-2-0.3c-0.6-0.2-1-0.5-1.4-0.9s-0.6-0.8-0.8-1.2c-0.2-0.5-0.3-0.9-0.3-1.4c0-0.4,0-0.7,0.1-1
		s0.2-0.6,0.4-0.8s0.3-0.4,0.5-0.6s0.4-0.3,0.6-0.4c0.8-1.5,1.5-3,2.1-4.5s1.1-2.9,1.6-4.4L164.7,37.6z M156.6,49.2
		c0,0.7,0.1,1.2,0.4,1.6s0.7,0.5,1.4,0.5c0.3,0,0.7,0,1-0.1s0.6-0.2,0.8-0.5c0.2-0.2,0.4-0.5,0.6-0.9s0.2-0.8,0.2-1.3
		c0-0.3,0-0.5,0-0.7s0-0.5-0.1-0.8c0-0.3,0-0.6-0.1-0.9s-0.1-0.7-0.1-1.2s-0.1-0.9-0.1-1.5s-0.1-1.2-0.2-2c-0.3,1-0.7,1.9-1.1,2.8
		s-0.9,1.9-1.4,2.8c0.2,0.1,0.4,0.2,0.5,0.4s0.2,0.4,0.2,0.6s0,0.4-0.1,0.5s-0.1,0.3-0.3,0.5s-0.3,0.3-0.4,0.3
		c-0.2,0.1-0.3,0.1-0.5,0.1s-0.3,0-0.5-0.1S156.7,49.4,156.6,49.2z"/>
</g>
<g>
	<polygon class="st2" points="226.1,67.8 186.3,67.8 186.3,66.8 225.1,66.8 225.1,23 186.9,23 186.9,22 226.1,22 	"/>
	<polygon class="st2" points="34.7,67.8 0.1,67.8 0.1,22 34.2,22 34.2,23 1.1,23 1.1,66.8 34.7,66.8 	"/>
	<path class="st2" d="M110.6,89.1c-49.1,0-89.1-19.9-89.1-44.5c0-24.5,40-44.5,89.1-44.5c31.9,0,60.6,8.2,76.8,21.8
		c8,6.8,12.3,14.6,12.3,22.6C199.7,69.2,159.7,89.1,110.6,89.1z M110.6,1.3c-48.5,0-87.9,19.4-87.9,43.3S62.1,88,110.6,88
		s87.9-19.4,87.9-43.3c0-7.7-4.1-15.2-11.9-21.8C170.9,9.6,141.7,1.3,110.6,1.3z"/>
	<path class="st2" d="M110.1,81.2c-43.8,0-79.5-16.3-79.5-36.3S66.3,8.6,110.1,8.6c43.8,0,79.5,16.3,79.5,36.3
		S153.9,81.2,110.1,81.2z M110.1,9.6c-43.3,0-78.5,15.8-78.5,35.3c0,19.5,35.2,35.3,78.5,35.3s78.5-15.8,78.5-35.3
		C188.6,25.5,153.4,9.6,110.1,9.6z"/>
</g>
</svg>
