<?xml version="1.0" encoding="utf-8"?>
<!-- Generator: Adobe Illustrator 22.0.1, SVG Export Plug-In . SVG Version: 6.00 Build 0)  -->
<svg version="1.1" id="Layer_1" xmlns="http://www.w3.org/2000/svg" xmlns:xlink="http://www.w3.org/1999/xlink" x="0px" y="0px"
	 viewBox="0 0 226.2 89.3" style="enable-background:new 0 0 226.2 89.3;" xml:space="preserve">
<style type="text/css">
	.st0{fill:#83CEC1;}
	.st1{enable-background:new    ;}
	.st2{fill:#D4D2CD;}
</style>
<g>
	<polygon class="st0" points="226.1,67.8 186.3,67.8 186.3,66.8 225.1,66.8 225.1,23 186.9,23 186.9,22 226.1,22 	"/>
	<polygon class="st0" points="34.7,67.8 0.1,67.8 0.1,22 34.2,22 34.2,23 1.1,23 1.1,66.8 34.7,66.8 	"/>
	<path class="st0" d="M110.6,89.1c-49.1,0-89.1-19.9-89.1-44.5c0-24.5,40-44.5,89.1-44.5c31.9,0,60.6,8.2,76.8,21.8
		c8,6.8,12.3,14.6,12.3,22.6C199.7,69.2,159.7,89.1,110.6,89.1z M110.6,1.3c-48.5,0-87.9,19.4-87.9,43.3S62.1,88,110.6,88
		s87.9-19.4,87.9-43.3c0-7.7-4.1-15.2-11.9-21.8C170.9,9.6,141.7,1.3,110.6,1.3z"/>
	<path class="st0" d="M110.1,81.2c-43.8,0-79.5-16.3-79.5-36.3S66.3,8.6,110.1,8.6c43.8,0,79.5,16.3,79.5,36.3
		S153.9,81.2,110.1,81.2z M110.1,9.6c-43.3,0-78.5,15.8-78.5,35.3c0,19.5,35.2,35.3,78.5,35.3s78.5-15.8,78.5-35.3
		C188.6,25.5,153.4,9.6,110.1,9.6z"/>
</g>
<g class="st1">
	<path class="st2" d="M60.4,53.5c-0.4,0-0.7,0-1.1,0s-0.8,0-1.1,0s-0.7,0-1,0s-0.5,0-0.8,0.1s-0.4,0-0.5,0s-0.2,0-0.2,0
		c-0.4,0-0.6-0.3-0.6-0.8c0-0.4,0.4-0.6,1.3-0.6c0.3,0,0.5,0,0.7-0.1c0.3,0,0.5-0.1,0.6-0.3s0.1-0.4,0.1-0.7V35.4
		c0-0.2,0-0.3-0.1-0.4s-0.1-0.2-0.1-0.3s-0.1-0.1-0.3-0.2s-0.2-0.1-0.3-0.1s-0.2,0-0.4-0.1s-0.3,0-0.4,0s-0.2,0-0.4,0
		s-0.4,0-0.5-0.1S55.1,34.1,55,34c-0.1-0.1-0.1-0.2-0.1-0.3s0.1-0.3,0.2-0.4s0.3-0.2,0.5-0.2c0.1,0,0.2,0,0.5,0s0.7,0,1.2,0
		s1.1,0,1.7,0h0.1c0.6,0,1.2,0,1.8,0s1,0,1.3,0s0.5,0,0.6,0c0.3,0,0.5,0.2,0.6,0.5v0.1v0.1c0,0.2-0.1,0.3-0.3,0.4
		c-0.2,0.1-0.6,0.1-1.3,0.1c-0.3,0-0.5,0-0.6,0c-0.4,0-0.7,0.3-0.7,0.9v5c0,0.3,0.1,0.4,0.4,0.4H71c0.4,0,0.5-0.2,0.5-0.6v-4.4
		c0-0.7-0.2-1.1-0.6-1.3c-0.2-0.1-0.5-0.1-0.9-0.1s-0.7,0-0.9-0.1c-0.2-0.1-0.3-0.2-0.3-0.5c0-0.4,0.2-0.6,0.7-0.6
		c0.1,0,0.2,0,0.5,0s0.6,0,1.1,0s1,0,1.5,0c0.4,0,0.8,0,1.2,0s0.8,0,1.1,0c0.3,0,0.6,0,0.8,0c0.2,0,0.4,0,0.6,0s0.2,0,0.2,0
		c0.4,0,0.6,0.2,0.6,0.5c0,0.1,0,0.2,0,0.3S77,33.9,77,34c-0.1,0.1-0.1,0.1-0.2,0.1s-0.2,0.1-0.3,0.1c-0.1,0-0.3,0-0.4,0.1
		s-0.3,0-0.5,0.1s-0.4,0.1-0.6,0.1c-0.5,0.1-0.8,0.3-0.8,0.8v15.8v0.1c0,0.6,0.3,0.9,0.8,1c0.1,0,0.3,0,0.5,0s0.3,0,0.4,0
		s0.2,0,0.3,0s0.2,0,0.3,0.1s0.1,0.1,0.2,0.1s0.1,0.1,0.1,0.2s0,0.2,0,0.3c0,0.5-0.2,0.8-0.6,0.8c0,0-0.1,0-0.2,0s-0.3,0-0.5,0
		s-0.5,0-0.8-0.1s-0.6,0-1,0s-0.8,0-1.1,0s-0.5,0-0.4,0s-0.2,0-1,0s-1.2,0-1.4,0.1c-0.2,0-0.4,0-0.5,0s-0.2,0-0.2,0
		c-0.3,0-0.5-0.2-0.5-0.6c0-0.1,0-0.2,0-0.3c0-0.1,0-0.1,0.1-0.2c0-0.1,0.1-0.1,0.1-0.1l0.1-0.1c0,0,0.1-0.1,0.2-0.1s0.1,0,0.3,0
		c0.1,0,0.2,0,0.4,0c0.1,0,0.3,0,0.5,0s0.4,0,0.5,0c0.4,0,0.6-0.1,0.7-0.3s0.2-0.5,0.2-0.8v-8.1c0-0.2-0.1-0.4-0.4-0.4H60.9
		c-0.3,0-0.4,0.2-0.4,0.5v8.1c0,0.2,0,0.3,0,0.4s0.2,0.2,0.4,0.3s0.6,0.2,1,0.2c0,0,0.2,0,0.4,0s0.4,0,0.5,0.1s0.2,0.1,0.4,0.2
		s0.2,0.2,0.2,0.4c0,0.6-0.2,0.8-0.5,0.8c0,0-0.1,0-0.2,0s-0.3,0-0.5,0s-0.5,0-0.8-0.1S60.8,53.5,60.4,53.5z"/>
	<path class="st2" d="M78,47.4c0-2,0.6-3.7,1.9-4.9c1.3-1.3,2.7-1.9,4.5-1.9s3.3,0.6,4.5,1.9s1.8,2.9,1.8,4.9s-0.6,3.7-1.9,4.9
		c-1.2,1.2-2.8,1.8-4.5,1.8c-1.8,0-3.3-0.6-4.5-1.9C78.6,50.9,78,49.3,78,47.4z M81.4,51.1c0.8,1,1.8,1.5,3,1.5s2.3-0.5,3.1-1.5
		c0.8-1,1.2-2.2,1.2-3.5c0-1.5-0.4-2.8-1.3-3.9s-1.9-1.6-3.1-1.6c-1,0-1.9,0.4-2.7,1.3c-0.8,0.9-1.2,2.2-1.2,3.9
		C80.2,48.8,80.6,50.1,81.4,51.1z"/>
	<path class="st2" d="M92.6,42.6c-0.4,0-0.6-0.1-0.6-0.4c0-0.1,0.1-0.3,0.4-0.6c0.3-0.2,0.7-0.7,1.2-1.2c0.5-0.6,1-1.2,1.5-2
		c0.2-0.4,0.4-0.6,0.6-0.6c0.3,0,0.4,0.2,0.4,0.5c0,0.1,0,0.5,0,1c0,0.6,0,0.9,0,1c0,0.4,0.2,0.6,0.6,0.6h2.7h0.1c0.1,0,0.1,0,0.1,0
		c0.5,0,0.8,0.2,0.8,0.6s-0.1,0.7-0.3,0.9c-0.1,0.1-0.3,0.1-0.5,0.1h-3.5c-0.2,0-0.3,0.1-0.3,0.3c0,1.6,0,3,0,4.1s0,1.8,0,2.2
		c0,0.4,0,0.6,0,0.8c0,1.5,0.5,2.2,1.6,2.2c0.4,0,0.8-0.2,1.3-0.5s0.8-0.6,1.2-1c0.3-0.3,0.6-0.5,0.8-0.5s0.3,0.1,0.4,0.2
		c0.1,0.1,0.2,0.2,0.2,0.4c0,0.1-0.1,0.3-0.2,0.5c-1.6,1.8-3,2.7-4.2,2.7c-0.7,0-1.4-0.3-2-0.9s-0.9-1.5-1-2.7c0-0.2,0-0.5,0-1
		s0-1.7,0.1-3.6c0-1.9,0.1-2.9,0.1-3.1s-0.1-0.3-0.2-0.3h-1.3V42.6z"/>
	<path class="st2" d="M109.2,33.9c0-0.4,0.2-0.6,0.7-0.6h5.4c3.9,0,6.8,0.4,8.6,1.3c1.6,0.8,3,1.9,4,3.4c1.1,1.5,1.6,3.2,1.6,5.2
		c0,2.5-0.9,4.7-2.6,6.6c-1.7,1.9-3.8,3.1-6,3.5c-0.7,0.1-1.6,0.2-2.6,0.2h-8.4c-0.5,0-0.7-0.3-0.7-0.9c0-0.1,0-0.2,0-0.3
		s0.1-0.1,0.1-0.2c0.1,0,0.1-0.1,0.2-0.1s0.2,0,0.3-0.1s0.3,0,0.4,0s0.3,0,0.5,0s0.4,0,0.6,0c0.3,0,0.6-0.1,0.7-0.3
		c0.1-0.2,0.2-0.4,0.2-0.8V35.7c0-0.5-0.1-0.8-0.4-0.9s-0.8-0.2-1.6-0.2c-0.2,0-0.4,0-0.5,0C109.4,34.6,109.2,34.4,109.2,33.9z
		 M117.9,52.1c2.4,0,4.5-0.7,6.2-2.1s2.6-3.4,2.6-5.9c0-1.5-0.3-2.9-0.9-4.3c-0.6-1.4-1.5-2.5-2.7-3.3c-1.7-1.2-3.8-1.8-6.2-1.8
		c-0.8,0-1.4,0.1-1.6,0.2s-0.4,0.4-0.4,0.8v15.2c0,0.4,0.1,0.6,0.2,0.8s0.4,0.3,0.8,0.4C116.6,52,117.2,52.1,117.9,52.1z"/>
	<path class="st2" d="M130.8,47.4c0-2,0.6-3.7,1.9-4.9c1.3-1.3,2.7-1.9,4.5-1.9s3.3,0.6,4.5,1.9s1.8,2.9,1.8,4.9s-0.6,3.7-1.9,4.9
		c-1.2,1.2-2.8,1.8-4.5,1.8c-1.8,0-3.3-0.6-4.5-1.9S130.8,49.3,130.8,47.4z M134.1,51.1c0.8,1,1.8,1.5,3,1.5s2.3-0.5,3.1-1.5
		s1.2-2.2,1.2-3.5c0-1.5-0.4-2.8-1.3-3.9c-0.9-1.1-1.9-1.6-3.1-1.6c-1,0-1.9,0.4-2.7,1.3s-1.2,2.2-1.2,3.9
		C132.9,48.8,133.3,50.1,134.1,51.1z"/>
	<path class="st2" d="M144.8,45.2c0-1.3,0.5-2.4,1.4-3.3s2-1.4,3.3-1.4c0.8,0,1.7,0.2,2.5,0.5s1.2,0.5,1.3,0.5
		c0.6,0,1.2-0.3,1.6-0.9c0.3-0.5,0.6-0.7,0.9-0.7c0.3,0,0.6,0.1,0.8,0.4c0.3,0.3,0.4,0.5,0.4,0.8c0,0.4-0.2,0.7-0.5,0.9
		c-0.3,0.3-0.7,0.5-1.1,0.6s-0.6,0.3-0.7,0.3c-0.1,0.1-0.1,0.2-0.1,0.2s0,0.1,0.1,0.3s0.1,0.4,0.2,0.7s0.1,0.6,0.1,0.9
		c0,1.4-0.5,2.6-1.5,3.6s-2.1,1.5-3.5,1.5c-0.4,0-0.8,0-1.1-0.1c-0.4-0.1-0.6-0.1-0.6-0.1c-0.3,0-0.6,0.2-0.9,0.5
		c-0.3,0.3-0.5,0.7-0.5,1c0,0.5,0.4,0.9,1.3,1.1s1.9,0.3,3.3,0.3s2.3,0.1,2.9,0.3c0.9,0.3,1.6,0.7,2.1,1.3c0.5,0.6,0.7,1.3,0.7,2
		c0,0.4-0.1,0.9-0.3,1.3s-0.5,0.9-1,1.3s-1.1,0.8-2,1.1s-1.9,0.4-3.1,0.4c-2.1,0-3.6-0.4-4.5-1.2s-1.3-1.7-1.3-2.6
		c0-0.2,0-0.4,0.1-0.6c0-0.2,0.1-0.3,0.1-0.5c0.1-0.1,0.1-0.3,0.2-0.4c0.1-0.1,0.1-0.2,0.2-0.3c0.1-0.1,0.2-0.2,0.3-0.3
		c0.1-0.1,0.2-0.1,0.2-0.2c0.1-0.1,0.1-0.1,0.2-0.2c0.1-0.1,0.1-0.1,0.2-0.1h0.1c0,0,0.1-0.1,0.1-0.2c0,0-0.1-0.1-0.3-0.2
		s-0.4-0.3-0.6-0.6c-0.2-0.3-0.3-0.6-0.3-1c0-1,0.6-1.9,1.7-2.8l0,0c0,0,0,0,0-0.1s-0.1-0.2-0.2-0.3s-0.3-0.3-0.6-0.6
		c-0.3-0.3-0.6-0.6-0.8-1.1C145,46.7,144.8,46,144.8,45.2z M146.6,56.2c0,0.9,0.5,1.6,1.4,2.1s2,0.8,3.4,0.8s2.4-0.2,3-0.6
		s0.9-0.9,0.9-1.5c0-0.8-0.4-1.4-1.2-1.7c-0.4-0.2-0.9-0.3-1.4-0.4c-0.6-0.1-1.3-0.1-2.3-0.1s-1.9-0.1-2.6-0.2h-0.2
		c-0.1,0-0.3,0.1-0.5,0.3C146.8,55.2,146.6,55.6,146.6,56.2z M149.6,41.5c-0.8,0-1.4,0.3-1.9,0.9s-0.7,1.4-0.7,2.4
		c0,1.2,0.3,2.1,0.9,3c0.6,0.8,1.3,1.3,2.2,1.3c0.8,0,1.5-0.3,1.9-1c0.5-0.6,0.7-1.4,0.7-2.4c0-1.1-0.3-2.1-0.9-3
		C151.3,42,150.5,41.5,149.6,41.5z"/>
	<path class="st2" d="M158.3,44.3c0-1,0.4-1.8,1.2-2.5s1.8-1.1,3.1-1.1c0.3,0,0.5,0,0.7,0s0.4,0.1,0.5,0.1s0.2,0,0.2,0
		c0.1,0,0.2,0,0.4-0.1s0.3-0.1,0.4-0.1c0.2,0,0.4,0.2,0.5,0.6c0.1,0.3,0.1,0.7,0.2,1.3c0.1,0.5,0.2,1,0.3,1.4s0.1,0.6,0.1,0.6
		c0,0.3-0.2,0.4-0.7,0.4c-0.2,0-0.3-0.1-0.4-0.2c-0.1-0.1-0.2-0.3-0.2-0.6c-0.1-0.3-0.2-0.5-0.3-0.6c-0.2-0.3-0.6-0.5-1-0.8
		s-1-0.4-1.4-0.4c-0.5,0-1,0.1-1.3,0.4s-0.6,0.7-0.6,1.1c0,1,0.8,1.7,2.4,2.1c0.2,0.1,0.5,0.1,0.9,0.2s0.7,0.2,0.9,0.2
		s0.5,0.1,0.8,0.3s0.6,0.3,0.8,0.4c0.2,0.2,0.5,0.4,0.7,0.6c0.6,0.7,0.9,1.5,0.9,2.4c0,1.1-0.4,2-1.3,2.8c-0.8,0.8-2,1.2-3.3,1.2
		c-0.8,0-1.5-0.1-2.3-0.4s-1.4-0.6-1.8-1.1c-0.2-0.3-0.4-0.6-0.4-1c0-0.3,0-0.7,0-1.1s0-0.6,0-0.7c0-0.4,0-0.6,0.1-0.8
		s0.2-0.2,0.4-0.2s0.4,0.1,0.4,0.3c0.1,0.2,0.1,0.4,0.1,0.8s0.1,0.6,0.2,0.8c0.2,0.4,0.6,0.8,1.2,1.2c0.7,0.4,1.4,0.6,2.2,0.6
		c0.7,0,1.3-0.2,1.7-0.6s0.7-0.8,0.7-1.4c0-0.4-0.1-0.7-0.2-1s-0.4-0.5-0.8-0.7c-0.4-0.2-0.6-0.3-0.8-0.4s-0.6-0.2-1-0.3l-0.7-0.1
		C159.4,47.3,158.3,46.1,158.3,44.3z"/>
</g>
</svg>
