<?xml version="1.0" encoding="utf-8"?>
<!-- Generator: Adobe Illustrator 22.0.1, SVG Export Plug-In . SVG Version: 6.00 Build 0)  -->
<svg version="1.1" id="Layer_1" xmlns="http://www.w3.org/2000/svg" xmlns:xlink="http://www.w3.org/1999/xlink" x="0px" y="0px"
	 viewBox="0 0 226.2 89.3" style="enable-background:new 0 0 226.2 89.3;" xml:space="preserve">
<style type="text/css">
	.st0{enable-background:new    ;}
	.st1{fill:#D4D2CD;}
	.st2{fill:#83CEC1;}
</style>
<g class="st0">
	<path class="st1" d="M66.6,36.2h2.6v17.3h-2.6v-7.3H54.1v7.3h-2.6V36.2h2.6v7.3h12.5V36.2z"/>
	<path class="st1" d="M74.9,39.6h7.9c0.9,0,1.6,0.3,2.2,0.9s0.9,1.3,0.9,2.2v7.7c0,0.9-0.3,1.6-0.9,2.2s-1.3,0.9-2.2,0.9h-7.9
		c-0.9,0-1.6-0.3-2.2-0.9s-0.9-1.3-0.9-2.2v-7.7c0-0.9,0.3-1.6,0.9-2.2C73.3,39.9,74,39.6,74.9,39.6z M82.8,42.2h-7.9
		c-0.1,0-0.3,0.1-0.4,0.2s-0.2,0.2-0.2,0.4v7.7c0,0.1,0.1,0.3,0.2,0.4s0.2,0.2,0.4,0.2h7.9c0.1,0,0.3-0.1,0.4-0.2s0.2-0.2,0.2-0.4
		v-7.7c0-0.1-0.1-0.3-0.2-0.4C83.1,42.2,82.9,42.2,82.8,42.2z"/>
	<path class="st1" d="M96.1,42.2h-5.7v8.2c0,0.1,0.1,0.3,0.2,0.4c0.1,0.1,0.2,0.2,0.4,0.2h5.2v2.6H91c-0.9,0-1.6-0.3-2.2-0.9
		s-0.9-1.3-0.9-2.2v-7.7v-7.7h2.6v4.6h5.7L96.1,42.2L96.1,42.2z"/>
	<path class="st1" d="M104.7,36.2h14.2c0.9,0,1.6,0.3,2.2,0.9c0.6,0.6,0.9,1.3,0.9,2.2v11c0,0.9-0.3,1.6-0.9,2.2
		c-0.6,0.6-1.3,0.9-2.2,0.9h-14.2V36.2z M119.4,50.4v-11c0-0.1-0.1-0.3-0.2-0.4c-0.1-0.1-0.2-0.2-0.4-0.2h-11
		c-0.1,0-0.3,0.1-0.4,0.2c-0.1,0.1-0.2,0.2-0.2,0.4v11c0,0.1,0.1,0.3,0.2,0.4c0.1,0.1,0.2,0.2,0.4,0.2h11c0.1,0,0.3-0.1,0.4-0.2
		C119.4,50.7,119.4,50.5,119.4,50.4z"/>
	<path class="st1" d="M127.7,39.6h7.9c0.9,0,1.6,0.3,2.2,0.9s0.9,1.3,0.9,2.2v7.7c0,0.9-0.3,1.6-0.9,2.2c-0.6,0.6-1.3,0.9-2.2,0.9
		h-7.9c-0.9,0-1.6-0.3-2.2-0.9c-0.6-0.6-0.9-1.3-0.9-2.2v-7.7c0-0.9,0.3-1.6,0.9-2.2S126.8,39.6,127.7,39.6z M135.6,42.2h-7.9
		c-0.1,0-0.3,0.1-0.4,0.2c-0.1,0.1-0.2,0.2-0.2,0.4v7.7c0,0.1,0.1,0.3,0.2,0.4c0.1,0.1,0.2,0.2,0.4,0.2h7.9c0.1,0,0.3-0.1,0.4-0.2
		c0.1-0.1,0.2-0.2,0.2-0.4v-7.7c0-0.1-0.1-0.3-0.2-0.4C135.9,42.2,135.8,42.2,135.6,42.2z"/>
	<path class="st1" d="M155.1,48.2L155.1,48.2v7.7c0,0.9-0.3,1.6-0.9,2.2c-0.6,0.6-1.3,0.9-2.2,0.9h-8.6v-2.6h8.6
		c0.1,0,0.3-0.1,0.4-0.2c0.1-0.1,0.2-0.2,0.2-0.4v-2.4h-8.4c-0.9,0-1.6-0.3-2.2-0.9c-0.6-0.6-0.9-1.3-0.9-2.2v-7.7
		c0-0.9,0.3-1.6,0.9-2.2c0.6-0.6,1.3-0.9,2.2-0.9h7.9c0.9,0,1.6,0.3,2.2,0.9c0.6,0.6,0.9,1.3,0.9,2.2L155.1,48.2L155.1,48.2z
		 M144.1,50.9h7.9c0.1,0,0.3-0.1,0.4-0.2c0.1-0.1,0.2-0.2,0.2-0.4v-7.7c0-0.1-0.1-0.3-0.2-0.4c-0.1-0.1-0.2-0.2-0.4-0.2h-7.9
		c-0.1,0-0.3,0.1-0.4,0.2c-0.1,0.1-0.2,0.2-0.2,0.4v7.7c0,0.1,0.1,0.3,0.2,0.4C143.8,50.9,143.9,50.9,144.1,50.9z"/>
	<path class="st1" d="M171.3,42.7v0.5h-2.6v-0.5c0-0.1-0.1-0.3-0.2-0.4c-0.1-0.1-0.2-0.2-0.4-0.2h-7.9c-0.1,0-0.3,0.1-0.4,0.2
		c-0.1,0.1-0.2,0.2-0.2,0.4v2c0,0.1,0.1,0.3,0.2,0.4c0.1,0.1,0.2,0.2,0.4,0.2h7.9c0.9,0,1.6,0.3,2.2,0.9c0.6,0.6,0.9,1.3,0.9,2.2v2
		c0,0.9-0.3,1.6-0.9,2.2c-0.6,0.6-1.3,0.9-2.2,0.9h-7.9c-0.9,0-1.6-0.3-2.2-0.9c-0.6-0.6-0.9-1.3-0.9-2.2v-0.5h2.6v0.5
		c0,0.1,0.1,0.3,0.2,0.4c0.1,0.1,0.2,0.2,0.4,0.2h7.9c0.1,0,0.3-0.1,0.4-0.2c0.1-0.1,0.2-0.2,0.2-0.4v-2c0-0.1-0.1-0.3-0.2-0.4
		c-0.1-0.1-0.2-0.2-0.4-0.2h-7.9c-0.9,0-1.6-0.3-2.2-0.9c-0.6-0.6-0.9-1.3-0.9-2.2v-2c0-0.9,0.3-1.6,0.9-2.2s1.3-0.9,2.2-0.9h7.9
		c0.9,0,1.6,0.3,2.2,0.9S171.3,41.9,171.3,42.7z"/>
</g>
<g>
	<polygon class="st2" points="226.1,67.8 186.3,67.8 186.3,66.8 225.1,66.8 225.1,23 186.9,23 186.9,22 226.1,22 	"/>
	<polygon class="st2" points="34.7,67.8 0.1,67.8 0.1,22 34.2,22 34.2,23 1.1,23 1.1,66.8 34.7,66.8 	"/>
	<path class="st2" d="M110.6,89.1c-49.1,0-89.1-19.9-89.1-44.5c0-24.5,40-44.5,89.1-44.5c31.9,0,60.6,8.2,76.8,21.8
		c8,6.8,12.3,14.6,12.3,22.6C199.7,69.2,159.7,89.1,110.6,89.1z M110.6,1.3c-48.5,0-87.9,19.4-87.9,43.3S62.1,88,110.6,88
		s87.9-19.4,87.9-43.3c0-7.7-4.1-15.2-11.9-21.8C170.9,9.6,141.7,1.3,110.6,1.3z"/>
	<path class="st2" d="M110.1,81.2c-43.8,0-79.5-16.3-79.5-36.3S66.3,8.6,110.1,8.6c43.8,0,79.5,16.3,79.5,36.3
		S153.9,81.2,110.1,81.2z M110.1,9.6c-43.3,0-78.5,15.8-78.5,35.3c0,19.5,35.2,35.3,78.5,35.3s78.5-15.8,78.5-35.3
		C188.6,25.5,153.4,9.6,110.1,9.6z"/>
</g>
</svg>
