<svg id="Layer_3" data-name="Layer 3" xmlns="http://www.w3.org/2000/svg" viewBox="0 0 300 300"><defs><style>.cls-1{fill:#d5d2cd;}</style></defs><title>NewGrids-</title><path class="cls-1" d="M300,300H0V0H300ZM10.19,289.81H289.81V10.19H10.19Z"/><path class="cls-1" d="M67.36,44.27V67.36H44.27V44.27H67.36M77.55,34.08H34.08V77.55H77.55V34.08Z"/><path class="cls-1" d="M67.36,232.64v23.09H44.27V232.64H67.36m10.19-10.19H34.08v43.47H77.55V222.45Z"/><path class="cls-1" d="M67.36,107.06v23.09H44.27V107.06H67.36M77.55,96.87H34.08v43.47H77.55V96.87Z"/><path class="cls-1" d="M67.36,169.85v23.09H44.27V169.85H67.36m10.19-10.19H34.08v43.47H77.55V159.66Z"/><path class="cls-1" d="M130.15,44.27V67.36H107.06V44.27h23.09m10.19-10.19H96.87V77.55h43.47V34.08Z"/><path class="cls-1" d="M130.15,232.64v23.09H107.06V232.64h23.09m10.19-10.19H96.87v43.47h43.47V222.45Z"/><path class="cls-1" d="M130.15,107.06v23.09H107.06V107.06h23.09m10.19-10.19H96.87v43.47h43.47V96.87Z"/><path class="cls-1" d="M130.15,169.85v23.09H107.06V169.85h23.09m10.19-10.19H96.87v43.47h43.47V159.66Z"/><path class="cls-1" d="M192.94,44.27V67.36H169.85V44.27h23.09m10.19-10.19H159.66V77.55h43.47V34.08Z"/><path class="cls-1" d="M192.94,232.64v23.09H169.85V232.64h23.09m10.19-10.19H159.66v43.47h43.47V222.45Z"/><path class="cls-1" d="M192.94,107.06v23.09H169.85V107.06h23.09m10.19-10.19H159.66v43.47h43.47V96.87Z"/><path class="cls-1" d="M192.94,169.85v23.09H169.85V169.85h23.09m10.19-10.19H159.66v43.47h43.47V159.66Z"/><path class="cls-1" d="M255.73,44.27V67.36H232.64V44.27h23.09m10.19-10.19H222.45V77.55h43.47V34.08Z"/><path class="cls-1" d="M255.73,232.64v23.09H232.64V232.64h23.09m10.19-10.19H222.45v43.47h43.47V222.45Z"/><path class="cls-1" d="M255.73,107.06v23.09H232.64V107.06h23.09m10.19-10.19H222.45v43.47h43.47V96.87Z"/><path class="cls-1" d="M255.73,169.85v23.09H232.64V169.85h23.09m10.19-10.19H222.45v43.47h43.47V159.66Z"/></svg>