<?xml version="1.0" encoding="utf-8"?>
<!-- Generator: Adobe Illustrator 22.0.1, SVG Export Plug-In . SVG Version: 6.00 Build 0)  -->
<svg version="1.1" id="Layer_1" xmlns="http://www.w3.org/2000/svg" xmlns:xlink="http://www.w3.org/1999/xlink" x="0px" y="0px"
	 viewBox="0 0 224.5 71.7" style="enable-background:new 0 0 224.5 71.7;" xml:space="preserve">
<style type="text/css">
	.st0{fill:#D4D2CD;}
	.st1{clip-path:url(#SVGID_2_);fill:#83CEC1;}
	.st2{fill:none;}
	.st3{fill:#83CEC1;}
</style>
<g>
	<path class="st0" d="M68.5,44.5l2.3-10.9c-0.8-0.4-1.5-0.6-2.1-0.8s-1.3-0.3-1.9-0.3c-0.6,1.2-1.1,2.5-1.6,3.8S64.4,38.8,64,40
		c-0.3,1.2-0.6,2.4-0.8,3.4s-0.3,2-0.3,2.8c0,0.5,0,0.8,0.1,1.1c0.1,0.2,0.2,0.4,0.3,0.6c-0.4,0-0.8,0-1.3-0.1s-0.9-0.2-1.3-0.4
		c-0.4-0.2-0.7-0.5-1-0.9s-0.4-1-0.4-1.8c0-0.7,0.1-1.5,0.3-2.4s0.5-1.9,0.9-3c0.4-1.1,0.9-2.2,1.4-3.4c0.5-1.2,1.1-2.3,1.8-3.5
		c-0.9,0.1-1.7,0.2-2.3,0.4s-1,0.6-1.2,1.1c0.1,0,0.2,0.1,0.3,0.3c0.1,0.2,0.1,0.4,0.1,0.6c0,0.4-0.2,0.6-0.5,0.9
		c-0.3,0.2-0.7,0.3-1.2,0.3c-0.3,0-0.5,0-0.7-0.1c-0.2-0.1-0.4-0.2-0.6-0.3c-0.2-0.1-0.3-0.3-0.4-0.5C57.1,35,57,34.7,57,34.4
		c0-0.5,0.2-1,0.5-1.4s0.7-0.8,1.3-1.2c0.5-0.3,1.2-0.6,1.9-0.8s1.6-0.3,2.4-0.3c0.4,0,0.9,0,1.6,0.1c0.8-1.2,1.6-2.3,2.4-3.4
		c0.8-1.1,1.7-2,2.6-2.8c0.9-0.8,1.8-1.4,2.7-1.9s1.8-0.7,2.7-0.7c0.4,0,0.7,0,1.2,0.1s0.8,0.2,1.2,0.3l-4.7,22.1L68.5,44.5
		L68.5,44.5z M72.8,24.1c-0.4,0.2-0.9,0.6-1.4,1c-0.5,0.5-0.9,1-1.4,1.6s-0.9,1.3-1.4,2.1c-0.4,0.8-0.9,1.6-1.3,2.4
		c0.6,0.1,1.2,0.3,1.8,0.4s1.2,0.4,1.8,0.6L72.8,24.1z"/>
	<path class="st0" d="M93.2,39.1c-0.4,1.2-0.9,2.2-1.4,2.9c-0.5,0.7-1,1.3-1.5,1.7s-1,0.6-1.4,0.8c-0.5,0.1-0.9,0.2-1.3,0.2
		c-0.7,0-1.2-0.1-1.7-0.3c-0.4-0.2-0.8-0.4-1.1-0.8s-0.5-0.7-0.6-1.1c-0.1-0.4-0.2-0.8-0.2-1.3c0-0.5,0.1-1.1,0.2-1.8
		c0.1-0.7,0.3-1.4,0.5-2.1s0.3-1.4,0.5-2.1s0.2-1.2,0.2-1.7c0-1-0.4-1.5-1.1-1.5c-0.3,0-0.5,0.1-0.8,0.2s-0.4,0.3-0.6,0.6
		c-0.2,0.2-0.4,0.5-0.5,0.9c-0.2,0.3-0.3,0.7-0.4,1.1l-2,9.6h-4.3l3.2-15h4.3L82.9,31c0.3-0.4,0.6-0.7,1-0.9
		c0.3-0.2,0.6-0.4,0.9-0.5s0.6-0.2,0.9-0.2s0.5-0.1,0.8-0.1c0.5,0,0.9,0.1,1.3,0.2s0.8,0.3,1.1,0.6c0.3,0.3,0.5,0.6,0.7,1.1
		s0.2,0.9,0.2,1.5c0,0.4,0,0.8-0.1,1.3c-0.1,0.5-0.2,0.9-0.3,1.4c-0.1,0.5-0.2,1-0.3,1.4s-0.2,0.9-0.3,1.4s-0.2,0.8-0.3,1.2
		c-0.1,0.4-0.1,0.7-0.1,1c0,0.4,0.1,0.7,0.3,0.9s0.5,0.4,0.9,0.4c0.3,0,0.6-0.1,0.8-0.2s0.5-0.3,0.7-0.5s0.4-0.5,0.5-0.8
		c0.2-0.3,0.3-0.7,0.5-1.1L93.2,39.1L93.2,39.1z"/>
	<path class="st0" d="M101.2,39.1c-0.3,0.8-0.6,1.5-0.9,2.1c-0.3,0.6-0.7,1.1-1.1,1.5c-0.4,0.4-0.8,0.7-1.2,1
		c-0.4,0.3-0.8,0.4-1.1,0.6s-0.7,0.2-1.1,0.3c-0.3,0-0.6,0.1-0.9,0.1c-0.4,0-0.9-0.1-1.3-0.2s-0.7-0.4-1-0.6s-0.5-0.7-0.7-1.1
		s-0.2-1-0.2-1.6c0-0.3,0-0.6,0.1-0.9c0-0.3,0.1-0.7,0.2-1.1l1.8-8.4h-1l0.2-1.2h1l0.9-4.1l4.4-0.6l-1,4.7h1.8l-0.2,1.2h-1.8l-1.9,9
		c0,0.2-0.1,0.3-0.1,0.5c0,0.2,0,0.3,0,0.5c0,0.4,0.1,0.7,0.3,0.9c0.2,0.2,0.5,0.2,0.9,0.2c0.3,0,0.6-0.1,0.9-0.2
		c0.3-0.1,0.5-0.3,0.8-0.6s0.4-0.5,0.6-0.8c0.2-0.3,0.3-0.7,0.5-1.1L101.2,39.1L101.2,39.1z"/>
	<path class="st0" d="M109.3,39.1c-0.3,0.8-0.6,1.5-0.9,2.1c-0.3,0.6-0.7,1.1-1.1,1.5c-0.4,0.4-0.8,0.7-1.2,1
		c-0.4,0.3-0.8,0.4-1.1,0.6s-0.7,0.2-1.1,0.3c-0.3,0-0.6,0.1-0.9,0.1c-0.4,0-0.9-0.1-1.3-0.2s-0.7-0.4-1-0.6s-0.5-0.7-0.7-1.1
		s-0.2-1-0.2-1.6c0-0.3,0-0.6,0.1-0.9c0-0.3,0.1-0.7,0.2-1.1l2-9.6h4.3l-2.2,10.2c0,0.2-0.1,0.3-0.1,0.5c0,0.2,0,0.3,0,0.5
		c0,0.4,0.1,0.7,0.3,0.9c0.2,0.2,0.5,0.2,0.9,0.2c0.3,0,0.6-0.1,0.9-0.2c0.3-0.1,0.5-0.3,0.8-0.6s0.4-0.5,0.6-0.8
		c0.2-0.3,0.3-0.7,0.5-1.1L109.3,39.1L109.3,39.1z M107.4,25.5c0,0.3-0.1,0.6-0.2,0.9c-0.1,0.3-0.3,0.5-0.5,0.7
		c-0.2,0.2-0.5,0.4-0.8,0.5s-0.6,0.2-0.9,0.2s-0.6-0.1-0.9-0.2c-0.3-0.1-0.5-0.3-0.8-0.5s-0.4-0.5-0.5-0.7c-0.1-0.3-0.2-0.6-0.2-0.9
		s0.1-0.6,0.2-0.9c0.1-0.3,0.3-0.5,0.5-0.8c0.2-0.2,0.5-0.4,0.8-0.5c0.3-0.1,0.6-0.2,0.9-0.2s0.6,0.1,0.9,0.2s0.5,0.3,0.8,0.5
		c0.2,0.2,0.4,0.5,0.5,0.8S107.4,25.2,107.4,25.5z"/>
	<path class="st0" d="M113.3,52l1.9-9c-0.4,0.5-1,0.9-1.5,1.2s-1.3,0.5-2,0.5c-0.5,0-1-0.1-1.5-0.2s-0.9-0.4-1.3-0.8
		s-0.7-0.9-0.9-1.5s-0.3-1.4-0.3-2.3c0-0.7,0.1-1.4,0.2-2.2s0.3-1.6,0.6-2.3s0.6-1.5,1.1-2.2c0.4-0.7,0.9-1.4,1.5-1.9
		c0.6-0.6,1.2-1,1.9-1.3c0.7-0.3,1.5-0.5,2.4-0.5c0.9,0,1.5,0.1,1.9,0.4c0.4,0.3,0.6,0.7,0.6,1.1v0.1l0.3-1.4h4.3l-4.6,21.4
		L113.3,52z M117.5,32.2c0-0.1-0.1-0.2-0.1-0.3c0-0.1-0.1-0.2-0.2-0.3c-0.1-0.1-0.2-0.2-0.4-0.3c-0.2-0.1-0.3-0.1-0.6-0.1
		c-0.4,0-0.8,0.1-1.2,0.4s-0.7,0.6-1,1.1c-0.3,0.5-0.6,1-0.8,1.5s-0.5,1.2-0.6,1.8s-0.3,1.2-0.4,1.8c-0.1,0.6-0.1,1.1-0.1,1.6
		c0,0.6,0.1,1,0.2,1.3s0.2,0.5,0.4,0.7s0.3,0.2,0.5,0.3s0.3,0,0.5,0c0.2,0,0.4,0,0.6-0.1c0.2-0.1,0.4-0.2,0.7-0.4s0.4-0.4,0.6-0.7
		c0.2-0.3,0.3-0.6,0.5-0.9L117.5,32.2z"/>
	<path class="st0" d="M139,39.1c-0.3,0.8-0.6,1.5-0.9,2.1s-0.7,1.1-1,1.5c-0.4,0.4-0.7,0.7-1.1,1s-0.7,0.4-1.1,0.6s-0.7,0.2-1,0.3
		s-0.6,0.1-0.9,0.1c-0.9,0-1.5-0.2-2.1-0.7c-0.5-0.5-0.8-1.2-0.9-2.1c-0.4,0.6-0.8,1.1-1.2,1.5s-0.8,0.7-1.2,0.9s-0.8,0.3-1.1,0.4
		s-0.7,0.1-1,0.1c-0.4,0-0.9-0.1-1.3-0.2s-0.7-0.4-1-0.6s-0.5-0.7-0.7-1.1s-0.2-1-0.2-1.6c0-0.3,0-0.6,0.1-0.9
		c0-0.3,0.1-0.7,0.2-1.1l2-9.6h4.3l-2.2,10.2c-0.1,0.3-0.1,0.6-0.1,0.8c0,0.3,0.1,0.6,0.2,0.9c0.1,0.2,0.4,0.4,0.7,0.4
		c0.3,0,0.6-0.1,0.8-0.2c0.2-0.1,0.5-0.3,0.7-0.6c0.2-0.2,0.4-0.5,0.5-0.8c0.1-0.3,0.3-0.7,0.4-1.1l2-9.6h4.3l-2.2,10.2
		c0,0.2-0.1,0.3-0.1,0.5c0,0.2,0,0.3,0,0.5c0,0.4,0.1,0.7,0.3,0.9c0.2,0.2,0.5,0.2,0.9,0.2c0.3,0,0.6-0.1,0.8-0.2
		c0.2-0.1,0.5-0.3,0.7-0.6s0.4-0.5,0.5-0.8c0.2-0.3,0.3-0.7,0.4-1.1L139,39.1L139,39.1z"/>
	<path class="st0" d="M150.3,39.1c-0.4,0.7-0.9,1.4-1.4,2.1c-0.5,0.7-1.2,1.3-1.8,1.8c-0.7,0.5-1.4,0.9-2.3,1.3
		c-0.8,0.3-1.7,0.5-2.7,0.5c-0.7,0-1.4-0.1-1.9-0.3c-0.6-0.2-1.1-0.5-1.5-0.8s-0.7-0.9-0.9-1.5c-0.2-0.6-0.3-1.3-0.3-2.2
		c0-0.6,0.1-1.2,0.2-2s0.3-1.5,0.6-2.3s0.6-1.6,1-2.3s0.9-1.4,1.5-2c0.6-0.6,1.3-1.1,2.1-1.5c0.8-0.4,1.7-0.5,2.7-0.5
		c0.7,0,1.2,0.1,1.6,0.2c0.4,0.2,0.8,0.4,1,0.6c0.2,0.3,0.4,0.6,0.5,0.9c0.1,0.3,0.1,0.7,0.1,1.1c0,0.9-0.2,1.7-0.6,2.4
		c-0.4,0.7-0.9,1.4-1.5,2c-0.6,0.6-1.4,1-2.2,1.3s-1.7,0.5-2.6,0.6c0,0.2,0,0.4-0.1,0.6c0,0.2,0,0.4,0,0.6c0,0.5,0,0.9,0.1,1.3
		c0.1,0.3,0.2,0.6,0.4,0.8s0.4,0.3,0.7,0.4c0.3,0.1,0.6,0.1,0.9,0.1c0.6,0,1.1-0.1,1.6-0.2c0.5-0.2,0.9-0.4,1.4-0.6s0.8-0.6,1.2-1
		c0.4-0.4,0.8-0.8,1.1-1.2L150.3,39.1L150.3,39.1z M142.1,37c0.6,0,1.1-0.2,1.6-0.5s1-0.7,1.4-1.1c0.4-0.5,0.7-1,1-1.6
		c0.2-0.6,0.4-1.2,0.4-1.8c0-0.4-0.1-0.7-0.2-0.9s-0.3-0.3-0.6-0.3c-0.4,0-0.8,0.2-1.1,0.5c-0.4,0.4-0.7,0.8-1,1.4s-0.6,1.2-0.9,2
		C142.4,35.5,142.2,36.2,142.1,37z"/>
	<path class="st0" d="M158,28.6c0.1,1.3,0.1,2.4,0.2,3.4c0.1,1,0.1,1.8,0.2,2.5s0.1,1.3,0.1,1.8s0.1,0.9,0.1,1.3
		c0,0.4,0.1,0.7,0.1,1c0,0.3,0,0.6,0,1c0,0.7-0.1,1.2-0.3,1.8c-0.2,0.5-0.4,1-0.7,1.3c-0.3,0.4-0.7,0.7-1.1,1
		c-0.4,0.3-0.8,0.5-1.3,0.7c-0.4,0.2-0.9,0.3-1.4,0.4c-0.5,0.1-0.9,0.1-1.3,0.1c-0.8,0-1.4-0.1-2-0.3c-0.6-0.2-1-0.5-1.4-0.9
		c-0.4-0.4-0.6-0.8-0.8-1.2c-0.2-0.5-0.3-0.9-0.3-1.4c0-0.4,0-0.7,0.1-1c0.1-0.3,0.2-0.6,0.4-0.8s0.3-0.4,0.5-0.6
		c0.2-0.2,0.4-0.3,0.6-0.4c0.8-1.5,1.5-3,2.1-4.5c0.6-1.5,1.1-2.9,1.6-4.4L158,28.6z M149.9,40.2c0,0.7,0.1,1.2,0.4,1.6
		c0.3,0.3,0.8,0.5,1.4,0.5c0.3,0,0.7,0,1-0.1s0.6-0.2,0.8-0.5c0.2-0.2,0.4-0.5,0.6-0.9s0.2-0.8,0.2-1.3c0-0.3,0-0.5,0-0.7
		c0-0.2,0-0.5-0.1-0.8c0-0.3,0-0.6-0.1-0.9s-0.1-0.7-0.1-1.2c0-0.4-0.1-0.9-0.1-1.5s-0.1-1.2-0.2-2c-0.3,1-0.7,1.9-1.1,2.8
		s-0.9,1.9-1.4,2.8c0.2,0.1,0.4,0.2,0.5,0.4c0.1,0.2,0.2,0.4,0.2,0.6c0,0.2,0,0.4-0.1,0.5s-0.1,0.3-0.3,0.5s-0.3,0.3-0.4,0.3
		c-0.2,0.1-0.3,0.1-0.5,0.1c-0.2,0-0.3,0-0.5-0.1S149.9,40.3,149.9,40.2z"/>
</g>
<g>
	<g>
		<defs>
			<rect id="SVGID_1_" x="-28.9" y="0" width="280.9" height="71.7"/>
		</defs>
		<clipPath id="SVGID_2_">
			<use xlink:href="#SVGID_1_"  style="overflow:visible;"/>
		</clipPath>
		<path class="st1" d="M212.5,71.7H12v-0.5C12,59.8,1,59.7,0.5,59.7H0V12h0.5C11.9,12,12,1,12,0.5V0h200.5v0.5
			c0,11.4,11,11.5,11.5,11.5h0.5v47.7H224c-11.4,0-11.5,11-11.5,11.5V71.7z M13,70.7h198.5c0.2-2.3,1.5-11.7,12-12V13
			c-2.3-0.2-11.7-1.5-12-12H13c-0.2,2.3-1.5,11.7-12,12v45.7C3.3,58.9,12.7,60.2,13,70.7z"/>
	</g>
</g>
<g>
	<rect x="-28.9" y="0" class="st2" width="280.9" height="71.7"/>
	<path class="st3" d="M3.5,7C1.6,7,0,5.5,0,3.5S1.6,0,3.5,0S7,1.6,7,3.5S5.4,7,3.5,7z M3.5,1C2.1,1,1,2.1,1,3.5S2.1,6,3.5,6
		S6,4.9,6,3.5S4.9,1,3.5,1z"/>
	<rect x="-28.9" y="0" class="st2" width="280.9" height="71.7"/>
	<path class="st3" d="M221,7c-1.9,0-3.5-1.6-3.5-3.5S219.1,0,221,0s3.5,1.6,3.5,3.5S222.9,7,221,7z M221,1c-1.4,0-2.5,1.1-2.5,2.5
		S219.6,6,221,6s2.5-1.1,2.5-2.5S222.4,1,221,1z"/>
	<rect x="-28.9" y="0" class="st2" width="280.9" height="71.7"/>
	<path class="st3" d="M3.5,71.7c-1.9,0-3.5-1.6-3.5-3.5s1.6-3.5,3.5-3.5S7,66.3,7,68.2S5.4,71.7,3.5,71.7z M3.5,65.7
		c-1.4,0-2.5,1.1-2.5,2.5s1.1,2.5,2.5,2.5S6,69.6,6,68.2S4.9,65.7,3.5,65.7z"/>
	<rect x="-28.9" y="0" class="st2" width="280.9" height="71.7"/>
	<path class="st3" d="M221,71.7c-1.9,0-3.5-1.6-3.5-3.5s1.6-3.5,3.5-3.5s3.5,1.6,3.5,3.5S222.9,71.7,221,71.7z M221,65.7
		c-1.4,0-2.5,1.1-2.5,2.5s1.1,2.5,2.5,2.5s2.5-1.1,2.5-2.5S222.4,65.7,221,65.7z"/>
</g>
</svg>
