<?xml version="1.0" encoding="utf-8"?>
<!-- Generator: Adobe Illustrator 22.0.1, SVG Export Plug-In . SVG Version: 6.00 Build 0)  -->
<svg version="1.1" id="Layer_1" xmlns="http://www.w3.org/2000/svg" xmlns:xlink="http://www.w3.org/1999/xlink" x="0px" y="0px"
	 viewBox="0 0 224.8 72" style="enable-background:new 0 0 224.8 72;" xml:space="preserve">
<style type="text/css">
	.st0{clip-path:url(#SVGID_2_);fill:#83CEC1;}
	.st1{fill:#D4D2CD;}
	.st2{fill:none;}
	.st3{fill:#83CEC1;}
</style>
<g>
	<g>
		<defs>
			<rect id="SVGID_1_" x="-28.8" y="0.2" width="280.9" height="71.7"/>
		</defs>
		<clipPath id="SVGID_2_">
			<use xlink:href="#SVGID_1_"  style="overflow:visible;"/>
		</clipPath>
		<path class="st0" d="M212.6,71.8H12.1v-0.5c0-11.4-11-11.5-11.5-11.5H0.1V12.2h0.5c11.4,0,11.5-11,11.5-11.5V0.2h200.5v0.5
			c0,11.4,11,11.5,11.5,11.5h0.5v47.7h-0.5c-11.4,0-11.5,11-11.5,11.5V71.8z M13.1,70.8h198.5c0.2-2.3,1.5-11.7,12-12V13.1
			c-2.3-0.2-11.7-1.5-12-12H13.1c-0.2,2.3-1.5,11.7-12,12v45.7C3.4,59,12.8,60.4,13.1,70.8z"/>
	</g>
</g>
<g>
	<path class="st1" d="M57.4,47.5L63,21.2h3.8l5.6,26.3h-3.8l-1.4-6.6h-4.7l-1.4,6.6H57.4z M63,38.1h3.8l-1.9-11.3L63,38.1z"/>
	<path class="st1" d="M74.4,47.5V28.7h3.8v2c0.6-0.5,1-0.9,1.4-1.2s0.8-0.5,1.5-0.8s1.3-0.4,2-0.4c0.8,0,1.4,0.3,1.9,0.9
		s0.7,1.3,0.7,2.2v16h-3.8V33.4c0-0.7-0.1-1.1-0.3-1.4c-0.2-0.3-0.6-0.4-1.1-0.4c-0.3,0-0.6,0.1-1,0.2c-0.3,0.1-0.6,0.3-0.7,0.4
		c-0.2,0.1-0.4,0.3-0.7,0.5v14.8C78.1,47.5,74.4,47.5,74.4,47.5z"/>
	<path class="st1" d="M94.1,47.7c-1.5,0-2.5-0.4-3.2-1.1c-0.7-0.8-1-1.9-1-3.4V31.5H88v-2.8h1.9v-6.6h3.8v6.6h2.8v2.8h-2.8v10.9
		c0,0.8,0.1,1.3,0.3,1.7s0.6,0.5,1.2,0.5c0.3,0,0.7,0,1.3-0.1v3C95.5,47.7,94.7,47.7,94.1,47.7z"/>
	<path class="st1" d="M99.3,25.9v-3.8h3.8v3.8H99.3z M99.3,47.5V28.7h3.8v18.8H99.3z"/>
	<path class="st1" d="M114.7,53.1v-7.3c-0.6,0.6-1.1,1-1.7,1.4c-0.6,0.4-1.3,0.5-2,0.5c-0.7,0-1.4-0.2-1.9-0.5
		c-0.6-0.4-1-0.8-1.3-1.4c-0.3-0.6-0.6-1.3-0.8-2c-0.2-0.8-0.4-1.6-0.5-2.3c-0.1-0.8-0.1-1.6-0.1-2.4v-2.9c0-0.8,0-1.6,0.1-2.3
		s0.2-1.4,0.4-2.1c0.2-0.7,0.5-1.3,0.8-1.7c0.3-0.5,0.8-0.9,1.3-1.1c0.6-0.3,1.2-0.4,1.9-0.4c0.4,0,0.8,0.1,1.2,0.2
		c0.4,0.1,0.7,0.3,1.1,0.5c0.3,0.2,0.6,0.5,0.8,0.6c0.2,0.2,0.5,0.4,0.8,0.8v-1.9h3.8v24.4H114.7z M111.9,44.7c1,0,1.9-0.3,2.8-0.8
		V32.3c0,0-0.1-0.1-0.3-0.2s-0.3-0.2-0.3-0.2s-0.2-0.1-0.3-0.2s-0.3-0.1-0.4-0.2c-0.1,0-0.2-0.1-0.4-0.1c-0.1,0-0.3-0.1-0.4-0.1
		c-0.1,0-0.3,0-0.4,0c-0.3,0-0.6,0.1-0.8,0.2c-0.2,0.1-0.4,0.3-0.6,0.5c-0.2,0.2-0.3,0.5-0.4,0.8c-0.1,0.4-0.2,0.7-0.2,1
		c0,0.3-0.1,0.6-0.1,1.1s0,0.8-0.1,1.1c0,0.3,0,0.6,0,1.1c0,0,0,0,0,0c0,0.2,0,0.4,0,0.8s0,0.7,0,1.1s0,0.7,0,1c0,0.7,0,1.2,0.1,1.7
		c0.1,0.5,0.1,1,0.3,1.5c0.1,0.5,0.3,0.8,0.6,1.1C111.2,44.5,111.5,44.7,111.9,44.7z"/>
	<path class="st1" d="M124.2,47.7c-0.8,0-1.5-0.3-2-0.9s-0.7-1.3-0.7-2.2v-16h3.8v14.8c0,0.4,0.1,0.7,0.4,1c0.2,0.2,0.5,0.4,0.9,0.4
		c0.2,0,0.4,0,0.6-0.1s0.4-0.1,0.6-0.3c0.2-0.1,0.3-0.2,0.4-0.3c0.1-0.1,0.3-0.2,0.5-0.4c0.2-0.2,0.3-0.3,0.4-0.3V28.7h3.8v18.8
		h-3.8v-2c-0.4,0.3-0.6,0.6-0.8,0.7c-0.2,0.1-0.4,0.3-0.8,0.6c-0.4,0.2-0.7,0.4-0.9,0.5c-0.3,0.1-0.6,0.2-1,0.3
		C125,47.7,124.6,47.7,124.2,47.7z"/>
	<path class="st1" d="M141.2,47.7c-0.9,0-1.7-0.2-2.4-0.5s-1.2-0.7-1.6-1.2c-0.4-0.5-0.7-1.1-1-1.9s-0.4-1.6-0.5-2.4
		c-0.1-0.8-0.1-1.7-0.2-2.7c0-0.8,0-1.6,0-2.5c0-1,0.1-1.8,0.2-2.6c0.1-0.8,0.3-1.5,0.5-2.2c0.3-0.7,0.6-1.3,1-1.8
		c0.4-0.5,0.9-0.8,1.6-1.1c0.7-0.3,1.4-0.4,2.3-0.4c0.8,0,1.5,0.1,2.1,0.3c0.6,0.2,1.1,0.5,1.5,1c0.4,0.4,0.7,0.9,1,1.4
		c0.3,0.5,0.5,1.1,0.6,1.9c0.1,0.7,0.2,1.5,0.3,2.2s0.1,1.5,0.1,2.5v0.4h-7.5V39c0,0.1,0,0.3,0,0.6c0,0.4,0,0.7,0,1.1
		c0,0.4,0,0.8,0.1,1.1s0.1,0.7,0.2,1.1c0.1,0.3,0.2,0.6,0.3,0.9s0.3,0.5,0.5,0.6s0.5,0.2,0.8,0.2c0.4,0,0.7-0.1,1-0.2
		s0.4-0.4,0.6-0.7s0.2-0.6,0.3-0.9s0.1-0.7,0.1-1.1v-0.8h3.7v0.7c-0.1,2-0.6,3.5-1.5,4.5S143.1,47.7,141.2,47.7z M139.4,36.2h3.7
		v-1.1c0-0.5,0-0.9-0.1-1.3s-0.1-0.7-0.3-1.1s-0.3-0.7-0.6-0.9c-0.3-0.2-0.6-0.3-0.9-0.3c-0.4,0-0.7,0.1-1,0.3
		c-0.3,0.2-0.4,0.5-0.6,0.9c-0.1,0.4-0.2,0.8-0.3,1.1s-0.1,0.8-0.1,1.3L139.4,36.2L139.4,36.2z"/>
	<path class="st1" d="M154.5,47.7c-1.5,0-2.8-0.5-3.7-1.4s-1.6-2.1-1.9-3.6l2.8-0.9c0.7,1.9,1.6,2.8,2.8,2.8c0.6,0,1.1-0.2,1.4-0.5
		s0.5-0.8,0.5-1.4c0-0.9-0.3-1.6-0.9-2.2l-3.8-2.8c-0.4-0.3-0.8-0.5-1.1-0.8c-0.3-0.2-0.6-0.6-0.9-0.9s-0.5-0.8-0.7-1.2
		c-0.2-0.4-0.2-0.9-0.2-1.5c0-1.6,0.5-2.8,1.5-3.7s2.4-1.3,4.1-1.3c0.8,0,1.5,0.1,2.2,0.4s1.2,0.6,1.6,1.1s0.8,1,1.1,1.6
		c0.3,0.6,0.5,1.2,0.7,1.9l-2.8,0.9c-0.1-0.4-0.3-0.7-0.4-1s-0.3-0.6-0.6-0.9s-0.5-0.6-0.8-0.7c-0.3-0.2-0.7-0.3-1-0.3
		c-0.6,0-1.1,0.2-1.4,0.5c-0.3,0.3-0.5,0.8-0.5,1.4c0,0.6,0.3,1.1,0.9,1.6l3.8,2.8c0.4,0.3,0.8,0.7,1.1,1c0.3,0.3,0.6,0.7,0.9,1.1
		s0.5,0.9,0.6,1.4s0.2,1,0.2,1.6c0,1.6-0.5,2.8-1.5,3.7C157.6,47.3,156.2,47.7,154.5,47.7z"/>
</g>
<g>
	<rect x="-28.8" y="0.2" class="st2" width="280.9" height="71.7"/>
	<path class="st3" d="M3.6,7.2c-1.9,0-3.5-1.6-3.5-3.5s1.6-3.5,3.5-3.5s3.5,1.6,3.5,3.5S5.6,7.2,3.6,7.2z M3.6,1.2
		c-1.4,0-2.5,1.1-2.5,2.5s1.1,2.5,2.5,2.5S6.1,5,6.1,3.7S5,1.2,3.6,1.2z"/>
	<rect x="-28.8" y="0.2" class="st2" width="280.9" height="71.7"/>
	<path class="st3" d="M221.1,7.2c-1.9,0-3.5-1.6-3.5-3.5s1.6-3.5,3.5-3.5s3.5,1.6,3.5,3.5S223.1,7.2,221.1,7.2z M221.1,1.2
		c-1.4,0-2.5,1.1-2.5,2.5s1.1,2.5,2.5,2.5s2.5-1.1,2.5-2.5S222.5,1.2,221.1,1.2z"/>
	<rect x="-28.8" y="0.2" class="st2" width="280.9" height="71.7"/>
	<path class="st3" d="M3.6,71.8c-1.9,0-3.5-1.6-3.5-3.5s1.6-3.5,3.5-3.5s3.5,1.6,3.5,3.5S5.6,71.8,3.6,71.8z M3.6,65.8
		c-1.4,0-2.5,1.1-2.5,2.5s1.1,2.5,2.5,2.5s2.5-1.1,2.5-2.5S5,65.8,3.6,65.8z"/>
	<rect x="-28.8" y="0.2" class="st2" width="280.9" height="71.7"/>
	<path class="st3" d="M221.1,71.8c-1.9,0-3.5-1.6-3.5-3.5s1.6-3.5,3.5-3.5s3.5,1.6,3.5,3.5S223.1,71.8,221.1,71.8z M221.1,65.8
		c-1.4,0-2.5,1.1-2.5,2.5s1.1,2.5,2.5,2.5s2.5-1.1,2.5-2.5S222.5,65.8,221.1,65.8z"/>
</g>
</svg>
