<?xml version="1.0" encoding="utf-8"?>
<!-- Generator: Adobe Illustrator 22.0.1, SVG Export Plug-In . SVG Version: 6.00 Build 0)  -->
<svg version="1.1" id="Layer_1" xmlns="http://www.w3.org/2000/svg" xmlns:xlink="http://www.w3.org/1999/xlink" x="0px" y="0px"
	 viewBox="0 0 224.8 72" style="enable-background:new 0 0 224.8 72;" xml:space="preserve">
<style type="text/css">
	.st0{fill:#D4D2CD;}
	.st1{clip-path:url(#SVGID_2_);fill:#83CEC1;}
	.st2{fill:none;}
	.st3{fill:#83CEC1;}
</style>
<g>
	<path class="st0" d="M47.6,24.9h13.8c1.1,0,2,0.4,2.8,1.1c0.8,0.8,1.1,1.7,1.1,2.8v17.7H62v-7.6H46.9v7.6h-3.2V28.8
		c0-1.1,0.4-2,1.1-2.8C45.6,25.3,46.5,24.9,47.6,24.9z M46.9,35.7H62v-6.9c0-0.2-0.1-0.3-0.2-0.5c-0.1-0.1-0.3-0.2-0.5-0.2H47.6
		c-0.2,0-0.3,0.1-0.5,0.2s-0.2,0.3-0.2,0.5L46.9,35.7L46.9,35.7z"/>
	<path class="st0" d="M82.4,29.1c1.1,0,2,0.4,2.8,1.1s1.1,1.7,1.1,2.8v13.5h-3.2V33c0-0.2-0.1-0.3-0.2-0.5s-0.3-0.2-0.5-0.2h-9.9
		c-0.2,0-0.3,0.1-0.5,0.2s-0.2,0.3-0.2,0.5v13.5h-3.2V29.1L82.4,29.1L82.4,29.1z"/>
	<path class="st0" d="M99.9,32.3h-7.1v10.3c0,0.2,0.1,0.3,0.2,0.5c0.1,0.1,0.3,0.2,0.5,0.2h6.5v3.2h-6.5c-1.1,0-2-0.4-2.8-1.1
		c-0.8-0.8-1.1-1.7-1.1-2.8V33v-9.6h3.2v5.7h7.1L99.9,32.3L99.9,32.3z"/>
	<path class="st0" d="M101.7,23.4h3.2v3.2h-3.2V23.4z M101.7,46.5V29.1h3.2v17.4H101.7z"/>
	<path class="st0" d="M107,33c0-1.1,0.4-2,1.1-2.8c0.8-0.8,1.7-1.1,2.8-1.1h13.8v24.3h-3.2v-6.9h-10.6c-1.1,0-2-0.4-2.8-1.1
		c-0.8-0.8-1.1-1.7-1.1-2.8V33z M110.3,33v9.6c0,0.2,0.1,0.3,0.2,0.5c0.1,0.1,0.3,0.2,0.5,0.2h9.9c0.2,0,0.3-0.1,0.5-0.2
		c0.1-0.1,0.2-0.3,0.2-0.5V33c0-0.2-0.1-0.3-0.2-0.5c-0.1-0.1-0.3-0.2-0.5-0.2h-9.9c-0.2,0-0.3,0.1-0.5,0.2
		C110.3,32.7,110.3,32.8,110.3,33z"/>
	<path class="st0" d="M142.4,29.1h3.2v13.5c0,1.1-0.4,2-1.1,2.8c-0.8,0.8-1.7,1.1-2.8,1.1h-9.9c-1.1,0-2-0.4-2.8-1.1
		c-0.8-0.8-1.1-1.7-1.1-2.8V29.1h3.2v13.5c0,0.2,0.1,0.3,0.2,0.5c0.1,0.1,0.3,0.2,0.5,0.2h9.9c0.2,0,0.3-0.1,0.5-0.2
		c0.1-0.1,0.2-0.3,0.2-0.5L142.4,29.1L142.4,29.1z"/>
	<path class="st0" d="M162.5,29.1c1.1,0,2,0.4,2.8,1.1s1.1,1.7,1.1,2.8v6.4H152v3.2c0,0.2,0.1,0.3,0.2,0.5s0.3,0.2,0.5,0.2h13.8v3.2
		h-13.8c-1.1,0-2-0.4-2.8-1.1s-1.1-1.7-1.1-2.8V33c0-1.1,0.4-2,1.1-2.8s1.7-1.1,2.8-1.1L162.5,29.1L162.5,29.1z M152,36.2h11.2V33
		c0-0.2-0.1-0.3-0.2-0.5s-0.3-0.2-0.5-0.2h-9.9c-0.2,0-0.3,0.1-0.5,0.2S152,32.8,152,33L152,36.2L152,36.2z"/>
	<path class="st0" d="M187.1,33v0.7h-3.2V33c0-0.2-0.1-0.3-0.2-0.5c-0.1-0.1-0.3-0.2-0.5-0.2h-9.9c-0.2,0-0.3,0.1-0.5,0.2
		s-0.2,0.3-0.2,0.5v2.5c0,0.2,0.1,0.3,0.2,0.5s0.3,0.2,0.5,0.2h9.9c1.1,0,2,0.4,2.8,1.1c0.8,0.8,1.1,1.7,1.1,2.8v2.5
		c0,1.1-0.4,2-1.1,2.8c-0.8,0.8-1.7,1.1-2.8,1.1h-9.9c-1.1,0-2-0.4-2.8-1.1c-0.8-0.8-1.1-1.7-1.1-2.8v-0.7h3.2v0.7
		c0,0.2,0.1,0.3,0.2,0.5s0.3,0.2,0.5,0.2h9.9c0.2,0,0.3-0.1,0.5-0.2c0.1-0.1,0.2-0.3,0.2-0.5v-2.5c0-0.2-0.1-0.3-0.2-0.5
		c-0.1-0.1-0.3-0.2-0.5-0.2h-9.9c-1.1,0-2-0.4-2.8-1.1c-0.8-0.8-1.1-1.7-1.1-2.8V33c0-1.1,0.4-2,1.1-2.8c0.8-0.8,1.7-1.1,2.8-1.1
		h9.9c1.1,0,2,0.4,2.8,1.1C186.7,31,187.1,31.9,187.1,33z"/>
</g>
<g>
	<g>
		<defs>
			<rect id="SVGID_1_" x="-28.8" y="0.2" width="280.9" height="71.7"/>
		</defs>
		<clipPath id="SVGID_2_">
			<use xlink:href="#SVGID_1_"  style="overflow:visible;"/>
		</clipPath>
		<path class="st1" d="M212.6,71.8H12.1v-0.5c0-11.4-11-11.5-11.5-11.5H0.1V12.2h0.5c11.4,0,11.5-11,11.5-11.5V0.2h200.5v0.5
			c0,11.4,11,11.5,11.5,11.5h0.5v47.7h-0.5c-11.4,0-11.5,11-11.5,11.5V71.8z M13.1,70.8h198.5c0.2-2.3,1.5-11.7,12-12V13.1
			c-2.3-0.2-11.7-1.5-12-12H13.1c-0.2,2.3-1.5,11.7-12,12v45.7C3.4,59,12.8,60.4,13.1,70.8z"/>
	</g>
</g>
<g>
	<rect x="-28.8" y="0.2" class="st2" width="280.9" height="71.7"/>
	<path class="st3" d="M3.6,7.2c-1.9,0-3.5-1.6-3.5-3.5s1.6-3.5,3.5-3.5s3.5,1.6,3.5,3.5S5.5,7.2,3.6,7.2z M3.6,1.2
		c-1.4,0-2.5,1.1-2.5,2.5s1.1,2.5,2.5,2.5S6.1,5,6.1,3.7S5,1.2,3.6,1.2z"/>
	<rect x="-28.8" y="0.2" class="st2" width="280.9" height="71.7"/>
	<path class="st3" d="M221.1,7.2c-1.9,0-3.5-1.6-3.5-3.5s1.6-3.5,3.5-3.5s3.5,1.6,3.5,3.5S223,7.2,221.1,7.2z M221.1,1.2
		c-1.4,0-2.5,1.1-2.5,2.5s1.1,2.5,2.5,2.5s2.5-1.1,2.5-2.5S222.5,1.2,221.1,1.2z"/>
	<rect x="-28.8" y="0.2" class="st2" width="280.9" height="71.7"/>
	<path class="st3" d="M3.6,71.8c-1.9,0-3.5-1.6-3.5-3.5s1.6-3.5,3.5-3.5s3.5,1.6,3.5,3.5S5.5,71.8,3.6,71.8z M3.6,65.8
		c-1.4,0-2.5,1.1-2.5,2.5s1.1,2.5,2.5,2.5s2.5-1.1,2.5-2.5S5,65.8,3.6,65.8z"/>
	<rect x="-28.8" y="0.2" class="st2" width="280.9" height="71.7"/>
	<path class="st3" d="M221.1,71.8c-1.9,0-3.5-1.6-3.5-3.5s1.6-3.5,3.5-3.5s3.5,1.6,3.5,3.5S223,71.8,221.1,71.8z M221.1,65.8
		c-1.4,0-2.5,1.1-2.5,2.5s1.1,2.5,2.5,2.5s2.5-1.1,2.5-2.5S222.5,65.8,221.1,65.8z"/>
</g>
</svg>
