<?xml version="1.0" encoding="utf-8"?>
<!-- Generator: Adobe Illustrator 22.0.1, SVG Export Plug-In . SVG Version: 6.00 Build 0)  -->
<svg version="1.1" id="Layer_1" xmlns="http://www.w3.org/2000/svg" xmlns:xlink="http://www.w3.org/1999/xlink" x="0px" y="0px"
	 viewBox="0 0 224.5 71.7" style="enable-background:new 0 0 224.5 71.7;" xml:space="preserve">
<style type="text/css">
	.st0{fill:#D4D2CD;}
	.st1{clip-path:url(#SVGID_2_);fill:#83CEC1;}
	.st2{fill:none;}
	.st3{fill:#83CEC1;}
</style>
<g>
	<path class="st0" d="M60.6,43.7c-0.3,0-0.7,0-1,0c-0.3,0-0.6,0-0.9,0s-0.5,0-0.7,0.1c-0.2,0-0.4,0-0.5,0s-0.2,0-0.2,0
		c-0.4,0-0.6-0.2-0.6-0.7c0-0.1,0-0.2,0-0.3c0-0.1,0-0.1,0.1-0.2c0-0.1,0.1-0.1,0.1-0.2c0,0,0.1-0.1,0.1-0.1c0.1,0,0.1-0.1,0.1-0.1
		c0,0,0.1,0,0.2,0c0.1,0,0.2,0,0.2,0c0,0,0.1,0,0.3,0s0.2,0,0.3,0c0.5-0.1,0.8-0.2,1.1-0.4c0.2-0.2,0.5-0.5,0.7-1.1
		c1.4-3.1,2.9-6.3,4.6-9.5c2.9-5.5,4.4-8.3,4.5-8.4c0,0,0.1-0.1,0.2-0.1c0.2-0.2,0.5-0.2,0.7-0.2c0.5,0,0.9,0.4,1.3,1.1l4.3,10
		c2.2,5.2,3.3,7.8,3.3,7.9c0.2,0.3,0.5,0.5,0.9,0.6s0.7,0.2,0.9,0.2s0.4,0.2,0.5,0.4c0,0.2,0.1,0.3,0.1,0.4c0,0.5-0.2,0.7-0.6,0.7
		l-0.5-0.1c-0.3,0-0.8,0-1.3-0.1s-1.1,0-1.6,0c-0.6,0-1.2,0-1.8,0s-0.9,0.1-1.2,0.1s-0.5,0-0.5,0c-0.4,0-0.6-0.2-0.6-0.5
		c0-0.1,0-0.2,0-0.3c0-0.1,0-0.2,0.1-0.2c0-0.1,0-0.1,0.1-0.2c0,0,0.1-0.1,0.1-0.1s0.1-0.1,0.2-0.1c0,0,0.1,0,0.2,0s0.2,0,0.3,0
		s0.2,0,0.4,0c0.2,0,0.3,0,0.4-0.1c0.4-0.1,0.6-0.3,0.6-0.6c0-0.3-0.2-1.2-0.7-2.7c-0.5-1.5-1-2.8-1.5-4c-0.1-0.2-0.3-0.3-0.5-0.3
		h-7.1c-0.3,0-0.5,0.1-0.7,0.3c-0.7,1.3-1.3,2.6-1.8,3.9c-0.5,1.3-0.8,2.2-0.8,2.5c0,0.3,0.1,0.6,0.3,0.7s0.6,0.2,1.2,0.2
		c0.2,0,0.3,0,0.4,0c0.4,0,0.6,0.3,0.6,0.8c0,0.5-0.2,0.7-0.6,0.7c-0.1,0-0.2,0-0.5,0s-0.7-0.1-1.2-0.1S61.2,43.7,60.6,43.7z
		 M71.8,33.2c0.2,0,0.3-0.1,0.3-0.2s-0.4-1.1-1.2-2.9s-1.3-2.9-1.5-3.3c-0.1-0.1-0.2-0.2-0.3-0.2c-0.2,0-0.4,0.2-0.6,0.5
		c-2.1,3.9-3.1,5.8-3.1,5.9s0.1,0.1,0.2,0.1L71.8,33.2L71.8,33.2z"/>
	<path class="st0" d="M85.3,32.4c0,0.1,0,0.1,0.1,0.1h0c0,0,0.1-0.1,0.2-0.2s0.3-0.3,0.5-0.4c0.2-0.2,0.5-0.4,0.8-0.5
		c0.3-0.2,0.7-0.3,1.2-0.5c0.5-0.1,0.9-0.2,1.4-0.2h0.1c0.4,0,0.8,0.1,1.2,0.2c0.4,0.1,0.8,0.3,1.3,0.6c0.5,0.3,0.9,0.7,1.2,1.3
		c0.3,0.6,0.5,1.4,0.6,2.2c0,0.3,0.1,0.8,0.1,1.5c0,0.1,0,0.3,0,0.6s0,0.8,0,1.6s0,1.8,0,3v0.1c0,0.1,0,0.2,0,0.3s0,0.2,0,0.2
		c0,0,0,0.1,0.1,0.1c0.1,0,0.1,0.1,0.1,0.1c0,0,0.1,0,0.2,0.1s0.2,0,0.2,0s0.1,0,0.3,0c0.2,0,0.3,0,0.3,0.1c0.3,0,0.4,0.2,0.4,0.6
		c0,0.4-0.2,0.6-0.5,0.6c-0.1,0-0.2,0-0.4,0c-0.2,0-0.5-0.1-0.9-0.1s-0.8,0-1.2,0c-0.3,0-0.5,0-0.8,0s-0.5,0-0.7,0s-0.4,0-0.5,0.1
		c-0.2,0-0.3,0-0.4,0.1h-0.1c-0.2,0-0.3-0.2-0.3-0.6c0-0.2,0.1-0.4,0.2-0.4c0.1-0.1,0.4-0.1,0.9-0.2c0.2,0,0.3-0.1,0.4-0.1
		c0.2,0,0.3-0.1,0.4-0.2s0.1-0.3,0.1-0.5v-4.6c0-1.5-0.1-2.5-0.4-3.2c-0.3-0.7-0.7-1.1-1.3-1.4s-1.1-0.4-1.7-0.4
		c-0.8,0-1.4,0.2-2.1,0.7c-0.6,0.5-0.9,0.9-1,1.2c0,0.2-0.1,0.3-0.1,0.4v7.1v0.1c0,0.5,0.2,0.8,0.7,0.8c0.9,0.1,1.4,0.2,1.4,0.3
		c0.1,0.1,0.2,0.3,0.2,0.5c0,0.4-0.1,0.5-0.4,0.5c0,0-0.1,0-0.2,0s-0.2,0-0.4,0s-0.4,0-0.6-0.1s-0.5,0-0.7-0.1s-0.6,0-0.8,0
		s-0.5,0-0.8,0s-0.5,0-0.7,0s-0.4,0-0.5,0.1s-0.3,0-0.4,0s-0.2,0-0.2,0c-0.3,0-0.5-0.2-0.5-0.5c0-0.3,0.1-0.4,0.2-0.5s0.5-0.1,1-0.2
		c0.4-0.1,0.6-0.2,0.7-0.3c0.1-0.2,0.1-0.4,0.1-0.7v-7.1c0-0.4,0-0.6-0.1-0.7s-0.5-0.5-1.2-1c-0.1-0.1-0.2-0.2-0.2-0.3v0
		c0-0.1,0.1-0.2,0.2-0.3s0.6-0.3,1.3-0.7c0.5-0.3,1-0.5,1.4-0.7c0.1-0.1,0.2-0.1,0.3-0.1c0.2,0,0.4,0.1,0.4,0.4v1.2
		C85.4,32.2,85.3,32.3,85.3,32.4L85.3,32.4L85.3,32.4z"/>
	<path class="st0" d="M97.2,32.8c-0.4,0-0.6-0.1-0.6-0.4c0-0.1,0.1-0.3,0.4-0.6c0.3-0.2,0.7-0.7,1.2-1.2c0.5-0.6,1-1.2,1.5-2
		c0.2-0.4,0.4-0.6,0.6-0.6c0.3,0,0.4,0.2,0.4,0.5c0,0.1,0,0.5,0,1c0,0.6,0,0.9,0,1c0,0.4,0.2,0.6,0.6,0.6h2.7c0,0,0.1,0,0.1,0
		c0.1,0,0.1,0,0.1,0c0.5,0,0.8,0.2,0.8,0.6c0,0.4-0.1,0.7-0.3,0.9c-0.1,0.1-0.3,0.1-0.5,0.1h-3.5c-0.2,0-0.3,0.1-0.3,0.3
		c0,1.6,0,3,0,4.1c0,1.1,0,1.8,0,2.2c0,0.4,0,0.6,0,0.8c0,1.5,0.5,2.2,1.6,2.2c0.4,0,0.8-0.2,1.3-0.5c0.5-0.3,0.8-0.6,1.2-1
		c0.3-0.3,0.6-0.5,0.8-0.5c0.2,0,0.3,0.1,0.4,0.2s0.2,0.2,0.2,0.4c0,0.1-0.1,0.3-0.2,0.5c-1.6,1.8-3,2.7-4.2,2.7
		c-0.7,0-1.4-0.3-2-0.9s-0.9-1.5-1-2.7c0-0.2,0-0.5,0-1c0-0.5,0-1.7,0.1-3.6s0.1-2.9,0.1-3.1s-0.1-0.3-0.2-0.3L97.2,32.8L97.2,32.8z
		"/>
	<path class="st0" d="M108.8,40.1c0-1,0-2,0-2.8s0-1.6,0-2.1s0-0.8,0-0.9c0-0.2-0.1-0.4-0.2-0.5s-0.7-0.3-1.8-0.8
		c-0.3-0.1-0.4-0.2-0.4-0.4c0-0.1,0-0.1,0-0.2s0.1-0.1,0.1-0.1s0.1-0.1,0.2-0.1s0.1-0.1,0.2-0.1s0.2-0.1,0.2-0.1
		c2.2-1.1,3.3-1.6,3.3-1.6h0c0.3,0,0.4,0.2,0.4,0.5l0,1c0,0.6-0.1,1.5-0.1,2.6s0,2.2,0,3.2v1c0,1.9,0,2.9,0.1,3.3s0.3,0.5,0.6,0.6
		c0.6,0.1,1,0.1,1.1,0.2s0.2,0.2,0.2,0.4c0,0.4-0.1,0.6-0.4,0.6c0,0-0.1,0-0.2,0s-0.2,0-0.4,0s-0.4,0-0.6-0.1s-0.5,0-0.7,0
		s-0.6,0-0.8,0s-0.6,0-0.9,0s-0.5,0-0.7,0s-0.4,0-0.6,0.1s-0.3,0-0.4,0s-0.2,0-0.2,0c-0.3,0-0.5-0.2-0.5-0.5s0.1-0.5,0.2-0.6
		s0.6-0.1,1.3-0.2c0.4-0.1,0.6-0.2,0.7-0.3s0.1-0.4,0.1-0.7L108.8,40.1L108.8,40.1z M109.1,25.1c0-0.4,0.1-0.7,0.4-1s0.6-0.4,1-0.4
		s0.7,0.1,1,0.4s0.4,0.6,0.4,1c0,0.4-0.1,0.8-0.4,1s-0.6,0.4-1,0.4s-0.8-0.1-1-0.4S109.1,25.6,109.1,25.1z"/>
	<path class="st0" d="M113.7,37.3c0-0.8,0.1-1.5,0.4-2.2s0.7-1.4,1.3-2.1s1.4-1.2,2.5-1.6c1.1-0.4,2.3-0.6,3.7-0.6
		c0.7,0,1.5,0.1,2.2,0.2s1.1,0.2,1.2,0.2c0.3,0,0.6-0.1,0.8-0.4s0.3-0.4,0.3-0.4c0.2,0,0.3,0.6,0.3,1.7c0,0.1,0,0.2,0,0.4
		c0,0.2,0,0.3,0,0.4v15.1c0,0.4,0.1,0.7,0.2,1s0.3,0.3,0.5,0.4c0.2,0.1,0.5,0.1,1,0.2c0.3,0.1,0.4,0.2,0.4,0.4
		c0,0.4-0.2,0.6-0.5,0.6c0,0-0.1,0-0.3,0c-0.1,0-0.3,0-0.6,0s-0.5,0-0.8,0c-0.4,0-0.9,0-1.3,0s-0.8,0.1-1.1,0.1s-0.6,0.1-0.8,0.1
		c-0.2,0-0.4,0.1-0.6,0.1c-0.2,0-0.3,0-0.3,0c-0.4,0-0.6-0.2-0.6-0.6c0-0.1,0-0.1,0-0.2s0-0.1,0.1-0.1s0.1-0.1,0.1-0.1
		s0.1-0.1,0.2-0.1c0.1,0,0.1,0,0.2-0.1s0.1,0,0.2,0c0.1,0,0.2,0,0.3-0.1c0.1,0,0.2,0,0.3-0.1c0.1,0,0.2,0,0.3-0.1
		c0.6-0.1,0.9-0.5,0.9-1.2V43c0-0.1-0.1-0.2-0.2-0.2c0,0-0.2,0.1-0.5,0.3c-0.3,0.2-0.8,0.4-1.4,0.6s-1.2,0.3-1.9,0.3
		c-1.8,0-3.4-0.7-4.7-2S113.7,39.1,113.7,37.3z M121,31.6c-1.4,0-2.6,0.5-3.6,1.5s-1.5,2.2-1.5,3.6c0,1.5,0.6,2.8,1.7,3.8
		s2.4,1.6,3.9,1.6c0.5,0,1.1-0.1,1.6-0.2s0.9-0.3,1.1-0.5c0.2-0.2,0.3-0.5,0.3-0.9c0-0.9,0-3.3-0.1-7c0-0.4-0.1-0.7-0.4-0.9
		C123.1,31.9,122.1,31.6,121,31.6z"/>
	<path class="st0" d="M139.8,42.7c0,0-0.1,0.1-0.2,0.2s-0.3,0.2-0.6,0.4s-0.5,0.3-0.8,0.4s-0.7,0.3-1.1,0.4s-0.9,0.2-1.4,0.2
		c-1.2,0-2.3-0.4-3.1-1.1s-1.3-1.8-1.5-3.2c-0.1-0.6-0.1-1.2-0.1-1.8c0-0.4,0-1.2,0-2.6s0-2.1,0-2.2c0-0.4-0.3-0.7-0.8-0.8
		c-0.1,0-0.2-0.1-0.4-0.1c-0.2-0.1-0.3-0.1-0.4-0.2c-0.1-0.1-0.1-0.2-0.1-0.3v-0.1c0-0.3,0.1-0.4,0.3-0.4c2-0.1,3-0.2,3.1-0.2
		c0.2,0,0.3,0.1,0.3,0.4v6.2c0,1.3,0.2,2.3,0.6,3.1c0.3,0.5,0.7,1,1.2,1.4c0.6,0.4,1.2,0.6,1.9,0.6c1,0,1.8-0.4,2.5-1.1
		c0-0.1,0.1-0.1,0.2-0.2c0.1-0.1,0.1-0.1,0.1-0.1s0-0.1,0.1-0.1c0,0,0.1-0.1,0.1-0.1s0-0.1,0-0.1s0-0.1,0-0.1s0-0.1,0-0.1v-7.4
		c0-0.4-0.2-0.7-0.6-0.8c-0.1,0-0.6-0.1-1.4-0.3c-0.3-0.1-0.4-0.2-0.4-0.5c0-0.3,0.1-0.5,0.4-0.5c0.6,0,1.2,0,1.7-0.1s0.9,0,1.1,0
		s0.4,0,0.5,0s0.3,0,0.3,0c0.3,0,0.4,0.2,0.4,0.6v9.4c0,0.1,0,0.1,0,0.1c0,0,0,0.1,0.1,0.1s0.1,0.1,0.1,0.1s0.1,0,0.2,0.1
		c0.1,0,0.2,0.1,0.3,0.1s0.2,0.1,0.4,0.2c0.2,0.1,0.3,0.2,0.5,0.2s0.3,0.2,0.3,0.4c0,0.2,0,0.4-0.1,0.4s-0.2,0.1-0.4,0.2
		s-0.5,0.1-1,0.3s-1,0.4-1.5,0.7c-0.1,0.1-0.2,0.1-0.3,0.1c-0.3,0-0.4-0.2-0.4-0.6v-0.7C139.9,42.7,139.8,42.7,139.8,42.7z"/>
	<path class="st0" d="M144.8,37.5c0-2,0.5-3.7,1.6-4.9c1.1-1.2,2.4-1.9,3.9-1.9c1,0,1.9,0.3,2.9,0.8c0.9,0.6,1.7,1.2,2.3,2.1
		c0.2,0.2,0.2,0.4,0.2,0.6v0.1c0,0.2,0,0.3-0.1,0.5c-0.1,0.1-0.3,0.3-0.5,0.4c-0.2,0.1-0.4,0.2-0.6,0.2c-0.2,0.1-0.4,0.1-0.7,0.2
		s-0.5,0.2-0.6,0.2c-4.1,1.4-6.2,2.2-6.3,2.2c-0.1,0-0.1,0.1-0.1,0.2c0,0.1,0,0.3,0.1,0.6s0.2,0.6,0.4,1.1c0.2,0.5,0.5,0.9,0.8,1.3
		s0.7,0.7,1.3,1c0.6,0.3,1.2,0.4,1.9,0.4c1.4,0,2.6-0.5,3.6-1.5c0.3-0.3,0.5-0.4,0.7-0.4c0.3,0,0.5,0.1,0.5,0.4
		c0,0.1-0.1,0.3-0.2,0.5c-0.6,0.8-1.4,1.5-2.3,1.9s-1.9,0.7-3,0.7c-0.7,0-1.3-0.1-1.9-0.3s-1.2-0.6-1.8-1.1
		c-0.6-0.5-1.1-1.2-1.4-2.1S144.8,38.7,144.8,37.5z M152.8,34.4c0-0.3-0.3-0.7-1-1.2c-0.7-0.5-1.4-0.8-2.1-0.8
		c-0.9,0-1.6,0.4-2.1,1.1c-0.5,0.8-0.8,1.8-0.8,3.2c0,0.2,0,0.2,0.1,0.2c0,0,1-0.4,2.8-1.1s2.8-1.1,2.8-1.1
		C152.7,34.7,152.8,34.5,152.8,34.4z"/>
	<path class="st0" d="M157.3,34.5c0-1,0.4-1.8,1.2-2.5c0.8-0.7,1.8-1.1,3.1-1.1c0.3,0,0.5,0,0.7,0s0.4,0.1,0.5,0.1s0.2,0,0.2,0
		c0.1,0,0.2,0,0.4-0.1s0.3-0.1,0.4-0.1c0.2,0,0.4,0.2,0.5,0.6c0.1,0.3,0.1,0.7,0.2,1.3c0.1,0.5,0.2,1,0.3,1.4
		c0.1,0.4,0.1,0.6,0.1,0.6c0,0.3-0.2,0.4-0.7,0.4c-0.2,0-0.3-0.1-0.4-0.2c-0.1-0.1-0.2-0.3-0.2-0.6c-0.1-0.3-0.2-0.5-0.3-0.6
		c-0.2-0.3-0.6-0.5-1-0.8s-1-0.4-1.4-0.4c-0.5,0-1,0.1-1.3,0.4s-0.6,0.7-0.6,1.1c0,1,0.8,1.7,2.4,2.1c0.2,0.1,0.5,0.1,0.9,0.2
		s0.7,0.2,0.9,0.2s0.5,0.1,0.8,0.3s0.6,0.3,0.8,0.4c0.2,0.2,0.5,0.4,0.7,0.6c0.6,0.7,0.9,1.5,0.9,2.4c0,1.1-0.4,2-1.3,2.8
		c-0.8,0.8-2,1.2-3.3,1.2c-0.8,0-1.5-0.1-2.3-0.4s-1.4-0.6-1.8-1.1c-0.2-0.3-0.4-0.6-0.4-1c0-0.3,0-0.7,0-1.1s0-0.6,0-0.7
		c0-0.4,0-0.6,0.1-0.8s0.2-0.2,0.4-0.2s0.4,0.1,0.4,0.3c0.1,0.2,0.1,0.4,0.1,0.8s0.1,0.6,0.2,0.8c0.2,0.4,0.6,0.8,1.2,1.2
		c0.7,0.4,1.4,0.6,2.2,0.6c0.7,0,1.3-0.2,1.7-0.6s0.7-0.8,0.7-1.4c0-0.4-0.1-0.7-0.2-1s-0.4-0.5-0.8-0.7c-0.4-0.2-0.6-0.3-0.9-0.4
		c-0.2-0.1-0.6-0.2-1-0.3l-0.7-0.1C158.4,37.5,157.3,36.3,157.3,34.5z"/>
</g>
<g>
	<g>
		<defs>
			<rect id="SVGID_1_" x="-28.9" y="0" width="280.9" height="71.7"/>
		</defs>
		<clipPath id="SVGID_2_">
			<use xlink:href="#SVGID_1_"  style="overflow:visible;"/>
		</clipPath>
		<path class="st1" d="M212.5,71.7H12v-0.5C12,59.8,1,59.7,0.5,59.7H0V12h0.5C11.9,12,12,1,12,0.5V0h200.5v0.5
			c0,11.4,11,11.5,11.5,11.5h0.5v47.7H224c-11.4,0-11.5,11-11.5,11.5V71.7z M13,70.7h198.5c0.2-2.3,1.5-11.7,12-12V13
			c-2.3-0.2-11.7-1.5-12-12H13c-0.2,2.3-1.5,11.7-12,12v45.7C3.3,58.9,12.7,60.2,13,70.7z"/>
	</g>
</g>
<g>
	<rect x="-28.9" y="0" class="st2" width="280.9" height="71.7"/>
	<path class="st3" d="M3.5,7C1.6,7,0,5.4,0,3.5S1.6,0,3.5,0S7,1.6,7,3.5S5.4,7,3.5,7z M3.5,1C2.1,1,1,2.1,1,3.5S2.1,6,3.5,6
		S6,4.9,6,3.5S4.9,1,3.5,1z"/>
	<rect x="-28.9" y="0" class="st2" width="280.9" height="71.7"/>
	<path class="st3" d="M221,7c-1.9,0-3.5-1.6-3.5-3.5S219.1,0,221,0s3.5,1.6,3.5,3.5S222.9,7,221,7z M221,1c-1.4,0-2.5,1.1-2.5,2.5
		S219.6,6,221,6s2.5-1.1,2.5-2.5S222.4,1,221,1z"/>
	<rect x="-28.9" y="0" class="st2" width="280.9" height="71.7"/>
	<path class="st3" d="M3.5,71.7c-1.9,0-3.5-1.6-3.5-3.5s1.6-3.5,3.5-3.5S7,66.3,7,68.2S5.4,71.7,3.5,71.7z M3.5,65.7
		c-1.4,0-2.5,1.1-2.5,2.5s1.1,2.5,2.5,2.5S6,69.6,6,68.2S4.9,65.7,3.5,65.7z"/>
	<rect x="-28.9" y="0" class="st2" width="280.9" height="71.7"/>
	<path class="st3" d="M221,71.7c-1.9,0-3.5-1.6-3.5-3.5s1.6-3.5,3.5-3.5s3.5,1.6,3.5,3.5S222.9,71.7,221,71.7z M221,65.7
		c-1.4,0-2.5,1.1-2.5,2.5s1.1,2.5,2.5,2.5s2.5-1.1,2.5-2.5S222.4,65.7,221,65.7z"/>
</g>
</svg>
