<?xml version="1.0" encoding="utf-8"?>
<!-- Generator: Adobe Illustrator 22.0.1, SVG Export Plug-In . SVG Version: 6.00 Build 0)  -->
<svg version="1.1" id="Layer_1" xmlns="http://www.w3.org/2000/svg" xmlns:xlink="http://www.w3.org/1999/xlink" x="0px" y="0px"
	 viewBox="0 0 225.4 46.2" style="enable-background:new 0 0 225.4 46.2;" xml:space="preserve">
<style type="text/css">
	.st0{fill:#83CEC1;}
</style>
<g>
	<path class="st0" d="M17.8,20c0.5,0,0.8,0.2,0.8,0.7v4.5c0,0.5-0.3,0.7-0.8,0.7c-0.5,0-0.7-0.2-0.7-0.5V24c0-0.4-0.2-0.6-0.6-0.6
		h-3.3c-0.2,0-0.3,0-0.4,0s-0.2,0.1-0.4,0.1c-0.1,0.1-0.2,0.2-0.3,0.3C12,24,12,24.2,12,24.4v5.6c0,0.2,0,0.3,0,0.4s0.1,0.2,0.2,0.3
		s0.3,0.2,0.5,0.2C13.5,31,14.2,31,15,31c0.5,0,1.2,0,2-0.1s1.3-0.2,1.5-0.4c0.1-0.1,0.4-0.5,0.8-1.3s0.7-1.2,0.8-1.3
		c0.1,0,0.2-0.1,0.2-0.1c0.1,0,0.2,0,0.3,0.1s0.1,0.2,0.1,0.4v0c0,0.1-0.2,1.3-0.7,3.4c0,0.2-0.1,0.3-0.2,0.4
		c-0.1,0.1-0.3,0.1-0.5,0.1h-8.3c-0.7,0-1.4,0-2,0.1s-0.9,0.1-1,0.1c-0.2,0-0.3-0.1-0.4-0.3S7.5,32,7.5,31.9c0-0.2,0.1-0.3,0.2-0.4
		c0.1-0.1,0.4-0.2,0.9-0.4c0.3-0.1,0.5-0.2,0.7-0.3c0.4-0.1,0.5-0.4,0.5-0.9V17.4c0-0.2,0-0.3-0.1-0.3S9.5,17,9.2,17
		c-0.1,0-0.3,0-0.5,0c-0.2,0-0.4,0-0.5-0.1s-0.2,0-0.3-0.1c-0.1,0-0.2-0.1-0.2-0.2s-0.1-0.2-0.1-0.3c0-0.4,0.2-0.5,0.5-0.5h11.1
		c0.3,0,0.4,0.1,0.5,0.4c0.1,0.3,0.2,0.7,0.3,1.2c0.1,0.5,0.2,1,0.3,1.4c0.1,0.4,0.1,0.6,0.1,0.6c0,0.2-0.2,0.3-0.5,0.3
		c-0.2,0-0.5-0.1-0.7-0.4c-0.7-1.2-1.1-1.9-1.2-2C18,17.1,17.7,17,17.4,17h-4.6c-0.3,0-0.5,0.1-0.6,0.2s-0.1,0.4-0.1,0.7v3.6
		c0,0.4,0.2,0.5,0.5,0.5h3.7c0.2,0,0.3,0,0.4,0s0.2-0.1,0.3-0.2s0.2-0.3,0.2-0.6v-0.8C17.1,20.1,17.4,20,17.8,20z"/>
	<path class="st0" d="M38.4,32.5c-0.3,0-0.5-0.2-0.5-0.6c0-0.3,0.1-0.4,0.3-0.5s0.4-0.1,0.8-0.2c0.3,0,0.5,0,0.6-0.1
		c0.1,0,0.3-0.1,0.4-0.2c0.1-0.1,0.3-0.2,0.3-0.4c0.1-0.2,0.1-0.4,0.1-0.6v-5.2c0-2.4,0-3.7-0.1-3.8c0-0.1-0.1-0.1-0.2-0.1
		c-0.1,0-0.2,0.1-0.3,0.3c-0.6,1-1.4,2.4-2.4,4.1c-1,1.8-1.9,3.4-2.6,4.8s-1.2,2.2-1.3,2.3c-0.2,0.2-0.3,0.3-0.5,0.3
		c-0.3,0-0.6-0.3-0.8-0.9c-0.8-1.6-1.7-3.3-2.7-5.1s-1.8-3.2-2.5-4.2c-0.6-1-1-1.6-1.1-1.6c0,0,0,0-0.1,0c-0.1,0-0.1,0-0.1,0.1
		c-0.1,1.7-0.1,3.3-0.1,5c0,1.3,0,2.8,0.1,4.3c0,0.4,0.1,0.7,0.2,0.8c0.2,0.1,0.4,0.2,0.8,0.2s0.7,0,1,0.1s0.4,0.3,0.4,0.6
		c0,0.4-0.1,0.6-0.4,0.6c0,0-0.1,0-0.2,0s-0.3,0-0.4,0s-0.4,0-0.6,0s-0.5,0-0.8,0s-0.6,0-0.9,0c-0.3,0-0.6,0-0.9,0
		c-0.3,0-0.6,0-0.8,0s-0.4,0-0.6,0s-0.3,0-0.4,0s-0.2,0-0.2,0c-0.3,0-0.4-0.2-0.4-0.6c0-0.1,0-0.2,0-0.3c0-0.1,0.1-0.1,0.1-0.2
		s0.1-0.1,0.2-0.1c0.1,0,0.1-0.1,0.3-0.1c0.1,0,0.2,0,0.3-0.1c0.1,0,0.2,0,0.4,0c0.2,0,0.3,0,0.5,0s0.2,0,0.3-0.1
		c0.1,0,0.2-0.1,0.2-0.1c0,0,0.1-0.1,0.1-0.2c0-0.1,0.1-0.2,0.1-0.2c0-0.1,0-0.2,0-0.3s0-0.3,0-0.3c0.4-4.9,0.6-8.4,0.6-10.6
		c0-0.2-0.1-0.4-0.3-0.6c0,0-0.1-0.1-0.3-0.4s-0.3-0.4-0.5-0.5s-0.3-0.2-0.6-0.4c-0.3-0.1-0.6-0.2-0.9-0.2c-0.3,0-0.5-0.2-0.5-0.4
		c0-0.2,0-0.3,0.1-0.4s0.1-0.1,0.2-0.1s0.1,0,0.2,0h3.4c0.3,0,0.5,0.1,0.6,0.3l4.6,7.5l2.8,4.4c0.1,0.2,0.2,0.3,0.4,0.3
		c0.1,0,0.2-0.1,0.3-0.3l6.5-12.1c0.1-0.1,0.2-0.2,0.4-0.2h3.5c0.1,0,0.1,0,0.2,0s0.1,0.1,0.1,0.1c0,0.1,0.1,0.2,0.1,0.4
		c0,0.1,0,0.2-0.1,0.3s-0.1,0.1-0.2,0.2c-0.1,0-0.2,0.1-0.4,0.1c-0.1,0-0.3,0.1-0.5,0.1s-0.5,0.1-0.7,0.2c-0.4,0.1-0.6,0.3-0.6,0.7
		c0,2.6,0.1,4.9,0.1,6.7c0,1.8,0,3,0,3.6s0,1,0,1.3V30c0,0.3,0,0.5,0,0.6s0.1,0.2,0.2,0.4s0.3,0.2,0.6,0.2c0.1,0,0.2,0,0.4,0
		s0.3,0,0.4,0c0.1,0,0.2,0,0.3,0c0.1,0,0.2,0,0.2,0.1c0,0,0.1,0.1,0.1,0.1s0.1,0.1,0.1,0.2c0,0.1,0,0.2,0,0.3c0,0.2,0,0.3-0.1,0.4
		c-0.1,0.1-0.2,0.2-0.4,0.2l-0.4,0c-0.3,0-0.7,0-1.2-0.1s-1,0-1.5,0c-0.3,0-0.6,0-0.9,0c-0.3,0-0.6,0-0.8,0c-0.2,0-0.4,0-0.6,0
		c-0.2,0-0.3,0-0.5,0S38.4,32.5,38.4,32.5z"/>
	<path class="st0" d="M55.6,20c0.5,0,0.8,0.2,0.8,0.7v4.5c0,0.5-0.3,0.7-0.8,0.7c-0.5,0-0.7-0.2-0.7-0.5V24c0-0.4-0.2-0.6-0.6-0.6
		H51c-0.2,0-0.3,0-0.4,0s-0.2,0.1-0.4,0.1c-0.1,0.1-0.2,0.2-0.3,0.3c-0.1,0.1-0.1,0.3-0.1,0.5v5.6c0,0.2,0,0.3,0,0.4
		s0.1,0.2,0.2,0.3s0.3,0.2,0.5,0.2C51.2,31,52,31,52.8,31c0.5,0,1.2,0,2-0.1s1.3-0.2,1.5-0.4c0.1-0.1,0.4-0.5,0.8-1.3
		s0.7-1.2,0.8-1.3c0.1,0,0.2-0.1,0.2-0.1c0.1,0,0.2,0,0.3,0.1s0.1,0.2,0.1,0.4v0c0,0.1-0.2,1.3-0.7,3.4c0,0.2-0.1,0.3-0.2,0.4
		c-0.1,0.1-0.3,0.1-0.5,0.1h-8.2c-0.7,0-1.4,0-2,0.1s-0.9,0.1-1,0.1c-0.2,0-0.3-0.1-0.4-0.3s-0.2-0.3-0.2-0.4c0-0.2,0.1-0.3,0.2-0.4
		c0.1-0.1,0.4-0.2,0.9-0.4c0.3-0.1,0.5-0.2,0.7-0.3c0.4-0.1,0.5-0.4,0.5-0.9V17.4c0-0.2,0-0.3-0.1-0.3S47.3,17,47,17
		c-0.1,0-0.3,0-0.5,0c-0.2,0-0.4,0-0.5-0.1s-0.2,0-0.3-0.1c-0.1,0-0.2-0.1-0.2-0.2s-0.1-0.2-0.1-0.3c0-0.4,0.2-0.5,0.5-0.5H57
		c0.3,0,0.4,0.1,0.5,0.4c0.1,0.3,0.2,0.7,0.3,1.2c0.1,0.5,0.2,1,0.3,1.4c0.1,0.4,0.1,0.6,0.1,0.6c0,0.2-0.2,0.3-0.5,0.3
		c-0.2,0-0.5-0.1-0.7-0.4c-0.7-1.2-1.1-1.9-1.2-2c-0.1-0.1-0.4-0.2-0.7-0.2h-4.6c-0.3,0-0.5,0.1-0.6,0.2s-0.1,0.4-0.1,0.7v3.6
		c0,0.4,0.2,0.5,0.5,0.5H54c0.2,0,0.3,0,0.4,0s0.2-0.1,0.3-0.2s0.2-0.3,0.2-0.6v-0.8C54.9,20.1,55.1,20,55.6,20z"/>
	<path class="st0" d="M65.7,15.8c1,0,1.9,0.1,2.6,0.4c0.8,0.3,1.3,0.6,1.7,1.1c0.4,0.4,0.7,0.9,0.9,1.3s0.3,0.9,0.3,1.4
		c0,1-0.3,1.9-0.9,2.6s-1.2,1.2-1.7,1.4c-0.1,0.1-0.1,0.1-0.1,0.1c0,0,0,0.1,0,0.1c0.8,1,1.6,1.9,2.1,2.8s1,1.6,1.4,2.1
		s0.6,1,0.8,1.2c0.5,0.5,0.9,0.8,1.3,0.8c0.2,0,0.4-0.1,0.6-0.3s0.3-0.3,0.4-0.3c0.2,0,0.3,0.1,0.3,0.3c0,0.3-0.2,0.6-0.6,1.1
		c-0.4,0.4-0.9,0.7-1.5,0.7c-0.8,0-1.7-0.6-2.5-1.7l-2.3-3.4c-1.4-1.9-2.1-2.9-2.2-3c-0.1-0.1-0.2-0.1-0.4-0.1h-1.8
		c-0.2,0-0.3,0.1-0.3,0.4v5.6v0.1c0,0.5,0.2,0.7,0.6,0.8c0.1,0,0.3,0,0.5,0s0.3,0,0.4,0s0.2,0,0.4,0c0.1,0,0.2,0,0.3,0
		s0.1,0,0.2,0.1s0.1,0.1,0.2,0.1s0.1,0.1,0.1,0.1s0.1,0.1,0.1,0.2s0,0.1,0,0.2c0,0.3,0.2,0.5,0.6,0.5c0,0-0.2,0-0.7,0
		c-0.5,0-0.8,0-1,0s-0.4,0-0.7,0c-0.2,0-0.5,0-0.9,0c-0.3,0-0.6,0-0.9,0c-0.3,0-0.4,0-0.4,0s-0.2,0-0.8,0c-0.6,0-1,0-1.2,0
		s-0.4,0-0.5,0c-0.1,0-0.2,0-0.2,0c-0.3,0-0.4-0.2-0.4-0.7c0-0.1,0-0.1,0-0.2s0-0.1,0-0.1s0-0.1,0.1-0.1s0.1,0,0.1-0.1s0.1,0,0.2,0
		s0.1,0,0.2,0s0.2,0,0.2,0c0.1,0,0.2,0,0.3,0s0.2,0,0.3,0c0.3,0,0.4-0.1,0.5-0.2s0.1-0.3,0.1-0.6V18c0-0.4-0.1-0.6-0.3-0.7
		s-0.8-0.2-1.7-0.4c-0.2,0-0.4-0.2-0.4-0.4c0-0.3,0.1-0.4,0.3-0.4h0.8c0.8,0,1.7-0.1,2.9-0.2C64.4,15.9,65.2,15.8,65.7,15.8z
		 M69.5,20.4c0-1-0.4-1.8-1.2-2.5c-0.8-0.7-1.8-1.1-3-1.1c-0.7,0-1.2,0.1-1.4,0.3c-0.1,0.1-0.1,0.2-0.1,0.4v0l0,0v5.6
		c0,0.2,0.1,0.3,0.2,0.4c0.2,0,0.6,0.1,1.3,0.1c0.9,0,1.6-0.1,2.2-0.3c0.5-0.2,1-0.6,1.4-1C69.3,21.6,69.5,21.1,69.5,20.4z"/>
	<path class="st0" d="M84.3,32.9c-2.2,0-4.2-0.9-5.8-2.7c-1.7-1.8-2.5-3.9-2.5-6.5c0-2.4,0.8-4.4,2.3-6s3.4-2.4,5.6-2.4
		c0.7,0,1.3,0.1,2,0.2s1.1,0.3,1.5,0.5c0.4,0.2,0.7,0.4,1,0.6c0.3,0.2,0.5,0.3,0.5,0.3H89c0.2,0,0.4-0.2,0.6-0.5
		c0.2-0.3,0.4-0.5,0.4-0.5c0.1,0,0.2-0.1,0.3-0.1c0.2,0,0.3,0.1,0.3,0.3v0.7c0,0.5,0,0.9,0,1.4s0,0.9,0.1,1.2s0.1,0.7,0.1,0.9
		s0,0.5,0.1,0.6s0,0.2,0,0.3c0,0.2-0.2,0.4-0.7,0.4c-0.2,0-0.4-0.1-0.4-0.2s-0.1-0.4-0.3-0.9c-0.1-0.4-0.4-0.9-0.7-1.3
		c-0.6-0.8-1.4-1.5-2.3-2s-1.9-0.8-3-0.8c-0.6,0-1.3,0.1-1.9,0.4c-0.6,0.2-1.2,0.6-1.7,1.1c-0.5,0.5-1,1.2-1.3,2.2s-0.5,2-0.5,3.2
		c0,1.5,0.2,2.8,0.6,3.9s0.9,2,1.6,2.5c0.7,0.6,1.3,1,2,1.3c0.7,0.3,1.4,0.4,2,0.4c0.9,0,1.8-0.2,2.6-0.6c0.8-0.4,1.3-0.7,1.4-1
		c0-0.1,0.1-0.2,0.1-0.4V27c0-0.3-0.1-0.5-0.3-0.6c-0.2-0.1-0.6-0.2-1.2-0.2c-0.3,0-0.5,0-0.7,0c-0.4,0-0.7-0.2-0.7-0.6
		c0-0.4,0.2-0.6,0.5-0.6c0,0,0.2,0,0.3,0c0.2,0,0.5,0,0.8,0.1c0.4,0,0.8,0,1.2,0h0c0.5,0,0.9,0,1.3,0c0.4,0,0.7,0,0.9-0.1
		c0.2,0,0.4,0,0.4,0c0.2,0,0.4,0.1,0.5,0.2c0.1,0.1,0.2,0.2,0.2,0.4c0,0.3-0.2,0.5-0.5,0.6s-0.6,0.3-0.6,0.5c0,0,0,0.1,0,0.3v4
		c0,0.3-0.1,0.5-0.3,0.5c-0.1,0-0.2-0.1-0.4-0.2c-0.2-0.2-0.3-0.2-0.3-0.2c-0.1,0-0.2,0.1-0.4,0.2C87.9,32.3,86.2,32.9,84.3,32.9z"
		/>
	<path class="st0" d="M102.7,20c0.5,0,0.8,0.2,0.8,0.7v4.5c0,0.5-0.3,0.7-0.8,0.7c-0.5,0-0.7-0.2-0.7-0.5V24c0-0.4-0.2-0.6-0.6-0.6
		h-3.3c-0.2,0-0.3,0-0.4,0s-0.2,0.1-0.4,0.1c-0.1,0.1-0.2,0.2-0.3,0.3c-0.1,0.1-0.1,0.3-0.1,0.5v5.6c0,0.2,0,0.3,0,0.4
		s0.1,0.2,0.2,0.3s0.3,0.2,0.5,0.2c0.7,0.1,1.5,0.2,2.2,0.2c0.5,0,1.2,0,2-0.1s1.3-0.2,1.5-0.4c0.1-0.1,0.4-0.5,0.8-1.3
		s0.7-1.2,0.8-1.3c0.1,0,0.2-0.1,0.2-0.1c0.1,0,0.2,0,0.3,0.1s0.1,0.2,0.1,0.4v0c0,0.1-0.2,1.3-0.7,3.4c0,0.2-0.1,0.3-0.2,0.4
		c-0.1,0.1-0.3,0.1-0.5,0.1H96c-0.7,0-1.4,0-2,0.1s-0.9,0.1-1,0.1c-0.2,0-0.3-0.1-0.4-0.3s-0.2-0.3-0.2-0.4c0-0.2,0.1-0.3,0.2-0.4
		c0.1-0.1,0.4-0.2,0.9-0.4c0.3-0.1,0.5-0.2,0.7-0.3c0.4-0.1,0.5-0.4,0.5-0.9V17.4c0-0.2,0-0.3-0.1-0.3S94.4,17,94.1,17
		c-0.1,0-0.3,0-0.5,0c-0.2,0-0.4,0-0.5-0.1s-0.2,0-0.3-0.1c-0.1,0-0.2-0.1-0.2-0.2s-0.1-0.2-0.1-0.3c0-0.4,0.2-0.5,0.5-0.5h11.1
		c0.3,0,0.4,0.1,0.5,0.4c0.1,0.3,0.2,0.7,0.3,1.2c0.1,0.5,0.2,1,0.3,1.4c0.1,0.4,0.1,0.6,0.1,0.6c0,0.2-0.2,0.3-0.5,0.3
		c-0.2,0-0.5-0.1-0.7-0.4c-0.7-1.2-1.1-1.9-1.2-2c-0.1-0.1-0.4-0.2-0.7-0.2h-4.6c-0.3,0-0.5,0.1-0.6,0.2S97,17.6,97,17.9v3.6
		c0,0.4,0.2,0.5,0.5,0.5h3.7c0.2,0,0.3,0,0.4,0s0.2-0.1,0.3-0.2s0.2-0.3,0.2-0.6v-0.8C102,20.1,102.2,20,102.7,20z"/>
	<path class="st0" d="M109.6,19.3L109.6,19.3c0-0.3-0.3-0.7-0.8-1.1c-0.6-0.6-1.3-1-2.1-1c-0.3,0-0.4-0.2-0.4-0.6
		c0-0.4,0.2-0.6,0.5-0.6h3c0.4,0,0.7,0.2,1,0.5l3.8,4.4l2.2,2.5c2.9,3.2,4.5,4.8,4.6,4.9c0,0,0.1,0,0.1,0c0.1,0,0.2-0.1,0.2-0.2
		c0-0.2,0-0.5,0-0.8s0-0.7,0-1s0-0.6,0-0.8c0-2.1-0.1-4.5-0.3-7.1c0-0.5-0.1-0.8-0.3-0.9c-0.2-0.1-0.6-0.2-1.2-0.3
		c-0.4-0.1-0.5-0.2-0.5-0.5c0-0.2,0.1-0.3,0.2-0.4c0.1-0.1,0.3-0.2,0.5-0.2c0,0,0.1,0,0.3,0c0.2,0,0.5,0,0.8,0c0.4,0,0.7,0,1.1,0
		s0.8,0,1.1,0c0.3,0,0.6,0,0.8,0c0.2,0,0.3,0,0.3,0c0.3,0,0.5,0.2,0.5,0.6c0,0.1,0,0.2,0,0.3s-0.1,0.1-0.2,0.2
		c-0.1,0-0.2,0.1-0.2,0.1s-0.2,0-0.3,0c-0.2,0-0.3,0-0.3,0c-0.4,0-0.7,0.2-0.8,0.4c-0.1,0.2-0.2,0.6-0.2,1.3
		c-0.1,2.7-0.1,4.8-0.1,6.2c0,1.2,0,2.3,0,3.3s0,1.8,0,2.4c0,0.6,0,0.9,0,1c0,0.8-0.2,1.2-0.5,1.2c-0.2,0-0.6-0.3-1.2-1l-5-5.7
		c-3.5-3.9-5.3-5.8-5.3-5.8l-0.1,0.1c-0.2,3.3-0.3,6.1-0.3,8.5v0.7c0,0.6,0.1,1,0.2,1.2c0.1,0.2,0.4,0.3,0.9,0.3
		c0.6,0,1.1,0.1,1.5,0.2c0.2,0.1,0.3,0.3,0.3,0.7c0,0.3-0.1,0.5-0.4,0.5c0,0-0.1,0-0.2,0s-0.3,0-0.4,0s-0.4,0-0.6,0s-0.5,0-0.8,0
		s-0.6,0-0.9,0c-0.5,0-0.9,0-1.4,0s-0.8,0-1.1,0.1l-0.4,0c-0.3,0-0.5-0.2-0.5-0.5c0-0.4,0.1-0.6,0.4-0.7c0.1,0,0.3-0.1,0.6-0.1
		c0.3,0,0.6-0.1,0.9-0.2s0.4-0.3,0.5-0.5c0.1-0.2,0.2-2.4,0.4-6.7C109.4,22,109.5,20.5,109.6,19.3z"/>
	<path class="st0" d="M128,23.9c0,2.2,0.7,4.1,2,5.6c1.3,1.5,2.9,2.3,4.8,2.3c1.4,0,2.7-0.4,3.9-1.3s2-2,2.4-3.4
		c0.1-0.2,0.2-0.3,0.4-0.3c0.3,0,0.4,0.1,0.4,0.3c-0.4,2.5-0.6,3.8-0.6,3.9c-0.1,0.3-0.3,0.4-0.5,0.4h0h-0.7c-0.2,0-0.3,0-0.4,0
		c-0.1,0-0.2,0.1-0.4,0.2c-0.1,0.1-0.3,0.2-0.4,0.2c-1.4,0.8-2.9,1.2-4.5,1.2c-1.1,0-2.2-0.2-3.3-0.7c-1.1-0.4-2-1-2.8-1.8
		c-0.8-0.8-1.4-1.7-1.9-2.8c-0.5-1.1-0.7-2.2-0.7-3.3c0-1.2,0.2-2.3,0.7-3.4s1.1-2.1,1.9-2.8c1.7-1.7,3.8-2.5,6.1-2.5h0
		c0.9,0,1.7,0.1,2.4,0.3c0.7,0.2,1.3,0.5,1.7,0.7s0.6,0.4,0.6,0.4c0.1,0,0.2-0.1,0.3-0.4c0.1-0.3,0.2-0.4,0.4-0.5c0,0,0.1,0,0.1,0
		s0.1,0,0.1,0c0.2,0,0.3,0.1,0.3,0.3l0.2,1.2c0.1,0.8,0.2,1.7,0.3,2.5c0.1,0.9,0.2,1.3,0.2,1.4c0,0.3-0.2,0.4-0.5,0.4
		c-0.3,0-0.5-0.1-0.5-0.2s-0.1-0.4-0.2-1c-0.1-0.6-0.3-1.1-0.6-1.6c-0.5-0.7-1.2-1.3-2.1-1.7s-1.8-0.7-2.8-0.7c-1.7,0-3.2,0.7-4.5,2
		C128.6,20,128,21.7,128,23.9z"/>
	<path class="st0" d="M153.5,16.9c-0.2,0-0.4,0-0.6-0.1s-0.2-0.1-0.4-0.2s-0.2-0.3-0.2-0.5c0-0.1,0-0.2,0.1-0.3
		c0.1-0.1,0.2-0.2,0.4-0.2c0,0,0.1,0,0.3,0s0.4,0,0.8,0c0.3,0,0.7,0,1,0h0.1c0.4,0,0.7,0,1.1,0c0.3,0,0.6,0,0.8,0s0.3,0,0.3,0
		c0.2,0,0.4,0.1,0.5,0.2s0.2,0.2,0.2,0.4c0,0.2-0.1,0.3-0.2,0.4s-0.3,0.2-0.5,0.4c-0.2,0.2-0.4,0.3-0.6,0.6l-3.5,4.5
		c-0.3,0.4-0.5,0.7-0.8,1.1s-0.5,0.7-0.6,0.8s-0.3,0.4-0.4,0.6S151.1,25,151,25c-0.1,0.1-0.1,0.2-0.2,0.3c-0.1,0.1-0.1,0.2-0.1,0.2
		s0,0.1,0,0.2c0,0.1,0,0.1,0,0.2v4.7c0,0.2,0.1,0.4,0.2,0.4c0.2,0.1,0.6,0.1,1.4,0.1c0.4,0,0.7,0,0.9,0c0.3,0,0.5,0.2,0.5,0.5V32
		c0,0.3-0.1,0.4-0.4,0.4l-0.5,0c-0.3,0-0.7,0-1.3-0.1s-1.1,0-1.6,0c-0.3,0-0.7,0-1,0s-0.7,0-0.9,0s-0.5,0-0.7,0c-0.2,0-0.4,0-0.5,0
		s-0.2,0-0.2,0c-0.4,0-0.6-0.2-0.6-0.7c0-0.1,0-0.1,0-0.2c0-0.1,0-0.1,0-0.1c0,0,0-0.1,0.1-0.1c0,0,0.1,0,0.1-0.1c0,0,0.1,0,0.1,0
		c0.1,0,0.1,0,0.2,0s0.1,0,0.2,0s0.2,0,0.3,0s0.2,0,0.4,0s0.3,0,0.4,0l0.1,0c0.1,0,0.1,0,0.1,0c0,0,0,0,0.1,0s0.1,0,0.1,0
		c0,0,0,0,0.1,0c0,0,0.1,0,0.1-0.1c0,0,0-0.1,0-0.1c0,0,0-0.1,0-0.1s0-0.1,0-0.2v-5c0-0.1,0-0.3,0-0.4c0-0.1-0.1-0.2-0.1-0.2
		s-0.1-0.2-0.2-0.3c-0.1-0.2-0.2-0.3-0.2-0.4c-1.5-2.4-2.7-4.4-3.8-6.2c-0.4-0.6-0.6-0.9-0.6-0.9c-0.2-0.2-0.4-0.3-0.7-0.3
		s-0.5-0.1-0.6-0.3c-0.1-0.1-0.1-0.2-0.1-0.3c0-0.1,0.1-0.3,0.2-0.4c0.1-0.1,0.3-0.2,0.5-0.2c0,0,0.2,0,0.4,0s0.5,0,0.9,0
		c0.4,0,0.8,0,1.3,0s0.9,0,1.3,0c0.4,0,0.7,0,0.9,0s0.4,0,0.4,0c0.3,0,0.4,0.2,0.4,0.5c0,0.1,0,0.2,0,0.2s0,0.1,0,0.2s0,0.1-0.1,0.1
		s-0.1,0.1-0.1,0.1s-0.1,0-0.2,0.1c0,0-0.1,0-0.2,0s-0.2,0-0.3,0s-0.2,0-0.3,0s-0.3,0-0.4,0c-0.4,0-0.6,0.2-0.6,0.5v0
		c0,0.1,0.4,0.8,1.1,2.1c0.8,1.4,1.6,2.7,2.3,3.9c0.1,0.2,0.3,0.4,0.3,0.4c0,0,0.1,0,0.2-0.1c2.3-3.2,3.6-5,3.8-5.3
		c0.3-0.5,0.4-0.8,0.4-1c0-0.3-0.1-0.4-0.2-0.5c-0.1-0.1-0.4-0.1-0.8-0.1C153.5,16.9,153.5,16.9,153.5,16.9z"/>
	<path class="st0" d="M174.5,20c0.5,0,0.8,0.2,0.8,0.7v4.5c0,0.5-0.3,0.7-0.8,0.7c-0.5,0-0.7-0.2-0.7-0.5V24c0-0.4-0.2-0.6-0.6-0.6
		h-3.3c-0.2,0-0.3,0-0.4,0s-0.2,0.1-0.4,0.1c-0.1,0.1-0.2,0.2-0.3,0.3c-0.1,0.1-0.1,0.3-0.1,0.5v5.6c0,0.2,0,0.3,0,0.4
		s0.1,0.2,0.2,0.3s0.3,0.2,0.5,0.2c0.7,0.1,1.5,0.2,2.2,0.2c0.5,0,1.2,0,2-0.1s1.3-0.2,1.5-0.4c0.1-0.1,0.4-0.5,0.8-1.3
		s0.7-1.2,0.8-1.3c0.1,0,0.2-0.1,0.2-0.1c0.1,0,0.2,0,0.3,0.1s0.1,0.2,0.1,0.4v0c0,0.1-0.2,1.3-0.7,3.4c0,0.2-0.1,0.3-0.2,0.4
		c-0.1,0.1-0.3,0.1-0.5,0.1h-8.2c-0.7,0-1.4,0-2,0.1s-0.9,0.1-1,0.1c-0.2,0-0.3-0.1-0.4-0.3s-0.2-0.3-0.2-0.4c0-0.2,0.1-0.3,0.2-0.4
		c0.1-0.1,0.4-0.2,0.9-0.4c0.3-0.1,0.5-0.2,0.7-0.3c0.4-0.1,0.5-0.4,0.5-0.9V17.4c0-0.2,0-0.3-0.1-0.3s-0.3-0.1-0.5-0.1
		c-0.1,0-0.3,0-0.5,0c-0.2,0-0.4,0-0.5-0.1s-0.2,0-0.3-0.1c-0.1,0-0.2-0.1-0.2-0.2s-0.1-0.2-0.1-0.3c0-0.4,0.2-0.5,0.5-0.5H176
		c0.3,0,0.4,0.1,0.5,0.4c0.1,0.3,0.2,0.7,0.3,1.2c0.1,0.5,0.2,1,0.3,1.4c0.1,0.4,0.1,0.6,0.1,0.6c0,0.2-0.2,0.3-0.5,0.3
		c-0.2,0-0.5-0.1-0.7-0.4c-0.7-1.2-1.1-1.9-1.2-2c-0.1-0.1-0.4-0.2-0.7-0.2h-4.6c-0.3,0-0.5,0.1-0.6,0.2s-0.1,0.4-0.1,0.7v3.6
		c0,0.4,0.2,0.5,0.5,0.5h3.7c0.2,0,0.3,0,0.4,0s0.2-0.1,0.3-0.2s0.2-0.3,0.2-0.6v-0.8C173.8,20.1,174.1,20,174.5,20z"/>
	<path class="st0" d="M181.6,15.9c0.5,0,0.9,0,1.3,0c0.4,0,0.7,0,0.9,0c0.2,0,0.4,0,0.4,0c0.2,0,0.3,0,0.4,0.1
		c0.1,0.1,0.1,0.3,0.1,0.6c0,0.2-0.1,0.3-0.3,0.4s-0.4,0.1-0.6,0.1s-0.4,0-0.6,0.1s-0.3,0.2-0.3,0.5c0,0.1,0.1,0.4,0.3,0.7
		c1.8,2.8,2.6,4.3,2.7,4.3c0,0,0.1,0,0.1,0c0.2-0.3,0.5-0.7,0.7-1c0.3-0.4,0.5-0.6,0.6-0.9s0.3-0.4,0.5-0.7c0.2-0.2,0.3-0.4,0.4-0.6
		s0.2-0.3,0.3-0.4c0.1-0.1,0.2-0.3,0.2-0.4c0-0.1,0.1-0.2,0.1-0.3s0.1-0.2,0.1-0.2s0-0.1,0-0.2c0-0.1,0-0.1,0-0.2c0-0.1,0-0.2,0-0.3
		s-0.1-0.1-0.1-0.2s-0.1-0.1-0.1-0.1s-0.1-0.1-0.2-0.1s-0.2,0-0.2,0s-0.1,0-0.3,0s-0.2,0-0.3,0c-0.4,0-0.6-0.3-0.6-0.7
		c0-0.3,0.1-0.4,0.4-0.4c0,0,0.2,0,0.4,0s0.6,0,1,0s0.9,0,1.4,0c0.5,0,1,0,1.4,0s0.7,0,1,0s0.4,0,0.4,0c0.3,0,0.4,0.2,0.4,0.5
		c0,0.3-0.1,0.5-0.2,0.6S193.1,17,193,17s-0.4,0-0.7,0s-0.6,0.2-0.8,0.3c-0.2,0.1-0.5,0.4-0.8,0.9c-0.3,0.4-0.6,0.7-0.7,0.9
		c-2.1,2.9-3.1,4.4-3.1,4.5c0,0.1,1.4,2.3,4.1,6.6c0.3,0.5,0.5,0.7,0.7,0.8s0.6,0.2,1.4,0.2c0.4,0.1,0.6,0.3,0.6,0.7
		c0,0.3-0.1,0.5-0.4,0.5c0,0-0.1,0-0.2,0s-0.3,0-0.5,0s-0.4,0-0.7,0s-0.5,0-0.8,0s-0.6,0-0.9,0s-0.6,0-0.9,0s-0.6,0-0.8,0
		s-0.5,0-0.6,0s-0.3,0-0.5,0s-0.2,0-0.2,0c-0.3,0-0.4-0.2-0.4-0.5c0-0.3,0.1-0.5,0.4-0.6c0.1,0,0.4-0.1,1-0.1
		c0.4-0.1,0.5-0.2,0.5-0.5v0c0-0.2-0.6-1.1-1.7-2.9c-0.6-0.9-1-1.6-1.4-2.2c0,0,0-0.1-0.1-0.1c-0.1,0-1.2,1.5-3.3,4.6
		c-0.2,0.2-0.3,0.4-0.3,0.6c0,0.2,0.1,0.4,0.2,0.5s0.5,0.1,1,0.2c0.1,0,0.2,0,0.2,0c0.4,0.1,0.7,0.3,0.7,0.6c0,0.4-0.1,0.5-0.4,0.5
		c0,0-0.1,0-0.2,0s-0.2,0-0.4,0s-0.4,0-0.6,0s-0.4,0-0.7,0s-0.5,0-0.8,0c-0.4,0-0.8,0-1.3,0s-0.7,0-1,0.1l-0.4,0
		c-0.2,0-0.4-0.2-0.4-0.5c0-0.1,0-0.1,0-0.2s0-0.1,0-0.1s0-0.1,0-0.1s0.1-0.1,0.1-0.1c0,0,0,0,0.1-0.1c0.1,0,0.1,0,0.1,0
		c0,0,0.1,0,0.2,0s0.1,0,0.2,0c0,0,0.1,0,0.2,0s0.2,0,0.3,0c0.1,0,0.2,0,0.3-0.1s0.2-0.1,0.2-0.1c0.1,0,0.1-0.1,0.2-0.2
		s0.2-0.1,0.2-0.2s0.1-0.1,0.2-0.2c0.1-0.1,0.2-0.2,0.2-0.3s0.1-0.2,0.3-0.4c0.1-0.2,0.2-0.3,0.3-0.5c2.4-3.3,3.5-5,3.5-5
		c0-0.1-1.3-2.1-3.8-6.2c-0.3-0.5-0.6-0.9-0.8-1s-0.6-0.2-1.2-0.2c-0.4,0-0.6-0.2-0.6-0.6c0-0.4,0.2-0.6,0.5-0.6c0,0,0.2,0,0.4,0
		s0.6,0,1,0C180.6,15.8,181.1,15.9,181.6,15.9L181.6,15.9L181.6,15.9z"/>
	<path class="st0" d="M195,16l0.4,0c0.3,0,0.6,0,1.1,0.1s0.9,0,1.3,0c0.5,0,0.9,0,1.3,0c0.4,0,0.7,0,0.9,0s0.3,0,0.4,0
		c0.3,0,0.4,0.2,0.4,0.5c0,0.1,0,0.2,0,0.2c0,0.1,0,0.1,0,0.2c0,0.1,0,0.1-0.1,0.1c0,0-0.1,0.1-0.1,0.1c0,0-0.1,0-0.1,0.1
		s-0.1,0-0.2,0s-0.1,0-0.2,0s-0.2,0-0.2,0c-0.1,0-0.2,0-0.3,0c-0.1,0-0.3,0-0.3,0c-0.3,0-0.4,0.1-0.4,0.4v13c0,0.4,0.1,0.6,0.4,0.6
		c0.2,0,0.3,0,0.5,0s0.3,0,0.4,0s0.2,0,0.3,0s0.2,0,0.3,0s0.1,0,0.2,0.1s0.1,0.1,0.1,0.1s0,0.1,0,0.2c0,0.5-0.2,0.7-0.5,0.7
		c0,0-0.1,0-0.2,0s-0.3,0-0.5,0s-0.4,0-0.6,0s-0.5,0-0.8,0c-0.3,0-0.6,0-0.9,0s-0.6,0-0.9,0s-0.6,0-0.8,0s-0.5,0-0.7,0s-0.3,0-0.5,0
		c-0.1,0-0.2,0-0.2,0c-0.3,0-0.4-0.2-0.4-0.5c0,0,0-0.1,0-0.2c0-0.2,0.1-0.3,0.2-0.4c0.1,0,0.5-0.1,1-0.1c0.4,0,0.6,0,0.9,0
		c0.4,0,0.5-0.2,0.5-0.7V18c0,0,0-0.1,0-0.2s0-0.1,0-0.2c0-0.2-0.1-0.3-0.2-0.4c-0.1,0-0.4-0.1-0.9-0.1c-0.2,0-0.4,0-0.6,0
		c-0.4,0-0.6-0.2-0.6-0.5C194.5,16.2,194.6,16,195,16z"/>
	<path class="st0" d="M213.4,32.5l-0.5,0c-0.3,0-0.7,0-1.2-0.1c-0.5,0-1,0-1.5,0c-0.3,0-0.7,0-1,0c-0.3,0-0.6,0-0.6,0s-0.1,0-0.2,0
		s-0.1,0-0.2,0c0,0-0.1,0-0.1,0c-1,0-1.6-0.2-1.6-0.6c0-0.3,0.1-0.4,0.2-0.5c0.1-0.1,0.4-0.1,0.9-0.1c0.3,0,0.5,0,0.6,0
		c0.3,0,0.5-0.1,0.6-0.3s0.2-0.4,0.2-0.6V18.2c0-0.2,0-0.3,0-0.4s-0.1-0.2-0.2-0.3s-0.2-0.1-0.4-0.1h-3.6c-0.3,0-0.5,0-0.6,0.1
		s-0.2,0.2-0.3,0.4c-0.7,1.4-1,2.1-1.1,2.1c-0.1,0.1-0.2,0.2-0.4,0.2s-0.3-0.1-0.4-0.2s-0.2-0.3-0.2-0.4v0c0-0.1,0.2-1.2,0.7-3.3
		c0-0.2,0.2-0.4,0.5-0.4h14c0.3,0,0.4,0.2,0.5,0.6c0.4,2,0.6,3.1,0.6,3.1c0,0.1,0,0.3-0.1,0.4s-0.2,0.2-0.3,0.2
		c-0.2,0-0.4-0.2-0.5-0.5c-0.1-0.2-0.2-0.3-0.3-0.6s-0.2-0.4-0.2-0.5s-0.1-0.2-0.2-0.4s-0.1-0.2-0.2-0.3c0-0.1-0.1-0.1-0.1-0.2
		s-0.1-0.1-0.1-0.1s-0.1-0.1-0.1-0.1c0,0-0.1-0.1-0.2-0.1s-0.1,0-0.2,0c-0.1,0-0.1,0-0.2,0h-3.5c-0.2,0-0.3,0-0.4,0.1
		s-0.1,0.2-0.1,0.2s0,0.2,0,0.3v12.5c0,0.2,0.1,0.4,0.2,0.5c0.1,0.1,0.5,0.1,1.2,0.2c0.3,0,0.6,0.1,0.8,0.1c0.2,0,0.3,0.1,0.3,0.2
		s0.1,0.3,0.1,0.5C213.8,32.3,213.7,32.5,213.4,32.5z"/>
</g>
<path class="st0" d="M225.2,46H0.2V0.2h225V46z M1.2,45h223V1.2H1.2V45z"/>
</svg>
