<?xml version="1.0" encoding="utf-8"?>
<!-- Generator: Adobe Illustrator 22.0.1, SVG Export Plug-In . SVG Version: 6.00 Build 0)  -->
<svg version="1.1" id="Layer_1" xmlns="http://www.w3.org/2000/svg" xmlns:xlink="http://www.w3.org/1999/xlink" x="0px" y="0px"
	 viewBox="0 0 225.4 46.2" style="enable-background:new 0 0 225.4 46.2;" xml:space="preserve">
<style type="text/css">
	.st0{fill:#83CEC1;}
</style>
<g>
	<path class="st0" d="M16.3,36.4V10.1h10.3v2.8h-6.6v8.4h4.7v2.8h-4.7v9.4h6.6v2.8L16.3,36.4L16.3,36.4z"/>
	<path class="st0" d="M29,36.4V10.1h5.2l3.7,20.1l3.7-20.1h5.2v26.2H43V15.7l-3.8,20.7h-2.8l-3.8-20.7v20.7H29z"/>
	<path class="st0" d="M50.5,36.4V10.1h10.3v2.8h-6.6v8.4H59v2.8h-4.7v9.4h6.6v2.8L50.5,36.4L50.5,36.4z"/>
	<path class="st0" d="M63.1,36.4V10.1h4.7c2.8,0,4.9,0.5,6.3,1.6s2.1,2.9,2.1,5.4c0,1.6-0.3,2.9-0.8,3.9S74,22.9,73,23.2l4.2,13.1
		h-3.7l-3.8-12.2h-2.8v12.2C66.9,36.4,63.1,36.4,63.1,36.4z M66.9,21.4h0.9c1.6,0,2.7-0.3,3.5-1c0.8-0.7,1.2-1.7,1.2-3.2
		s-0.4-2.6-1.2-3.2c-0.8-0.7-2-1-3.5-1h-0.9V21.4z"/>
	<path class="st0" d="M86.4,36.6c-1.2,0-2.2-0.2-3.1-0.5s-1.6-0.8-2.2-1.4s-1-1.3-1.3-2.2c-0.3-0.9-0.6-1.9-0.7-2.9
		s-0.2-2.2-0.2-3.5v-6.7c0-6.4,2.5-9.6,7.6-9.6c1.2,0,2.3,0.2,3.2,0.5c0.9,0.4,1.6,0.9,2.2,1.6s1,1.5,1.3,2.5c0.3,0.9,0.4,2,0.5,3.3
		c0,0.2,0,0.4,0,0.8h-3.8v-0.8c0-0.6,0-1.1-0.1-1.6c-0.1-0.4-0.2-0.9-0.3-1.3s-0.3-0.8-0.6-1s-0.6-0.5-1-0.6
		c-0.4-0.2-0.9-0.2-1.4-0.2c-0.8,0-1.4,0.1-1.9,0.4c-0.5,0.3-0.9,0.7-1.2,1.2c-0.3,0.5-0.5,1.1-0.6,1.8c-0.1,0.6-0.2,1.4-0.2,2.2V27
		c0,0.6,0,1.2,0.1,1.7c0,0.5,0.1,1,0.2,1.5s0.2,1,0.4,1.4s0.4,0.7,0.7,1c0.3,0.3,0.6,0.5,1,0.7c0.4,0.2,0.9,0.2,1.4,0.2
		c0.6,0,1.2-0.1,1.6-0.4s0.8-0.6,1.1-0.9c0.3-0.4,0.5-0.9,0.6-1.5s0.3-1.2,0.3-1.8s0.1-1.3,0.1-2v-0.9h-3.8v-2.8h7.5v13.1h-2.8
		l-0.9-2.8C89.4,35.6,88.2,36.6,86.4,36.6z"/>
	<path class="st0" d="M96.9,36.4V10.1h10.3v2.8h-6.6v8.4h4.7v2.8h-4.7v9.4h6.6v2.8L96.9,36.4L96.9,36.4z"/>
	<path class="st0" d="M109.5,36.4V10.1h2.8l6.6,16.2V10.1h3.8v26.3H120l-6.7-17.5v17.5C113.3,36.4,109.5,36.4,109.5,36.4z"/>
	<path class="st0" d="M133.2,36.6c-1.1,0-2.1-0.2-2.9-0.5s-1.5-0.7-2.1-1.3c-0.5-0.6-1-1.2-1.3-2.1c-0.3-0.8-0.6-1.7-0.7-2.6
		s-0.2-2-0.2-3.2v-7.5c0-1.2,0.1-2.2,0.2-3.2c0.1-0.9,0.4-1.8,0.7-2.6s0.8-1.5,1.3-2.1c0.5-0.5,1.2-1,2.1-1.3s1.8-0.5,2.9-0.5
		c1.2,0,2.3,0.2,3.2,0.5s1.6,0.9,2.1,1.6s0.9,1.5,1.2,2.4s0.4,2,0.5,3.3c0,0.2,0,0.5,0,0.9h-3.8v-0.8c0-0.5,0-1-0.1-1.3
		c0-0.4-0.1-0.7-0.2-1.1s-0.2-0.7-0.3-1s-0.3-0.5-0.6-0.7c-0.2-0.2-0.5-0.4-0.9-0.5c-0.4-0.1-0.8-0.2-1.2-0.2
		c-0.6,0-1.1,0.1-1.6,0.3s-0.8,0.4-1,0.8c-0.2,0.3-0.4,0.7-0.6,1.2s-0.2,1-0.3,1.5c0,0.5-0.1,1.1-0.1,1.8v9.4c0,0.6,0,1.2,0.1,1.7
		s0.2,1,0.3,1.5c0.2,0.5,0.4,0.9,0.6,1.3s0.6,0.6,1,0.8s0.9,0.3,1.5,0.3s1-0.1,1.4-0.3s0.7-0.5,0.9-0.8s0.4-0.8,0.5-1.3
		s0.2-1,0.3-1.5s0.1-1.1,0.1-1.7V27h3.8v0.9c0,1.4-0.1,2.5-0.4,3.6c-0.2,1-0.6,1.9-1.2,2.7c-0.5,0.8-1.3,1.4-2.2,1.8
		S134.4,36.6,133.2,36.6z"/>
	<path class="st0" d="M146.3,36.4v-8.4l-5.6-17.8h3.8l3.8,13.1l3.8-13.1h3.8l-5.6,17.8v8.4C150.1,36.4,146.3,36.4,146.3,36.4z"/>
	<path class="st0" d="M163.6,36.4V10.1h10.3v2.8h-6.6v8.4h4.7v2.8h-4.7v9.4h6.6v2.8L163.6,36.4L163.6,36.4z"/>
	<path class="st0" d="M174.7,36.4l4.7-13.6l-4.7-12.6h3.8l3.8,10.3l3.8-10.3h3.8L185,22.7l4.6,13.7h-3.7l-3.7-11.3l-3.7,11.3H174.7z
		"/>
	<path class="st0" d="M192.1,36.4V10.1h3.8v26.2H192.1z"/>
	<path class="st0" d="M202.7,36.4V13.5H198v-3.3h13.1v3.3h-4.7v22.9C206.4,36.4,202.7,36.4,202.7,36.4z"/>
</g>
<path class="st0" d="M225.2,46H0.2V0.2h225V46z M1.2,45h223V1.2H1.2V45z"/>
</svg>
