<?xml version="1.0" encoding="utf-8"?>
<!-- Generator: Adobe Illustrator 22.0.1, SVG Export Plug-In . SVG Version: 6.00 Build 0)  -->
<svg version="1.1" id="Layer_1" xmlns="http://www.w3.org/2000/svg" xmlns:xlink="http://www.w3.org/1999/xlink" x="0px" y="0px"
	 viewBox="0 0 225.4 46.2" style="enable-background:new 0 0 225.4 46.2;" xml:space="preserve">
<style type="text/css">
	.st0{fill:#83CEC1;}
</style>
<g>
	<path class="st0" d="M20.9,30.2c-0.4,0.8-0.8,1.6-1.4,2.2c-0.6,0.6-1.2,1.2-2,1.7s-1.5,0.8-2.3,1s-1.7,0.4-2.5,0.4
		c-0.9,0-1.7-0.1-2.3-0.4c-0.7-0.3-1.2-0.6-1.6-1.1c-0.4-0.5-0.7-1-0.9-1.6c-0.2-0.6-0.3-1.2-0.3-1.9c0-0.7,0.1-1.5,0.4-2.3
		c0.2-0.8,0.6-1.5,1-2.2c0.4-0.7,1-1.3,1.6-1.8s1.4-0.9,2.2-1.1c-0.6-0.4-1-0.9-1.3-1.5C11.1,21.2,11,20.6,11,20
		c0-0.7,0.2-1.4,0.5-2.2c0.3-0.7,0.7-1.4,1.3-1.9c0.5-0.6,1.2-1,1.9-1.4s1.6-0.5,2.5-0.5c0.6,0,1.1,0.1,1.6,0.2
		c0.5,0.2,0.9,0.4,1.3,0.7s0.6,0.7,0.9,1.1c0.2,0.4,0.3,0.9,0.3,1.5c0,0.4-0.1,0.8-0.2,1.2s-0.3,0.7-0.5,0.9s-0.4,0.5-0.7,0.6
		c-0.3,0.1-0.5,0.2-0.8,0.2c-0.5,0-0.9-0.3-1.3-0.8c0.2-0.1,0.3-0.2,0.5-0.3s0.3-0.4,0.4-0.6s0.2-0.5,0.3-0.7
		c0.1-0.3,0.1-0.5,0.1-0.8c0-0.3,0-0.5-0.1-0.7c-0.1-0.2-0.2-0.4-0.3-0.5c-0.1-0.1-0.3-0.2-0.5-0.3c-0.2-0.1-0.4-0.1-0.6-0.1
		c-0.4,0-0.8,0.1-1.2,0.3c-0.4,0.2-0.7,0.5-0.9,0.9c-0.3,0.4-0.4,0.8-0.6,1.3c-0.1,0.5-0.2,1-0.2,1.4c0,0.4,0.1,0.8,0.2,1.2
		c0.1,0.4,0.3,0.8,0.5,1.1s0.5,0.6,0.9,0.9c0.4,0.3,0.8,0.4,1.3,0.6c-0.5,0.1-1,0.3-1.4,0.5c-0.4,0.3-0.8,0.6-1.2,0.9
		s-0.7,0.7-1,1.2c-0.3,0.4-0.5,0.9-0.7,1.3s-0.4,0.9-0.5,1.4s-0.2,0.9-0.2,1.3c0,0.4,0,0.8,0.2,1.1c0.1,0.3,0.3,0.6,0.5,0.9
		c0.2,0.3,0.5,0.5,0.8,0.6c0.3,0.1,0.7,0.2,1.2,0.2c0.4,0,0.9-0.1,1.4-0.2c0.5-0.1,1-0.3,1.5-0.5c0.5-0.2,0.9-0.5,1.3-0.9
		s0.7-0.8,1-1.2L20.9,30.2z"/>
	<path class="st0" d="M35.7,35l1.8-12.6L32.2,35h-3.8l0.6-12.6L24.3,35H22l7.1-19.2c-1.4,0.5-2.5,1.2-3.3,2.3
		c-0.8,1.1-1.2,2.4-1.2,4c0,0.4,0,0.7,0.1,0.9s0.1,0.4,0.1,0.5c0,0.1,0.1,0.2,0.1,0.3s0.1,0.1,0.1,0.2c-0.5,0-0.9,0-1.2-0.1
		s-0.7-0.2-0.9-0.4s-0.5-0.5-0.6-0.8c-0.1-0.3-0.2-0.7-0.2-1.2c0-0.6,0.1-1.2,0.4-1.8s0.6-1.2,1-1.7s0.9-1.1,1.5-1.5
		c0.6-0.5,1.2-0.9,1.9-1.3c0.7-0.4,1.3-0.6,2.1-0.8c0.7-0.2,1.4-0.3,2.1-0.3c0.7,0,1.4,0.1,2.1,0.4l-0.6,14.8l6.2-14.8h4L39.7,35
		C39.7,35,35.7,35,35.7,35z"/>
	<path class="st0" d="M55.7,30.2c-0.4,0.8-0.8,1.6-1.4,2.2c-0.6,0.6-1.2,1.2-2,1.7s-1.5,0.8-2.3,1s-1.7,0.4-2.5,0.4
		c-0.9,0-1.7-0.1-2.3-0.4c-0.7-0.3-1.2-0.6-1.6-1.1s-0.7-1-0.9-1.6c-0.2-0.6-0.3-1.2-0.3-1.9c0-0.7,0.1-1.5,0.4-2.3
		c0.2-0.8,0.6-1.5,1-2.2c0.4-0.7,1-1.3,1.6-1.8s1.4-0.9,2.2-1.1c-0.6-0.4-1-0.9-1.3-1.5c-0.3-0.6-0.4-1.2-0.4-1.8
		c0-0.7,0.2-1.4,0.5-2.2c0.3-0.7,0.7-1.4,1.3-1.9c0.5-0.6,1.2-1,1.9-1.4s1.6-0.5,2.5-0.5c0.6,0,1.1,0.1,1.6,0.2
		c0.5,0.2,0.9,0.4,1.3,0.7s0.6,0.7,0.9,1.1c0.2,0.4,0.3,0.9,0.3,1.5c0,0.4-0.1,0.8-0.2,1.2s-0.3,0.7-0.5,0.9S55,20,54.7,20.1
		c-0.3,0.1-0.5,0.2-0.8,0.2c-0.5,0-0.9-0.3-1.3-0.8c0.2-0.1,0.3-0.2,0.5-0.3s0.3-0.4,0.4-0.6c0.1-0.2,0.2-0.5,0.3-0.7
		c0.1-0.3,0.1-0.5,0.1-0.8c0-0.3,0-0.5-0.1-0.7c-0.1-0.2-0.2-0.4-0.3-0.5c-0.1-0.1-0.3-0.2-0.5-0.3c-0.2-0.1-0.4-0.1-0.6-0.1
		c-0.4,0-0.8,0.1-1.2,0.3c-0.4,0.2-0.7,0.5-0.9,0.9c-0.3,0.4-0.4,0.8-0.6,1.3c-0.1,0.5-0.2,1-0.2,1.4c0,0.4,0.1,0.8,0.2,1.2
		c0.1,0.4,0.3,0.8,0.5,1.1s0.5,0.6,0.9,0.9c0.4,0.3,0.8,0.4,1.3,0.6c-0.5,0.1-1,0.3-1.4,0.5s-0.8,0.6-1.2,0.9s-0.7,0.7-1,1.2
		c-0.3,0.4-0.5,0.9-0.7,1.3s-0.4,0.9-0.5,1.4s-0.2,0.9-0.2,1.3c0,0.4,0.1,0.8,0.2,1.1c0.1,0.3,0.3,0.6,0.5,0.9
		c0.2,0.3,0.5,0.5,0.8,0.6c0.3,0.1,0.7,0.2,1.2,0.2c0.4,0,0.9-0.1,1.4-0.2c0.5-0.1,1-0.3,1.5-0.5c0.5-0.2,0.9-0.5,1.3-0.9
		s0.7-0.8,1-1.2L55.7,30.2z"/>
	<path class="st0" d="M57.7,35l3.8-17.8l4.1-0.5l-1.4,6.5h0.2c0.6,0,1.1-0.2,1.6-0.5c0.5-0.3,0.9-0.7,1.3-1.2c0.4-0.5,0.6-1,0.8-1.6
		c0.2-0.6,0.3-1.1,0.3-1.7c0-0.4-0.1-0.8-0.2-1.1c-0.1-0.4-0.3-0.7-0.5-0.9c-0.2-0.3-0.6-0.5-0.9-0.6c-0.4-0.2-0.9-0.2-1.4-0.2
		c-1.1,0-2.2,0.2-3.1,0.5c-0.9,0.3-1.7,0.8-2.4,1.3c-0.7,0.6-1.2,1.3-1.5,2.1s-0.5,1.8-0.5,2.9c0,0.4,0,0.6,0.1,0.9s0.1,0.4,0.1,0.5
		c0,0.1,0.1,0.2,0.1,0.3s0.1,0.1,0.1,0.2c-0.5,0-0.9,0-1.3-0.1c-0.4-0.1-0.7-0.2-0.9-0.5s-0.4-0.5-0.6-0.8c-0.1-0.3-0.2-0.8-0.2-1.3
		c0-0.6,0.1-1.2,0.4-1.8s0.6-1.2,1.1-1.7s1-1,1.7-1.5c0.6-0.5,1.3-0.8,2-1.2s1.5-0.6,2.3-0.8c0.8-0.2,1.6-0.3,2.4-0.3
		c1.1,0,2.1,0.1,2.9,0.4c0.8,0.3,1.5,0.6,2,1s0.9,0.9,1.2,1.4c0.2,0.5,0.4,1.1,0.4,1.7c0,0.4-0.1,0.9-0.2,1.3
		c-0.1,0.4-0.3,0.9-0.6,1.3s-0.6,0.8-0.9,1.2c-0.4,0.4-0.8,0.7-1.3,1c0.4,0.1,0.7,0.3,0.9,0.4c0.2,0.2,0.4,0.4,0.6,0.6
		c0.1,0.2,0.2,0.5,0.3,0.8c0.1,0.3,0.1,0.6,0.1,0.9c0,0.6-0.1,1.2-0.2,1.8c-0.1,0.6-0.3,1.3-0.5,1.9c-0.2,0.6-0.3,1.2-0.5,1.8
		c-0.1,0.6-0.2,1.1-0.2,1.5c0,0.4,0.1,0.8,0.3,1.2c0.2,0.3,0.5,0.6,0.8,0.7c-0.6,0.2-1.1,0.3-1.6,0.4c-0.5,0.1-0.9,0.1-1.2,0.1
		c-0.5,0-0.8-0.1-1.1-0.2c-0.3-0.1-0.5-0.3-0.7-0.4c-0.2-0.2-0.3-0.4-0.3-0.6c-0.1-0.2-0.1-0.4-0.1-0.7c0-0.5,0.1-1,0.2-1.6
		c0.2-0.6,0.3-1.3,0.5-1.9c0.2-0.7,0.4-1.3,0.5-2c0.2-0.7,0.2-1.3,0.2-1.8c0-0.3,0-0.5-0.1-0.8c-0.1-0.2-0.2-0.4-0.3-0.6
		c-0.1-0.2-0.3-0.3-0.5-0.4s-0.5-0.1-0.8-0.1c-0.1,0-0.3,0-0.4,0c-0.2,0-0.3,0-0.5,0.1L61.7,35L57.7,35L57.7,35z"/>
	<path class="st0" d="M87.2,23.3l-2.1,9.4c-0.3,1.4-0.7,2.6-1.1,3.6c-0.4,1-0.9,1.9-1.5,2.5c-0.6,0.7-1.2,1.2-1.9,1.5
		c-0.7,0.3-1.5,0.5-2.4,0.5c-0.7,0-1.3-0.1-1.9-0.3c-0.6-0.2-1-0.4-1.4-0.8s-0.7-0.7-0.9-1.2s-0.3-1-0.3-1.6c0-0.5,0.1-1.1,0.3-1.5
		c0.2-0.5,0.5-0.9,0.8-1.2c0.3-0.4,0.7-0.6,1.2-0.8c0.5-0.2,1-0.3,1.5-0.3c0.7,0,1.3,0.2,1.7,0.5S80,34.4,80,35
		c0,0.4-0.1,0.8-0.3,1.1c-0.2-0.2-0.4-0.4-0.7-0.5s-0.6-0.2-0.9-0.2c-0.3,0-0.5,0-0.8,0.1s-0.4,0.2-0.6,0.4
		c-0.2,0.2-0.3,0.4-0.4,0.6c-0.1,0.2-0.1,0.5-0.1,0.8c0,0.3,0,0.6,0.1,0.8c0.1,0.3,0.2,0.5,0.4,0.6c0.2,0.2,0.4,0.3,0.6,0.4
		s0.5,0.2,0.7,0.2c0.6,0,1.2-0.3,1.7-0.9s0.8-1.4,1.1-2.6l1.4-6.2H82c-0.5,0.7-1.1,1.2-1.8,1.6c-0.7,0.4-1.5,0.6-2.4,0.6
		c-0.8,0-1.6-0.2-2.2-0.5c-0.7-0.3-1.2-0.8-1.7-1.4c-0.5-0.6-0.8-1.4-1.1-2.2c-0.3-0.9-0.4-1.9-0.4-2.9c0-1,0.1-2,0.4-3
		c0.2-1,0.6-1.8,1-2.7s1-1.6,1.6-2.2s1.3-1.2,2.1-1.7s1.6-0.8,2.5-1.1s1.8-0.4,2.8-0.4c0.8,0,1.5,0.1,2.1,0.3s1.2,0.4,1.6,0.8
		c0.4,0.3,0.8,0.7,1,1.2c0.2,0.5,0.4,1,0.4,1.6c0,0.4-0.1,0.8-0.2,1.1c-0.1,0.3-0.3,0.6-0.4,0.8c-0.2,0.2-0.4,0.4-0.7,0.5
		c-0.3,0.1-0.6,0.2-0.9,0.2c-0.3,0-0.7-0.1-1-0.2c-0.3-0.2-0.6-0.4-0.8-0.6c0.2-0.1,0.3-0.3,0.5-0.4c0.1-0.2,0.3-0.4,0.4-0.6
		s0.2-0.5,0.3-0.7c0.1-0.3,0.1-0.5,0.1-0.8c0-0.6-0.2-1-0.5-1.3c-0.3-0.3-0.8-0.5-1.4-0.5c-0.6,0-1.1,0.1-1.6,0.4
		c-0.5,0.3-1,0.6-1.5,1.1s-0.9,1-1.3,1.6s-0.8,1.3-1.1,2.1c-0.3,0.7-0.5,1.5-0.7,2.4s-0.2,1.7-0.2,2.6c0,1.4,0.2,2.5,0.7,3.2
		c0.4,0.7,1.1,1.1,1.9,1.1c1,0,1.9-0.5,2.7-1.6c0.8-1.1,1.4-2.6,1.9-4.7L87.2,23.3z"/>
	<path class="st0" d="M101.6,30.2c-0.4,0.8-0.9,1.6-1.4,2.2c-0.6,0.6-1.2,1.2-2,1.7s-1.5,0.8-2.3,1s-1.7,0.4-2.5,0.4
		c-0.9,0-1.7-0.1-2.3-0.4c-0.7-0.3-1.2-0.6-1.6-1.1c-0.4-0.5-0.7-1-0.9-1.6c-0.2-0.6-0.3-1.2-0.3-1.9c0-0.7,0.1-1.5,0.4-2.3
		c0.2-0.8,0.6-1.5,1-2.2c0.4-0.7,1-1.3,1.6-1.8s1.4-0.9,2.2-1.1c-0.6-0.4-1-0.9-1.3-1.5c-0.3-0.6-0.4-1.2-0.4-1.8
		c0-0.7,0.2-1.4,0.5-2.2c0.3-0.7,0.7-1.4,1.3-1.9c0.5-0.6,1.2-1,1.9-1.4s1.6-0.5,2.5-0.5c0.6,0,1.1,0.1,1.6,0.2
		c0.5,0.2,0.9,0.4,1.3,0.7c0.4,0.3,0.6,0.7,0.9,1.1c0.2,0.4,0.3,0.9,0.3,1.5c0,0.4-0.1,0.8-0.2,1.2s-0.3,0.7-0.5,0.9
		s-0.4,0.5-0.7,0.6c-0.3,0.1-0.5,0.2-0.8,0.2c-0.5,0-0.9-0.3-1.3-0.8c0.2-0.1,0.3-0.2,0.5-0.3s0.3-0.4,0.4-0.6
		c0.1-0.2,0.2-0.5,0.3-0.7c0.1-0.3,0.1-0.5,0.1-0.8c0-0.3,0-0.5-0.1-0.7c-0.1-0.2-0.2-0.4-0.3-0.5c-0.1-0.1-0.3-0.2-0.5-0.3
		c-0.2-0.1-0.4-0.1-0.6-0.1c-0.4,0-0.8,0.1-1.2,0.3c-0.4,0.2-0.7,0.5-0.9,0.9c-0.3,0.4-0.4,0.8-0.6,1.3c-0.1,0.5-0.2,1-0.2,1.4
		c0,0.4,0.1,0.8,0.2,1.2c0.1,0.4,0.3,0.8,0.5,1.1s0.5,0.6,0.9,0.9c0.4,0.3,0.8,0.4,1.3,0.6c-0.5,0.1-1,0.3-1.4,0.5
		c-0.4,0.3-0.8,0.6-1.2,0.9s-0.7,0.7-1,1.2c-0.3,0.4-0.5,0.9-0.7,1.3s-0.4,0.9-0.5,1.4s-0.2,0.9-0.2,1.3c0,0.4,0.1,0.8,0.1,1.1
		c0.1,0.3,0.3,0.6,0.5,0.9c0.2,0.3,0.5,0.5,0.8,0.6c0.3,0.1,0.7,0.2,1.2,0.2c0.4,0,0.9-0.1,1.4-0.2c0.5-0.1,1-0.3,1.5-0.5
		c0.5-0.2,0.9-0.5,1.3-0.9s0.7-0.8,1-1.2L101.6,30.2z"/>
	<path class="st0" d="M121,14.1L116.5,35h-3.9l-3.2-13.9L106.2,35h-2.7l4.2-19.2c-1.3,0.5-2.3,1.2-2.9,2.1c-0.6,1-1,2.1-1,3.5
		c0,0.6,0.1,1.2,0.2,1.6c0.1,0.5,0.3,0.9,0.6,1.2c-1.2,0-2.1-0.2-2.6-0.7c-0.6-0.5-0.9-1.3-0.9-2.3c0-0.7,0.1-1.3,0.3-1.9
		s0.5-1.2,0.9-1.8s0.8-1,1.3-1.5c0.5-0.5,1.1-0.8,1.7-1.2s1.3-0.6,2-0.8s1.5-0.3,2.3-0.3c0.4,0,0.8,0,1.1,0.1
		c0.3,0.1,0.7,0.2,1.1,0.3l3.4,15l3.1-15.2L121,14.1L121,14.1z"/>
	<path class="st0" d="M134.3,30.2c-0.4,0.9-0.9,1.7-1.5,2.4c-0.6,0.7-1.3,1.2-2.1,1.6c-0.7,0.4-1.5,0.7-2.3,0.9
		c-0.8,0.2-1.5,0.3-2.1,0.3c-1,0-1.9-0.1-2.7-0.4s-1.4-0.6-1.9-1.2s-0.9-1.3-1.1-2.1c-0.3-0.9-0.4-1.9-0.4-3.2c0-0.6,0-1.3,0.1-2.1
		c0.1-0.8,0.2-1.5,0.4-2.3c0.2-0.8,0.4-1.6,0.7-2.4s0.6-1.6,1-2.3s0.8-1.5,1.3-2.1c0.5-0.7,1.1-1.2,1.7-1.7c0.6-0.5,1.3-0.9,2.1-1.1
		c0.8-0.3,1.6-0.4,2.5-0.4c0.6,0,1.3,0.1,1.8,0.2c0.6,0.1,1.1,0.4,1.5,0.7s0.8,0.7,1,1.2c0.2,0.5,0.4,1,0.4,1.7c0,0.4,0,0.7-0.1,1
		s-0.2,0.6-0.3,0.8c-0.2,0.2-0.4,0.4-0.6,0.5c-0.3,0.1-0.6,0.2-0.9,0.2c-0.2,0-0.5,0-0.8-0.1s-0.6-0.3-0.8-0.6
		c0.2-0.1,0.3-0.2,0.5-0.4c0.2-0.2,0.3-0.4,0.4-0.6c0.1-0.2,0.2-0.5,0.3-0.8c0.1-0.3,0.1-0.5,0.1-0.8c0-0.2,0-0.4-0.1-0.6
		c-0.1-0.2-0.2-0.4-0.3-0.5s-0.3-0.3-0.5-0.4s-0.5-0.1-0.8-0.1c-0.5,0-1,0.2-1.5,0.6c-0.5,0.4-0.9,0.9-1.4,1.6
		c-0.4,0.7-0.8,1.4-1.2,2.3c-0.4,0.9-0.7,1.8-0.9,2.7c-0.3,1-0.5,2-0.6,3c-0.1,1-0.2,2-0.2,3c0,0.6,0,1.2,0.1,1.8s0.3,1,0.5,1.4
		c0.2,0.4,0.6,0.7,1,0.9c0.4,0.2,1,0.3,1.7,0.3c1.1,0,2.1-0.2,3.1-0.7c0.9-0.5,1.7-1.2,2.4-2.1L134.3,30.2z"/>
	<path class="st0" d="M141.3,35l1.9-8.6l-2.7-10.5c-1.3,0.5-2.3,1.3-3.1,2.3c-0.7,1-1.1,2.4-1.1,3.9c0,0.4,0,0.6,0.1,0.9
		s0.1,0.4,0.1,0.5c0,0.1,0.1,0.2,0.1,0.3s0.1,0.1,0.1,0.2c-0.5,0-0.9,0-1.3-0.1c-0.4-0.1-0.7-0.2-0.9-0.5c-0.3-0.2-0.4-0.5-0.6-0.8
		c-0.1-0.3-0.2-0.8-0.2-1.3c0-0.6,0.1-1.2,0.4-1.8s0.6-1.2,1.1-1.7s1-1,1.7-1.5c0.6-0.5,1.3-0.8,2-1.2s1.5-0.6,2.3-0.8
		c0.8-0.2,1.6-0.3,2.4-0.3c0.2,0,0.4,0,0.6,0s0.4,0,0.5,0l2.4,10l4.1-9.9h1.9l-5.4,12.2l-1.8,8.6C145.8,35,141.3,35,141.3,35z"/>
	<path class="st0" d="M170.5,30.2c-0.4,0.8-0.9,1.6-1.4,2.2c-0.6,0.6-1.2,1.2-2,1.7s-1.5,0.8-2.3,1s-1.7,0.4-2.5,0.4
		c-0.9,0-1.7-0.1-2.3-0.4c-0.7-0.3-1.2-0.6-1.6-1.1c-0.4-0.5-0.7-1-0.9-1.6c-0.2-0.6-0.3-1.2-0.3-1.9c0-0.7,0.1-1.5,0.4-2.3
		c0.2-0.8,0.6-1.5,1-2.2c0.4-0.7,1-1.3,1.6-1.8s1.4-0.9,2.2-1.1c-0.6-0.4-1-0.9-1.3-1.5c-0.3-0.6-0.4-1.2-0.4-1.8
		c0-0.7,0.2-1.4,0.5-2.2c0.3-0.7,0.7-1.4,1.3-1.9c0.5-0.6,1.2-1,1.9-1.4s1.6-0.5,2.5-0.5c0.6,0,1.1,0.1,1.6,0.2
		c0.5,0.2,0.9,0.4,1.3,0.7c0.4,0.3,0.6,0.7,0.9,1.1c0.2,0.4,0.3,0.9,0.3,1.5c0,0.4-0.1,0.8-0.2,1.2s-0.3,0.7-0.5,0.9
		s-0.4,0.5-0.7,0.6c-0.3,0.1-0.5,0.2-0.8,0.2c-0.5,0-0.9-0.3-1.3-0.8c0.2-0.1,0.3-0.2,0.5-0.3s0.3-0.4,0.4-0.6
		c0.1-0.2,0.2-0.5,0.3-0.7c0.1-0.3,0.1-0.5,0.1-0.8c0-0.3,0-0.5-0.1-0.7c-0.1-0.2-0.2-0.4-0.3-0.5c-0.1-0.1-0.3-0.2-0.5-0.3
		c-0.2-0.1-0.4-0.1-0.6-0.1c-0.4,0-0.8,0.1-1.2,0.3c-0.4,0.2-0.7,0.5-0.9,0.9c-0.3,0.4-0.4,0.8-0.6,1.3c-0.1,0.5-0.2,1-0.2,1.4
		c0,0.4,0.1,0.8,0.2,1.2c0.1,0.4,0.3,0.8,0.5,1.1s0.5,0.6,0.9,0.9c0.4,0.3,0.8,0.4,1.3,0.6c-0.5,0.1-1,0.3-1.4,0.5
		c-0.4,0.3-0.8,0.6-1.2,0.9s-0.7,0.7-1,1.2c-0.3,0.4-0.5,0.9-0.7,1.3s-0.4,0.9-0.5,1.4S162,29.6,162,30c0,0.4,0.1,0.8,0.1,1.1
		c0.1,0.3,0.3,0.6,0.5,0.9c0.2,0.3,0.5,0.5,0.8,0.6c0.3,0.1,0.7,0.2,1.2,0.2c0.4,0,0.9-0.1,1.4-0.2c0.5-0.1,1-0.3,1.5-0.5
		c0.5-0.2,0.9-0.5,1.3-0.9s0.7-0.8,1-1.2L170.5,30.2z"/>
	<path class="st0" d="M180.8,35l-1.5-7l-4.1,7h-1.7l5.3-9.3l-2.1-9.8c-1.3,0.5-2.3,1.3-3.1,2.3c-0.7,1-1.1,2.4-1.1,3.9
		c0,0.4,0,0.6,0.1,0.9s0.1,0.4,0.1,0.5c0,0.1,0.1,0.2,0.1,0.3s0.1,0.1,0.1,0.2c-0.5,0-0.9,0-1.3-0.1c-0.4-0.1-0.7-0.2-0.9-0.5
		c-0.3-0.2-0.4-0.5-0.6-0.8c-0.1-0.3-0.2-0.8-0.2-1.3c0-0.6,0.1-1.2,0.4-1.8s0.6-1.2,1.1-1.7s1-1,1.7-1.5c0.6-0.5,1.3-0.8,2-1.2
		s1.5-0.6,2.3-0.8c0.8-0.2,1.6-0.3,2.4-0.3c0.2,0,0.4,0,0.6,0s0.4,0,0.5,0l1.2,5.8l3.3-5.7h2l-4.7,8.1l2.6,12.7
		C185.3,35,180.8,35,180.8,35z"/>
	<path class="st0" d="M189.8,35l4-19c-1.2,0.5-2.2,1.3-2.9,2.3s-1,2.3-1,3.8c0,0.4,0,0.6,0.1,0.9s0.1,0.4,0.1,0.5
		c0,0.1,0.1,0.2,0.1,0.3s0.1,0.1,0.1,0.2c-0.5,0-0.9,0-1.3-0.1c-0.4-0.1-0.7-0.2-0.9-0.5c-0.3-0.2-0.4-0.5-0.6-0.8
		c-0.1-0.3-0.2-0.8-0.2-1.3c0-0.6,0.1-1.2,0.4-1.8s0.6-1.2,1.1-1.7s1-1,1.7-1.5c0.6-0.5,1.3-0.8,2-1.2s1.5-0.6,2.3-0.8
		c0.8-0.2,1.6-0.3,2.4-0.3c0.2,0,0.4,0,0.6,0s0.4,0,0.5,0L193.8,35L189.8,35L189.8,35z"/>
	<path class="st0" d="M202.1,35l4-18.5h-0.3c-0.7,0-1.4,0.1-2.1,0.3s-1.2,0.5-1.7,0.9c-0.5,0.4-0.8,1-1.1,1.7
		c-0.3,0.7-0.4,1.7-0.4,2.8c0,0.4,0,0.6,0.1,0.9s0.1,0.4,0.1,0.5c0,0.1,0.1,0.2,0.1,0.3s0.1,0.1,0.1,0.2c-0.5,0-0.9,0-1.3-0.1
		c-0.4-0.1-0.7-0.2-0.9-0.5c-0.3-0.2-0.4-0.5-0.6-0.8c-0.1-0.3-0.2-0.8-0.2-1.3c0-0.9,0.2-1.8,0.5-2.7c0.3-0.9,0.9-1.7,1.7-2.3
		c0.8-0.7,1.7-1.2,3-1.6c1.2-0.4,2.7-0.6,4.4-0.6c0.6,0,1.1,0,1.5,0c0.4,0,0.9,0.1,1.2,0.1c0.4,0,0.7,0.1,1.1,0.2
		c0.3,0.1,0.7,0.1,1,0.2s0.7,0.1,1.1,0.1c0.4,0,0.8,0,1.3,0c0.7,0,1.3-0.1,1.8-0.2c0.6-0.1,1-0.3,1.4-0.4c0,1.2-0.4,2.1-0.9,2.7
		s-1.4,0.9-2.6,0.9c-0.7,0-1.4-0.1-2.1-0.2c-0.7-0.1-1.5-0.3-2.2-0.4l-3.9,18L202.1,35L202.1,35z"/>
</g>
<path class="st0" d="M225.2,46H0.2V0.2h225V46z M1.2,45h223V1.2H1.2V45z"/>
</svg>
