<?xml version="1.0" encoding="utf-8"?>
<!-- Generator: Adobe Illustrator 22.0.1, SVG Export Plug-In . SVG Version: 6.00 Build 0)  -->
<svg version="1.1" id="Layer_1" xmlns="http://www.w3.org/2000/svg" xmlns:xlink="http://www.w3.org/1999/xlink" x="0px" y="0px"
	 viewBox="0 0 225.4 46.2" style="enable-background:new 0 0 225.4 46.2;" xml:space="preserve">
<style type="text/css">
	.st0{fill:#83CEC1;}
</style>
<g>
	<path class="st0" d="M24.7,16v2.2h-11v4h8.9v2.2h-8.9v4h11v2.2H11.5V16C11.5,16,24.7,16,24.7,16z"/>
	<path class="st0" d="M34.9,22.7l5.6-6.7h2.6v14.4h-2.2V18.9l-6,7.1l-6-7.1v11.5h-2.2V16h2.6L34.9,22.7z"/>
	<path class="st0" d="M58.5,16v2.2h-11v4h8.9v2.2h-8.9v4h11v2.2H45.3V16C45.3,16,58.5,16,58.5,16z"/>
	<path class="st0" d="M75,18.7v4c0,0.7-0.3,1.3-0.8,1.8c-0.5,0.5-1.1,0.8-1.8,0.8h-1.5l4.1,4.8v0.3h-2.6l-4.3-5.1h-4.9
		c-0.1,0-0.3,0-0.4,0v5.2h-2.2V16.1h11.8c0.7,0,1.3,0.3,1.8,0.8C74.7,17.3,75,17.9,75,18.7z M63.2,23.1h9.2c0.1,0,0.2,0,0.3-0.1
		s0.1-0.2,0.1-0.3v-4c0-0.1,0-0.2-0.1-0.3s-0.2-0.1-0.3-0.1h-9.2c-0.1,0-0.2,0-0.3,0.1s-0.1,0.2-0.1,0.3v4c0,0.1,0,0.2,0.1,0.3
		S63.1,23.1,63.2,23.1z"/>
	<path class="st0" d="M91.5,18.6v0.9h-2.2v-0.9c0-0.1,0-0.2-0.1-0.3c-0.1-0.1-0.2-0.1-0.3-0.1h-9.2c-0.1,0-0.2,0-0.3,0.1
		c-0.1,0.1-0.1,0.2-0.1,0.3v9.2c0,0.1,0,0.2,0.1,0.3s0.2,0.1,0.3,0.1h9.2c0.1,0,0.2,0,0.3-0.1c0.1-0.1,0.1-0.2,0.1-0.3v-3.1H86v-2.2
		h5.6v5.3c0,0.7-0.3,1.3-0.8,1.8s-1.1,0.8-1.8,0.8h-9.2c-0.7,0-1.3-0.3-1.8-0.8s-0.8-1.1-0.8-1.8v-9.2c0-0.7,0.3-1.3,0.8-1.8
		S79,16,79.7,16h9.2c0.7,0,1.3,0.3,1.8,0.8S91.5,17.9,91.5,18.6z"/>
	<path class="st0" d="M107,16v2.2h-11v4h8.9v2.2h-8.9v4h11v2.2H93.8V16C93.8,16,107,16,107,16z"/>
	<path class="st0" d="M121.3,27.6V16h2.2v14.4h-2.6l-9.7-11.5v11.5H109V16h2.6L121.3,27.6z"/>
	<path class="st0" d="M140,18.2h-11.8c-0.1,0-0.2,0-0.3,0.1c-0.1,0.1-0.1,0.2-0.1,0.3v9.2c0,0.1,0,0.2,0.1,0.3
		c0.1,0.1,0.2,0.1,0.3,0.1H140v2.2h-11.8c-0.7,0-1.3-0.3-1.8-0.8s-0.8-1.1-0.8-1.8v-9.2c0-0.7,0.3-1.3,0.8-1.8s1.1-0.8,1.8-0.8H140
		V18.2z"/>
	<path class="st0" d="M154.2,16h2.6l-6.6,9v5.4H148V25l-6.6-9h2.5l5.2,6.6L154.2,16z"/>
	<path class="st0" d="M177.3,16v2.2h-11v4h8.9v2.2h-8.9v4h11v2.2h-13.2V16C164.1,16,177.3,16,177.3,16z"/>
	<path class="st0" d="M191,16h2.6v0.3l-5.8,6.9l5.8,6.9v0.3H191l-4.6-5.5l-4.6,5.5h-2.6v-0.3l5.8-6.9l-5.8-6.9V16h2.6l4.6,5.5
		L191,16z"/>
	<path class="st0" d="M195.6,30.4V16h2.2v14.4H195.6z"/>
	<path class="st0" d="M199.3,16h14.4v2.2h-6.1v12.2h-2.2V18.2h-6.1V16z"/>
</g>
<path class="st0" d="M225.2,46H0.2V0.2h225V46z M1.2,45h223V1.2H1.2V45z"/>
</svg>
