<?xml version="1.0" encoding="utf-8"?>
<!-- Generator: Adobe Illustrator 22.0.1, SVG Export Plug-In . SVG Version: 6.00 Build 0)  -->
<svg version="1.1" id="Layer_1" xmlns="http://www.w3.org/2000/svg" xmlns:xlink="http://www.w3.org/1999/xlink" x="0px" y="0px"
	 viewBox="0 0 225.4 38" style="enable-background:new 0 0 225.4 38;" xml:space="preserve">
<style type="text/css">
	.st0{fill:#D4D2CD;}
	.st1{fill:#83CEC1;}
</style>
<g>
	<path class="st0" d="M20.5,19.5l7.2-8.5h2.7v17.3h-1.9V13.2l-7.9,9.4l-7.9-9.4v15.1h-1.9V11h2.7L20.5,19.5z"/>
	<path class="st0" d="M32.9,9.8h2v2h-2V9.8z M32.9,28.3V14.3h2v13.9H32.9z"/>
	<path class="st0" d="M52,17.2v0.2h-2v-0.2c0-0.3-0.1-0.5-0.3-0.7s-0.4-0.3-0.7-0.3h-8.4c-0.3,0-0.5,0.1-0.7,0.3
		c-0.2,0.2-0.3,0.4-0.3,0.7v2.1c0,0.3,0.1,0.5,0.3,0.7c0.2,0.2,0.4,0.3,0.7,0.3H49c0.8,0,1.5,0.3,2.1,0.9s0.9,1.3,0.9,2.1v2.1
		c0,0.8-0.3,1.5-0.9,2.1c-0.6,0.6-1.3,0.9-2.1,0.9h-8.4c-0.8,0-1.5-0.3-2.1-0.9s-0.9-1.3-0.9-2.1v-0.2h2v0.2c0,0.3,0.1,0.5,0.3,0.7
		c0.2,0.2,0.4,0.3,0.7,0.3H49c0.3,0,0.5-0.1,0.7-0.3c0.2-0.2,0.3-0.4,0.3-0.7v-2.1c0-0.3-0.1-0.5-0.3-0.7c-0.2-0.2-0.4-0.3-0.7-0.3
		h-8.4c-0.8,0-1.5-0.3-2.1-0.9c-0.6-0.6-0.9-1.3-0.9-2.1v-2.1c0-0.8,0.3-1.5,0.9-2.1c0.6-0.6,1.3-0.9,2.1-0.9H49
		c0.8,0,1.5,0.3,2.1,0.9C51.7,15.8,52,16.4,52,17.2z"/>
	<path class="st0" d="M68.4,17.2v0.2h-2v-0.2c0-0.3-0.1-0.5-0.3-0.7s-0.4-0.3-0.7-0.3h-8.4c-0.3,0-0.5,0.1-0.7,0.3
		c-0.2,0.2-0.3,0.4-0.3,0.7v2.1c0,0.3,0.1,0.5,0.3,0.7c0.2,0.2,0.4,0.3,0.7,0.3h8.4c0.8,0,1.5,0.3,2.1,0.9s0.9,1.3,0.9,2.1v2.1
		c0,0.8-0.3,1.5-0.9,2.1c-0.6,0.6-1.3,0.9-2.1,0.9h-8.4c-0.8,0-1.5-0.3-2.1-0.9s-0.9-1.3-0.9-2.1v-0.2h2v0.2c0,0.3,0.1,0.5,0.3,0.7
		c0.2,0.2,0.4,0.3,0.7,0.3h8.4c0.3,0,0.5-0.1,0.7-0.3c0.2-0.2,0.3-0.4,0.3-0.7v-2.1c0-0.3-0.1-0.5-0.3-0.7c-0.2-0.2-0.4-0.3-0.7-0.3
		h-8.4c-0.8,0-1.5-0.3-2.1-0.9c-0.6-0.6-0.9-1.3-0.9-2.1v-2.1c0-0.8,0.3-1.5,0.9-2.1c0.6-0.6,1.3-0.9,2.1-0.9h8.4
		c0.8,0,1.5,0.3,2.1,0.9C68.1,15.8,68.4,16.4,68.4,17.2z"/>
	<path class="st0" d="M70.8,9.8h2v2h-2V9.8z M70.8,28.3V14.3h2v13.9H70.8z"/>
	<path class="st0" d="M78.7,14.3H87c0.8,0,1.5,0.3,2.1,0.9c0.6,0.6,0.9,1.3,0.9,2.1v8.1c0,0.8-0.3,1.5-0.9,2.1
		c-0.6,0.6-1.3,0.9-2.1,0.9h-8.4c-0.8,0-1.5-0.3-2.1-0.9s-0.9-1.3-0.9-2.1v-8.1c0-0.8,0.3-1.5,0.9-2.1
		C77.2,14.6,77.9,14.3,78.7,14.3z M87,16.3h-8.4c-0.3,0-0.5,0.1-0.7,0.3s-0.3,0.4-0.3,0.7v8.1c0,0.3,0.1,0.5,0.3,0.7
		c0.2,0.2,0.4,0.3,0.7,0.3H87c0.3,0,0.5-0.1,0.7-0.3c0.2-0.2,0.3-0.4,0.3-0.7v-8.1c0-0.3-0.1-0.5-0.3-0.7
		C87.5,16.4,87.3,16.3,87,16.3z"/>
	<path class="st0" d="M103.4,14.3c0.8,0,1.5,0.3,2.1,0.9c0.6,0.6,0.9,1.3,0.9,2.1v11h-2v-11c0-0.3-0.1-0.5-0.3-0.7
		c-0.2-0.2-0.4-0.3-0.7-0.3H95c-0.3,0-0.5,0.1-0.7,0.3c-0.2,0.2-0.3,0.4-0.3,0.7v11h-2V14.3H103.4z"/>
	<path class="st0" d="M123.3,16.3h-6v9c0,0.3,0.1,0.5,0.3,0.7c0.2,0.2,0.4,0.3,0.7,0.3h5.1v2h-5.1c-0.8,0-1.5-0.3-2.1-0.9
		c-0.6-0.6-0.8-1.3-0.8-2.1V9.8h2v4.6h6V16.3z"/>
	<path class="st0" d="M128,14.3h8.4c0.8,0,1.5,0.3,2.1,0.9c0.6,0.6,0.9,1.3,0.9,2.1v8.1c0,0.8-0.3,1.5-0.9,2.1
		c-0.6,0.6-1.3,0.9-2.1,0.9H128c-0.8,0-1.5-0.3-2.1-0.9c-0.6-0.6-0.9-1.3-0.9-2.1v-8.1c0-0.8,0.3-1.5,0.9-2.1
		C126.5,14.6,127.2,14.3,128,14.3z M136.3,16.3H128c-0.3,0-0.5,0.1-0.7,0.3s-0.3,0.4-0.3,0.7v8.1c0,0.3,0.1,0.5,0.3,0.7
		c0.2,0.2,0.4,0.3,0.7,0.3h8.4c0.3,0,0.5-0.1,0.7-0.3c0.2-0.2,0.3-0.4,0.3-0.7v-8.1c0-0.3-0.1-0.5-0.3-0.7
		C136.8,16.4,136.6,16.3,136.3,16.3z"/>
</g>
<g>
	<path class="st1" d="M158.2,19.5l7.2-8.5h2.7v17.3h-1.9V13.2l-7.9,9.4l-7.9-9.4v15.1h-1.9V11h2.7L158.2,19.5z"/>
	<path class="st1" d="M181.8,14.3c0.8,0,1.5,0.3,2.1,0.9c0.6,0.6,0.9,1.3,0.9,2.1v11h-11.3c-0.8,0-1.5-0.3-2.1-0.9
		c-0.6-0.6-0.9-1.3-0.9-2.1v-5h12.2v-3.1c0-0.3-0.1-0.5-0.3-0.7c-0.2-0.2-0.4-0.3-0.7-0.3h-11.3v-2L181.8,14.3L181.8,14.3z
		 M182.7,26.3v-4h-10.2v3.1c0,0.3,0.1,0.5,0.3,0.7c0.2,0.2,0.4,0.3,0.7,0.3L182.7,26.3L182.7,26.3z"/>
	<path class="st1" d="M190,14.3h7.8v2H190c-0.3,0-0.5,0.1-0.7,0.3c-0.2,0.2-0.3,0.4-0.3,0.7v11h-2v-11c0-0.8,0.3-1.5,0.9-2.1
		C188.5,14.6,189.2,14.3,190,14.3z"/>
	<path class="st1" d="M213.4,17.2v0.2h-2v-0.2c0-0.3-0.1-0.5-0.3-0.7c-0.2-0.2-0.4-0.3-0.7-0.3h-8.4c-0.3,0-0.5,0.1-0.7,0.3
		c-0.2,0.2-0.3,0.4-0.3,0.7v2.1c0,0.3,0.1,0.5,0.3,0.7c0.2,0.2,0.4,0.3,0.7,0.3h8.4c0.8,0,1.5,0.3,2.1,0.9c0.6,0.6,0.9,1.3,0.9,2.1
		v2.1c0,0.8-0.3,1.5-0.9,2.1c-0.6,0.6-1.3,0.9-2.1,0.9h-8.4c-0.8,0-1.5-0.3-2.1-0.9c-0.6-0.6-0.9-1.3-0.9-2.1v-0.2h2v0.2
		c0,0.3,0.1,0.5,0.3,0.7c0.2,0.2,0.4,0.3,0.7,0.3h8.4c0.3,0,0.5-0.1,0.7-0.3s0.3-0.4,0.3-0.7v-2.1c0-0.3-0.1-0.5-0.3-0.7
		c-0.2-0.2-0.4-0.3-0.7-0.3h-8.4c-0.8,0-1.5-0.3-2.1-0.9c-0.6-0.6-0.9-1.3-0.9-2.1v-2.1c0-0.8,0.3-1.5,0.9-2.1
		c0.6-0.6,1.3-0.9,2.1-0.9h8.4c0.8,0,1.5,0.3,2.1,0.9C213.2,15.8,213.4,16.4,213.4,17.2z"/>
</g>
<rect x="0.4" y="36.7" class="st1" width="224.5" height="1"/>
<rect x="0.4" y="0.3" class="st1" width="224.5" height="1"/>
</svg>
