<?xml version="1.0" encoding="utf-8"?>
<!-- Generator: Adobe Illustrator 22.0.1, SVG Export Plug-In . SVG Version: 6.00 Build 0)  -->
<svg version="1.1" id="Layer_1" xmlns="http://www.w3.org/2000/svg" xmlns:xlink="http://www.w3.org/1999/xlink" x="0px" y="0px"
	 viewBox="0 0 225.4 38" style="enable-background:new 0 0 225.4 38;" xml:space="preserve">
<style type="text/css">
	.st0{fill:#D4D2CD;}
	.st1{fill:#83CEC1;}
</style>
<g>
	<path class="st0" d="M36.7,29.1l1.9-13.5L33,29.1h-4.1l0.6-13.5l-5,13.5H22l7.6-20.6c-1.5,0.5-2.7,1.3-3.5,2.5s-1.3,2.6-1.3,4.3
		c0,0.4,0,0.7,0.1,1c0,0.2,0.1,0.4,0.1,0.6s0.1,0.2,0.1,0.3c0,0.1,0.1,0.1,0.1,0.2c-0.5,0-0.9,0-1.3-0.1s-0.7-0.3-1-0.5
		s-0.5-0.5-0.6-0.8c-0.2-0.3-0.2-0.8-0.2-1.3c0-0.6,0.1-1.3,0.4-1.9s0.6-1.3,1.1-1.9c0.5-0.6,1-1.1,1.6-1.7c0.6-0.5,1.3-1,2-1.3
		c0.7-0.4,1.4-0.7,2.2-0.9s1.5-0.3,2.3-0.3c0.8,0,1.5,0.1,2.3,0.4l-0.7,15.8L39.8,7h4.3L41,29.1L36.7,29.1L36.7,29.1z"/>
	<path class="st0" d="M52.9,23.7c-0.3,0.8-0.6,1.5-0.9,2.1s-0.7,1.1-1.1,1.5s-0.8,0.7-1.2,1s-0.8,0.4-1.2,0.6s-0.7,0.2-1.1,0.3
		s-0.6,0.1-0.9,0.1c-0.4,0-0.9-0.1-1.3-0.2s-0.7-0.4-1-0.6s-0.5-0.7-0.7-1.1s-0.2-1-0.2-1.6c0-0.3,0-0.6,0.1-0.9
		c0-0.3,0.1-0.7,0.2-1.1l2-9.6H50l-2.2,10.2c0,0.2-0.1,0.3-0.1,0.5c0,0.2,0,0.3,0,0.5c0,0.4,0.1,0.7,0.3,0.9
		c0.2,0.2,0.5,0.2,0.9,0.2c0.3,0,0.6-0.1,0.9-0.2c0.3-0.1,0.5-0.3,0.8-0.6s0.4-0.5,0.6-0.8c0.2-0.3,0.3-0.7,0.5-1.1L52.9,23.7
		L52.9,23.7z M51,10.1c0,0.3-0.1,0.6-0.2,0.9c-0.1,0.3-0.3,0.5-0.5,0.7s-0.5,0.4-0.8,0.5s-0.6,0.2-0.9,0.2s-0.6-0.1-0.9-0.2
		S47.2,12,47,11.8s-0.4-0.5-0.5-0.7c-0.1-0.3-0.2-0.6-0.2-0.9s0.1-0.6,0.2-0.9s0.3-0.5,0.5-0.8c0.2-0.2,0.5-0.4,0.8-0.5
		s0.6-0.2,0.9-0.2s0.6,0.1,0.9,0.2s0.5,0.3,0.8,0.5c0.2,0.2,0.4,0.5,0.5,0.8S51,9.7,51,10.1z"/>
	<path class="st0" d="M64.4,23.7c-0.8,0.9-1.6,1.7-2.4,2.2s-1.5,1.1-2.2,1.5c-0.3,0.3-0.7,0.6-1,0.8s-0.8,0.4-1.2,0.6
		s-0.8,0.2-1.3,0.3s-0.8,0.1-1.2,0.1c-0.8,0-1.4-0.1-2-0.3c-0.6-0.2-1-0.5-1.4-0.9c-0.4-0.4-0.6-0.8-0.8-1.2
		c-0.2-0.5-0.3-0.9-0.3-1.4c0-0.4,0-0.7,0.1-1c0.1-0.3,0.2-0.6,0.4-0.8s0.3-0.4,0.5-0.6c0.2-0.2,0.4-0.3,0.6-0.4
		c0.8-1.5,1.5-3,2.1-4.5c0.6-1.5,1.1-2.9,1.6-4.4l4.4-0.6c0.1,1.3,0.1,2.4,0.2,3.4c0.1,1,0.1,1.8,0.2,2.5s0.1,1.3,0.1,1.8
		s0.1,0.9,0.1,1.3s0.1,0.7,0.1,1c0,0.3,0,0.6,0,1c0,0.2,0,0.4,0,0.6s0,0.4-0.1,0.5c0.4-0.3,0.8-0.5,1.2-0.8c0.4-0.2,0.7-0.5,1-0.8
		H64.4z M52.3,24.8c0,0.7,0.1,1.2,0.4,1.6s0.8,0.5,1.4,0.5c0.3,0,0.7,0,1-0.1s0.6-0.2,0.8-0.5c0.2-0.2,0.4-0.5,0.6-0.9
		s0.2-0.8,0.2-1.3c0-0.3,0-0.5,0-0.7c0-0.2,0-0.5-0.1-0.8c0-0.3,0-0.6-0.1-0.9s-0.1-0.7-0.1-1.2s-0.1-0.9-0.1-1.5s-0.1-1.2-0.2-2
		c-0.3,1-0.7,1.9-1.1,2.8s-0.9,1.9-1.4,2.8c0.2,0.1,0.4,0.2,0.5,0.4s0.2,0.4,0.2,0.6c0,0.2,0,0.4-0.1,0.5s-0.1,0.3-0.3,0.5
		S53.8,25,53.6,25c-0.2,0.1-0.3,0.1-0.5,0.1c-0.2,0-0.3,0-0.5-0.1S52.4,24.9,52.3,24.8z"/>
	<path class="st0" d="M75.8,23.7c-0.8,0.9-1.6,1.7-2.4,2.2s-1.5,1.1-2.2,1.5c-0.3,0.3-0.7,0.6-1,0.8s-0.8,0.4-1.2,0.6
		s-0.8,0.2-1.3,0.3s-0.8,0.1-1.2,0.1c-0.8,0-1.4-0.1-2-0.3c-0.6-0.2-1-0.5-1.4-0.9c-0.4-0.4-0.6-0.8-0.8-1.2
		c-0.2-0.5-0.3-0.9-0.3-1.4c0-0.4,0-0.7,0.1-1c0.1-0.3,0.2-0.6,0.4-0.8s0.3-0.4,0.5-0.6c0.2-0.2,0.4-0.3,0.6-0.4
		c0.8-1.5,1.5-3,2.1-4.5c0.6-1.5,1.1-2.9,1.6-4.4l4.4-0.6c0.1,1.3,0.1,2.4,0.2,3.4c0.1,1,0.1,1.8,0.2,2.5s0.1,1.3,0.1,1.8
		s0.1,0.9,0.1,1.3s0.1,0.7,0.1,1c0,0.3,0,0.6,0,1c0,0.2,0,0.4,0,0.6s0,0.4-0.1,0.5c0.4-0.3,0.8-0.5,1.2-0.8c0.4-0.2,0.7-0.5,1-0.8
		H75.8z M63.7,24.8c0,0.7,0.1,1.2,0.4,1.6c0.3,0.3,0.7,0.5,1.4,0.5c0.3,0,0.7,0,1-0.1s0.6-0.2,0.8-0.5c0.2-0.2,0.4-0.5,0.6-0.9
		s0.2-0.8,0.2-1.3c0-0.3,0-0.5,0-0.7c0-0.2,0-0.5-0.1-0.8c0-0.3,0-0.6-0.1-0.9s-0.1-0.7-0.1-1.2s-0.1-0.9-0.1-1.5s-0.1-1.2-0.2-2
		c-0.3,1-0.7,1.9-1.1,2.8s-0.9,1.9-1.4,2.8c0.2,0.1,0.4,0.2,0.5,0.4s0.2,0.4,0.2,0.6c0,0.2,0,0.4-0.1,0.5s-0.1,0.3-0.3,0.5
		S65.3,25,65.1,25c-0.2,0.1-0.3,0.1-0.6,0.1c-0.2,0-0.3,0-0.5-0.1C63.9,25,63.8,24.9,63.7,24.8z"/>
	<path class="st0" d="M83.8,23.7c-0.3,0.8-0.6,1.5-0.9,2.1s-0.7,1.1-1.1,1.5s-0.8,0.7-1.2,1s-0.8,0.4-1.2,0.6s-0.7,0.2-1.1,0.3
		s-0.6,0.1-0.9,0.1c-0.4,0-0.9-0.1-1.3-0.2s-0.7-0.4-1-0.6s-0.5-0.7-0.7-1.1s-0.2-1-0.2-1.6c0-0.3,0-0.6,0.1-0.9
		c0-0.3,0.1-0.7,0.2-1.1l2-9.6h4.3l-2.2,10.2c0,0.2-0.1,0.3-0.1,0.5c0,0.2,0,0.3,0,0.5c0,0.4,0.1,0.7,0.3,0.9
		c0.2,0.2,0.5,0.2,0.9,0.2c0.3,0,0.6-0.1,0.9-0.2c0.3-0.1,0.5-0.3,0.8-0.6s0.4-0.5,0.6-0.8c0.2-0.3,0.3-0.7,0.5-1.1L83.8,23.7
		L83.8,23.7z M82,10.1c0,0.3-0.1,0.6-0.2,0.9c-0.1,0.3-0.3,0.5-0.5,0.7s-0.5,0.4-0.8,0.5s-0.6,0.2-0.9,0.2s-0.6-0.1-0.9-0.2
		s-0.5-0.3-0.8-0.5s-0.4-0.5-0.5-0.7c-0.1-0.3-0.2-0.6-0.2-0.9s0.1-0.6,0.2-0.9s0.3-0.5,0.5-0.8c0.2-0.2,0.5-0.4,0.8-0.5
		s0.6-0.2,0.9-0.2s0.6,0.1,0.9,0.2s0.5,0.3,0.8,0.5c0.2,0.2,0.4,0.5,0.5,0.8S82,9.7,82,10.1z"/>
	<path class="st0" d="M99.4,17.7c-0.6,0.6-1.3,1.1-2.3,1.6s-1.9,0.7-3,0.9c-0.1,1.4-0.4,2.6-0.8,3.8s-0.9,2.1-1.6,2.8
		s-1.4,1.4-2.2,1.8s-1.7,0.6-2.6,0.6c-0.7,0-1.3-0.1-1.9-0.3c-0.6-0.2-1.1-0.4-1.5-0.8s-0.8-0.9-1-1.5c-0.2-0.6-0.4-1.3-0.4-2.2
		c0-0.6,0.1-1.3,0.2-2c0.1-0.7,0.3-1.5,0.6-2.3s0.6-1.6,1-2.3s0.9-1.4,1.6-2c0.6-0.6,1.3-1.1,2.1-1.4c0.8-0.4,1.7-0.5,2.7-0.5
		c2.6,0,3.9,1.6,3.9,4.8v0c0,0,0.1,0,0.1,0s0.1,0,0.2,0c0.4,0,0.7-0.1,1.1-0.2c0.4-0.1,0.8-0.2,1.2-0.4s0.8-0.4,1.2-0.6
		c0.4-0.2,0.7-0.4,1.1-0.7L99.4,17.7z M91.6,20.2c-0.3-0.1-0.5-0.2-0.6-0.5s-0.2-0.5-0.2-0.8c0-0.4,0.1-0.8,0.3-1
		c0.2-0.3,0.4-0.5,0.7-0.6c0-0.3-0.1-0.6-0.1-0.8c0-0.2-0.1-0.4-0.2-0.5c-0.1-0.1-0.2-0.2-0.3-0.3s-0.3-0.1-0.5-0.1
		c-0.4,0-0.7,0.1-1,0.4c-0.3,0.3-0.6,0.6-0.9,1.1s-0.6,1-0.8,1.6c-0.2,0.6-0.5,1.2-0.6,1.8s-0.3,1.2-0.4,1.9s-0.1,1.2-0.1,1.7
		s0,0.9,0.1,1.2s0.1,0.6,0.3,0.7c0.1,0.2,0.3,0.3,0.5,0.4s0.4,0.1,0.7,0.1c0.4,0,0.7-0.2,1.1-0.5s0.7-0.8,1-1.3s0.6-1.2,0.8-2
		S91.5,21.1,91.6,20.2z"/>
	<path class="st0" d="M94.1,29.1l3.2-15h4.3l-0.3,1.6c0.3-0.4,0.6-0.7,1-0.9c0.3-0.2,0.6-0.4,0.9-0.5s0.6-0.2,0.9-0.2
		s0.5-0.1,0.8-0.1c0.5,0,0.9,0.1,1.3,0.2s0.8,0.3,1.1,0.6s0.5,0.6,0.7,1.1c0.2,0.4,0.2,0.9,0.2,1.5c0,0.4,0,0.8-0.1,1.3
		c-0.1,0.5-0.2,0.9-0.3,1.4c-0.1,0.5-0.2,1-0.3,1.4s-0.2,0.9-0.3,1.4s-0.2,0.8-0.3,1.2s-0.1,0.7-0.1,1c0,0.4,0.1,0.7,0.3,0.9
		s0.5,0.4,0.9,0.4c0.5,0,0.8-0.1,1-0.2c-0.1,0.5-0.2,1-0.4,1.4s-0.5,0.7-0.7,1s-0.6,0.4-1,0.6s-0.8,0.2-1.1,0.2
		c-0.6,0-1.1-0.1-1.4-0.3c-0.4-0.2-0.7-0.4-0.9-0.8s-0.4-0.7-0.5-1.1s-0.1-0.8-0.1-1.3c0-0.5,0.1-1.1,0.2-1.8
		c0.1-0.7,0.3-1.4,0.5-2.1s0.3-1.4,0.5-2.1s0.2-1.2,0.2-1.7c0-1-0.4-1.5-1.1-1.5c-0.3,0-0.5,0.1-0.8,0.2s-0.4,0.3-0.6,0.6
		c-0.2,0.2-0.4,0.5-0.5,0.9c-0.2,0.3-0.3,0.7-0.4,1.1l-2,9.6L94.1,29.1L94.1,29.1z"/>
	<path class="st0" d="M124.7,23.7c-0.3,0.8-0.6,1.5-0.9,2.1c-0.3,0.6-0.7,1.1-1.1,1.5c-0.4,0.4-0.8,0.7-1.2,1
		c-0.4,0.3-0.8,0.4-1.1,0.6s-0.7,0.2-1.1,0.3c-0.3,0-0.6,0.1-0.9,0.1c-0.4,0-0.9-0.1-1.3-0.2s-0.7-0.4-1-0.6s-0.5-0.7-0.7-1.1
		s-0.2-1-0.2-1.6c0-0.3,0-0.6,0.1-0.9c0-0.3,0.1-0.7,0.2-1.1l1.8-8.4h-1l0.2-1.2h1l0.9-4.1l4.4-0.6l-1,4.7h1.8l-0.2,1.2h-1.8l-1.9,9
		c0,0.2-0.1,0.3-0.1,0.5c0,0.2,0,0.3,0,0.5c0,0.4,0.1,0.7,0.3,0.9c0.2,0.2,0.5,0.2,0.9,0.2c0.3,0,0.6-0.1,0.9-0.2
		c0.3-0.1,0.5-0.3,0.8-0.6s0.4-0.5,0.6-0.8c0.2-0.3,0.3-0.7,0.5-1.1L124.7,23.7L124.7,23.7z"/>
	<path class="st0" d="M138,15.8c-0.2,0.3-0.3,0.7-0.5,1c-0.2,0.4-0.4,0.7-0.7,1.1c-0.2,0.4-0.5,0.7-0.8,1c-0.3,0.3-0.7,0.6-1.1,0.8
		c-0.1,1.4-0.3,2.7-0.7,3.9s-0.9,2.1-1.5,3c-0.6,0.8-1.4,1.4-2.2,1.9c-0.8,0.4-1.7,0.7-2.7,0.7c-0.7,0-1.3-0.1-1.9-0.3
		c-0.6-0.2-1.1-0.4-1.5-0.8c-0.4-0.4-0.8-0.9-1-1.5c-0.2-0.6-0.4-1.3-0.4-2.2c0-0.6,0.1-1.3,0.2-2c0.1-0.7,0.3-1.5,0.6-2.3
		s0.6-1.6,1-2.3c0.4-0.8,0.9-1.4,1.5-2c0.6-0.6,1.3-1.1,2.1-1.4c0.8-0.4,1.7-0.5,2.8-0.5c2.4,0,3.6,1.3,3.8,4
		c0.3-0.1,0.5-0.2,0.7-0.3c0.2-0.2,0.4-0.4,0.6-0.6s0.3-0.4,0.5-0.6c0.1-0.2,0.3-0.4,0.3-0.5L138,15.8L138,15.8z M132.4,20.2
		c-0.5-0.2-0.7-0.6-0.7-1.3c0-0.8,0.3-1.3,0.9-1.6c0-0.6-0.2-1.1-0.3-1.3c-0.2-0.2-0.4-0.4-0.8-0.4c-0.4,0-0.7,0.1-1,0.4
		c-0.3,0.3-0.6,0.6-0.9,1.1s-0.6,1-0.8,1.6c-0.2,0.6-0.4,1.2-0.6,1.8c-0.2,0.6-0.3,1.2-0.4,1.9s-0.1,1.2-0.1,1.7s0,0.9,0.1,1.2
		s0.1,0.6,0.3,0.7c0.1,0.2,0.3,0.3,0.5,0.4s0.4,0.1,0.7,0.1c0.4,0,0.7-0.2,1.1-0.5c0.4-0.3,0.7-0.8,1-1.3s0.6-1.2,0.8-2
		C132.1,21.9,132.3,21.1,132.4,20.2z"/>
</g>
<g>
	<path class="st1" d="M157.6,29.1l1.9-13.5l-5.6,13.5h-4.1l0.6-13.5l-5,13.5H143l7.6-20.6c-1.5,0.5-2.7,1.3-3.5,2.5
		s-1.3,2.6-1.3,4.3c0,0.4,0,0.7,0.1,1c0,0.2,0.1,0.4,0.1,0.6s0.1,0.2,0.1,0.3c0,0.1,0.1,0.1,0.1,0.2c-0.5,0-0.9,0-1.3-0.1
		c-0.4-0.1-0.7-0.3-1-0.5c-0.3-0.2-0.5-0.5-0.6-0.8c-0.2-0.3-0.2-0.8-0.2-1.3c0-0.6,0.1-1.3,0.4-1.9s0.6-1.3,1.1-1.9
		c0.5-0.6,1-1.1,1.6-1.7c0.6-0.5,1.3-1,2-1.3c0.7-0.4,1.4-0.7,2.2-0.9c0.8-0.2,1.5-0.3,2.3-0.3c0.8,0,1.5,0.1,2.3,0.4l-0.7,15.8
		L160.8,7h4.3L162,29.1L157.6,29.1L157.6,29.1z"/>
	<path class="st1" d="M181.6,23.7c-0.3,0.8-0.6,1.5-0.9,2.1s-0.7,1.1-1,1.5s-0.7,0.7-1.1,1s-0.7,0.4-1.1,0.6s-0.7,0.2-1,0.3
		s-0.6,0.1-0.9,0.1c-0.9,0-1.5-0.2-2-0.7s-0.8-1.2-0.9-2.1c-0.2,0.3-0.5,0.7-0.8,1s-0.6,0.6-1,0.9s-0.8,0.5-1.2,0.6
		c-0.4,0.2-0.9,0.2-1.5,0.2c-0.5,0-1-0.1-1.5-0.2s-0.9-0.4-1.3-0.8s-0.7-0.9-0.9-1.5s-0.3-1.4-0.3-2.3c0-0.7,0.1-1.4,0.2-2.2
		s0.3-1.6,0.6-2.3s0.6-1.5,1.1-2.2c0.4-0.7,0.9-1.4,1.5-1.9c0.6-0.6,1.2-1,1.9-1.3c0.7-0.3,1.5-0.5,2.4-0.5c0.9,0,1.5,0.1,1.9,0.4
		c0.4,0.3,0.6,0.7,0.6,1.1v0.2l0.3-1.6h4.3l-2.2,10.2c0,0.2-0.1,0.3-0.1,0.5c0,0.2,0,0.3,0,0.5c0,0.9,0.4,1.3,1.2,1.3
		c0.3,0,0.6-0.1,0.8-0.2c0.2-0.2,0.5-0.4,0.7-0.6s0.4-0.6,0.5-0.9c0.2-0.3,0.3-0.7,0.4-1.1C180.4,23.7,181.6,23.7,181.6,23.7z
		 M174.1,16.9c0-0.1,0-0.2-0.1-0.3c0-0.1-0.1-0.3-0.2-0.4s-0.2-0.2-0.4-0.3c-0.2-0.1-0.4-0.1-0.6-0.1c-0.4,0-0.8,0.1-1.2,0.4
		c-0.4,0.3-0.7,0.6-1,1.1c-0.3,0.5-0.6,1-0.8,1.5s-0.5,1.2-0.6,1.8s-0.3,1.2-0.4,1.8c-0.1,0.6-0.1,1.1-0.1,1.6c0,0.6,0.1,1,0.2,1.3
		s0.2,0.5,0.4,0.7s0.3,0.2,0.5,0.3s0.3,0,0.5,0c0.2,0,0.5-0.1,0.7-0.2c0.2-0.1,0.5-0.3,0.7-0.5c0.2-0.2,0.4-0.5,0.6-0.8
		c0.2-0.3,0.3-0.7,0.4-1.2L174.1,16.9z"/>
	<path class="st1" d="M179.1,29.1l3.2-15h4.3l-0.4,1.9c0.3-0.2,0.5-0.5,0.8-0.7s0.6-0.4,0.9-0.6c0.3-0.2,0.6-0.3,0.9-0.4
		s0.7-0.2,1-0.2c0.3,0,0.6,0.1,0.9,0.2c0.3,0.1,0.5,0.3,0.7,0.5s0.3,0.4,0.4,0.7s0.1,0.6,0.1,0.8c0,0.3,0,0.5-0.1,0.8
		c-0.1,0.3-0.2,0.5-0.4,0.7c-0.2,0.2-0.4,0.4-0.7,0.5c-0.3,0.1-0.6,0.2-1,0.2c-0.3,0-0.5,0-0.7-0.1c-0.2-0.1-0.3-0.2-0.3-0.4
		s-0.1-0.3-0.2-0.5c0-0.2-0.1-0.3-0.1-0.5s-0.1-0.3-0.2-0.4s-0.2-0.1-0.3-0.1c-0.5,0-0.8,0.1-1.2,0.3c-0.3,0.2-0.7,0.5-1,0.8
		l-2.4,11.4L179.1,29.1L179.1,29.1z"/>
	<path class="st1" d="M200.3,13.1c0.1,1.3,0.1,2.4,0.2,3.4c0.1,1,0.1,1.8,0.2,2.5s0.1,1.3,0.1,1.8s0.1,0.9,0.1,1.3
		c0,0.4,0.1,0.7,0.1,1c0,0.3,0,0.6,0,1c0,0.7-0.1,1.2-0.3,1.8c-0.2,0.5-0.4,1-0.7,1.3c-0.3,0.4-0.7,0.7-1.1,1
		c-0.4,0.3-0.8,0.5-1.3,0.7c-0.4,0.2-0.9,0.3-1.4,0.4c-0.5,0.1-0.9,0.1-1.3,0.1c-0.8,0-1.4-0.1-2-0.3c-0.6-0.2-1-0.5-1.4-0.9
		c-0.4-0.4-0.6-0.8-0.8-1.2c-0.2-0.5-0.3-0.9-0.3-1.4c0-0.4,0-0.7,0.1-1c0.1-0.3,0.2-0.6,0.4-0.8s0.3-0.4,0.5-0.6
		c0.2-0.2,0.4-0.3,0.6-0.4c0.8-1.5,1.5-3,2.1-4.5c0.6-1.5,1.1-2.9,1.6-4.4L200.3,13.1z M192.2,24.8c0,0.7,0.1,1.2,0.4,1.6
		c0.3,0.3,0.8,0.5,1.4,0.5c0.3,0,0.7,0,1-0.1s0.6-0.2,0.8-0.5c0.2-0.2,0.4-0.5,0.6-0.9s0.2-0.8,0.2-1.3c0-0.3,0-0.5,0-0.7
		c0-0.2,0-0.5-0.1-0.8c0-0.3,0-0.6-0.1-0.9s-0.1-0.7-0.1-1.2c0-0.4-0.1-0.9-0.1-1.5s-0.1-1.2-0.2-2c-0.3,1-0.7,1.9-1.1,2.8
		s-0.9,1.9-1.4,2.8c0.2,0.1,0.4,0.2,0.5,0.4c0.1,0.2,0.2,0.4,0.2,0.6c0,0.2,0,0.4-0.1,0.5s-0.1,0.3-0.3,0.5s-0.3,0.3-0.4,0.3
		c-0.2,0.1-0.3,0.1-0.5,0.1c-0.2,0-0.3,0-0.5-0.1S192.3,24.9,192.2,24.8z"/>
</g>
<rect x="0.4" y="36.7" class="st1" width="224.5" height="1"/>
<rect x="0.4" y="0.3" class="st1" width="224.5" height="1"/>
</svg>
