<?xml version="1.0" encoding="utf-8"?>
<!-- Generator: Adobe Illustrator 22.0.1, SVG Export Plug-In . SVG Version: 6.00 Build 0)  -->
<svg version="1.1" id="Layer_1" xmlns="http://www.w3.org/2000/svg" xmlns:xlink="http://www.w3.org/1999/xlink" x="0px" y="0px"
	 viewBox="0 0 225.4 38" style="enable-background:new 0 0 225.4 38;" xml:space="preserve">
<style type="text/css">
	.st0{fill:#D4D2CD;}
	.st1{fill:#83CEC1;}
</style>
<g>
	<path class="st0" d="M36.5,28.3v-21h4.1l3,16.1l3-16.1h4.1v21h-3V11.7l-3,16.6h-2.2l-3-16.6v16.6H36.5z"/>
	<path class="st0" d="M53.8,11.1v-3h3v3H53.8z M53.8,28.3v-15h3v15H53.8z"/>
	<path class="st0" d="M63.6,28.5c-1.2,0-2.2-0.4-3-1.1s-1.3-1.7-1.5-2.9l2.2-0.8c0.5,1.5,1.3,2.2,2.2,2.2c0.5,0,0.8-0.1,1.1-0.4
		s0.4-0.6,0.4-1.1c0-0.7-0.2-1.3-0.8-1.7l-3-2.2c-0.3-0.2-0.6-0.4-0.8-0.6s-0.5-0.4-0.7-0.7s-0.4-0.6-0.5-1s-0.2-0.8-0.2-1.2
		c0-1.3,0.4-2.3,1.2-2.9s1.9-1,3.3-1c0.6,0,1.2,0.1,1.8,0.3s1,0.5,1.3,0.9s0.6,0.8,0.9,1.2s0.4,1,0.5,1.5l-2.2,0.8
		c-0.1-0.3-0.2-0.6-0.3-0.8s-0.3-0.4-0.4-0.7s-0.4-0.4-0.7-0.6s-0.5-0.2-0.8-0.2c-0.5,0-0.8,0.1-1.1,0.4c-0.3,0.3-0.4,0.6-0.4,1.1
		c0,0.5,0.2,0.9,0.8,1.3l3,2.2c0.3,0.3,0.6,0.5,0.9,0.8s0.5,0.5,0.7,0.9s0.4,0.7,0.5,1.1s0.2,0.8,0.2,1.3c0,1.3-0.4,2.3-1.2,2.9
		S64.9,28.5,63.6,28.5z"/>
	<path class="st0" d="M73.8,28.5c-1.2,0-2.2-0.4-3-1.1s-1.3-1.7-1.5-2.9l2.2-0.8c0.5,1.5,1.3,2.2,2.2,2.2c0.5,0,0.8-0.1,1.1-0.4
		s0.4-0.6,0.4-1.1c0-0.7-0.2-1.3-0.8-1.7l-3-2.2c-0.3-0.2-0.6-0.4-0.8-0.6s-0.5-0.4-0.7-0.7s-0.4-0.6-0.5-1s-0.2-0.8-0.2-1.2
		c0-1.3,0.4-2.3,1.2-2.9s1.9-1,3.3-1c0.6,0,1.2,0.1,1.8,0.3s1,0.5,1.3,0.9s0.6,0.8,0.9,1.2s0.4,1,0.5,1.5l-2.2,0.8
		c-0.1-0.3-0.2-0.6-0.3-0.8s-0.3-0.4-0.4-0.7s-0.4-0.4-0.7-0.6s-0.5-0.2-0.8-0.2c-0.5,0-0.8,0.1-1.1,0.4c-0.3,0.3-0.4,0.6-0.4,1.1
		c0,0.5,0.2,0.9,0.8,1.3l3,2.2c0.3,0.3,0.6,0.5,0.9,0.8s0.5,0.5,0.7,0.9s0.4,0.7,0.5,1.1s0.2,0.8,0.2,1.3c0,1.3-0.4,2.3-1.2,2.9
		S75.2,28.5,73.8,28.5z"/>
	<path class="st0" d="M80.3,11.1v-3h3v3H80.3z M80.3,28.3v-15h3v15H80.3z"/>
	<path class="st0" d="M93.9,27.1c-0.7,0.9-1.8,1.4-3.5,1.4s-2.8-0.5-3.5-1.4s-1-2.3-1-4.1v-4.5c0-1.8,0.3-3.1,1-4.1s1.8-1.4,3.5-1.4
		c1.6,0,2.8,0.5,3.5,1.4s1,2.3,1,4.1v4.5C94.9,24.8,94.5,26.2,93.9,27.1z M89.8,26c0.2,0.1,0.3,0.1,0.6,0.1s0.4,0,0.6-0.1
		s0.3-0.1,0.4-0.2s0.2-0.2,0.3-0.4s0.1-0.3,0.2-0.5s0.1-0.3,0.1-0.6s0-0.4,0-0.6s0-0.4,0-0.7v-4.5c0-0.3,0-0.5,0-0.7s0-0.3,0-0.6
		s0-0.4-0.1-0.6s-0.1-0.3-0.2-0.5s-0.2-0.3-0.3-0.4s-0.2-0.2-0.4-0.2s-0.3-0.1-0.6-0.1s-0.4,0-0.6,0.1s-0.3,0.1-0.4,0.2
		s-0.2,0.2-0.3,0.4S89,16.6,89,16.7s-0.1,0.3-0.1,0.6s0,0.4,0,0.6s0,0.4,0,0.7v4.5c0,0.3,0,0.5,0,0.7s0,0.3,0,0.6s0,0.4,0.1,0.6
		s0.1,0.3,0.2,0.5s0.2,0.3,0.3,0.4S89.7,25.9,89.8,26z"/>
	<path class="st0" d="M97,28.3v-15h3v1.6c0.4-0.4,0.8-0.7,1.1-0.9s0.7-0.4,1.2-0.6s1-0.3,1.6-0.3c0.6,0,1.2,0.2,1.6,0.7
		s0.6,1,0.6,1.7v12.8h-3V17.1c0-0.5-0.1-0.9-0.2-1.1c-0.1-0.2-0.4-0.4-0.9-0.4c-0.3,0-0.5,0.1-0.8,0.2s-0.4,0.2-0.6,0.3
		c-0.1,0.1-0.3,0.2-0.5,0.4v11.9H97z"/>
	<path class="st0" d="M117.7,28.5c-1.2,0-2-0.3-2.6-0.9s-0.8-1.5-0.8-2.7v-9.3h-1.5v-2.2h1.5V8.1h3v5.2h2.2v2.2h-2.2v8.8
		c0,0.6,0.1,1,0.2,1.3s0.5,0.4,1,0.4c0.2,0,0.6,0,1-0.1v2.4C118.8,28.5,118.1,28.5,117.7,28.5z"/>
	<path class="st0" d="M129.4,27.1c-0.7,0.9-1.8,1.4-3.5,1.4s-2.8-0.5-3.5-1.4s-1-2.3-1-4.1v-4.5c0-1.8,0.3-3.1,1-4.1
		s1.8-1.4,3.5-1.4s2.8,0.5,3.5,1.4s1,2.3,1,4.1v4.5C130.4,24.8,130.1,26.2,129.4,27.1z M125.4,26c0.2,0.1,0.3,0.1,0.6,0.1
		s0.4,0,0.6-0.1s0.3-0.1,0.4-0.2s0.2-0.2,0.3-0.4s0.1-0.3,0.2-0.5s0.1-0.3,0.1-0.6s0-0.4,0-0.6s0-0.4,0-0.7v-4.5c0-0.3,0-0.5,0-0.7
		s0-0.3,0-0.6s0-0.4-0.1-0.6s-0.1-0.3-0.2-0.5s-0.2-0.3-0.3-0.4s-0.2-0.2-0.4-0.2s-0.3-0.1-0.6-0.1s-0.4,0-0.6,0.1s-0.3,0.1-0.4,0.2
		s-0.2,0.2-0.3,0.4s-0.1,0.3-0.2,0.5s-0.1,0.3-0.1,0.6s0,0.4,0,0.6s0,0.4,0,0.7v4.5c0,0.3,0,0.5,0,0.7s0,0.3,0,0.6s0,0.4,0.1,0.6
		s0.1,0.3,0.2,0.5s0.2,0.3,0.3,0.4S125.2,25.9,125.4,26z"/>
</g>
<g>
	<path class="st1" d="M136.8,28.3v-21h4.1l3,16.1l3-16.1h4.1v21h-3V11.7l-3,16.6h-2.2l-3-16.6v16.6H136.8z"/>
	<path class="st1" d="M156.6,28.5c-0.8,0-1.5-0.4-2.1-1.1s-0.9-1.5-0.9-2.4c0-0.7,0.1-1.4,0.4-2s0.5-1.1,0.8-1.4s0.7-0.7,1.4-1.1
		s1.1-0.6,1.5-0.8s0.9-0.4,1.7-0.7c0.1-0.1,0.2-0.1,0.3-0.1v-1.1c0-0.8-0.1-1.3-0.3-1.8c-0.2-0.4-0.6-0.6-1.2-0.6
		c-0.5,0-0.9,0.2-1.1,0.5c-0.2,0.4-0.4,0.8-0.4,1.5c0,0.1,0,0.2,0,0.4h-3c0-1.4,0.4-2.6,1.2-3.4s1.9-1.3,3.3-1.3
		c1.4,0,2.5,0.4,3.3,1.3s1.2,2,1.2,3.4v6.8c0,1.6,0.1,2.8,0.4,3.8h-3l-0.4-2.2c-0.2,0.3-0.3,0.6-0.4,0.7s-0.2,0.4-0.4,0.6
		s-0.4,0.4-0.6,0.6s-0.4,0.3-0.7,0.4S156.9,28.5,156.6,28.5z M158.1,26.1c0.2,0,0.4-0.1,0.6-0.2s0.4-0.2,0.5-0.4s0.2-0.3,0.4-0.5
		c0,0,0-0.1,0.1-0.1v-4.1c-0.1,0.1-0.3,0.2-0.6,0.4s-0.5,0.3-0.7,0.4s-0.4,0.3-0.6,0.5s-0.4,0.4-0.6,0.6s-0.2,0.4-0.4,0.7
		s-0.2,0.5-0.2,0.8C156.6,25.4,157.1,26.1,158.1,26.1z"/>
	<path class="st1" d="M165,28.3v-15h3v2c0.3-0.6,0.7-1.1,1.3-1.6s1.2-0.7,1.9-0.7c0,0,0.2,0,0.5,0v3.3c-0.6-0.2-1.1-0.3-1.7-0.3
		c-0.6,0-1.1,0.2-1.5,0.6s-0.6,0.9-0.6,1.5v10.1L165,28.3L165,28.3z"/>
	<path class="st1" d="M177.1,28.5c-1.2,0-2.2-0.4-3-1.1s-1.3-1.7-1.5-2.9l2.2-0.8c0.5,1.5,1.3,2.2,2.2,2.2c0.5,0,0.8-0.1,1.1-0.4
		s0.4-0.6,0.4-1.1c0-0.7-0.2-1.3-0.8-1.7l-3-2.2c-0.3-0.2-0.6-0.4-0.8-0.6s-0.5-0.4-0.7-0.7s-0.4-0.6-0.5-1s-0.2-0.8-0.2-1.2
		c0-1.3,0.4-2.3,1.2-2.9s1.9-1,3.3-1c0.6,0,1.2,0.1,1.8,0.3s1,0.5,1.3,0.9s0.6,0.8,0.9,1.2s0.4,1,0.5,1.5l-2.2,0.8
		c-0.1-0.3-0.2-0.6-0.3-0.8s-0.3-0.4-0.4-0.7s-0.4-0.4-0.6-0.6s-0.5-0.2-0.8-0.2c-0.5,0-0.8,0.1-1.1,0.4c-0.3,0.3-0.4,0.6-0.4,1.1
		c0,0.5,0.2,0.9,0.8,1.3l3,2.2c0.3,0.3,0.6,0.5,0.9,0.8s0.5,0.5,0.7,0.9s0.4,0.7,0.5,1.1s0.2,0.8,0.2,1.3c0,1.3-0.4,2.3-1.2,2.9
		S178.5,28.5,177.1,28.5z"/>
</g>
<rect x="0.4" y="36.7" class="st1" width="224.5" height="1"/>
<rect x="0.4" y="0.3" class="st1" width="224.5" height="1"/>
</svg>
