<?xml version="1.0" encoding="utf-8"?>
<!-- Generator: Adobe Illustrator 22.0.1, SVG Export Plug-In . SVG Version: 6.00 Build 0)  -->
<svg version="1.1" id="Layer_1" xmlns="http://www.w3.org/2000/svg" xmlns:xlink="http://www.w3.org/1999/xlink" x="0px" y="0px"
	 viewBox="0 0 225.4 38" style="enable-background:new 0 0 225.4 38;" xml:space="preserve">
<style type="text/css">
	.st0{fill:#D4D2CD;}
	.st1{fill:#83CEC1;}
</style>
<g>
	<path class="st0" d="M35.9,28.4c-0.4,0-0.6-0.3-0.6-0.8c0-0.3,0.1-0.5,0.3-0.6c0.2-0.1,0.6-0.2,1-0.2c0.3,0,0.6,0,0.8-0.1
		c0.2,0,0.4-0.1,0.6-0.2c0.2-0.1,0.3-0.2,0.4-0.4s0.1-0.5,0.1-0.8v-6.4c0-3,0-4.6-0.1-4.8c0-0.1-0.1-0.2-0.2-0.2
		c-0.1,0-0.3,0.1-0.4,0.3c-0.8,1.2-1.8,2.9-3,5.2c-1.2,2.2-2.3,4.2-3.2,6c-0.9,1.7-1.4,2.7-1.6,2.9c-0.2,0.2-0.4,0.4-0.7,0.4
		c-0.4,0-0.7-0.4-1.1-1.2c-1-2-2.1-4.2-3.4-6.4s-2.3-4-3.1-5.2c-0.8-1.3-1.3-1.9-1.3-2c0,0,0,0-0.1,0c-0.1,0-0.1,0-0.1,0.1
		c-0.1,2.1-0.2,4.2-0.2,6.2c0,1.7,0,3.5,0.1,5.3c0,0.6,0.1,0.9,0.2,1c0.2,0.1,0.5,0.2,1,0.2s0.9,0.1,1.2,0.2s0.5,0.4,0.5,0.8
		c0,0.5-0.2,0.7-0.5,0.7c0,0-0.1,0-0.2,0c-0.1,0-0.3,0-0.6,0s-0.5,0-0.8-0.1s-0.6,0-1,0c-0.4,0-0.7,0-1.1,0s-0.7,0-1.1,0s-0.7,0-1,0
		c-0.3,0-0.5,0-0.8,0.1c-0.2,0-0.4,0-0.5,0c-0.1,0-0.2,0-0.2,0c-0.4,0-0.6-0.2-0.6-0.7c0-0.1,0-0.3,0-0.4c0-0.1,0.1-0.2,0.1-0.3
		c0.1-0.1,0.1-0.1,0.2-0.2s0.2-0.1,0.3-0.1s0.3-0.1,0.4-0.1c0.1,0,0.3,0,0.5-0.1c0.2,0,0.4,0,0.6-0.1c0.2,0,0.3-0.1,0.4-0.1
		c0.1,0,0.2-0.1,0.3-0.1c0.1,0,0.1-0.1,0.1-0.3c0-0.1,0.1-0.2,0.1-0.3c0-0.1,0-0.2,0-0.4c0-0.2,0-0.3,0-0.4
		c0.5-6.1,0.7-10.5,0.7-13.3c0-0.2-0.1-0.5-0.3-0.8c0,0-0.1-0.2-0.4-0.4s-0.4-0.5-0.6-0.6c-0.2-0.1-0.4-0.3-0.8-0.5S16,9.2,15.6,9.2
		C15.2,9.2,15,9,15,8.7c0-0.2,0-0.3,0.1-0.4c0.1-0.1,0.1-0.2,0.2-0.2c0.1,0,0.1,0,0.2,0h4.3c0.3,0,0.6,0.1,0.8,0.4l5.7,9.4l3.5,5.5
		c0.1,0.2,0.3,0.3,0.5,0.3c0.2,0,0.3-0.1,0.4-0.3l8.2-15.1C38.9,8.1,39.1,8,39.4,8h4.3c0.1,0,0.2,0,0.2,0c0,0,0.1,0.1,0.1,0.2
		c0,0.1,0.1,0.3,0.1,0.4c0,0.2,0,0.3-0.1,0.4c0,0.1-0.1,0.2-0.3,0.2c-0.1,0.1-0.3,0.1-0.5,0.1c-0.2,0-0.4,0.1-0.7,0.1
		c-0.3,0.1-0.6,0.1-0.8,0.2c-0.5,0.1-0.7,0.4-0.7,0.9c0,3.3,0.1,6.1,0.1,8.3c0,2.3,0,3.8,0.1,4.5c0,0.7,0,1.3,0,1.6v0.2
		c0,0.3,0,0.6,0,0.7c0,0.1,0.1,0.3,0.3,0.5c0.2,0.2,0.4,0.3,0.7,0.3c0.1,0,0.3,0,0.5,0s0.4,0,0.5,0s0.2,0,0.4,0s0.2,0.1,0.3,0.1
		c0.1,0,0.1,0.1,0.2,0.2s0.1,0.1,0.1,0.2c0,0.1,0,0.2,0,0.3c0,0.2-0.1,0.4-0.2,0.5c-0.1,0.1-0.3,0.2-0.4,0.2l-0.6-0.1
		c-0.4,0-0.9,0-1.5-0.1s-1.2,0-1.8,0c-0.4,0-0.8,0-1.2,0s-0.7,0-1,0s-0.6,0-0.8,0.1c-0.2,0-0.4,0-0.6,0S36,28.4,35.9,28.4z"/>
	<path class="st0" d="M47.1,24.6c0-1,0-2,0-2.8s0-1.6,0-2.1c0-0.5,0-0.8,0-0.9c0-0.2-0.1-0.4-0.2-0.5s-0.7-0.3-1.8-0.8
		c-0.3-0.1-0.4-0.2-0.4-0.4c0-0.1,0-0.1,0-0.2s0.1-0.1,0.1-0.1s0.1-0.1,0.2-0.1s0.1-0.1,0.2-0.1c0.1,0,0.2-0.1,0.2-0.1
		c2.2-1.1,3.3-1.6,3.3-1.6h0c0.3,0,0.4,0.2,0.4,0.5l0,1c0,0.6-0.1,1.5-0.1,2.6s0,2.2,0,3.2v1c0,1.9,0,2.9,0.1,3.3s0.3,0.5,0.6,0.6
		c0.6,0.1,1,0.1,1.1,0.2s0.2,0.2,0.2,0.4c0,0.4-0.1,0.6-0.4,0.6c0,0-0.1,0-0.2,0s-0.2,0-0.4,0s-0.4,0-0.6-0.1s-0.5,0-0.7,0
		c-0.3,0-0.6,0-0.8,0c-0.3,0-0.6,0-0.8,0s-0.5,0-0.7,0s-0.4,0-0.6,0.1s-0.3,0-0.4,0c-0.1,0-0.2,0-0.2,0c-0.3,0-0.5-0.2-0.5-0.5
		s0.1-0.5,0.2-0.6s0.6-0.1,1.3-0.2c0.4-0.1,0.6-0.2,0.7-0.3s0.1-0.4,0.1-0.7L47.1,24.6L47.1,24.6z M47.4,9.7c0-0.4,0.1-0.7,0.4-1
		s0.6-0.4,1-0.4s0.7,0.1,1,0.4c0.3,0.3,0.4,0.6,0.4,1c0,0.4-0.1,0.8-0.4,1c-0.3,0.3-0.6,0.4-1,0.4s-0.8-0.1-1-0.4
		C47.5,10.5,47.4,10.1,47.4,9.7z"/>
	<path class="st0" d="M52.5,19.1c0-1,0.4-1.8,1.2-2.5c0.8-0.7,1.8-1.1,3.1-1.1c0.3,0,0.5,0,0.7,0c0.2,0,0.4,0.1,0.5,0.1
		c0.1,0,0.2,0,0.2,0c0.1,0,0.2,0,0.4-0.1c0.2-0.1,0.3-0.1,0.4-0.1c0.2,0,0.4,0.2,0.5,0.6c0.1,0.3,0.1,0.7,0.2,1.3
		c0.1,0.5,0.2,1,0.3,1.4c0.1,0.4,0.1,0.6,0.1,0.6c0,0.3-0.2,0.4-0.7,0.4c-0.2,0-0.3-0.1-0.4-0.2c-0.1-0.1-0.2-0.3-0.2-0.6
		s-0.2-0.5-0.3-0.6c-0.2-0.3-0.6-0.5-1-0.8c-0.5-0.2-1-0.4-1.4-0.4c-0.5,0-1,0.1-1.3,0.4s-0.6,0.7-0.6,1.1c0,1,0.8,1.7,2.4,2.1
		c0.2,0.1,0.5,0.1,0.9,0.2c0.4,0.1,0.7,0.2,0.9,0.2s0.5,0.1,0.8,0.3c0.3,0.1,0.6,0.3,0.8,0.4s0.5,0.4,0.7,0.6
		c0.6,0.7,0.9,1.5,0.9,2.4c0,1.1-0.4,2-1.3,2.8s-2,1.2-3.3,1.2c-0.8,0-1.5-0.1-2.3-0.4s-1.4-0.6-1.8-1.1c-0.2-0.3-0.4-0.6-0.4-1
		c0-0.3,0-0.7,0-1.1s0-0.6,0-0.7c0-0.4,0-0.6,0.1-0.8c0.1-0.1,0.2-0.2,0.4-0.2c0.2,0,0.4,0.1,0.4,0.3c0.1,0.2,0.1,0.4,0.1,0.8
		c0,0.3,0.1,0.6,0.2,0.8c0.2,0.4,0.6,0.8,1.2,1.2c0.7,0.4,1.4,0.6,2.2,0.6c0.7,0,1.3-0.2,1.7-0.6s0.7-0.8,0.7-1.4
		c0-0.4-0.1-0.7-0.2-1c-0.2-0.3-0.4-0.5-0.8-0.7c-0.4-0.2-0.6-0.3-0.8-0.4c-0.2-0.1-0.6-0.2-1-0.3l-0.7-0.1
		C53.6,22,52.5,20.8,52.5,19.1z"/>
	<path class="st0" d="M62.6,19.1c0-1,0.4-1.8,1.2-2.5c0.8-0.7,1.8-1.1,3.1-1.1c0.3,0,0.5,0,0.7,0c0.2,0,0.4,0.1,0.5,0.1
		c0.1,0,0.2,0,0.2,0c0.1,0,0.2,0,0.4-0.1s0.3-0.1,0.4-0.1c0.2,0,0.4,0.2,0.5,0.6c0.1,0.3,0.1,0.7,0.2,1.3c0.1,0.5,0.2,1,0.3,1.4
		c0.1,0.4,0.1,0.6,0.1,0.6c0,0.3-0.2,0.4-0.7,0.4c-0.2,0-0.3-0.1-0.4-0.2c-0.1-0.1-0.2-0.3-0.2-0.6s-0.2-0.5-0.3-0.6
		c-0.2-0.3-0.6-0.5-1-0.8c-0.5-0.2-1-0.4-1.4-0.4c-0.5,0-1,0.1-1.3,0.4s-0.6,0.7-0.6,1.1c0,1,0.8,1.7,2.4,2.1
		c0.2,0.1,0.5,0.1,0.9,0.2c0.4,0.1,0.7,0.2,0.9,0.2c0.2,0.1,0.5,0.1,0.8,0.3c0.3,0.1,0.6,0.3,0.8,0.4c0.2,0.2,0.5,0.4,0.7,0.6
		c0.6,0.7,0.9,1.5,0.9,2.4c0,1.1-0.4,2-1.3,2.8s-1.9,1.2-3.3,1.2c-0.8,0-1.5-0.1-2.3-0.4c-0.8-0.3-1.4-0.6-1.8-1.1
		c-0.2-0.3-0.4-0.6-0.4-1c0-0.3,0-0.7,0-1.1s0-0.6,0-0.7c0-0.4,0-0.6,0.1-0.8c0.1-0.1,0.2-0.2,0.4-0.2c0.2,0,0.4,0.1,0.4,0.3
		c0.1,0.2,0.1,0.4,0.1,0.8c0,0.3,0.1,0.6,0.2,0.8c0.2,0.4,0.6,0.8,1.2,1.2c0.7,0.4,1.4,0.6,2.2,0.6c0.7,0,1.3-0.2,1.7-0.6
		s0.7-0.8,0.7-1.4c0-0.4-0.1-0.7-0.2-1c-0.2-0.3-0.4-0.5-0.8-0.7c-0.4-0.2-0.6-0.3-0.8-0.4c-0.2-0.1-0.6-0.2-1-0.3l-0.7-0.1
		C63.7,22,62.6,20.8,62.6,19.1z"/>
	<path class="st0" d="M74.6,24.6c0-1,0-2,0-2.8s0-1.6,0-2.1c0-0.5,0-0.8,0-0.9c0-0.2-0.1-0.4-0.2-0.5s-0.7-0.3-1.8-0.8
		c-0.3-0.1-0.4-0.2-0.4-0.4c0-0.1,0-0.1,0-0.2s0.1-0.1,0.1-0.1c0.1,0,0.1-0.1,0.2-0.1s0.1-0.1,0.2-0.1s0.2-0.1,0.2-0.1
		c2.2-1.1,3.3-1.6,3.3-1.6h0c0.3,0,0.4,0.2,0.4,0.5l0,1c0,0.6-0.1,1.5-0.1,2.6s0,2.2,0,3.2v1c0,1.9,0,2.9,0.1,3.3s0.3,0.5,0.6,0.6
		c0.6,0.1,1,0.1,1.1,0.2s0.2,0.2,0.2,0.4c0,0.4-0.1,0.6-0.4,0.6c0,0-0.1,0-0.2,0s-0.2,0-0.4,0s-0.4,0-0.6-0.1s-0.5,0-0.7,0
		c-0.3,0-0.6,0-0.8,0s-0.6,0-0.8,0s-0.5,0-0.7,0s-0.4,0-0.6,0.1s-0.3,0-0.4,0s-0.2,0-0.2,0c-0.3,0-0.5-0.2-0.5-0.5s0.1-0.5,0.2-0.6
		c0.1-0.1,0.6-0.1,1.3-0.2c0.4-0.1,0.6-0.2,0.7-0.3s0.1-0.4,0.1-0.7L74.6,24.6L74.6,24.6z M74.9,9.7c0-0.4,0.1-0.7,0.4-1
		s0.6-0.4,1-0.4s0.7,0.1,1,0.4c0.3,0.3,0.4,0.6,0.4,1c0,0.4-0.1,0.8-0.4,1c-0.3,0.3-0.6,0.4-1,0.4s-0.8-0.1-1-0.4
		S74.9,10.1,74.9,9.7z"/>
	<path class="st0" d="M79.7,22.2c0-2,0.6-3.7,1.9-4.9c1.3-1.3,2.7-1.9,4.5-1.9c1.8,0,3.3,0.6,4.5,1.9c1.2,1.3,1.8,2.9,1.8,4.9
		c0,2-0.6,3.7-1.9,4.9s-2.8,1.8-4.5,1.8c-1.8,0-3.3-0.6-4.5-1.9C80.3,25.6,79.7,24,79.7,22.2z M83,25.8c0.8,1,1.8,1.5,3,1.5
		s2.3-0.5,3.1-1.5c0.8-1,1.2-2.2,1.2-3.5c0-1.5-0.4-2.8-1.3-3.9s-1.9-1.6-3.1-1.6c-1,0-1.9,0.4-2.7,1.3c-0.8,0.9-1.2,2.2-1.2,3.9
		C81.9,23.6,82.3,24.8,83,25.8z"/>
	<path class="st0" d="M96.8,17c0,0.1,0,0.1,0.1,0.1h0c0,0,0.1-0.1,0.2-0.2s0.3-0.3,0.5-0.4c0.2-0.2,0.5-0.4,0.8-0.5
		c0.3-0.2,0.7-0.3,1.2-0.5c0.5-0.1,0.9-0.2,1.4-0.2h0.1c0.4,0,0.8,0.1,1.2,0.2c0.4,0.1,0.8,0.3,1.3,0.6c0.5,0.3,0.9,0.7,1.2,1.3
		c0.3,0.6,0.5,1.4,0.6,2.2c0,0.3,0.1,0.8,0.1,1.5c0,0.1,0,0.3,0,0.6s0,0.8,0,1.6s0,1.8,0,3v0.1c0,0.1,0,0.2,0,0.3c0,0.1,0,0.2,0,0.2
		c0,0,0,0.1,0.1,0.1s0.1,0.1,0.1,0.1c0,0,0.1,0,0.2,0.1c0.1,0,0.2,0,0.2,0c0,0,0.1,0,0.3,0s0.3,0,0.3,0.1c0.3,0,0.4,0.2,0.4,0.6
		c0,0.4-0.2,0.6-0.5,0.6c-0.1,0-0.2,0-0.4,0s-0.5-0.1-0.9-0.1c-0.4,0-0.8,0-1.2,0c-0.3,0-0.5,0-0.8,0c-0.3,0-0.5,0-0.7,0
		s-0.4,0-0.5,0.1c-0.2,0-0.3,0-0.4,0.1h-0.1c-0.2,0-0.3-0.2-0.3-0.6c0-0.2,0.1-0.4,0.2-0.4s0.4-0.1,0.9-0.2c0.2,0,0.3-0.1,0.4-0.1
		c0.2,0,0.3-0.1,0.4-0.2s0.1-0.3,0.1-0.5v-4.6c0-1.5-0.1-2.5-0.4-3.2c-0.3-0.7-0.7-1.1-1.3-1.4s-1.1-0.4-1.7-0.4
		c-0.8,0-1.4,0.2-2.1,0.7c-0.6,0.5-0.9,0.9-1,1.2c0,0.2-0.1,0.3-0.1,0.4v7.1v0.1c0,0.5,0.2,0.8,0.7,0.8c0.9,0.1,1.4,0.2,1.4,0.3
		c0.1,0.1,0.2,0.3,0.2,0.5c0,0.4-0.1,0.5-0.4,0.5c0,0-0.1,0-0.2,0s-0.2,0-0.4,0s-0.4,0-0.6-0.1c-0.2,0-0.5,0-0.7-0.1s-0.6,0-0.8,0
		c-0.3,0-0.5,0-0.8,0c-0.3,0-0.5,0-0.7,0s-0.4,0-0.5,0.1c-0.2,0-0.3,0-0.4,0c-0.1,0-0.2,0-0.2,0c-0.3,0-0.5-0.2-0.5-0.5
		c0-0.3,0.1-0.4,0.2-0.5s0.5-0.1,1-0.2c0.4-0.1,0.6-0.2,0.7-0.3c0.1-0.2,0.1-0.4,0.1-0.7V19c0-0.4,0-0.6-0.1-0.7
		c-0.1-0.1-0.5-0.5-1.2-1c-0.1-0.1-0.2-0.2-0.2-0.3v0c0-0.1,0.1-0.2,0.2-0.3c0.1-0.1,0.6-0.3,1.3-0.7c0.5-0.3,1-0.5,1.4-0.7
		c0.1-0.1,0.2-0.1,0.3-0.1c0.2,0,0.4,0.1,0.4,0.4v1.2C96.9,16.8,96.9,16.9,96.8,17L96.8,17L96.8,17z"/>
	<path class="st0" d="M116.2,17.3c-0.4,0-0.6-0.1-0.6-0.4c0-0.1,0.1-0.3,0.4-0.6s0.7-0.7,1.2-1.2c0.5-0.6,1-1.2,1.5-2
		c0.2-0.4,0.4-0.6,0.6-0.6c0.3,0,0.4,0.2,0.4,0.5c0,0.1,0,0.5,0,1c0,0.6,0,0.9,0,1c0,0.4,0.2,0.6,0.6,0.6h2.7c0,0,0.1,0,0.1,0
		c0.1,0,0.1,0,0.1,0c0.5,0,0.8,0.2,0.8,0.6c0,0.4-0.1,0.7-0.3,0.9c-0.1,0.1-0.3,0.1-0.5,0.1h-3.5c-0.2,0-0.3,0.1-0.3,0.3
		c0,1.6,0,3,0,4.1c0,1.1,0,1.8,0,2.2c0,0.4,0,0.6,0,0.8c0,1.5,0.5,2.2,1.6,2.2c0.4,0,0.8-0.2,1.3-0.5c0.5-0.3,0.8-0.6,1.2-1
		c0.3-0.3,0.6-0.5,0.8-0.5c0.2,0,0.3,0.1,0.4,0.2s0.2,0.2,0.2,0.4c0,0.1-0.1,0.3-0.2,0.5c-1.6,1.8-3,2.7-4.2,2.7
		c-0.7,0-1.4-0.3-2-0.9s-0.9-1.5-1-2.7c0-0.2,0-0.5,0-1c0-0.5,0-1.7,0.1-3.6s0.1-2.9,0.1-3.1s-0.1-0.3-0.2-0.3L116.2,17.3
		L116.2,17.3z"/>
	<path class="st0" d="M125.7,22.2c0-2,0.6-3.7,1.9-4.9c1.3-1.3,2.7-1.9,4.5-1.9c1.8,0,3.3,0.6,4.5,1.9c1.2,1.3,1.8,2.9,1.8,4.9
		c0,2-0.6,3.7-1.9,4.9s-2.8,1.8-4.5,1.8c-1.8,0-3.3-0.6-4.5-1.9C126.3,25.6,125.7,24,125.7,22.2z M129,25.8c0.8,1,1.8,1.5,3,1.5
		c1.2,0,2.3-0.5,3.1-1.5c0.8-1,1.2-2.2,1.2-3.5c0-1.5-0.4-2.8-1.3-3.9s-1.9-1.6-3.1-1.6c-1,0-1.9,0.4-2.7,1.3
		c-0.8,0.9-1.2,2.2-1.2,3.9C127.8,23.6,128.2,24.8,129,25.8z"/>
</g>
<g>
	<path class="st1" d="M168.6,28.4c-0.4,0-0.6-0.3-0.6-0.8c0-0.3,0.1-0.5,0.3-0.6s0.6-0.2,1-0.2c0.3,0,0.6,0,0.8-0.1
		c0.2,0,0.4-0.1,0.6-0.2c0.2-0.1,0.3-0.2,0.4-0.4s0.1-0.5,0.1-0.8v-6.4c0-3,0-4.6-0.1-4.8c0-0.1-0.1-0.2-0.2-0.2
		c-0.1,0-0.3,0.1-0.4,0.3c-0.8,1.2-1.8,2.9-3,5.2c-1.2,2.2-2.3,4.2-3.2,6c-0.9,1.7-1.4,2.7-1.6,2.9c-0.2,0.2-0.4,0.4-0.7,0.4
		c-0.4,0-0.7-0.4-1.1-1.2c-1-2-2.1-4.2-3.4-6.4s-2.3-4-3.1-5.2c-0.8-1.3-1.3-1.9-1.4-2c0,0,0,0-0.1,0c-0.1,0-0.1,0-0.1,0.1
		c-0.1,2.1-0.2,4.2-0.2,6.2c0,1.7,0,3.5,0.1,5.3c0,0.6,0.1,0.9,0.2,1c0.2,0.1,0.5,0.2,1,0.2c0.5,0,0.9,0.1,1.2,0.2
		c0.3,0.1,0.5,0.4,0.5,0.8c0,0.5-0.2,0.7-0.5,0.7c0,0-0.1,0-0.2,0s-0.3,0-0.6,0s-0.5,0-0.8-0.1c-0.3,0-0.6,0-1,0s-0.7,0-1.1,0
		c-0.3,0-0.7,0-1.1,0s-0.7,0-1,0c-0.3,0-0.5,0-0.8,0.1c-0.2,0-0.4,0-0.5,0c-0.1,0-0.2,0-0.2,0c-0.4,0-0.6-0.2-0.6-0.7
		c0-0.1,0-0.3,0-0.4c0-0.1,0.1-0.2,0.1-0.3c0.1-0.1,0.1-0.1,0.2-0.2c0.1,0,0.2-0.1,0.3-0.1c0.2,0,0.3-0.1,0.4-0.1s0.3,0,0.5-0.1
		c0.2,0,0.4,0,0.6-0.1c0.2,0,0.3-0.1,0.4-0.1c0.1,0,0.2-0.1,0.3-0.1c0.1,0,0.1-0.1,0.1-0.3c0-0.1,0.1-0.2,0.1-0.3c0-0.1,0-0.2,0-0.4
		c0-0.2,0-0.3,0-0.4c0.5-6.1,0.7-10.5,0.7-13.3c0-0.2-0.1-0.5-0.3-0.8c0,0-0.1-0.2-0.4-0.4s-0.4-0.5-0.6-0.6s-0.4-0.3-0.8-0.5
		s-0.7-0.2-1.1-0.2c-0.4-0.1-0.6-0.2-0.6-0.5c0-0.2,0-0.3,0.1-0.4c0.1-0.1,0.1-0.2,0.2-0.2c0.1,0,0.1,0,0.2,0h4.3
		c0.3,0,0.6,0.1,0.8,0.4l5.7,9.4l3.5,5.5c0.1,0.2,0.3,0.3,0.5,0.3c0.2,0,0.3-0.1,0.4-0.3l8.2-15.1c0.1-0.2,0.3-0.3,0.5-0.3h4.3
		c0.1,0,0.2,0,0.2,0c0,0,0.1,0.1,0.1,0.2c0,0.1,0.1,0.3,0.1,0.4c0,0.2,0,0.3-0.1,0.4c0,0.1-0.1,0.2-0.3,0.2
		c-0.1,0.1-0.3,0.1-0.5,0.1s-0.4,0.1-0.7,0.1c-0.3,0.1-0.6,0.1-0.9,0.2c-0.5,0.1-0.7,0.4-0.7,0.9c0,3.3,0.1,6.1,0.1,8.3
		c0,2.3,0,3.8,0.1,4.5c0,0.7,0,1.3,0,1.6v0.2c0,0.3,0,0.6,0,0.7c0,0.1,0.1,0.3,0.3,0.5c0.2,0.2,0.4,0.3,0.7,0.3c0.1,0,0.3,0,0.5,0
		c0.2,0,0.4,0,0.5,0s0.2,0,0.4,0c0.1,0,0.2,0.1,0.3,0.1c0.1,0,0.1,0.1,0.2,0.2s0.1,0.1,0.1,0.2c0,0.1,0,0.2,0,0.3
		c0,0.2-0.1,0.4-0.2,0.5c-0.1,0.1-0.3,0.2-0.4,0.2l-0.6-0.1c-0.4,0-0.9,0-1.5-0.1s-1.2,0-1.8,0c-0.4,0-0.8,0-1.2,0s-0.7,0-1,0
		s-0.6,0-0.8,0.1c-0.2,0-0.4,0-0.6,0C168.7,28.4,168.6,28.4,168.6,28.4z"/>
	<path class="st1" d="M177.8,18c0-0.6,0.5-1.2,1.4-1.8c0.9-0.6,2-0.9,3.1-0.9c0.4,0,0.7,0,1.1,0.1c0.4,0.1,0.8,0.2,1.3,0.4
		c0.5,0.2,0.9,0.5,1.2,1c0.3,0.5,0.5,1.1,0.6,1.8c0,0.5,0.1,0.8,0.1,1.1v5.8c0,0.3,0.1,0.6,0.2,0.8c0.1,0.2,0.3,0.3,0.4,0.4
		c0.1,0,0.3,0.1,0.4,0.1c0.3,0,0.5-0.1,0.6-0.2s0.3-0.3,0.4-0.5c0.1-0.2,0.2-0.2,0.3-0.2c0.2,0,0.3,0.1,0.3,0.4c0,0.5-0.2,1-0.6,1.5
		s-1,0.8-1.7,0.8c-0.3,0-0.5,0-0.7-0.1c-0.2-0.1-0.4-0.2-0.6-0.3s-0.3-0.3-0.4-0.4c-0.1-0.1-0.2-0.2-0.3-0.3l-0.1-0.1c0,0,0,0,0,0
		c0,0,0,0,0,0c0,0-0.1,0-0.1,0.1c0,0-0.1,0.1-0.2,0.2c-0.1,0.1-0.3,0.3-0.5,0.4c-0.9,0.6-1.8,0.9-2.8,0.9c-1,0-1.8-0.3-2.4-1
		c-0.6-0.6-0.9-1.4-0.9-2.4v0c0-1.1,0.4-2,1.3-2.7c0.3-0.2,0.7-0.4,1.1-0.6c0.5-0.2,0.9-0.3,1.4-0.4c0.5-0.1,0.9-0.2,1.3-0.2
		c0.4-0.1,0.7-0.1,1-0.1l0.4,0c0.2,0,0.2-0.2,0.2-0.4v-1.1c0-1-0.2-1.8-0.7-2.4c-0.5-0.5-1.1-0.8-1.8-0.8c-1,0-1.8,0.7-2.4,2
		c-0.2,0.2-0.4,0.3-0.7,0.3c-0.3,0-0.6-0.1-0.9-0.3C177.9,18.6,177.8,18.3,177.8,18z M182,27.1c0.5,0,0.9-0.1,1.3-0.3
		c0.4-0.2,0.7-0.4,0.8-0.5c0.2-0.2,0.3-0.3,0.4-0.4c0.1-0.2,0.2-0.4,0.2-0.7v-0.7v-1.2c0-0.4,0-0.6,0-0.7s-0.1-0.2-0.3-0.2
		c-0.5,0-1.1,0.1-1.8,0.2s-1.3,0.4-1.8,0.8c-0.5,0.4-0.7,0.9-0.7,1.6c0,0.7,0.2,1.3,0.6,1.6C181,27,181.4,27.1,182,27.1z"/>
	<path class="st1" d="M193.8,16.9c0,0,0.2-0.1,0.6-0.4s0.9-0.6,1.4-0.9s0.9-0.5,1.1-0.6s0.5-0.1,0.9-0.1c0.5,0,1.1,0.1,1.6,0.4
		s0.8,0.6,0.8,1v0c0,0.1,0,0.2-0.1,0.4s-0.1,0.2-0.2,0.3s-0.2,0.1-0.3,0.3l-0.2,0.2c0,0-0.1,0.1-0.3,0.2s-0.3,0.2-0.5,0.3
		s-0.3,0.1-0.4,0.1c-0.2,0-0.5-0.1-0.8-0.4s-0.6-0.4-1-0.4c-0.4,0-0.9,0.2-1.4,0.5s-0.8,0.6-0.9,0.8c-0.1,0.1-0.1,0.3-0.1,0.6v7.2
		v0.1c0,0.6,0.2,0.9,0.7,0.9c0.2,0,0.5,0,0.8,0.1c0.6,0,1,0.1,1.2,0.2s0.2,0.2,0.2,0.5c0,0.4,0.2,0.6,0.7,0.6c0,0,0,0-0.2,0
		c-0.2,0-0.5,0-1,0c-0.5,0-0.9-0.1-1.1-0.1c-0.2,0-0.5,0-0.8,0s-0.6,0-0.9,0c-0.3,0-0.6,0-0.9,0s-0.6,0-0.8,0s-0.5,0-0.6,0.1
		s-0.3,0-0.4,0s-0.2,0-0.2,0c-0.3,0-0.5-0.2-0.5-0.5c0-0.2,0-0.3,0.1-0.4c0.1-0.1,0.2-0.2,0.2-0.2c0.1,0,0.2-0.1,0.5-0.1
		s0.4-0.1,0.5-0.1c0.4-0.1,0.6-0.3,0.6-0.7v-7.9c0-0.1,0-0.2,0-0.3c0-0.1-0.1-0.1-0.2-0.2s-0.2-0.2-0.3-0.2
		c-0.1-0.1-0.3-0.2-0.5-0.3c-0.3-0.2-0.5-0.3-0.7-0.5c-0.1-0.1-0.1-0.1-0.1-0.2c0-0.1,0.4-0.3,1.2-0.7c0.7-0.4,1.4-0.7,2-1
		c0,0,0,0,0.1,0c0.1,0,0.1-0.1,0.2-0.1c0.2,0,0.4,0.2,0.4,0.6v1.2C193.7,16.9,193.7,16.9,193.8,16.9z"/>
	<path class="st1" d="M201.1,19.1c0-1,0.4-1.8,1.2-2.5c0.8-0.7,1.8-1.1,3.1-1.1c0.3,0,0.5,0,0.7,0s0.4,0.1,0.5,0.1s0.2,0,0.2,0
		c0.1,0,0.2,0,0.4-0.1s0.3-0.1,0.4-0.1c0.2,0,0.4,0.2,0.5,0.6c0.1,0.3,0.1,0.7,0.2,1.3c0.1,0.5,0.2,1,0.3,1.4
		c0.1,0.4,0.1,0.6,0.1,0.6c0,0.3-0.2,0.4-0.7,0.4c-0.2,0-0.3-0.1-0.4-0.2c-0.1-0.1-0.2-0.3-0.2-0.6c-0.1-0.3-0.2-0.5-0.3-0.6
		c-0.2-0.3-0.6-0.5-1-0.8s-1-0.4-1.4-0.4c-0.5,0-1,0.1-1.3,0.4s-0.6,0.7-0.6,1.1c0,1,0.8,1.7,2.4,2.1c0.2,0.1,0.5,0.1,0.9,0.2
		s0.7,0.2,0.9,0.2s0.5,0.1,0.8,0.3s0.6,0.3,0.8,0.4c0.2,0.2,0.5,0.4,0.7,0.6c0.6,0.7,0.9,1.5,0.9,2.4c0,1.1-0.4,2-1.3,2.8
		c-0.8,0.8-2,1.2-3.3,1.2c-0.8,0-1.5-0.1-2.3-0.4s-1.4-0.6-1.8-1.1c-0.2-0.3-0.4-0.6-0.4-1c0-0.3,0-0.7,0-1.1s0-0.6,0-0.7
		c0-0.4,0-0.6,0.1-0.8s0.2-0.2,0.4-0.2s0.4,0.1,0.4,0.3c0.1,0.2,0.1,0.4,0.1,0.8s0.1,0.6,0.2,0.8c0.2,0.4,0.6,0.8,1.2,1.2
		c0.7,0.4,1.4,0.6,2.2,0.6c0.7,0,1.3-0.2,1.7-0.6s0.7-0.8,0.7-1.4c0-0.4-0.1-0.7-0.2-1s-0.4-0.5-0.8-0.7c-0.4-0.2-0.6-0.3-0.9-0.4
		c-0.2-0.1-0.6-0.2-1-0.3l-0.7-0.1C202.2,22,201.1,20.8,201.1,19.1z"/>
</g>
<rect x="0.4" y="36.7" class="st1" width="224.5" height="1"/>
<rect x="0.4" y="0.3" class="st1" width="224.5" height="1"/>
</svg>
